<?xml version="1.0" encoding="UTF-8" standalone="no"?>
<!-- Created with Inkscape (http://www.inkscape.org/) -->

<svg
   version="1.1"
   id="svg2"
   xml:space="preserve"
   width="4580.9199"
   height="2700"
   viewBox="0 0 4580.9199 2700"
   sodipodi:docname="aobr.eps"
   xmlns:inkscape="http://www.inkscape.org/namespaces/inkscape"
   xmlns:sodipodi="http://sodipodi.sourceforge.net/DTD/sodipodi-0.dtd"
   xmlns="http://www.w3.org/2000/svg"
   xmlns:svg="http://www.w3.org/2000/svg"><defs
     id="defs6"><clipPath
       clipPathUnits="userSpaceOnUse"
       id="clipPath28"><path
         d="M 24540.5,8624.6 H 8964.75 c -230.9,0 -418.08,187.2 -418.08,418.1 V 17863 c 0,230.9 187.18,418.1 418.08,418.1 H 24540.5 c 230.9,0 418.1,-187.2 418.1,-418.1 V 9042.7 c 0,-230.9 -187.2,-418.1 -418.1,-418.1"
         id="path26" /></clipPath><clipPath
       clipPathUnits="userSpaceOnUse"
       id="clipPath104"><path
         d="m 12221.2,11229.5 h -2124.5 c -35.8,0 -64.9,29.1 -64.9,64.9 v 1261.7 c 0,35.9 29.1,65 64.9,65 h 2124.5 c 35.8,0 64.9,-29.1 64.9,-65 v -1261.7 c 0,-35.8 -29.1,-64.9 -64.9,-64.9"
         id="path102" /></clipPath><clipPath
       clipPathUnits="userSpaceOnUse"
       id="clipPath118"><path
         d="m 12221.2,9677.9 h -2124.5 c -35.8,0 -64.9,29.1 -64.9,65 v 1261.7 c 0,35.8 29.1,64.9 64.9,64.9 h 2124.5 c 35.8,0 64.9,-29.1 64.9,-64.9 V 9742.9 c 0,-35.9 -29.1,-65 -64.9,-65"
         id="path116" /></clipPath><clipPath
       clipPathUnits="userSpaceOnUse"
       id="clipPath144"><path
         d="m 19174.3,11229.5 h -2124.5 c -35.8,0 -64.9,29.1 -64.9,64.9 v 1261.7 c 0,35.9 29.1,65 64.9,65 h 2124.5 c 35.9,0 64.9,-29.1 64.9,-65 v -1261.7 c 0,-35.8 -29,-64.9 -64.9,-64.9"
         id="path142" /></clipPath><clipPath
       clipPathUnits="userSpaceOnUse"
       id="clipPath158"><path
         d="m 19174.3,9677.9 h -2124.5 c -35.8,0 -64.9,29.1 -64.9,65 v 1261.7 c 0,35.8 29.1,64.9 64.9,64.9 h 2124.5 c 35.9,0 64.9,-29.1 64.9,-64.9 V 9742.9 c 0,-35.9 -29,-65 -64.9,-65"
         id="path156" /></clipPath><clipPath
       clipPathUnits="userSpaceOnUse"
       id="clipPath190"><path
         d="m 16311.7,8759.8 c 0,0 170.8,51.9 115.7,84.9 -55.1,33.1 -396.1,-84.9 -396.1,-84.9 l -1482.6,191.4 -91.9,-517.4 c 124.4,-7.1 1255.6,57.6 1496.9,71.6 0,0 776.8,-57.4 804.3,25.3 27.6,82.6 -446.3,229.1 -446.3,229.1"
         id="path188" /></clipPath><clipPath
       clipPathUnits="userSpaceOnUse"
       id="clipPath202"><path
         d="m 13295.9,7238.6 c 0,0 -99.7,-1754.3 -114.6,-2385.2 -14.9,-630.9 -499.6,-2537 -499.6,-2537 l -108.1,-16.2 -90.6,74.9 -229.7,2388.1 c 0,0 -729.3,2481.6 25.9,2975.4 l 1016.7,-500"
         id="path200" /></clipPath><clipPath
       clipPathUnits="userSpaceOnUse"
       id="clipPath216"><path
         d="m 13499.3,7262.2 c 0,0 105,1793.4 -545.2,2295.7 -470.8,363.8 -806.6,104.2 -806.6,104.2 0,0 -690.6,-437.3 -127.6,-1621.4 123.4,-259.6 -178.4,-659.8 -60.7,-955.3 158.2,-397.3 1394.2,-152.4 1540.1,176.8"
         id="path214" /></clipPath><clipPath
       clipPathUnits="userSpaceOnUse"
       id="clipPath250"><path
         d="m 12125,5822.1 c 0,0 -193.7,1104.4 -204.8,1367.5 H 11424 c 0,0 266.1,-1058.4 456.7,-1399.7 v 0 c 8.6,-222.1 179,-617.6 259.3,-583.3 85.5,36.4 -19.1,387.8 -30.4,412.3 -22.6,49.4 19.5,-3.4 61.8,-56.3 30.9,-38.5 61.8,-77.1 67.6,-75.9 57.5,12.7 -114,335.4 -114,335.4"
         id="path248" /></clipPath><clipPath
       clipPathUnits="userSpaceOnUse"
       id="clipPath320"><path
         d="m 23816.2,7057 -1163.6,505.7 c 0,0 -219.4,84 -314.4,8.5 -94.9,-75.4 -153.8,-261 -148.4,-288.1 5.4,-27 141.1,119 141.1,119 0,0 53.2,-0.5 117.4,-6.5 -44.7,-23.2 -107.1,-58.6 -107.1,-76 -0.1,-20.2 152.6,14.6 229.8,33.6 207.5,-181.5 963.2,-825.3 1195.2,-781.3 269.9,51.3 50,485.1 50,485.1"
         id="path318" /></clipPath><clipPath
       clipPathUnits="userSpaceOnUse"
       id="clipPath332"><path
         d="M 24002.6,6976.5 22016,6676.8 c 0,0 -221.9,-9.6 -268.7,-37.7 -46.8,-28.1 -149.8,-196.6 -149.8,-196.6 0,0 397.4,-16.1 496,45.8 0,0 1690.9,-130 2037.6,38.2 346.7,168.2 -128.5,450 -128.5,450"
         id="path330" /></clipPath><clipPath
       clipPathUnits="userSpaceOnUse"
       id="clipPath378"><path
         d="m 7274.44,9942.6 c 0,0 201.93,-611.5 -118.85,-608.7 -320.78,2.8 -531.68,362.7 -432.8,601.6 98.88,238.8 444.83,413 551.65,7.1"
         id="path376" /></clipPath><clipPath
       clipPathUnits="userSpaceOnUse"
       id="clipPath404"><path
         d="m 6715.29,8588.8 582.4,-948.9 c 0,0 852.83,-473.6 1122.01,-722.9 l -86.82,-147.4 c 0,0 -1316.77,376.6 -1501.86,530.9 -185.09,154.3 -550.59,690.1 -528.8,895.7 21.8,205.7 39.84,393.8 413.07,392.6"
         id="path402" /></clipPath><clipPath
       clipPathUnits="userSpaceOnUse"
       id="clipPath452"><path
         d="m 29657.4,9831 c 0,0 222,-563.2 452,-368.2 230,194.9 165.8,581.8 -49.2,694.8 -215.1,113 -569.8,30.8 -402.8,-326.6"
         id="path450" /></clipPath><clipPath
       clipPathUnits="userSpaceOnUse"
       id="clipPath524"><path
         d="M 4018.8,2085.3 H 3289.73 L 3041.85,3455.6 H 4219.63 L 4018.8,2085.3"
         id="path522" /></clipPath></defs><sodipodi:namedview
     id="namedview4"
     pagecolor="#ffffff"
     bordercolor="#666666"
     borderopacity="1.0"
     inkscape:pageshadow="2"
     inkscape:pageopacity="0.0"
     inkscape:pagecheckerboard="0" /><g
     id="g8"
     inkscape:groupmode="layer"
     inkscape:label="ink_ext_XXXXXX"
     transform="matrix(1.3333333,0,0,-1.3333333,0,2700)"><g
       id="g10"
       transform="scale(0.1)"><path
         d="M 0,0 H 34356.9 V 20250 H 0 Z"
         style="fill:#eaedf7;fill-opacity:1;fill-rule:nonzero;stroke:none"
         id="path12" /><path
         d="m 29319.2,12319.4 -532.8,-3.3 3.2,2.6 c -33.2,-163.3 -81.3,-323.6 -143.8,-478.2 -62.5,-154.6 -139,-303.6 -228.4,-444.6 l -1.1,10.4 375.2,-371.7 7.6,-7.6 -7.6,-7.7 -823.2,-830.8 -11.4,-11.5 -11.5,11.5 -371.9,369.3 22.6,-2.4 c -281.7,-184.8 -597.6,-317.8 -927.2,-389.8 l 16.9,20.9 1.6,-521.9 v -22.9 l -23,-0.1 -1169.6,-2.8 h -25.6 l -0.1,25.8 -1.2,521.9 21.3,-26.4 c -165.3,35.3 -327.5,85.4 -483.6,150.3 -156.2,64.8 -306.4,144 -448.3,236 l 36.1,3.8 -370.1,-371.2 -20.8,-20.9 -21,20.9 -828.2,825.9 -22.1,22 22.1,22.1 373.1,373.9 -4.2,-39.6 c -181.8,283.3 -311.7,599.9 -380.8,929.4 l 31.5,-25.6 -532.8,-0.2 h -32.5 v 32.5 l -0.6,1169.5 v 33.1 h 33.1 l 538.9,-0.3 -32.1,-25.7 c 72.1,326.1 203.6,638.8 386,918.4 l 4.2,-40.4 -384.4,384.7 -22.6,22.7 22.6,22.6 827.6,826.5 22.2,22.1 22,-22.1 386.9,-388 -38,4.1 c 279.5,178.6 591.1,306.5 915.3,375.7 l -22.9,-28.4 0.8,549.8 v 28.3 h 28.2 l 1169.6,-2.6 h 25.8 v -25.7 l -1.3,-549.8 -19.3,23.9 c 323.3,-70.4 633.9,-199 911.7,-378.4 l -27.4,-3 388.7,386.2 14.4,14.2 14.1,-14.2 824.2,-829.8 11.4,-11.5 -11.4,-11.4 -386.3,-382.7 1.8,17.1 c 179.7,-278.7 308.7,-589.7 378.4,-913.4 l -8.9,7.2 538.9,-2.5 h 6.7 v -6.7 z m 0,0 -6.6,1169.5 6.6,-6.6 -538.9,-2.5 h -7.3 l -1.6,7.2 c -72.2,320.9 -203,628.1 -383.5,902.4 l -6,9.2 7.8,7.9 382.8,386.3 v -22.9 l -829.9,824.3 h 28.5 l -386.2,-388.7 -12.4,-12.5 -14.9,9.5 c -274.6,174.7 -580.2,300.1 -898.3,367.6 l -19.2,4 -0.1,19.8 -1.3,549.8 25.7,-25.7 -1169.6,-2.5 28.3,28.2 0.8,-549.8 v -23.4 l -22.9,-5 c -317.3,-68.6 -621.8,-194.7 -894.7,-370.2 l -20.6,-13.2 -17.4,17.3 -388,386.9 h 44.2 l -826.4,-827.6 v 45.3 l 384.7,-384.3 18.5,-18.5 -14.3,-22 c -177.9,-273.4 -306,-578.9 -376,-897.3 l -5.7,-25.7 h -26.3 l -538.9,-0.3 33,33 -0.6,-1169.5 -32.4,32.4 532.8,-0.2 h 26.2 l 5.3,-25.6 c 67.3,-322 193.8,-631.4 371.2,-908.5 l 13.8,-21.5 -18.1,-18 -373.8,-373.1 v 44.1 l 825.8,-828.2 h -41.7 l 371.1,370.1 16.5,16.5 19.5,-12.8 c 277.3,-181.2 588,-311.2 911.8,-381.7 l 21.4,-4.7 -0.1,-21.7 -1.2,-521.9 -25.8,25.7 1169.6,-2.8 -22.9,-22.9 1.6,521.9 0.1,17.3 16.8,3.5 c 324.9,68.8 637.2,197.7 916.4,378.3 l 12.3,7.9 10.3,-10.3 369.3,-371.9 h -22.9 l 830.9,823.3 v -15.3 l -371.8,375.2 -4.8,4.8 3.7,5.6 c 180.4,278.5 309.4,590.3 379.8,915.1 l 0.6,2.7 2.6,-0.1 532.8,-3.2"
         style="fill:#8296c9;fill-opacity:1;fill-rule:nonzero;stroke:none"
         id="path14" /><path
         d="m 26079.6,11883.3 c 131.9,0.5 263.5,26.8 384.9,77.7 121.5,50.9 231.9,127 323.9,220.5 91.8,93.8 164.1,206 212.4,327.2 48.2,121.3 71.3,251.8 69.2,381.5 -2.3,129.7 -30.2,258.4 -81.4,376.5 -50.9,118.4 -125.7,225.7 -217.1,315.4 -182.9,179.9 -436.3,283.6 -691.9,282 -255.4,1.7 -509,-102 -691.9,-281.9 -91.5,-89.7 -166.3,-197.1 -217.2,-315.4 -51.3,-118.2 -79.1,-246.9 -81.3,-376.6 -2.2,-129.7 20.9,-260.2 69.2,-381.6 48.3,-121.2 120.6,-233.4 212.5,-327.1 92,-93.6 202.4,-169.6 323.9,-220.5 121.4,-50.9 253,-77.2 384.8,-77.7 z m 0,0 c -264,-1.8 -526.4,105.6 -715.2,291.7 -94.5,92.7 -171.7,203.7 -224.3,326.1 -52.9,122.1 -81.6,255.2 -83.8,389.1 -2.1,133.9 21.8,268.9 71.7,394.2 49.9,125.2 124.7,241 219.6,337.9 95,96.5 209.1,175 334.5,227.6 125.5,52.6 261.5,79.8 397.5,80.2 136.1,-0.3 272.1,-27.6 397.6,-80.1 125.5,-52.5 239.6,-131.1 334.6,-227.6 95,-96.8 169.7,-212.7 219.7,-337.9 49.9,-125.4 73.8,-260.4 71.7,-394.3 -2.3,-134 -31,-267 -84,-389.2 -52.5,-122.4 -129.7,-233.4 -224.3,-326.1 -188.8,-186 -451.2,-293.3 -715.3,-291.6"
         style="fill:#8296c9;fill-opacity:1;fill-rule:nonzero;stroke:none"
         id="path16" /><path
         d="m 3375.63,2024.8 c 67.31,2.4 -37.06,3135.4 -39.69,3357.8 -31.72,2692.6 -251.55,6140 1989,8091.8 1999.72,1742.1 4985.16,1643.5 7398.06,1000.1 2312.7,-616.6 4402.5,-1701.1 6637.9,-2517.3 2042.7,-746 4163.4,-1280.2 6316.4,-1587.6 1704.5,-243.4 3522.4,-365.6 4596,-1926 766.7,-1114.1 791,-2387.7 997.9,-3669.6 28.7,-177.7 465.2,-2693.6 377.4,-2693.8 -1.1,0 -28272.89,-55.4 -28272.97,-55.4"
         style="fill:#b4c0df;fill-opacity:1;fill-rule:nonzero;stroke:none"
         id="path18" /><path
         d="M 24540.5,8624.6 H 8964.75 c -230.9,0 -418.08,187.2 -418.08,418.1 V 17863 c 0,230.9 187.18,418.1 418.08,418.1 H 24540.5 c 230.9,0 418.1,-187.2 418.1,-418.1 V 9042.7 c 0,-230.9 -187.2,-418.1 -418.1,-418.1"
         style="fill:#cad2ea;fill-opacity:1;fill-rule:nonzero;stroke:none"
         id="path20" /><g
         id="g22"><g
           id="g24"
           clip-path="url(#clipPath28)"><path
             d="M 25269,17519.9 H 8253.75 v 1173.4 H 25269 v -1173.4"
             style="fill:#f9fbff;fill-opacity:1;fill-rule:nonzero;stroke:none"
             id="path30" /></g></g><path
         d="m 9291.12,17878.8 c 0,-81 -65.62,-146.6 -146.57,-146.6 -80.95,0 -146.57,65.6 -146.57,146.6 0,80.9 65.62,146.5 146.57,146.5 80.95,0 146.57,-65.6 146.57,-146.5"
         style="fill:#343766;fill-opacity:1;fill-rule:nonzero;stroke:none"
         id="path32" /><path
         d="m 9840.56,17878.8 c 0,-81 -65.62,-146.6 -146.57,-146.6 -80.94,0 -146.57,65.6 -146.57,146.6 0,80.9 65.63,146.5 146.57,146.5 80.95,0 146.57,-65.6 146.57,-146.5"
         style="fill:#8296c9;fill-opacity:1;fill-rule:nonzero;stroke:none"
         id="path34" /><path
         d="m 10390,17878.8 c 0,-81 -65.6,-146.6 -146.6,-146.6 -80.9,0 -146.5,65.6 -146.5,146.6 0,80.9 65.6,146.5 146.5,146.5 81,0 146.6,-65.6 146.6,-146.5"
         style="fill:#8296c9;fill-opacity:1;fill-rule:nonzero;stroke:none"
         id="path36" /><path
         d="m 9930.56,13785.8 h -324.41 v 2603.1 h 324.41 v -2603.1"
         style="fill:#eaedf7;fill-opacity:1;fill-rule:nonzero;stroke:none"
         id="path38" /><path
         d="m 9930.56,13785.8 h -324.41 v 1758.4 h 324.41 v -1758.4"
         style="fill:#b4c0df;fill-opacity:1;fill-rule:nonzero;stroke:none"
         id="path40" /><path
         d="m 10735.7,13785.8 h -324.4 v 2603.1 h 324.4 v -2603.1"
         style="fill:#eaedf7;fill-opacity:1;fill-rule:nonzero;stroke:none"
         id="path42" /><path
         d="m 10735.7,13785.8 h -324.4 v 1009.9 h 324.4 v -1009.9"
         style="fill:#b4c0df;fill-opacity:1;fill-rule:nonzero;stroke:none"
         id="path44" /><path
         d="m 11540.8,13785.8 h -324.4 v 2603.1 h 324.4 v -2603.1"
         style="fill:#eaedf7;fill-opacity:1;fill-rule:nonzero;stroke:none"
         id="path46" /><path
         d="m 11540.8,13785.8 h -324.4 V 16262 h 324.4 v -2476.2"
         style="fill:#8296c9;fill-opacity:1;fill-rule:nonzero;stroke:none"
         id="path48" /><path
         d="m 12345.9,13785.8 h -324.4 v 2603.1 h 324.4 v -2603.1"
         style="fill:#eaedf7;fill-opacity:1;fill-rule:nonzero;stroke:none"
         id="path50" /><path
         d="m 12345.9,13785.8 h -324.4 v 504.9 h 324.4 v -504.9"
         style="fill:#b4c0df;fill-opacity:1;fill-rule:nonzero;stroke:none"
         id="path52" /><path
         d="m 13151.1,13785.8 h -324.4 v 2603.1 h 324.4 v -2603.1"
         style="fill:#eaedf7;fill-opacity:1;fill-rule:nonzero;stroke:none"
         id="path54" /><path
         d="m 13151.1,13785.8 h -324.4 v 1526.4 h 324.4 v -1526.4"
         style="fill:#b4c0df;fill-opacity:1;fill-rule:nonzero;stroke:none"
         id="path56" /><path
         d="m 13956.2,13785.8 h -324.4 v 2603.1 h 324.4 v -2603.1"
         style="fill:#eaedf7;fill-opacity:1;fill-rule:nonzero;stroke:none"
         id="path58" /><path
         d="m 13956.2,13785.8 h -324.4 v 2182.3 h 324.4 v -2182.3"
         style="fill:#b4c0df;fill-opacity:1;fill-rule:nonzero;stroke:none"
         id="path60" /><path
         d="M 15705.3,15396.8 H 14818 c -28.9,0 -52.4,23.5 -52.4,52.4 v 887.3 c 0,28.9 23.5,52.4 52.4,52.4 h 887.3 c 29,0 52.4,-23.5 52.4,-52.4 v -887.3 c 0,-28.9 -23.4,-52.4 -52.4,-52.4"
         style="fill:#b4c0df;fill-opacity:1;fill-rule:nonzero;stroke:none"
         id="path62" /><path
         d="m 20687.5,16209.6 h -4589 v 179.3 h 4589 v -179.3"
         style="fill:#e6eaf4;fill-opacity:1;fill-rule:nonzero;stroke:none"
         id="path64" /><path
         d="m 20687.5,15803.2 h -4589 v 179.3 h 4589 v -179.3"
         style="fill:#e6eaf4;fill-opacity:1;fill-rule:nonzero;stroke:none"
         id="path66" /><path
         d="m 18446,15396.8 h -2347.5 v 179.3 H 18446 v -179.3"
         style="fill:#e6eaf4;fill-opacity:1;fill-rule:nonzero;stroke:none"
         id="path68" /><path
         d="M 15705.3,13794.7 H 14818 c -28.9,0 -52.4,23.5 -52.4,52.4 v 887.3 c 0,28.9 23.5,52.4 52.4,52.4 h 887.3 c 29,0 52.4,-23.5 52.4,-52.4 v -887.3 c 0,-28.9 -23.4,-52.4 -52.4,-52.4"
         style="fill:#b4c0df;fill-opacity:1;fill-rule:nonzero;stroke:none"
         id="path70" /><path
         d="m 20687.5,14607.5 h -4589 v 179.3 h 4589 v -179.3"
         style="fill:#e6eaf4;fill-opacity:1;fill-rule:nonzero;stroke:none"
         id="path72" /><path
         d="m 20687.5,14201.1 h -4589 v 179.3 h 4589 v -179.3"
         style="fill:#e6eaf4;fill-opacity:1;fill-rule:nonzero;stroke:none"
         id="path74" /><path
         d="M 18446,13794.7 H 16098.5 V 13974 H 18446 v -179.3"
         style="fill:#e6eaf4;fill-opacity:1;fill-rule:nonzero;stroke:none"
         id="path76" /><path
         d="m 21890.9,15392.3 h -887.2 c -29,0 -52.5,23.5 -52.5,52.5 v 887.2 c 0,29 23.5,52.5 52.5,52.5 h 887.2 c 29,0 52.5,-23.5 52.5,-52.5 v -887.2 c 0,-29 -23.5,-52.5 -52.5,-52.5"
         style="fill:#b4c0df;fill-opacity:1;fill-rule:nonzero;stroke:none"
         id="path78" /><path
         d="m 23912.2,16205.2 h -1628 v 179.3 h 1628 v -179.3"
         style="fill:#e6eaf4;fill-opacity:1;fill-rule:nonzero;stroke:none"
         id="path80" /><path
         d="m 23912.2,15798.8 h -1628 v 179.3 h 1628 v -179.3"
         style="fill:#e6eaf4;fill-opacity:1;fill-rule:nonzero;stroke:none"
         id="path82" /><path
         d="m 23117,15392.3 h -832.8 v 179.4 h 832.8 v -179.4"
         style="fill:#e6eaf4;fill-opacity:1;fill-rule:nonzero;stroke:none"
         id="path84" /><path
         d="m 21890.9,13790.2 h -887.2 c -29,0 -52.5,23.5 -52.5,52.5 v 887.2 c 0,29 23.5,52.5 52.5,52.5 h 887.2 c 29,0 52.5,-23.5 52.5,-52.5 v -887.2 c 0,-29 -23.5,-52.5 -52.5,-52.5"
         style="fill:#b4c0df;fill-opacity:1;fill-rule:nonzero;stroke:none"
         id="path86" /><path
         d="m 23912.2,14603.1 h -1628 v 179.3 h 1628 v -179.3"
         style="fill:#e6eaf4;fill-opacity:1;fill-rule:nonzero;stroke:none"
         id="path88" /><path
         d="m 23912.2,14196.6 h -1628 v 179.3 h 1628 v -179.3"
         style="fill:#e6eaf4;fill-opacity:1;fill-rule:nonzero;stroke:none"
         id="path90" /><path
         d="m 23117,13790.2 h -832.8 v 179.3 h 832.8 v -179.3"
         style="fill:#e6eaf4;fill-opacity:1;fill-rule:nonzero;stroke:none"
         id="path92" /><path
         d="M 23798.8,9142.5 H 9719.53 c -62.62,0 -113.38,50.8 -113.38,113.4 v 3787.2 c 0,62.6 50.76,113.4 113.38,113.4 H 23798.8 c 62.6,0 113.4,-50.8 113.4,-113.4 V 9255.9 c 0,-62.6 -50.8,-113.4 -113.4,-113.4"
         style="fill:#b4c0df;fill-opacity:1;fill-rule:nonzero;stroke:none"
         id="path94" /><path
         d="m 12221.2,11229.5 h -2124.5 c -35.9,0 -64.9,29.1 -64.9,64.9 v 1261.7 c 0,35.9 29,65 64.9,65 h 2124.5 c 35.8,0 64.9,-29.1 64.9,-65 v -1261.7 c 0,-35.8 -29.1,-64.9 -64.9,-64.9"
         style="fill:#cad2ea;fill-opacity:1;fill-rule:nonzero;stroke:none"
         id="path96" /><g
         id="g98"><g
           id="g100"
           clip-path="url(#clipPath104)"><path
             d="m 9943,11493.8 851.8,604.7 702.2,-578.7 328,292.6 520.2,-402 v -316.3 H 9949.5 l -6.5,399.7"
             style="fill:#e6eaf4;fill-opacity:1;fill-rule:nonzero;stroke:none"
             id="path106" /><path
             d="m 11581.7,12234.2 c 0,-87.3 -70.7,-158 -158,-158 -87.2,0 -157.9,70.7 -157.9,158 0,87.2 70.7,157.9 157.9,157.9 87.3,0 158,-70.7 158,-157.9"
             style="fill:#e6eaf4;fill-opacity:1;fill-rule:nonzero;stroke:none"
             id="path108" /></g></g><path
         d="m 12221.2,9677.9 h -2124.5 c -35.9,0 -64.9,29.1 -64.9,65 v 1261.7 c 0,35.8 29,64.9 64.9,64.9 h 2124.5 c 35.8,0 64.9,-29.1 64.9,-64.9 V 9742.9 c 0,-35.9 -29.1,-65 -64.9,-65"
         style="fill:#cad2ea;fill-opacity:1;fill-rule:nonzero;stroke:none"
         id="path110" /><g
         id="g112"><g
           id="g114"
           clip-path="url(#clipPath118)"><path
             d="m 9943,9942.2 851.8,604.7 702.2,-578.7 328,292.6 520.2,-402 V 9542.6 H 9949.5 l -6.5,399.6"
             style="fill:#e6eaf4;fill-opacity:1;fill-rule:nonzero;stroke:none"
             id="path120" /><path
             d="m 11581.7,10682.6 c 0,-87.2 -70.7,-157.9 -158,-157.9 -87.2,0 -157.9,70.7 -157.9,157.9 0,87.3 70.7,158 157.9,158 87.3,0 158,-70.7 158,-158"
             style="fill:#e6eaf4;fill-opacity:1;fill-rule:nonzero;stroke:none"
             id="path122" /></g></g><path
         d="m 16520.4,12274.8 h -3933.1 v 153.6 h 3933.1 v -153.6"
         style="fill:#cad2ea;fill-opacity:1;fill-rule:nonzero;stroke:none"
         id="path124" /><path
         d="m 16520.4,11926.4 h -3933.1 v 153.7 h 3933.1 v -153.7"
         style="fill:#cad2ea;fill-opacity:1;fill-rule:nonzero;stroke:none"
         id="path126" /><path
         d="m 14599.3,11578.1 h -2012 v 153.7 h 2012 v -153.7"
         style="fill:#cad2ea;fill-opacity:1;fill-rule:nonzero;stroke:none"
         id="path128" /><path
         d="m 16520.4,10710 h -3933.1 v 153.7 h 3933.1 V 10710"
         style="fill:#cad2ea;fill-opacity:1;fill-rule:nonzero;stroke:none"
         id="path130" /><path
         d="m 16520.4,10361.7 h -3933.1 v 153.6 h 3933.1 v -153.6"
         style="fill:#cad2ea;fill-opacity:1;fill-rule:nonzero;stroke:none"
         id="path132" /><path
         d="m 14599.3,10013.3 h -2012 v 153.7 h 2012 v -153.7"
         style="fill:#cad2ea;fill-opacity:1;fill-rule:nonzero;stroke:none"
         id="path134" /><path
         d="m 19174.3,11229.5 h -2124.5 c -35.8,0 -64.9,29.1 -64.9,64.9 v 1261.7 c 0,35.9 29.1,65 64.9,65 h 2124.5 c 35.9,0 64.9,-29.1 64.9,-65 v -1261.7 c 0,-35.8 -29,-64.9 -64.9,-64.9"
         style="fill:#cad2ea;fill-opacity:1;fill-rule:nonzero;stroke:none"
         id="path136" /><g
         id="g138"><g
           id="g140"
           clip-path="url(#clipPath144)"><path
             d="m 16896.1,11493.8 851.8,604.7 702.3,-578.7 327.9,292.6 520.2,-402 v -316.3 h -2395.7 l -6.5,399.7"
             style="fill:#e6eaf4;fill-opacity:1;fill-rule:nonzero;stroke:none"
             id="path146" /><path
             d="m 18534.8,12234.2 c 0,-87.3 -70.7,-158 -158,-158 -87.2,0 -157.9,70.7 -157.9,158 0,87.2 70.7,157.9 157.9,157.9 87.3,0 158,-70.7 158,-157.9"
             style="fill:#e6eaf4;fill-opacity:1;fill-rule:nonzero;stroke:none"
             id="path148" /></g></g><path
         d="m 19174.3,9677.9 h -2124.5 c -35.8,0 -64.9,29.1 -64.9,65 v 1261.7 c 0,35.8 29.1,64.9 64.9,64.9 h 2124.5 c 35.9,0 64.9,-29.1 64.9,-64.9 V 9742.9 c 0,-35.9 -29,-65 -64.9,-65"
         style="fill:#cad2ea;fill-opacity:1;fill-rule:nonzero;stroke:none"
         id="path150" /><g
         id="g152"><g
           id="g154"
           clip-path="url(#clipPath158)"><path
             d="m 16896.1,9942.2 851.8,604.7 702.3,-578.7 327.9,292.6 520.2,-402 v -316.2 h -2395.7 l -6.5,399.6"
             style="fill:#e6eaf4;fill-opacity:1;fill-rule:nonzero;stroke:none"
             id="path160" /><path
             d="m 18534.8,10682.6 c 0,-87.2 -70.7,-157.9 -158,-157.9 -87.2,0 -157.9,70.7 -157.9,157.9 0,87.3 70.7,158 157.9,158 87.3,0 158,-70.7 158,-158"
             style="fill:#e6eaf4;fill-opacity:1;fill-rule:nonzero;stroke:none"
             id="path162" /></g></g><path
         d="m 23473.5,12274.8 h -3933.1 v 153.6 h 3933.1 v -153.6"
         style="fill:#cad2ea;fill-opacity:1;fill-rule:nonzero;stroke:none"
         id="path164" /><path
         d="m 23473.5,11926.4 h -3933.1 v 153.7 h 3933.1 v -153.7"
         style="fill:#cad2ea;fill-opacity:1;fill-rule:nonzero;stroke:none"
         id="path166" /><path
         d="m 21552.4,11578.1 h -2012 v 153.7 h 2012 v -153.7"
         style="fill:#cad2ea;fill-opacity:1;fill-rule:nonzero;stroke:none"
         id="path168" /><path
         d="m 23473.5,10710 h -3933.1 v 153.7 h 3933.1 V 10710"
         style="fill:#cad2ea;fill-opacity:1;fill-rule:nonzero;stroke:none"
         id="path170" /><path
         d="m 23473.5,10361.7 h -3933.1 v 153.6 h 3933.1 v -153.6"
         style="fill:#cad2ea;fill-opacity:1;fill-rule:nonzero;stroke:none"
         id="path172" /><path
         d="m 21552.4,10013.3 h -2012 v 153.7 h 2012 v -153.7"
         style="fill:#cad2ea;fill-opacity:1;fill-rule:nonzero;stroke:none"
         id="path174" /><path
         d="m 12462.8,6783.3 828.1,470.4 c 0,0 787.7,-1424 870.7,-2106.9 64.8,-533.1 -561.2,-2282.6 -561.2,-2282.6 l -223.3,24.9 -66.4,1987.1 c 0,0 -1040.1,1320.3 -847.9,1907.1"
         style="fill:#39548b;fill-opacity:1;fill-rule:nonzero;stroke:none"
         id="path176" /><path
         d="m 13343.8,2893 281.2,-30.5 -41,-121.1 c 0,0 281.7,-57.9 404.9,-224.1 l -658.1,71.4 13,304.3"
         style="fill:#343766;fill-opacity:1;fill-rule:nonzero;stroke:none"
         id="path178" /><path
         d="m 13186.8,5036.5 53.6,1173 c 0,0 391.7,-809.6 70.3,-1333.3 l -123.9,160.3"
         style="fill:#343766;fill-opacity:1;fill-rule:nonzero;stroke:none"
         id="path180" /><path
         d="m 16311.7,8759.8 c 0,0 170.8,51.9 115.7,84.9 -55.1,33.1 -396.1,-84.9 -396.1,-84.9 l -1482.6,191.4 -91.9,-517.4 c 124.4,-7.1 1255.6,57.6 1496.9,71.6 0,0 776.8,-57.4 804.3,25.3 27.6,82.6 -446.3,229.1 -446.3,229.1"
         style="fill:#da8c8d;fill-opacity:1;fill-rule:nonzero;stroke:none"
         id="path182" /><g
         id="g184"><g
           id="g186"
           clip-path="url(#clipPath190)"><path
             d="m 14650.8,8951.2 c 0,0 209.8,-517.7 183.6,-562.6 -26.2,-44.9 -445.9,34.9 -445.9,34.9 l 44.5,561.1 217.8,-33.4"
             style="fill:#c17276;fill-opacity:1;fill-rule:nonzero;stroke:none"
             id="path192" /></g></g><path
         d="m 13295.9,7238.6 c 0,0 -99.7,-1754.3 -114.6,-2385.2 -14.9,-630.9 -499.6,-2537.1 -499.6,-2537.1 l -108.1,-16.1 -90.6,74.9 -229.7,2388.1 c 0,0 -729.3,2481.6 25.9,2975.4 l 1016.7,-500"
         style="fill:#39548b;fill-opacity:1;fill-rule:nonzero;stroke:none"
         id="path194" /><g
         id="g196"><g
           id="g198"
           clip-path="url(#clipPath202)"><path
             d="m 13133.9,7004.4 c -93,-32.1 -837.3,-527.9 -1246.6,-408.6 -409.3,119.4 -99.7,722.1 -33.4,657.9 66.3,-64.1 1280,-249.3 1280,-249.3"
             style="fill:#343766;fill-opacity:1;fill-rule:nonzero;stroke:none"
             id="path204" /></g></g><path
         d="m 12463.9,2403 260.3,-5.8 -16.5,-124.4 c 0,0 285.6,-33.5 422.7,-188.6 l -661.6,-0.4 -4.9,319.2"
         style="fill:#343766;fill-opacity:1;fill-rule:nonzero;stroke:none"
         id="path206" /><path
         d="m 13499.3,7262.2 c 0,0 105,1793.3 -545.2,2295.7 -470.8,363.8 -806.6,104.2 -806.6,104.2 0,0 -690.6,-437.3 -127.6,-1621.4 123.4,-259.6 -178.4,-659.8 -60.7,-955.3 158.2,-397.3 1394.2,-152.4 1540.1,176.8"
         style="fill:#f9dd89;fill-opacity:1;fill-rule:nonzero;stroke:none"
         id="path208" /><g
         id="g210"><g
           id="g212"
           clip-path="url(#clipPath216)"><path
             d="m 12171.7,6917.9 c 0,0 206.6,1019.7 103,1434.2 0,0 -427.3,-986.3 -420.8,-1252.9 6.4,-266.6 317.8,-181.3 317.8,-181.3"
             style="fill:#f4c54e;fill-opacity:1;fill-rule:nonzero;stroke:none"
             id="path218" /></g></g><path
         d="m 14346.4,8395.5 c -292.2,-11.4 -607.4,-10.7 -893.8,17.1 -50.9,4.9 -100.9,16.5 -149.3,33 -408.2,139.2 -1143.1,273.5 -1183.6,599.3 -73.2,588.7 840.3,507.4 840.3,507.4 l 724.8,-402.6 c 177.6,-98.7 376.2,-153.5 579.3,-159.8 l 168.9,-5.3 -86.6,-589.1"
         style="fill:#f9dd89;fill-opacity:1;fill-rule:nonzero;stroke:none"
         id="path220" /><path
         d="m 12750.2,10540.6 c 0,0 292.9,-622.7 -56.9,-656.9 -349.9,-34.2 -622.6,321.7 -543.3,585.5 79.2,263.7 435.4,487.8 600.2,71.4"
         style="fill:#da8c8d;fill-opacity:1;fill-rule:nonzero;stroke:none"
         id="path222" /><path
         d="m 12137.8,10329.9 c 0,0 100.7,-327.9 46.2,-670.7 0,0 228.7,-128.2 397.4,-98.6 168.6,29.5 -109.1,613.2 -109.1,613.2 l -334.5,156.1"
         style="fill:#da8c8d;fill-opacity:1;fill-rule:nonzero;stroke:none"
         id="path224" /><path
         d="m 12587.8,9885.1 c 0,0 -22.7,-12.4 -168.3,70.1 0,0 6.1,-148.7 203.1,-195 0,0 -21.8,87.4 -34.8,124.9"
         style="fill:#c17276;fill-opacity:1;fill-rule:nonzero;stroke:none"
         id="path226" /><path
         d="m 12301.6,10531.9 c 9.1,-90.5 0.1,-182.8 -26.3,-270 -1.9,23.3 -9.9,50.2 -32,57.6 -17.2,5.8 -36.7,-3.6 -47.4,-18.2 -10.7,-14.7 -14.3,-33.3 -15.8,-51.3 -2.1,-24.7 -0.9,-50.3 9.1,-73 10,-22.7 29.8,-42 54.1,-46.5 -15.1,-63.2 -28.8,-128.1 -43.9,-191.4 -126.8,97.3 -219.3,238.4 -257.8,393.4 -10.2,40.8 -16.7,82.8 -15.5,124.8 1.9,68.8 25.1,137 65.5,192.7 16.1,22.2 35.1,42.7 58.7,56.4 54.1,31.5 126.7,21.3 175.9,-17.3 49.3,-38.6 69.2,-94.9 75.4,-157.2"
         style="fill:#343766;fill-opacity:1;fill-rule:nonzero;stroke:none"
         id="path228" /><path
         d="m 12016.9,10576.6 c 0,0 29.6,374.1 313.4,355.7 283.8,-18.4 560,-128.9 560,-128.9 0,0 -103.5,-239.5 -248.2,-257.9 -144.6,-18.4 -625.2,31.1 -625.2,31.1"
         style="fill:#343766;fill-opacity:1;fill-rule:nonzero;stroke:none"
         id="path230" /><path
         d="m 12738.3,10187.7 c 0,0 -93.1,-62.2 -131.4,-122.8 0,0 172.7,23.5 131.4,122.8"
         style="fill:#343766;fill-opacity:1;fill-rule:nonzero;stroke:none"
         id="path232" /><path
         d="m 12738.3,10187.7 c 0,0 52.9,3.3 118,-26.8 0,0 -91.1,-48.8 -118,26.8"
         style="fill:#343766;fill-opacity:1;fill-rule:nonzero;stroke:none"
         id="path234" /><path
         d="m 14460.4,8321.2 -83.1,3.2 c -35.4,1.3 -63,31.1 -61.7,66.6 l 24,627.7 c 1.4,35.4 31.2,63 66.6,61.7 l 83.1,-3.2 c 35.4,-1.4 63,-31.2 61.7,-66.6 l -24.1,-627.7 c -1.3,-35.4 -31.1,-63.1 -66.5,-61.7"
         style="fill:#f9dd89;fill-opacity:1;fill-rule:nonzero;stroke:none"
         id="path236" /><path
         d="m 13452.6,8412.6 c 0,0 -107.2,488.4 -212.2,731.7 0,0 489.7,-688.4 854.8,-755.7 0,0 -474.6,5.1 -642.6,24"
         style="fill:#f4c54e;fill-opacity:1;fill-rule:nonzero;stroke:none"
         id="path238" /><path
         d="m 14338.4,8987.6 -22.8,-596.6 -93.3,0.5 c 0,0 118,413.2 116.1,596.1"
         style="fill:#f4c54e;fill-opacity:1;fill-rule:nonzero;stroke:none"
         id="path240" /><path
         d="m 12125,5822.1 c 0,0 -193.7,1104.4 -204.8,1367.5 H 11424 c 0,0 266.1,-1058.4 456.7,-1399.7 v 0 c 8.6,-222.1 179,-617.6 259.3,-583.3 85.5,36.4 -19.1,387.8 -30.4,412.3 -39.2,85.5 115.7,-135.2 129.4,-132.2 57.5,12.7 -114,335.4 -114,335.4"
         style="fill:#da8c8d;fill-opacity:1;fill-rule:nonzero;stroke:none"
         id="path242" /><g
         id="g244"><g
           id="g246"
           clip-path="url(#clipPath250)"><path
             d="m 11957.6,7136.8 c 0,0 -169.1,-184.9 -468.5,-194.2 -299.4,-9.3 -128.3,368.9 -128.3,368.9 l 595.1,-16.9 3.3,-209.2"
             style="fill:#c17276;fill-opacity:1;fill-rule:nonzero;stroke:none"
             id="path252" /></g></g><path
         d="m 11955.9,7294.6 357.7,1080.6 c 0,0 356.4,1438.7 -208.3,1257.1 -312.6,-100.6 -754.4,-1373.6 -815,-1800.6 -7.2,-50.6 -9.3,-101.9 -4.7,-152.9 9.7,-106.3 25.6,-215 46.1,-323.7 l 624.2,-60.5"
         style="fill:#f9dd89;fill-opacity:1;fill-rule:nonzero;stroke:none"
         id="path254" /><path
         d="m 11920.2,7189.6 h -558.7 c -67.4,0 -122,54.6 -122,121.9 0,67.4 54.6,122 122,122 h 558.7 c 67.3,0 121.9,-54.6 121.9,-122 0,-67.3 -54.6,-121.9 -121.9,-121.9"
         style="fill:#f9dd89;fill-opacity:1;fill-rule:nonzero;stroke:none"
         id="path256" /><path
         d="m 11319.1,7425.8 518.3,7.7 c 0,0 -481.3,74.8 -551.8,245.3 0,0 20.8,-182.4 33.5,-253"
         style="fill:#f4c54e;fill-opacity:1;fill-rule:nonzero;stroke:none"
         id="path258" /><path
         d="m 12579.9,9562.3 c 0,0 150.3,-1441.4 104.4,-1849.1 l 376.8,-343.3 179.3,404.8 c 0,0 -289.9,1525.2 -660.5,1787.6"
         style="fill:#ffffff;fill-opacity:1;fill-rule:nonzero;stroke:none"
         id="path260" /><path
         d="m 12579.9,9562.3 -109.8,-243.5 c 0,0 -317.2,172.5 -364.8,313.5 l 75,50.6 c 0,0 239.6,-126.9 399.6,-120.6"
         style="fill:#ffffff;fill-opacity:1;fill-rule:nonzero;stroke:none"
         id="path262" /><path
         d="m 12579.9,9562.3 158.3,-85.7 c 0,0 -24.4,169.1 -58.2,242.4 l -53.5,15.8 c 0,0 14.1,-127.7 -46.6,-172.5"
         style="fill:#ffffff;fill-opacity:1;fill-rule:nonzero;stroke:none"
         id="path264" /><path
         d="m 21071.1,7057.8 c 0,0 -256.4,-1647.6 -368,-2235.9 -111.7,-588.4 -41,-2453.4 -41,-2453.4 l 97.1,-36.4 98.9,51.4 688,2170.2 c 0,0 1170.2,2157.5 567.7,2765.9 l -1042.7,-261.8"
         style="fill:#343766;fill-opacity:1;fill-rule:nonzero;stroke:none"
         id="path266" /><path
         d="m 20919.6,2519.4 -287.1,53.6 -3.8,-226.5 c 0,0 -335.2,57.2 -429,-104.1 l 616.9,-118 103,395"
         style="fill:#343766;fill-opacity:1;fill-rule:nonzero;stroke:none"
         id="path268" /><path
         d="m 21092.8,6977.1 c 0,0 57.6,-1666.3 58.5,-2265.2 0.8,-598.8 420.6,-2417.3 420.6,-2417.3 l 102.2,-17.6 87.5,69.1 289.9,2617.4 c 0,0 938.5,1819.2 153,2511.4 l -1111.7,-497.8"
         style="fill:#39548b;fill-opacity:1;fill-rule:nonzero;stroke:none"
         id="path270" /><path
         d="m 21790.7,2467.9 -280.4,0.8 29.8,-218.3 c 0,0 -265.5,-22.4 -398.8,-166.6 h 628.2 l 21.2,384.1"
         style="fill:#343766;fill-opacity:1;fill-rule:nonzero;stroke:none"
         id="path272" /><path
         d="m 19683.3,6541.8 c 0,0 -120.4,-93.8 -166.9,-93.8 -46.4,0 -245,46.9 -245,46.9 0,0 -274,-72.6 -289.1,-46.9 -15.1,25.8 252,191.9 336.9,171.6 84.9,-20.3 364.1,-77.8 364.1,-77.8"
         style="fill:#da8c8d;fill-opacity:1;fill-rule:nonzero;stroke:none"
         id="path274" /><path
         d="m 20769,9408.9 c 0,0 -656.2,-564.4 -778.8,-550.7 -122.5,13.7 -1250.3,550.7 -1250.3,550.7 l -70,-290.2 c 0,0 848.8,-1110.8 1312.6,-1098 463.8,12.8 1045.2,476.6 1045.2,476.6 l -258.7,911.6"
         style="fill:#f4c54e;fill-opacity:1;fill-rule:nonzero;stroke:none"
         id="path276" /><path
         d="m 20612.7,10547 c 0,0 -132.9,-670.9 205.8,-625.3 338.7,45.5 514.2,452.7 378.2,691.1 -135.9,238.4 -524.5,375.9 -584,-65.8"
         style="fill:#da8c8d;fill-opacity:1;fill-rule:nonzero;stroke:none"
         id="path278" /><path
         d="m 21240.5,10480.2 c 0,0 10.4,-421.8 141.2,-742.6 0,0 -218.7,-196.3 -385,-205.6 -166.3,-9.2 -36.3,721.3 -36.3,721.3 l 280.1,226.9"
         style="fill:#da8c8d;fill-opacity:1;fill-rule:nonzero;stroke:none"
         id="path280" /><path
         d="m 20920.7,9947.8 c 0,0 106.9,36.1 222,176 0,0 -39.2,-244.7 -230,-312.2 0,0 4.4,96.9 8,136.2"
         style="fill:#c17276;fill-opacity:1;fill-rule:nonzero;stroke:none"
         id="path282" /><path
         d="m 20878.8,7087.8 c 0,0 -476.6,1891.9 -109.8,2321.1 366.8,429.2 575.9,431.1 575.9,431.1 0,0 670.3,-316.3 577.1,-1557 -20.5,-272 343.2,-346.2 340.1,-648.1 -4.1,-405.7 -1141.6,-788.5 -1383.3,-547.1"
         style="fill:#f9dd89;fill-opacity:1;fill-rule:nonzero;stroke:none"
         id="path284" /><path
         d="m 20769,9408.9 -1390.8,-2804.3 305.1,-62.8 c 0,0 1558.7,1081 1600.9,2043.1 42.1,962 -515.2,824 -515.2,824"
         style="fill:#f9dd89;fill-opacity:1;fill-rule:nonzero;stroke:none"
         id="path286" /><path
         d="m 20782.8,7523.2 c 0,0 621.7,744.4 661.6,1223 0,0 58.6,-1060.6 -613.8,-1451 l -47.8,228"
         style="fill:#f4c54e;fill-opacity:1;fill-rule:nonzero;stroke:none"
         id="path288" /><path
         d="m 21025.6,10606 c -129.8,-37.2 -268.5,-18.3 -401.3,6.3 -56.9,10.6 -115,22.7 -164.2,53 -81.5,50.3 -128.7,153.1 -108.1,246.6 9.1,41.2 33.3,82.2 72.6,97.4 39.4,15.1 92.9,-7.2 98.6,-49 225.9,41.9 466.3,-15 649.6,-153.6 43.4,-32.8 84.1,-70.5 112.9,-116.7 46.1,-74 58.5,-165.2 50.9,-252.1 -7.5,-86.9 -33.5,-171 -59.4,-254.4 -2.3,-6.9 -80,4.3 -87.7,5.2 -12.5,1.3 -25.2,4.5 -34.7,12.7 -12.1,10.4 -16.7,27.1 -17.6,43 -1.5,27.2 -0.7,56.6 7.1,82.8 8.9,29.5 28.7,54.2 39,83.1 18.6,52.1 -18.8,90 -71,84.7 -13.4,-1.3 -66.8,-57.9 -66.3,-79.4 -76.4,76.4 -47.1,149.6 -20.4,190.4"
         style="fill:#343766;fill-opacity:1;fill-rule:nonzero;stroke:none"
         id="path290" /><path
         d="m 18733.2,9381.1 c 0,0 -124.1,142.4 -192.2,176.4 -68.1,34.1 40.7,-123 40.7,-123 0,0 -406.6,-48.5 -446.6,-141.5 -40,-92.8 315.3,-90.3 474.3,-55.9 l 67.3,-90 56.5,234"
         style="fill:#da8c8d;fill-opacity:1;fill-rule:nonzero;stroke:none"
         id="path292" /><path
         d="m 11111,2083.8 h -78.1 l 1795.5,4281.9 h 78.1 L 11111,2083.8"
         style="fill:#16113c;fill-opacity:1;fill-rule:nonzero;stroke:none"
         id="path294" /><path
         d="m 22837.5,2083.8 h 78 L 21120,6365.7 h -78 l 1795.5,-4281.9"
         style="fill:#16113c;fill-opacity:1;fill-rule:nonzero;stroke:none"
         id="path296" /><path
         d="M 22948.6,6305.6 H 10999.8 c -37.8,0 -68.4,30.6 -68.4,68.4 0,37.8 30.6,68.4 68.4,68.4 h 11948.8 c 37.8,0 68.4,-30.6 68.4,-68.4 0,-37.8 -30.6,-68.4 -68.4,-68.4"
         style="fill:#16113c;fill-opacity:1;fill-rule:nonzero;stroke:none"
         id="path298" /><path
         d="m 21534.9,6442.4 -677.4,1525.5 1313.4,-103.3 582.2,-1423.6 -1218.2,1.4"
         style="fill:#1f1949;fill-opacity:1;fill-rule:nonzero;stroke:none"
         id="path300" /><path
         d="m 24003.3,4494.9 c 141,-313.4 1235,-1776.2 1235,-1776.2 l -163.1,-76.5 c 0,0 -1640.8,1291.7 -1871.9,1753.6 l 800,99.1"
         style="fill:#c17276;fill-opacity:1;fill-rule:nonzero;stroke:none"
         id="path302" /><path
         d="m 25020,2677.4 c 0,0 118.4,53.4 179,94.1 l 87.5,-102.6 c 13.6,-16 10.2,-40.4 -7.4,-52 L 24783.9,2289 c -23.6,-15.6 -53.5,7.8 -44.1,34.5 32.5,91.9 127.7,221.9 280.2,353.9"
         style="fill:#343766;fill-opacity:1;fill-rule:nonzero;stroke:none"
         id="path304" /><path
         d="m 24419.2,4261 c -473.5,47.3 -747.6,93.8 -747.6,93.8 -34.3,-471.4 51.5,-2162.7 51.5,-2162.7 l -178.2,25.9 c 0,0 -657.2,1982.2 -595.4,2495.1 46.2,383.4 426.1,374.4 1163.6,479.8 l 306.1,-931.9"
         style="fill:#da8c8d;fill-opacity:1;fill-rule:nonzero;stroke:none"
         id="path306" /><path
         d="m 23518.2,2277.9 c 0,0 137.5,-49.3 210.5,-48.7 l 9.3,-112.7 c 1.4,-17.2 -12.1,-31.9 -29.4,-31.9 l -601.5,-0.6 c -28.3,-0.1 -40.4,35.9 -17.8,53 77.8,58.9 228.9,114.8 428.9,140.9"
         style="fill:#343766;fill-opacity:1;fill-rule:nonzero;stroke:none"
         id="path308" /><path
         d="m 24885.3,5418.7 -1468.5,-284.1 375.5,-869 c 0,0 1941.1,-258.6 2186.7,131.3 245.7,390 -35.7,1336.8 -35.7,1336.8 l -1058,-315"
         style="fill:#343766;fill-opacity:1;fill-rule:nonzero;stroke:none"
         id="path310" /><path
         d="m 23816.2,7057 -1163.6,505.7 c 0,0 -219.4,84 -314.3,8.5 -95,-75.4 -153.9,-261 -148.5,-288.1 5.4,-27 141.1,119 141.1,119 0,0 53.2,-0.5 117.4,-6.5 -44.7,-23.2 -107.1,-58.6 -107.1,-76 -0.1,-20.2 152.6,14.6 229.8,33.6 207.5,-181.5 963.2,-825.3 1195.2,-781.3 269.9,51.3 50,485.1 50,485.1"
         style="fill:#da8c8d;fill-opacity:1;fill-rule:nonzero;stroke:none"
         id="path312" /><g
         id="g314"><g
           id="g316"
           clip-path="url(#clipPath320)"><path
             d="m 23119.4,6907.5 c 0,0 625.6,202 781.2,133.6 155.7,-68.5 0,-623.9 0,-623.9 0,0 -736.1,228.7 -781.2,490.3"
             style="fill:#c17276;fill-opacity:1;fill-rule:nonzero;stroke:none"
             id="path322" /></g></g><path
         d="M 24002.6,6976.5 22016,6676.8 c 0,0 -221.9,-9.6 -268.7,-37.7 -46.8,-28.1 -149.8,-196.6 -149.8,-196.6 0,0 397.4,-16.1 496,45.8 0,0 1690.9,-130 2037.6,38.2 346.7,168.2 -128.5,450 -128.5,450"
         style="fill:#da8c8d;fill-opacity:1;fill-rule:nonzero;stroke:none"
         id="path324" /><g
         id="g326"><g
           id="g328"
           clip-path="url(#clipPath332)"><path
             d="m 23882.9,6663.4 c 0,0 -1212.5,-76.1 -1622.8,-214.8 -410.4,-138.7 1783.1,-169.4 1857.6,-122.6 74.4,46.9 -234.8,337.4 -234.8,337.4"
             style="fill:#c17276;fill-opacity:1;fill-rule:nonzero;stroke:none"
             id="path334" /></g></g><path
         d="m 25879.5,5309.2 c 13,1 26,2.1 39,3.2 111,9.9 195.9,80.1 203.9,197.5 7.9,113 -20.7,230.1 -55.6,336.8 -124.6,381.2 12.8,1594.4 -717.8,1963.3 -405.6,204.8 -630.3,-145.4 -731.8,-497.8 -82.8,-287.3 -13.5,-582.1 77.5,-858.3 62.4,-189.5 144.7,-381.6 206.1,-575.2 30.5,-95.8 61.9,-196.4 72.8,-296.6 8,-74.8 -1.9,-162.5 71.3,-209.4 120.2,-77.3 282.7,-64.7 419.8,-70.2 138.1,-5.5 276.9,-3.8 414.8,6.7"
         style="fill:#f9dd89;fill-opacity:1;fill-rule:nonzero;stroke:none"
         id="path336" /><path
         d="m 24989,7833.9 c 0,0 -1111.7,-786.5 -1239.6,-792.8 -127.9,-6.4 -196.5,-119.8 -165.7,-290.3 30.9,-170.4 143.1,-310.1 270.1,-308.3 127.1,1.9 1098,332.4 1262.7,496.8 164.7,164.5 -127.5,894.6 -127.5,894.6"
         style="fill:#f9dd89;fill-opacity:1;fill-rule:nonzero;stroke:none"
         id="path338" /><path
         d="m 24576.7,8562.6 c 0,0 -132.5,-631.4 187.5,-592 319.9,39.3 489.8,421.5 364.1,647.9 -125.7,226.3 -490.8,360.2 -551.6,-55.9"
         style="fill:#da8c8d;fill-opacity:1;fill-rule:nonzero;stroke:none"
         id="path340" /><path
         d="m 25168.2,8492.9 c 0,0 5.3,-397.9 125.3,-701.9 0,0 -208.4,-182.9 -365.4,-189.9 -156.9,-6.9 -26.6,680.8 -26.6,680.8 l 266.7,211"
         style="fill:#da8c8d;fill-opacity:1;fill-rule:nonzero;stroke:none"
         id="path342" /><path
         d="m 24860.8,7994.1 10.7,94.6 c 0,0 -120.3,-95.9 -218.1,-97.9 0,0 55.2,-50.1 207.4,3.3"
         style="fill:#c17276;fill-opacity:1;fill-rule:nonzero;stroke:none"
         id="path344" /><path
         d="m 25863.2,7820.4 c -56.7,62.3 -122.5,119.8 -192.5,183.6 -130,118.7 -214.2,286.4 -231.7,461.6 -0.4,4.1 -0.9,8.2 -1.6,12.2 -5.4,70.4 -21.5,153.1 -52.9,250.2 -55.5,171.6 -322.1,218.8 -474.1,250 -208,42.8 -407.8,-159.4 -283.3,-363.6 1.6,-2.7 3.3,-5.4 5,-8.1 0,0 85.5,-199.9 255.6,-176.5 148.9,20.6 130.4,-88.2 80.2,-187.1 -94.4,-185.8 -192.1,-321.9 -148.2,-541.1 88.6,-442.3 529.5,-610.1 939,-587.6 73.2,4.1 175.6,7.5 242.5,40 215.3,104.7 -39.5,558.2 -138,666.4"
         style="fill:#343766;fill-opacity:1;fill-rule:nonzero;stroke:none"
         id="path346" /><path
         d="m 24625.5,6689.1 c 0,0 385.7,150.2 519.6,352 0,0 -131.6,-624.9 -423.7,-665.3 0,0 -72.2,192.2 -95.9,313.3"
         style="fill:#f4c54e;fill-opacity:1;fill-rule:nonzero;stroke:none"
         id="path348" /><path
         d="m 26876.9,6812.8 h 141.8 L 26298.6,4727.4 C 26137.3,4115.1 25698.2,3988 25223.1,4032.9 L 24023.7,4146 c 0,0 -104,378.9 349.3,553.7 453.3,174.9 1413.4,193 1413.4,193 l 641,1600.7 c 67.2,191.4 247.4,319.4 449.5,319.4"
         style="fill:#d4a4a4;fill-opacity:1;fill-rule:nonzero;stroke:none"
         id="path350" /><path
         d="m 26802.7,2083.8 c 4.6,0 9.3,0.6 13.9,2 26.6,7.7 42,35.5 34.3,62.2 l -591.3,2060.6 c -39.4,137.3 -166.3,233.1 -308.6,233.1 h -1355.9 c -149.1,0 -277.5,-101.6 -312.3,-247.2 l -489.1,-2048.7 c -6.5,-27 10.1,-54.1 37.1,-60.6 26.7,-6.6 53.9,10.2 60.4,37.2 l 489.1,2048.7 c 23.9,100.1 112.2,170 214.8,170 H 25951 c 97.9,0 185.2,-66 212.3,-160.4 l 591.3,-2060.5 c 6.3,-22.1 26.3,-36.4 48.1,-36.4"
         style="fill:#343766;fill-opacity:1;fill-rule:nonzero;stroke:none"
         id="path352" /><path
         d="m 7436.72,8902.5 527.38,-370.6 -340.14,-578 c 0,0 -431.73,178.7 -552.87,369.7 -121.14,191 365.63,578.9 365.63,578.9"
         style="fill:#f9dd89;fill-opacity:1;fill-rule:nonzero;stroke:none"
         id="path354" /><path
         d="m 7580.65,7029.7 c 21.85,-34.6 480.8,-1902.6 469.87,-2293.3 -10.93,-390.7 -234.84,-2323.8 -234.84,-2323.8 h -235.03 l -156.5,2245.7 c 0,0 -854.76,1574.1 -840.24,2140.2 14.51,566 996.74,231.2 996.74,231.2"
         style="fill:#39548b;fill-opacity:1;fill-rule:nonzero;stroke:none"
         id="path356" /><path
         d="m 7303.68,6730.8 c 4.16,-40.9 -414.06,-1918.5 -597.2,-2263.2 C 6523.35,4123 5449.9,2511.1 5449.9,2511.1 l -195,88.2 856.45,2079.8 c 0,0 -66.38,1792.4 197.79,2292.4 264.16,500 994.54,-240.7 994.54,-240.7"
         style="fill:#39548b;fill-opacity:1;fill-rule:nonzero;stroke:none"
         id="path358" /><path
         d="m 7016.42,5477.2 215.83,650.9 -23.73,-1051.7 c 0,0 -157.2,310.1 -192.1,400.8"
         style="fill:#343766;fill-opacity:1;fill-rule:nonzero;stroke:none"
         id="path360" /><path
         d="m 7568.89,2434.2 h 257.43 l -16.35,-185.8 c 0,0 237.26,-10.7 378.7,-164.6 h -606.7 l -13.08,350.4"
         style="fill:#343766;fill-opacity:1;fill-rule:nonzero;stroke:none"
         id="path362" /><path
         d="m 5297.16,2719.7 223.35,-128.8 -85.22,-149.6 c 0,0 179.78,-131.4 226.4,-335.7 l -526.38,303.5 161.85,310.6"
         style="fill:#343766;fill-opacity:1;fill-rule:nonzero;stroke:none"
         id="path364" /><path
         d="m 6828.42,9192.3 c 225.28,-39.7 437.25,-137.9 608.3,-289.8 198.13,-175.9 357.25,-437.2 165.05,-764.4 -257.71,-438.7 84.99,-1141.9 129.37,-1288.5 5.83,-19.2 -0.28,-39.9 -15.62,-53 -91.91,-78.2 -427.57,-329.8 -889.11,-280.1 -360.99,38.9 -556.04,146.1 -646.59,214 -40.87,30.6 -59.68,82.5 -48.12,132.3 l 163.76,736.8 c 0,0 -378.88,1212.8 281.26,1555.8 77.21,40.1 166.02,52 251.7,36.9"
         style="fill:#f9dd89;fill-opacity:1;fill-rule:nonzero;stroke:none"
         id="path366" /><path
         d="m 6968.72,10270.7 c 115.6,68 242.82,-23.1 306.3,-119.8 136.02,-207.1 170.43,-470.9 228.59,-708.3 19.39,-79.1 -28.48,-160.4 -107.83,-178.9 l -1.43,-0.4 c -125.36,-28.8 -255.99,-34.4 -383.36,-16.6 -30.07,69 -58.08,139 -88.15,208 -18.07,41.5 -36.26,83.3 -45.28,127.6 -11.15,54.9 -7.89,111.6 -2.7,167.3 16.08,172.9 42.45,355.2 93.86,521.1"
         style="fill:#343766;fill-opacity:1;fill-rule:nonzero;stroke:none"
         id="path368" /><path
         d="m 7274.44,9942.6 c 0,0 201.92,-611.5 -118.85,-608.7 -320.78,2.8 -531.68,362.7 -432.8,601.6 98.88,238.8 444.83,413 551.65,7.1"
         style="fill:#da8c8d;fill-opacity:1;fill-rule:nonzero;stroke:none"
         id="path370" /><g
         id="g372"><g
           id="g374"
           clip-path="url(#clipPath378)"><path
             d="m 7050.15,9849.6 c -26.42,4.1 -53.04,10.4 -75.94,24.2 -20.22,12.2 -36.79,29.9 -49.71,49.6 -24.44,37.4 -36.18,83.8 -27.72,127.6 8.46,43.9 38.44,84 79.93,100.5 29.08,11.5 61.61,11.3 92.5,6.4 87.94,-14 169.71,-66.3 208.62,-148 13.77,-28.9 23,-63.8 9.06,-94.5 -14.57,-32 -49.06,-48.6 -81.01,-58.3 -50.19,-15 -104.25,-15.5 -155.73,-7.5"
             style="fill:#c17276;fill-opacity:1;fill-rule:nonzero;stroke:none"
             id="path380" /></g></g><path
         d="m 6697.47,9806.4 c 0,0 -25.93,-346.9 -86.08,-645.6 -9.92,-49.3 52.56,-98.5 88.4,-133.6 51.43,-50.3 287.87,-179.4 312.38,-82.4 40.32,159.6 -27.33,682.4 -27.33,682.4 l -287.37,179.2"
         style="fill:#da8c8d;fill-opacity:1;fill-rule:nonzero;stroke:none"
         id="path382" /><path
         d="m 7012.49,9359.9 c 0,0 -17.16,4.6 -125.08,91.8 0,0 -14.57,-181.9 134.04,-225 0,0 -7.73,127.4 -8.96,133.2"
         style="fill:#c17276;fill-opacity:1;fill-rule:nonzero;stroke:none"
         id="path384" /><path
         d="m 7041.76,10073.7 c -28.8,-151 -58.92,-304.4 -76.23,-458 -36.64,-325.2 -388.99,-516.6 -678.39,-363.9 -30.33,16 -60.14,33.1 -89.36,51.2 10.79,236.4 84.43,478.3 195.97,686.9 52.61,98.4 116.48,194.1 206.9,259.5 88.42,63.9 206.46,94.8 309.25,59.3 96.18,-33.3 150.92,-135 131.86,-235"
         style="fill:#343766;fill-opacity:1;fill-rule:nonzero;stroke:none"
         id="path386" /><path
         d="m 7022.41,10044.3 c 22.37,-58.1 79.32,-97.2 139.19,-114 59.87,-16.8 123.2,-14.7 185.35,-12.5 -29.79,64.8 -69.67,124.8 -117.77,177.4 -27.64,30.2 -58.39,58.2 -94.59,77.3 -32.15,17 -69.28,26.8 -105.76,23 -8.25,-0.9 -10.11,-2.1 -11.44,-10.2 -1.51,-9.1 -2.71,-18.2 -3.78,-27.4 -2.12,-18.1 -3.39,-36.3 -2.64,-54.5 0.82,-20.1 4.17,-40.3 11.44,-59.1"
         style="fill:#343766;fill-opacity:1;fill-rule:nonzero;stroke:none"
         id="path388" /><path
         d="m 7539.44,7992 c 0,0 167.5,519.3 -31.52,841.3 0,0 303.67,-456 116.04,-879.4 l -84.52,38.1"
         style="fill:#f4c54e;fill-opacity:1;fill-rule:nonzero;stroke:none"
         id="path390" /><path
         d="M 8558.18,6812.8 H 8416.4 L 9136.5,4727.4 C 9297.8,4115.1 9736.89,3988 10212,4032.9 l 1199.4,113.1 c 0,0 104,378.9 -349.3,553.7 -453.3,174.9 -1413.4,193 -1413.4,193 l -641.01,1600.7 c -67.21,191.4 -247.37,319.4 -449.51,319.4"
         style="fill:#d4a4a4;fill-opacity:1;fill-rule:nonzero;stroke:none"
         id="path392" /><path
         d="m 8632.39,2083.8 c -4.6,0 -9.26,0.6 -13.9,2 -26.61,7.7 -41.97,35.5 -34.3,62.2 l 591.27,2060.6 c 39.39,137.3 166.29,233.1 308.61,233.1 H 10840 c 149.1,0 277.5,-101.6 312.3,-247.2 l 489.1,-2048.7 c 6.5,-27 -10.1,-54.1 -37.1,-60.6 -26.8,-6.6 -53.9,10.2 -60.4,37.2 l -489.1,2048.7 c -23.9,100.1 -112.3,170 -214.8,170 H 9484.07 c -97.89,0 -185.16,-66 -212.25,-160.4 L 8680.54,2120.2 c -6.33,-22.1 -26.37,-36.4 -48.15,-36.4"
         style="fill:#343766;fill-opacity:1;fill-rule:nonzero;stroke:none"
         id="path394" /><path
         d="m 6715.29,8588.8 582.4,-948.9 c 0,0 852.83,-473.6 1122,-722.9 l -86.81,-147.4 c 0,0 -1316.77,376.6 -1501.85,530.9 -185.1,154.3 -550.61,690.1 -528.81,895.7 21.79,205.7 39.84,393.8 413.07,392.6"
         style="fill:#da8c8d;fill-opacity:1;fill-rule:nonzero;stroke:none"
         id="path396" /><g
         id="g398"><g
           id="g400"
           clip-path="url(#clipPath404)"><path
             d="m 6711.86,7496.1 c -30.97,-11.9 -64.11,-21.8 -96.95,-17 -47.41,6.8 -86.18,43.7 -108,86.3 -21.82,42.7 -29.49,90.9 -36.87,138.3 -5.98,38.3 -11.96,77.5 -5.68,115.8 5.93,36.2 22.65,70 43.59,100.1 82.63,118.9 230.43,181.9 375.17,185.5 22.71,0.6 45.94,-0.2 67.29,-8 23.81,-8.7 43.66,-25.5 62.65,-42.3 24,-21.3 47.51,-43.1 70.5,-65.5 15.72,-15.2 38.12,-32.4 39.85,-56.2 1.53,-21 -11.18,-43.3 -19.4,-61.8 -10.33,-23.3 -21.96,-46 -34.78,-68 -51.58,-88.7 -122.37,-166.1 -205.95,-225.5 -46.86,-33.3 -97.77,-61 -151.42,-81.7"
             style="fill:#c17276;fill-opacity:1;fill-rule:nonzero;stroke:none"
             id="path406" /></g></g><path
         d="m 6348.22,7652.1 c 0,0 384.97,-1.1 801.31,367 0,0 -177.22,966.6 -522.32,971.4 -783.69,10.9 -278.99,-1338.4 -278.99,-1338.4"
         style="fill:#f9dd89;fill-opacity:1;fill-rule:nonzero;stroke:none"
         id="path408" /><path
         d="m 8416.4,6919.8 c 0,0 272.88,-213 263.79,-294.9 -9.1,-81.9 -239.35,117.1 -239.35,117.1 0,0 49.51,-114.5 40.24,-116.5 -9.25,-2 -113.14,134.4 -151.5,146.8 -38.36,12.5 86.82,147.5 86.82,147.5"
         style="fill:#da8c8d;fill-opacity:1;fill-rule:nonzero;stroke:none"
         id="path410" /><path
         d="m 6373.79,7633.9 c 0,0 -202.46,539.1 -184.83,776.5 0,0 -13.9,-475.7 85.28,-827 0,0 85.95,-408 601.88,-313 0,0 -196.1,174.7 -354.33,407.6 l -148,-44.1"
         style="fill:#f4c54e;fill-opacity:1;fill-rule:nonzero;stroke:none"
         id="path412" /><path
         d="m 6668.91,8786.3 c 0,0 234.32,-222.6 308.52,-508 0,0 -348.16,544.9 -496.56,555 0,0 102.85,24.5 188.04,-47"
         style="fill:#f4c54e;fill-opacity:1;fill-rule:nonzero;stroke:none"
         id="path414" /><path
         d="m 9617.05,8179.8 c 0,0 407.55,0.7 444.75,30.5 37.1,29.7 -208.02,157.6 -300.88,166.1 -92.86,8.4 -143.87,-19.5 -143.87,-19.5 v -177.1"
         style="fill:#da8c8d;fill-opacity:1;fill-rule:nonzero;stroke:none"
         id="path416" /><path
         d="M 7936.46,8482.8 8284.95,8231 c 0,0 1010.05,120.1 1332.1,125.9 v -177.1 c 0,0 -1116.06,-386.4 -1401.45,-346.9 -285.4,39.5 -570.57,154.8 -570.57,154.8 l 291.43,495.1"
         style="fill:#da8c8d;fill-opacity:1;fill-rule:nonzero;stroke:none"
         id="path418" /><path
         d="m 10259.8,9079.8 c 0,0 -341.59,-34.6 -429.46,-170.2 -87.87,-135.5 -213.29,-1230.4 -213.29,-1230.4 0,0 854.45,75.8 1003.35,240.4 149,164.7 133.3,1222.9 133.3,1222.9 l -493.9,-62.7"
         style="fill:#ffffff;fill-opacity:1;fill-rule:nonzero;stroke:none"
         id="path420" /><path
         d="m 9658.48,8370.8 c 0,0 174.94,39.2 190.44,18.6 15.5,-20.7 -119.42,-86.1 -175.64,-86.1 -56.23,0 -14.8,67.5 -14.8,67.5"
         style="fill:#da8c8d;fill-opacity:1;fill-rule:nonzero;stroke:none"
         id="path422" /><path
         d="m 29536.5,8857.6 -498.7,-811.8 485.8,-491.3 359.9,678.7 -347,624.4"
         style="fill:#f4c54e;fill-opacity:1;fill-rule:nonzero;stroke:none"
         id="path424" /><path
         d="m 29831.9,7364.8 c -20.3,-29.7 -5.3,-78.7 0.2,-118.4 27.4,-197.4 54.8,-394.8 82.1,-592.2 42.2,-304.4 84.5,-608.7 126.7,-913 48.9,-352.9 97.9,-705.8 146.8,-1058.7 47.6,-343.1 95.2,-686.3 142.8,-1029.5 38.2,-275.1 76.3,-550.3 114.5,-825.5 20.6,-148.8 41.3,-297.6 61.9,-446.4 1.6,-11.5 3.2,-23 4.8,-34.4 h 252.4 L 30855,5163 c 0,0 224.2,1229 246.6,1923.4 5.7,177.6 -56.8,203.3 -215.7,237.5 -323.7,69.7 -680.7,124.1 -1010.5,65.2 -21.9,-3.9 -35.4,-12.6 -43.5,-24.3"
         style="fill:#39548b;fill-opacity:1;fill-rule:nonzero;stroke:none"
         id="path426" /><path
         d="m 29621.5,7554.5 c -21.3,-38.2 -567.5,-2339.9 -532.7,-2755.6 34.9,-415.8 411.8,-2452.2 411.8,-2452.2 l 229.6,3.4 34.9,2402.9 c 0,0 823.3,1728.5 774.2,2331 -49,602.4 -917.8,470.5 -917.8,470.5"
         style="fill:#39548b;fill-opacity:1;fill-rule:nonzero;stroke:none"
         id="path428" /><path
         d="m 30079.1,5465.7 -265.1,1155.4 32.5,-1692 z"
         style="fill:#343766;fill-opacity:1;fill-rule:nonzero;stroke:none"
         id="path430" /><path
         d="M 30774.5,2462.2 H 30498 l 17.6,-198.3 c 0,0 -254.8,-11.4 -406.7,-175.8 h 651.5 l 14.1,374.1"
         style="fill:#343766;fill-opacity:1;fill-rule:nonzero;stroke:none"
         id="path432" /><path
         d="m 29738,2462.2 h -276.5 l 17.6,-198.3 c 0,0 -254.8,-11.4 -406.7,-175.8 h 651.5 l 14.1,374.1"
         style="fill:#343766;fill-opacity:1;fill-rule:nonzero;stroke:none"
         id="path434" /><path
         d="m 31154.6,7321.8 c 22.5,-294.6 130.6,-349.2 -380.2,-637.3 0,0 -734.6,-367.4 -1373.5,170.3 l 122.7,699.7 c 53,201.4 48.3,658 9.6,862.6 -22.1,116.8 -38.3,244 -26.1,326.9 49.9,341.3 442.7,605 442.7,605 l 320.3,36.2 c 40.5,4.5 -38.5,4 0,0 515.7,-54 738.3,-424.6 911.1,-750.6 0,0 386.1,-836.1 289.6,-1066.7 -96.6,-230.6 -316.2,-246.1 -316.2,-246.1"
         style="fill:#f9dd89;fill-opacity:1;fill-rule:nonzero;stroke:none"
         id="path436" /><path
         d="m 30120.4,9904.7 c 0,-46.9 38,-84.9 84.9,-84.9 46.9,0 84.9,38 84.9,84.9 0,46.9 -38,84.9 -84.9,84.9 -46.9,0 -84.9,-38 -84.9,-84.9"
         style="fill:#f1a29f;fill-opacity:1;fill-rule:nonzero;stroke:none"
         id="path438" /><path
         d="m 29858.8,9904.8 c 32.7,-11.9 67.6,-16.5 102.2,-19.9 133.4,-13.2 281.3,-6.7 381.6,82.1 12.5,11 24.9,26.3 21.2,42.5 -1.5,6.3 -5.2,11.7 -9,16.9 -99.3,138.1 -254.1,233.5 -420.6,265.7 -84.5,16.4 -182.7,22.3 -263.8,-11 -81.5,-33.5 -83,-104.8 -40.5,-172.7 27.7,-44.3 65.7,-82.2 103.2,-118.3 36.6,-35.2 77.4,-67.8 125.7,-85.3"
         style="fill:#1f1949;fill-opacity:1;fill-rule:nonzero;stroke:none"
         id="path440" /><path
         d="m 29795.8,10478.4 c -66.5,-23.7 -129.7,-59.1 -179.3,-109.5 -136.5,-138.5 -141.3,-375.2 -36.7,-539.2 104.7,-164 298.1,-257.5 491.8,-275 97,-8.7 201.6,1.9 278.5,61.6 46.2,35.8 78.6,86.5 103.4,139.4 39,83.2 60.2,174.5 63.5,266.3 1.6,46.1 -1.3,92.4 -8.7,137.9 -7.5,45.7 -21.8,88.3 -35.1,132.4 -4.3,14.3 -6.6,27.1 -16.7,38.8 -13.1,15.2 -29.8,28.3 -45.5,40.9 -32.4,26 -67.5,48.6 -104.4,67.7 -73.4,37.9 -154,61.7 -236.1,70.3 -82.1,8.5 -165.9,1.7 -245,-21.8 -10,-3 -19.9,-6.3 -29.7,-9.8"
         style="fill:#343766;fill-opacity:1;fill-rule:nonzero;stroke:none"
         id="path442" /><path
         d="m 29657.4,9831 c 0,0 222,-563.2 452,-368.2 230,194.9 165.8,581.8 -49.2,694.8 -215.1,113 -569.8,30.8 -402.8,-326.6"
         style="fill:#da8c8d;fill-opacity:1;fill-rule:nonzero;stroke:none"
         id="path444" /><g
         id="g446"><g
           id="g448"
           clip-path="url(#clipPath452)"><path
             d="m 29740.9,9847.9 c 61.4,-28 128.3,-41.5 195.2,-49.7 130.4,-16.1 263.1,-12.5 392.4,10.4 6.7,89.4 2.6,179.6 -12.2,268 -5.1,30.7 -11.7,61.7 -26.5,89.2 -21.7,40.4 -59.5,70.1 -100.2,91.4 -90,47.3 -195.2,58.2 -296.8,52.9 -60,-3.1 -121.8,-12.2 -172.7,-44 -59.2,-36.9 -94.9,-99.6 -114.7,-164.9 -10.1,-33.4 -17.5,-68.6 -20.4,-103.4 -1.3,-16.3 4.9,-23.1 14.4,-35.3 11.7,-15.1 22.8,-29.9 36.4,-43.4 30.3,-29.9 66.5,-53.5 105.1,-71.2"
             style="fill:#c17276;fill-opacity:1;fill-rule:nonzero;stroke:none"
             id="path454" /></g></g><path
         d="m 30254.1,9819.8 c 0,0 3.8,-207.5 53.8,-501.6 7.9,-46.6 -14.2,-84.7 -46,-119.5 -45.6,-50 -168.5,-114.7 -262.5,-113.4 -147,2.1 -10.3,641.8 -10.3,641.8 l 265,92.7"
         style="fill:#da8c8d;fill-opacity:1;fill-rule:nonzero;stroke:none"
         id="path456" /><path
         d="m 29942.4,9436.2 c 0,0 54.7,5 144.8,104.3 0,0 -17.7,-161.1 -154.9,-209.3 0,0 9.3,99.4 10.1,105"
         style="fill:#c17276;fill-opacity:1;fill-rule:nonzero;stroke:none"
         id="path458" /><path
         d="m 30175.7,9996.3 c -27.4,67 -56.2,136 -108.1,186.6 -49.4,48.2 -118.3,76 -187.3,75.5 -51.2,-0.4 -102,-16.2 -144.8,-44.3 -12.7,-8.3 -52,-31.4 -48.4,-49.7 1.9,-9.7 14.9,-16.7 21.9,-22.4 9.8,-8 18.9,-16.8 28.6,-24.9 38.5,-32 81.4,-58.4 127.1,-78.8 45.7,-20.3 94.1,-34.6 143.5,-42.2 49.1,-7.6 99.3,-8.6 148.7,-2.5 6.3,0.8 12.6,1.7 18.8,2.7"
         style="fill:#343766;fill-opacity:1;fill-rule:nonzero;stroke:none"
         id="path460" /><path
         d="m 31154.6,7321.8 c 0,0 -179.8,1.5 -312.1,11.7 -132.3,10.1 336.7,-229.6 336.7,-229.6 l -24.6,217.9"
         style="fill:#f4c54e;fill-opacity:1;fill-rule:nonzero;stroke:none"
         id="path462" /><path
         d="m 30634.7,7844.2 240.1,55.6 c 0,0 -233.2,533 -219.6,722.3 0,0 -113.8,-392.6 -20.5,-777.9"
         style="fill:#f4c54e;fill-opacity:1;fill-rule:nonzero;stroke:none"
         id="path464" /><path
         d="m 30008.6,7410.9 -964,1232.2 -688.9,-456.4 1013.5,-1207 639.4,431.2"
         style="fill:#343766;fill-opacity:1;fill-rule:nonzero;stroke:none"
         id="path466" /><path
         d="m 28355.7,8186.7 350.5,638.4 212.7,-265.3 z"
         style="fill:#343766;fill-opacity:1;fill-rule:nonzero;stroke:none"
         id="path468" /><path
         d="m 28981.8,8601.5 -137.7,178.8 -488.4,-593.6 z"
         style="fill:#fafafa;fill-opacity:1;fill-rule:nonzero;stroke:none"
         id="path470" /><path
         d="m 29495.7,7700.2 c 44.3,12.6 215,-24.7 320.5,-50.1 -84.3,59.9 -73.2,100.3 -73.2,100.3 l 199.9,-110 c 139.8,40 603.9,167.4 848.2,171 0,0 209.1,-109.3 178.1,-355.6 -6.3,-50.6 -48.8,-88.9 -99.8,-89.4 -161.6,-1.7 -537.5,47.2 -904.8,57.2 0,0 -129.5,-31.3 -289,18.1 -159.5,49.4 -245.3,239.9 -179.9,258.5"
         style="fill:#da8c8d;fill-opacity:1;fill-rule:nonzero;stroke:none"
         id="path472" /><path
         d="m 30036,10577.5 c -34.6,72.9 -53.4,160.9 -17.2,233.1 37.2,74 132.9,112.6 211,85 78.2,-27.6 128.5,-117.7 110.9,-198.7 35.8,65.9 85.2,126.2 150.4,163.2 65.2,37 147.5,48.1 216,17.8 68.6,-30.3 117.8,-106 106.4,-180.1 -10,-64.8 -60.1,-115.1 -108.1,-159.9 78.3,23.9 168.2,-24.2 201.9,-98.8 33.7,-74.6 15.2,-166.6 -36,-230.5 -51.2,-63.8 -130.7,-101 -211.8,-112.2 -106.1,-14.7 -216.1,16 -302.8,78 -42.8,30.5 -84.6,69.9 -109.1,116.9 -8.7,16.7 -14.4,34.8 -24.6,50.6 -15.1,23.4 -37.8,39.8 -57.8,58.6 -53.5,50.4 -97.7,110.6 -129.2,177"
         style="fill:#343766;fill-opacity:1;fill-rule:nonzero;stroke:none"
         id="path474" /><path
         d="m 30070.5,10510 c 0,0 347.6,-23.9 446.9,-407.4 0,0 13,288.3 -99.3,383.5 -112.3,95.1 -347.6,23.9 -347.6,23.9"
         style="fill:#f9dd89;fill-opacity:1;fill-rule:nonzero;stroke:none"
         id="path476" /><path
         d="m 18232.4,4063.9 -614.9,-210.2 c -305.5,-104.5 -637.2,-104.5 -942.7,0 l -614.9,210.2 c -119.7,40.9 -200.2,153.4 -200.2,280 v 1634.2 c 0,401.5 325.5,727.1 727.1,727.1 h 1118.7 c 401.6,0 727.1,-325.6 727.1,-727.1 V 4343.9 c 0,-126.6 -80.5,-239.1 -200.2,-280"
         style="fill:#d4a4a4;fill-opacity:1;fill-rule:nonzero;stroke:none"
         id="path478" /><path
         d="m 18426.4,4438.7 v 728 h -99.4 v -728 l 453.7,-2357.9 h 99.4 l -453.7,2357.9"
         style="fill:#1f1949;fill-opacity:1;fill-rule:nonzero;stroke:none"
         id="path480" /><path
         d="m 15859,5166.7 v -728 l -453.7,-2357.9 h 99.4 l 453.7,2357.9 v 728 h -99.4"
         style="fill:#1f1949;fill-opacity:1;fill-rule:nonzero;stroke:none"
         id="path482" /><path
         d="m 17127.6,3980 c -199.1,0 -376.3,21.3 -524.9,50.1 -467.7,90.5 -754.7,268.5 -766.6,276.1 l 47.3,75.4 -23.7,-37.7 23.7,37.7 c 2.8,-1.8 287.6,-177.9 740,-264.8 416.5,-80 1064.9,-98.7 1789.1,266.8 l 40.1,-79.5 c -490.1,-247.4 -947,-324.1 -1325,-324.1"
         style="fill:#1f1949;fill-opacity:1;fill-rule:nonzero;stroke:none"
         id="path484" /><path
         d="m 15013.2,6442.6 h -1890.3 l 308.5,1296.2 h 1890.3 l -308.5,-1296.2"
         style="fill:#1f1949;fill-opacity:1;fill-rule:nonzero;stroke:none"
         id="path486" /><path
         d="m 14391.9,7089.7 c -25.6,-86.2 -122.2,-155.7 -215.8,-155.2 -93.7,0.6 -148.9,70.9 -123.4,157.2 25.6,86.2 122.2,155.7 215.8,155.2 93.7,-0.5 148.9,-70.9 123.4,-157.2"
         style="fill:#ffffff;fill-opacity:1;fill-rule:nonzero;stroke:none"
         id="path488" /><path
         d="m 16088.6,10602.8 c 0,443.5 -487.2,803.1 -1088.1,803.1 -600.9,0 -1088.1,-359.6 -1088.1,-803.1 0,-274.8 187.2,-517.3 472.4,-662.1 l -94.3,-349.3 c 0,0 591.3,38.7 1135.3,272 171.5,53.8 320.3,139.3 433.3,246.4 l 1.4,1.1 -0.3,-0.1 c 143,136 228.4,306.6 228.4,492"
         style="fill:#ffffff;fill-opacity:1;fill-rule:nonzero;stroke:none"
         id="path490" /><path
         d="m 14600.7,10632.8 c 0,-47.7 -38.6,-86.3 -86.3,-86.3 -47.6,0 -86.2,38.6 -86.2,86.3 0,47.6 38.6,86.2 86.2,86.2 47.7,0 86.3,-38.6 86.3,-86.2"
         style="fill:#b0b6d0;fill-opacity:1;fill-rule:nonzero;stroke:none"
         id="path492" /><path
         d="m 15096.4,10632.8 c 0,-47.7 -38.6,-86.3 -86.2,-86.3 -47.6,0 -86.3,38.6 -86.3,86.3 0,47.6 38.7,86.2 86.3,86.2 47.6,0 86.2,-38.6 86.2,-86.2"
         style="fill:#b0b6d0;fill-opacity:1;fill-rule:nonzero;stroke:none"
         id="path494" /><path
         d="m 15572.8,10632.8 c 0,-47.7 -38.6,-86.3 -86.3,-86.3 -47.6,0 -86.2,38.6 -86.2,86.3 0,47.6 38.6,86.2 86.2,86.2 47.7,0 86.3,-38.6 86.3,-86.2"
         style="fill:#b0b6d0;fill-opacity:1;fill-rule:nonzero;stroke:none"
         id="path496" /><path
         d="m 17906.4,10411.5 c 0,362.3 398,656.1 889,656.1 491,0 889,-293.8 889,-656.1 0,-224.6 -152.9,-422.7 -386,-541 l 77.1,-285.3 c 0,0 -483.1,31.5 -927.6,222.2 -140.1,44 -261.7,113.8 -354,201.3 l -1.2,0.9 h 0.3 c -116.9,111 -186.6,250.4 -186.6,401.9"
         style="fill:#ffffff;fill-opacity:1;fill-rule:nonzero;stroke:none"
         id="path498" /><path
         d="m 19122,10436 c 0,-38.9 31.6,-70.5 70.5,-70.5 38.9,0 70.5,31.6 70.5,70.5 0,38.9 -31.6,70.4 -70.5,70.4 -38.9,0 -70.5,-31.5 -70.5,-70.4"
         style="fill:#b0b6d0;fill-opacity:1;fill-rule:nonzero;stroke:none"
         id="path500" /><path
         d="m 18717,10436 c 0,-38.9 31.5,-70.5 70.5,-70.5 38.9,0 70.4,31.6 70.4,70.5 0,38.9 -31.5,70.4 -70.4,70.4 -39,0 -70.5,-31.5 -70.5,-70.4"
         style="fill:#b0b6d0;fill-opacity:1;fill-rule:nonzero;stroke:none"
         id="path502" /><path
         d="m 18327.8,10436 c 0,-38.9 31.6,-70.5 70.5,-70.5 38.9,0 70.4,31.6 70.4,70.5 0,38.9 -31.5,70.4 -70.4,70.4 -38.9,0 -70.5,-31.5 -70.5,-70.4"
         style="fill:#b0b6d0;fill-opacity:1;fill-rule:nonzero;stroke:none"
         id="path504" /><path
         d="M 31825.3,1961.2 H 2936.97 c -35.13,0 -63.62,28.4 -63.62,63.6 0,35.1 28.49,63.6 63.62,63.6 H 31825.3 c 35.1,0 63.6,-28.5 63.6,-63.6 0,-35.2 -28.5,-63.6 -63.6,-63.6"
         style="fill:#343766;fill-opacity:1;fill-rule:nonzero;stroke:none"
         id="path506" /><path
         d="m 2888.69,4328.2 c -196.37,436.9 -295.73,910.7 -376.46,1382.8 460.83,-165.1 808.74,-568.6 995.44,-1021.2 144.57,-350.4 202.3,-729.9 218.13,-1106.8 2.58,-61.4 29.03,-193.8 -41.53,-229.9 -55.58,-28.5 -145.75,77.7 -183.6,111.5 -125.73,112.4 -237.31,240.2 -335.18,377.5 -108.45,152.1 -200.26,315.8 -276.8,486.1"
         style="fill:#a6c4a8;fill-opacity:1;fill-rule:nonzero;stroke:none"
         id="path508" /><path
         d="m 3488.32,4453.6 c 41.07,477.3 184.76,939.4 344,1391.2 322.21,-368.5 429.81,-890.3 372.71,-1376.5 -44.21,-376.5 -178.45,-736.1 -348,-1073.1 -27.64,-54.9 -68.99,-183.5 -148.19,-180.7 -62.4,2.2 -89.52,138.8 -106.12,186.8 -55.12,159.4 -90.42,325.4 -109.14,492.9 -20.73,185.6 -21.27,373.4 -5.26,559.4"
         style="fill:#a6c4a8;fill-opacity:1;fill-rule:nonzero;stroke:none"
         id="path510" /><path
         d="m 2650.33,3691.4 c -319.93,233.5 -585.24,533 -836.55,839.1 398.63,70.1 813.73,-77.3 1133.1,-325.9 247.31,-192.5 444.16,-441.5 609.82,-705.7 26.99,-43 100.23,-127.3 64.33,-182.2 -28.28,-43.1 -136.5,-3.8 -177.56,5 -136.33,29.3 -268.8,75.4 -395.29,133.9 -140.16,64.8 -273.14,144.9 -397.85,235.8"
         style="fill:#668c68;fill-opacity:1;fill-rule:nonzero;stroke:none"
         id="path512" /><path
         d="m 3980.54,4216.3 c 185.58,250.1 429.16,462.5 717.52,580.2 -32.37,-341.8 -100,-690.6 -286.46,-978.9 -66.77,-103.2 -150.26,-195.9 -246.32,-272.6 -95.76,-76.6 -204.81,-137.6 -322.23,-173.6 -83.65,-25.7 -239.45,-73.8 -246.95,60.1 -3.42,60.8 27.25,119.6 49.61,174.4 27.08,66.3 56.02,131.8 87.19,196.3 62.46,129.2 133.96,254.2 216.77,371.5 10.12,14.3 20.41,28.5 30.87,42.6"
         style="fill:#668c68;fill-opacity:1;fill-rule:nonzero;stroke:none"
         id="path514" /><path
         d="M 4018.8,2085.3 H 3289.73 L 3041.85,3455.6 H 4219.63 L 4018.8,2085.3"
         style="fill:#1f1949;fill-opacity:1;fill-rule:nonzero;stroke:none"
         id="path516" /><g
         id="g518"><g
           id="g520"
           clip-path="url(#clipPath524)"><path
             d="m 3535.14,2806.6 c -127.48,-0.1 -254.71,8.6 -380.78,27 l -112.51,622 h 1177.78 l -86.38,-589.4 c -197.44,-38.3 -398.11,-59.6 -598.11,-59.6"
             style="fill:#313060;fill-opacity:1;fill-rule:nonzero;stroke:none"
             id="path526" /></g></g><path
         d="m 3590.38,3428.7 c -87.68,178.9 -259.05,379 -387.36,515.3 -139.2,147.9 -259.17,254.8 -260.36,255.8 l 8.45,9.6 c 1.2,-1.1 121.52,-108.3 261.09,-256.6 128.95,-137 301.21,-338.1 389.61,-518.5 l -11.43,-5.6"
         style="fill:#343766;fill-opacity:1;fill-rule:nonzero;stroke:none"
         id="path528" /><path
         d="m 3528.71,3641.5 c -136.4,525.8 -28.37,1044.5 -27.26,1049.7 l 12.44,-2.7 c -1.1,-5.2 -108.48,-521 27.13,-1043.8 l -12.31,-3.2"
         style="fill:#343766;fill-opacity:1;fill-rule:nonzero;stroke:none"
         id="path530" /></g></g></svg>
