<?xml version="1.0" encoding="UTF-8" standalone="no"?>
<!-- Created with Inkscape (http://www.inkscape.org/) -->

<svg
   version="1.1"
   id="svg2"
   width="5333.3335"
   height="3333.3333"
   viewBox="0 0 5333.3335 3333.3333"
   sodipodi:docname="vecteezy_rules-vector-illustration-flat-tiny-reading-guidance_20310247.eps"
   xmlns:inkscape="http://www.inkscape.org/namespaces/inkscape"
   xmlns:sodipodi="http://sodipodi.sourceforge.net/DTD/sodipodi-0.dtd"
   xmlns="http://www.w3.org/2000/svg"
   xmlns:svg="http://www.w3.org/2000/svg">
  <defs
     id="defs6" />
  <sodipodi:namedview
     id="namedview4"
     pagecolor="#ffffff"
     bordercolor="#000000"
     borderopacity="0.25"
     inkscape:showpageshadow="2"
     inkscape:pageopacity="0.0"
     inkscape:pagecheckerboard="0"
     inkscape:deskcolor="#d1d1d1" />
  <g
     id="g8"
     inkscape:groupmode="layer"
     inkscape:label="ink_ext_XXXXXX"
     transform="matrix(1.3333333,0,0,-1.3333333,0,3333.3333)">
    <g
       id="g10"
       transform="scale(0.1)">
      <path
         d="M 0,0 H 40000 V 25000 H 0 Z"
         style="fill:#ffffff;fill-opacity:1;fill-rule:nonzero;stroke:none"
         id="path12" />
      <path
         d="M 32928.3,3000.6 H 7221.76 c 0,0 -4055.79,3244.8 -1491.1,7105.5 2564.7,3860.6 3519.01,2997.6 3519.01,7160.6 0,3119.5 2176.93,5811.5 5275.83,5811.5 1036.7,0 2176.5,-301.2 3372.5,-988.4 4487.9,-2578.6 3719.2,-3455.4 8971.5,-3455.4 332,0 687.3,3.5 1070.2,10.3 87.7,1.6 174.2,2.3 259.2,2.3 6156.1,0 5199.3,-4043.7 4669.8,-7057.3 -536.8,-3055.3 -417.5,-3613.7 596.4,-5136.8 1014,-1523.1 1014,-2690.8 -536.8,-3452.3 M 13897.5,18223.1 V 3201.5 h 10972.2 v 6465.1 c 361.5,313.9 609.2,755.5 672.7,1254.7 28,-9.4 57.1,-16.1 86,-16.9 18.2,-0.5 33.9,-3.7 47.4,-8.3 24,18.4 71.9,126.5 82.2,148 -13.2,17.7 -42.1,60.8 -53.1,113.4 -14.6,69.1 -80.7,114.5 -86.8,162.2 -2.4,18.5 -12.4,27.4 -23.3,27.4 -17.2,0 -36.5,-22.5 -30.6,-64.9 9.7,-69.2 27.8,-95.6 27.8,-95.6 0,0 -12.6,2.3 -33.7,9.8 -5.9,594.3 -271.5,1126.6 -688.6,1488.7 v 5538 H 13897.5"
         style="fill:#e8eef9;fill-opacity:1;fill-rule:nonzero;stroke:none"
         id="path14" />
      <path
         d="m 4920.83,3176.5 c 0,0 34.38,-685 4537.51,-965.2 C 13961.5,1931 17402,1901.3 20790.7,1931 c 3388.9,29.8 13598.8,-56 14314.6,742.7 0,0 372.7,546.4 -2698.9,1022.8 -3071.7,476.4 -8335.3,504.5 -10094.8,392.4 -1759.5,-112.1 -8969.7,-165.8 -11032.2,-58.8 -2187.93,113.5 -6537.5,-82.9 -6358.57,-853.6"
         style="fill:#d7e1f4;fill-opacity:1;fill-rule:nonzero;stroke:none"
         id="path16" />
      <path
         d="M 14309,3612.9 H 24458.2 V 17811.6 H 14309 V 3612.9 M 24869.7,3201.5 H 13897.5 V 18223.1 H 24869.7 V 3201.5"
         style="fill:#8ea4db;fill-opacity:1;fill-rule:nonzero;stroke:none"
         id="path18" />
      <path
         d="M 14309,3612.9 H 24458.2 V 17811.6 H 14309 Z"
         style="fill:#fcfeff;fill-opacity:1;fill-rule:nonzero;stroke:none"
         id="path20" />
      <path
         d="m 21833.6,13492.2 h 1331.7 v 1329.1 h -1331.7 z m 1409.6,-77.7 h -1487.5 v 1484.6 h 1487.5 v -1484.6"
         style="fill:#b7ceee;fill-opacity:1;fill-rule:nonzero;stroke:none"
         id="path22" />
      <path
         d="m 21833.6,14821.3 v -1329.1 h 1331.7 v 1329.1 h -1331.7"
         style="fill:#ffffff;fill-opacity:1;fill-rule:nonzero;stroke:none"
         id="path24" />
      <path
         d="m 22529.4,13737.1 -519.6,612.1 c -27.8,32.8 -23.8,81.9 9,109.6 32.9,27.8 82,23.7 109.8,-9 l 382.8,-450.9 729.2,1146.1 c 23,36.3 71.2,47 107.5,24 36.3,-23 47.1,-71.1 24,-107.3 l -842.7,-1324.6"
         style="fill:#f68736;fill-opacity:1;fill-rule:nonzero;stroke:none"
         id="path26" />
      <path
         d="M 20466.2,14406.8 H 16612 v 138.7 h 3854.2 v -138.7"
         style="fill:#b7ceee;fill-opacity:1;fill-rule:nonzero;stroke:none"
         id="path28" />
      <path
         d="M 20466.2,14068.8 H 16612 v 138.7 h 3854.2 v -138.7"
         style="fill:#b7ceee;fill-opacity:1;fill-rule:nonzero;stroke:none"
         id="path30" />
      <path
         d="M 20084.1,13730.8 H 16612 v 138.7 h 3472.1 v -138.7"
         style="fill:#b7ceee;fill-opacity:1;fill-rule:nonzero;stroke:none"
         id="path32" />
      <path
         d="m 21919.6,11050.6 h 1331.6 v 1329.1 h -1331.6 v -1329.1 m 1409.6,-77.8 h -1487.5 v 1484.6 h 1487.5 v -1484.6"
         style="fill:#b7ceee;fill-opacity:1;fill-rule:nonzero;stroke:none"
         id="path34" />
      <path
         d="m 21919.6,11050.6 h 1331.6 v 1329.1 h -1331.6 z"
         style="fill:#ffffff;fill-opacity:1;fill-rule:nonzero;stroke:none"
         id="path36" />
      <path
         d="m 22615.3,11295.5 -519.6,612.1 c -27.8,32.7 -23.8,81.8 9.1,109.6 32.8,27.7 82,23.6 109.7,-9.1 l 382.8,-450.9 729.2,1146.2 c 23.1,36.2 71.2,46.9 107.5,23.9 36.3,-23 47.1,-71.1 24,-107.3 l -842.7,-1324.5"
         style="fill:#f68736;fill-opacity:1;fill-rule:nonzero;stroke:none"
         id="path38" />
      <path
         d="M 20552.1,11965.2 H 16698 v 138.6 h 3854.1 v -138.6"
         style="fill:#b7ceee;fill-opacity:1;fill-rule:nonzero;stroke:none"
         id="path40" />
      <path
         d="M 20552.1,11627.2 H 16698 v 138.6 h 3854.1 v -138.6"
         style="fill:#b7ceee;fill-opacity:1;fill-rule:nonzero;stroke:none"
         id="path42" />
      <path
         d="m 20170,11289.2 h -3472 v 138.6 h 3472 v -138.6"
         style="fill:#b7ceee;fill-opacity:1;fill-rule:nonzero;stroke:none"
         id="path44" />
      <path
         d="m 21919.6,8608.9 h 1331.6 V 9938 H 21919.6 V 8608.9 m 1409.6,-77.7 h -1487.5 v 1484.5 h 1487.5 V 8531.2"
         style="fill:#b7ceee;fill-opacity:1;fill-rule:nonzero;stroke:none"
         id="path46" />
      <path
         d="m 21919.6,8608.9 h 1331.6 V 9938 h -1331.6 z"
         style="fill:#ffffff;fill-opacity:1;fill-rule:nonzero;stroke:none"
         id="path48" />
      <path
         d="m 22615.3,8853.8 -519.6,612.1 c -27.8,32.8 -23.8,81.8 9.1,109.6 32.8,27.7 82,23.7 109.7,-9.1 l 382.8,-450.8 729.2,1146.1 c 23.1,36.2 71.2,47 107.5,23.9 36.3,-23 47.1,-71 24,-107.3 l -842.7,-1324.5"
         style="fill:#f68736;fill-opacity:1;fill-rule:nonzero;stroke:none"
         id="path50" />
      <path
         d="M 20552.1,9523.5 H 16698 v 138.7 h 3854.1 v -138.7"
         style="fill:#b7ceee;fill-opacity:1;fill-rule:nonzero;stroke:none"
         id="path52" />
      <path
         d="M 20552.1,9185.5 H 16698 v 138.7 h 3854.1 v -138.7"
         style="fill:#b7ceee;fill-opacity:1;fill-rule:nonzero;stroke:none"
         id="path54" />
      <path
         d="m 20170,8847.5 h -3472 v 138.7 h 3472 v -138.7"
         style="fill:#b7ceee;fill-opacity:1;fill-rule:nonzero;stroke:none"
         id="path56" />
      <path
         d="m 21919.6,6167.2 h 1331.7 v 1329.1 h -1331.7 z m 1409.6,-77.7 h -1487.5 v 1484.6 h 1487.5 V 6089.5"
         style="fill:#b7ceee;fill-opacity:1;fill-rule:nonzero;stroke:none"
         id="path58" />
      <path
         d="M 21919.6,7496.3 V 6167.2 h 1331.7 v 1329.1 h -1331.7"
         style="fill:#ffffff;fill-opacity:1;fill-rule:nonzero;stroke:none"
         id="path60" />
      <path
         d="m 22615.3,6412.1 -519.6,612.1 c -27.8,32.8 -23.8,81.9 9.1,109.6 32.8,27.8 82,23.7 109.8,-9 l 382.7,-450.9 729.2,1146.1 c 23.1,36.3 71.2,47 107.5,24 36.3,-23 47.1,-71.1 24,-107.3 l -842.7,-1324.6"
         style="fill:#f68736;fill-opacity:1;fill-rule:nonzero;stroke:none"
         id="path62" />
      <path
         d="M 20552.1,7081.8 H 16698 v 138.7 h 3854.1 v -138.7"
         style="fill:#b7ceee;fill-opacity:1;fill-rule:nonzero;stroke:none"
         id="path64" />
      <path
         d="M 20552.1,6743.8 H 16698 v 138.7 h 3854.1 v -138.7"
         style="fill:#b7ceee;fill-opacity:1;fill-rule:nonzero;stroke:none"
         id="path66" />
      <path
         d="m 20170,6405.8 h -3472 v 138.7 h 3472 v -138.7"
         style="fill:#b7ceee;fill-opacity:1;fill-rule:nonzero;stroke:none"
         id="path68" />
      <path
         d="m 15526.9,14574.8 h -2.9 l -167.9,-90.6 -25.3,99.5 211,112.9 h 111.5 v -965.8 h -126.4 v 844"
         style="fill:#b7ceee;fill-opacity:1;fill-rule:nonzero;stroke:none"
         id="path70" />
      <path
         d="m 15526.9,14574.8 v 20 h -8 l -149.7,-80.8 -15.1,59.5 192.7,103.1 h 86.5 v -925.8 h -86.4 v 844 h -20 v -20 h -20 v -864 h 166.4 v 1005.8 h -136.5 l -229.2,-122.6 35.4,-139.6 190.5,102.8 -9.5,17.6 v -20 h 2.9 v 20 h -20 20"
         style="fill:#b7ceee;fill-opacity:1;fill-rule:nonzero;stroke:none"
         id="path72" />
      <path
         d="m 16015.8,13808.1 c 0,55 37.2,93.6 89.2,93.6 52,0 87.6,-38.6 87.6,-93.6 0,-53.5 -34.1,-93.6 -89.1,-93.6 -52,0 -87.7,40.1 -87.7,93.6"
         style="fill:#b7ceee;fill-opacity:1;fill-rule:nonzero;stroke:none"
         id="path74" />
      <path
         d="m 16015.8,13808.1 h 20 c 0.1,23 7.6,41.1 19.6,53.6 12,12.5 28.5,19.9 49.6,20 21,-0.1 37,-7.5 48.7,-19.8 11.5,-12.4 18.9,-30.6 18.9,-53.8 0,-22.6 -7.1,-40.8 -18.6,-53.3 -11.7,-12.5 -27.9,-20.2 -50.5,-20.3 -20.8,0.1 -36.9,7.7 -48.6,20.3 -11.7,12.7 -19,31 -19.1,53.3 h -20 -20 c 0,-31.2 10.5,-59.7 29.7,-80.4 19,-20.8 46.8,-33.3 78,-33.2 32.3,-0.1 60.7,12.2 79.9,33.2 19.3,20.9 29.3,49.4 29.2,80.4 0.1,31.8 -10.4,60.4 -29.7,81.1 -19.1,20.7 -47,32.6 -77.9,32.5 -31,0.1 -59,-11.8 -78.6,-32.4 -19.6,-20.5 -30.6,-49.2 -30.6,-81.2 h 20"
         style="fill:#b7ceee;fill-opacity:1;fill-rule:nonzero;stroke:none"
         id="path76" />
      <path
         d="m 15808.9,6771.4 v 322.4 c 0,50.5 1.5,101 4.5,151.6 h -4.5 c -29.7,-56.5 -53.5,-98.1 -80.2,-142.7 l -236.3,-328.4 v -2.9 z m 0,-365.6 v 263 h -448.7 v 86.2 l 430.9,616.7 h 141.2 v -600.3 h 135.2 v -102.6 h -135.2 v -263 h -123.4"
         style="fill:#b7ceee;fill-opacity:1;fill-rule:nonzero;stroke:none"
         id="path78" />
      <path
         d="m 15808.9,6771.4 h 20 v 322.4 c 0,50.1 1.5,100.2 4.5,150.4 l 1.2,21.2 h -37.7 l -5.7,-10.7 c -29.5,-56.2 -53,-97.3 -79.7,-141.7 l 17.2,-10.3 -16.2,11.7 -240.1,-333.6 v -9.4 -20 h 356.5 v 20 h -20 v 20 h -316.5 v -20 h 20 v 2.9 h -20 l 16.3,-11.7 236.7,329.1 0.5,0.7 c 26.8,44.8 50.9,86.9 80.7,143.6 l -17.7,9.4 v -20 h 4.5 v 20 l -20,1.1 c -3,-50.9 -4.5,-101.8 -4.5,-152.7 v -322.4 h 20 v 20 z m 0,-365.6 h 20 v 283 h -448.7 v 59.9 l 421.3,603 h 110.8 v -600.3 h 135.2 v -62.6 h -135.2 v -263 h -103.4 v -20 h 20 -20 v -20 h 143.4 v 263 h 135.2 v 142.6 h -135.2 v 600.3 h -171.6 l -440.5,-630.4 v -112.5 h 448.7 v -263 h 20 v 20"
         style="fill:#b7ceee;fill-opacity:1;fill-rule:nonzero;stroke:none"
         id="path80" />
      <path
         d="m 16177.5,6483.1 c 0,55 37.1,93.6 89.1,93.6 52,0 87.7,-38.6 87.7,-93.6 0,-53.5 -34.2,-93.6 -89.2,-93.6 -52,0 -87.6,40.1 -87.6,93.6"
         style="fill:#b7ceee;fill-opacity:1;fill-rule:nonzero;stroke:none"
         id="path82" />
      <path
         d="m 16177.5,6483.1 h 20 c 0,23 7.6,41.1 19.5,53.6 12,12.5 28.5,19.9 49.6,20 21.1,-0.1 37.1,-7.5 48.7,-19.8 11.6,-12.4 18.9,-30.6 19,-53.8 -0.1,-22.6 -7.1,-40.8 -18.7,-53.3 -11.6,-12.5 -27.8,-20.2 -50.5,-20.3 -20.8,0.1 -36.8,7.7 -48.6,20.3 -11.7,12.7 -19,31 -19,53.3 h -20 -20 c -0.1,-31.2 10.4,-59.7 29.6,-80.4 19,-20.8 46.9,-33.3 78,-33.2 32.3,-0.1 60.7,12.2 79.9,33.2 19.3,20.9 29.3,49.4 29.3,80.4 0,31.8 -10.5,60.4 -29.7,81.1 -19.2,20.7 -47.1,32.6 -78,32.5 -30.9,0.1 -59,-11.8 -78.5,-32.4 -19.7,-20.5 -30.7,-49.2 -30.6,-81.2 h 20"
         style="fill:#b7ceee;fill-opacity:1;fill-rule:nonzero;stroke:none"
         id="path84" />
      <path
         d="m 15387.3,9003.9 c 37.1,-23.8 123.3,-61 213.9,-61 167.9,0 219.9,107 218.4,187.3 -1.4,135.2 -123.3,193.1 -249.6,193.1 h -72.8 v 98.1 h 72.8 c 95.1,0 215.5,49 215.5,163.5 0,77.2 -49.1,145.6 -169.4,145.6 -77.3,0 -151.6,-34.2 -193.2,-63.9 l -34.2,95.1 c 50.6,37.1 148.6,74.3 252.6,74.3 190.2,0 276.4,-113 276.4,-230.3 0,-99.6 -59.4,-184.3 -178.3,-227.4 v -3 c 118.9,-23.7 215.5,-112.9 215.5,-248.1 0,-154.5 -120.4,-289.7 -352.2,-289.7 -108.5,0 -203.6,34.1 -251.1,65.3 l 35.7,101.1"
         style="fill:#b7ceee;fill-opacity:1;fill-rule:nonzero;stroke:none"
         id="path86" />
      <path
         d="m 15387.3,9003.9 -10.8,-16.9 c 20.4,-13 52.3,-28.7 91.5,-41.5 39.1,-12.8 85.2,-22.5 133.2,-22.5 43.5,-0.1 80.4,6.8 111.3,18.8 46.3,18 78.8,47.9 98.9,81.5 20.1,33.5 28.3,70.3 28.3,103.5 0,1.3 0,2.5 -0.1,3.7 v -0.1 c -0.3,36.8 -9,69.3 -24.3,96.7 -23,41.3 -60.2,70.5 -103.2,89.1 -43.2,18.7 -92.4,27.1 -142.1,27.1 h -52.8 v 58.1 h 52.8 c 50.9,0.1 107.9,12.8 154.1,41.9 23.1,14.6 43.4,33.5 58.1,57.2 14.7,23.7 23.3,52.2 23.3,84.4 0,21.4 -3.4,42.5 -10.8,62.3 -11.1,29.7 -31.6,56.3 -61.7,74.6 -30,18.4 -69,28.7 -116.9,28.7 -41.6,0 -81.7,-9.2 -116.9,-22.1 -35.2,-12.9 -65.5,-29.6 -87.9,-45.6 l 11.6,-16.2 18.8,6.7 -34.1,95.1 -18.9,-6.7 11.9,-16.1 c 22.9,16.8 58.4,34.8 100.4,48.1 42.1,13.4 90.7,22.3 140.3,22.3 45.6,0 84.3,-6.8 116.7,-18.3 48.6,-17.4 83.1,-45.4 105.9,-78.8 22.7,-33.5 33.8,-72.9 33.8,-113.2 0,-45.9 -13.5,-87.2 -40.5,-122.8 -27,-35.4 -68.1,-65.3 -124.6,-85.8 l -13.2,-4.8 v -33.4 l 16.1,-3.2 c 55.8,-11.1 105.8,-37.5 141.5,-76.2 35.8,-38.8 57.8,-89.5 57.9,-152.3 -0.1,-72.1 -27.8,-138.6 -82.6,-187.9 -54.8,-49.3 -137.5,-81.8 -249.6,-81.8 -52.1,0 -101.3,8.2 -142.9,20.2 -41.6,11.9 -75.7,27.7 -97.2,41.9 l -11,-16.8 18.8,-6.6 35.7,101 -18.8,6.7 -10.8,-16.9 10.8,16.9 -18.9,6.6 -40.9,-115.8 13.1,-8.6 c 26.1,-17 63.2,-33.9 108.2,-46.9 44.9,-12.9 97.6,-21.7 153.9,-21.7 119.7,-0.1 213,35 276.4,92 63.4,56.9 95.8,135.3 95.8,217.7 0,72.4 -26.2,133.9 -68.5,179.4 -42.3,45.7 -100,75.7 -163.1,88.4 l -3.9,-19.7 h 20 v 3 h -20 l 6.8,-18.8 c 62.4,22.6 110.4,56.7 142.8,99.2 32.5,42.5 48.8,93.2 48.7,147 0.1,63.5 -23.5,126.7 -73.1,173.7 -24.8,23.4 -55.9,42.7 -93.1,55.9 -37.3,13.3 -80.6,20.7 -130.2,20.7 -54.4,0 -106.8,-9.7 -152.4,-24.2 -45.6,-14.5 -84.4,-33.7 -112,-54 l -12,-8.9 48.1,-134 21.5,15.4 c 19.2,13.7 46.9,29 78.5,40.6 31.7,11.6 67.4,19.6 103.1,19.6 28.2,0 51.5,-4 70.5,-10.8 28.6,-10.1 47.5,-26.1 60.2,-45.6 12.5,-19.6 18.7,-43.4 18.7,-69.2 -0.1,-25.1 -6.5,-45.7 -17.3,-63.3 -16.3,-26.5 -43.6,-46.7 -75.9,-60.2 -32.3,-13.5 -69.2,-20 -102.3,-20 h -92.8 v -138.1 h 92.8 c 60.2,0.1 118.6,-14 160.4,-42.4 21,-14.2 38,-31.8 49.9,-53.2 11.9,-21.5 19,-46.9 19.3,-77.8 v 0 c 0.1,-1.1 0.1,-2.1 0.1,-3.1 0,-17.7 -3,-37 -9.7,-55.6 -10.1,-28 -28.3,-54.5 -58,-74.5 -29.8,-19.9 -71.8,-33.7 -130.8,-33.8 -42.6,0 -84.9,8.8 -120.8,20.6 -35.9,11.7 -65.6,26.5 -82.4,37.2 l -21.2,13.6 -8.4,-23.8 18.9,-6.6"
         style="fill:#b7ceee;fill-opacity:1;fill-rule:nonzero;stroke:none"
         id="path88" />
      <path
         d="m 16128.7,8931.1 c 0,54.9 37.2,93.6 89.2,93.6 52,0 87.7,-38.7 87.7,-93.6 0,-53.5 -34.2,-93.6 -89.2,-93.6 -52,0 -87.7,40.1 -87.7,93.6"
         style="fill:#b7ceee;fill-opacity:1;fill-rule:nonzero;stroke:none"
         id="path90" />
      <path
         d="m 16128.7,8931.1 h 20 c 0.1,23 7.7,41 19.6,53.6 12,12.4 28.5,19.9 49.6,20 21,-0.1 37,-7.5 48.7,-19.9 11.6,-12.4 18.9,-30.5 19,-53.7 -0.1,-22.6 -7.2,-40.8 -18.7,-53.3 -11.6,-12.5 -27.8,-20.2 -50.5,-20.3 -20.8,0.1 -36.9,7.6 -48.6,20.3 -11.7,12.6 -19,30.9 -19.1,53.3 h -20 -20 c 0,-31.2 10.5,-59.7 29.7,-80.5 19,-20.8 46.8,-33.2 78,-33.1 32.3,-0.2 60.7,12.2 79.9,33.1 19.3,21 29.3,49.5 29.3,80.5 0,31.7 -10.5,60.4 -29.8,81 -19.1,20.7 -47,32.7 -77.9,32.6 -31,0.1 -59,-11.8 -78.6,-32.4 -19.6,-20.5 -30.6,-49.3 -30.6,-81.2 h 20"
         style="fill:#b7ceee;fill-opacity:1;fill-rule:nonzero;stroke:none"
         id="path92" />
      <path
         d="m 15297,11230.9 v 80.3 l 102.5,99.5 c 246.7,234.8 358.1,359.6 359.6,505.2 0,98.1 -47.5,188.7 -191.6,188.7 -87.7,0 -160.5,-44.5 -205.1,-81.7 l -41.6,92.1 c 66.9,56.5 161.9,98.1 273.4,98.1 208,0 295.7,-142.6 295.7,-280.8 0,-178.3 -129.3,-322.5 -332.9,-518.6 l -77.2,-71.3 v -3 h 433.9 v -108.5 H 15297"
         style="fill:#b7ceee;fill-opacity:1;fill-rule:nonzero;stroke:none"
         id="path94" />
      <path
         d="m 15297,11230.9 h 20 v 71.8 l 96.5,93.7 -0.2,-0.2 c 123.5,117.7 213.6,207.9 274,288.6 30.1,40.3 52.9,78.4 68.2,116.3 15.4,37.9 23.3,75.7 23.6,114.6 v 0.2 c 0,26.2 -3.1,52.1 -10.5,76.7 -11,36.7 -32,70.5 -65.5,94.5 -33.5,24 -78.5,37.6 -135.6,37.5 -47.3,0 -90.2,-12 -127,-28.7 -36.8,-16.7 -67.5,-38.1 -90.9,-57.6 l 12.8,-15.4 18.2,8.3 -41.6,92.1 -18.2,-8.3 12.9,-15.2 c 63.5,53.6 154.1,93.3 260.5,93.3 49.7,0 91.5,-8.5 126.3,-22.9 52.1,-21.7 89,-56.5 113.4,-98.4 24.4,-41.8 36,-90.8 36,-139.5 0,-42.2 -7.6,-82.1 -22.2,-121.8 -21.8,-59.5 -59.6,-118.4 -111.3,-180.8 -51.6,-62.4 -117.1,-128.2 -193.2,-201.6 l 13.8,-14.4 -13.5,14.7 -83.7,-77.2 v -11.8 -20 h 433.9 v -68.5 H 15297 v -20 h 20 -20 v -20 h 636.7 v 148.5 h -453.9 v -20 h 20 v 3 h -20 l 13.5,-14.7 77.6,71.5 v 0.1 c 102,98.3 186,184 245.3,268.9 29.6,42.5 53,84.9 69.1,128.5 16,43.6 24.6,88.6 24.6,135.6 0,73.2 -23.2,148.3 -75,205.6 -25.9,28.7 -58.9,52.6 -99.1,69.3 -40.1,16.6 -87.3,25.9 -141.6,25.9 -116.5,0 -216.1,-43.5 -286.3,-102.8 l -11.6,-9.7 58.7,-129.9 20.2,16.9 c 21.2,17.6 49.2,37.1 81.8,51.9 32.7,14.9 70,25.2 110.5,25.1 33.9,0 61.3,-5.3 83.2,-14.2 32.8,-13.4 54,-34.4 68.1,-61 14,-26.5 20.3,-59.1 20.3,-93.5 h 20 l -20,0.2 c -0.3,-33.8 -7,-66.2 -20.6,-100 -20.5,-50.6 -57.2,-104.5 -112.3,-167.6 -55,-63.1 -128.1,-135.4 -220.4,-223.3 l -108.8,-105.5 v -108.8 h 20 v 20"
         style="fill:#b7ceee;fill-opacity:1;fill-rule:nonzero;stroke:none"
         id="path96" />
      <path
         d="m 16069.7,11308.2 c 0,55 37.2,93.6 89.2,93.6 52,0 87.6,-38.6 87.6,-93.6 0,-53.5 -34.2,-93.6 -89.1,-93.6 -52,0 -87.7,40.1 -87.7,93.6"
         style="fill:#b7ceee;fill-opacity:1;fill-rule:nonzero;stroke:none"
         id="path98" />
      <path
         d="m 16069.7,11308.2 h 20 c 0.1,23 7.6,41.1 19.5,53.6 12,12.5 28.6,19.9 49.7,20 21,-0.1 37,-7.4 48.7,-19.8 11.5,-12.4 18.9,-30.6 18.9,-53.8 0,-22.5 -7.1,-40.8 -18.6,-53.3 -11.7,-12.4 -27.9,-20.2 -50.5,-20.3 -20.9,0.1 -36.9,7.7 -48.7,20.3 -11.6,12.7 -19,31 -19,53.3 h -20 -20 c 0,-31.1 10.5,-59.6 29.6,-80.4 19.1,-20.8 46.9,-33.3 78.1,-33.2 32.3,-0.1 60.7,12.2 79.9,33.2 19.2,20.9 29.2,49.5 29.2,80.4 0.1,31.8 -10.4,60.4 -29.7,81.1 -19.2,20.7 -47,32.6 -77.9,32.5 -31,0.1 -59,-11.8 -78.6,-32.4 -19.6,-20.5 -30.6,-49.2 -30.6,-81.2 h 20"
         style="fill:#b7ceee;fill-opacity:1;fill-rule:nonzero;stroke:none"
         id="path100" />
      <path
         d="m 17501.2,15944.4 h 134.3 c 140.4,0 229.5,62.9 229.5,157.7 0,107.2 -95.1,154 -234,155.3 -63.4,0 -108.7,-5 -129.8,-9.9 z m -131.4,378.3 c 66.4,11.1 161.6,17.2 252.1,17.2 140.5,0 231,-20.9 294.5,-67.7 51.3,-37 80,-93.7 80,-157.7 0,-109.7 -84.6,-182.4 -191.8,-211.9 v -3.7 c 78.5,-22.2 125.3,-81.3 149.5,-167.6 33.2,-115.8 57.4,-195.9 78.5,-227.9 h -135.9 c -16.6,23.4 -39.2,94.9 -67.9,198.4 -30.2,114.5 -84.6,157.6 -203.8,161.3 h -123.8 v -359.7 h -131.4 v 819.3"
         style="fill:#8ea4db;fill-opacity:1;fill-rule:nonzero;stroke:none"
         id="path102" />
      <path
         d="m 17501.2,15944.4 v -20 h 134.3 c 73.2,0.1 134.4,16.3 178.8,46.9 22.1,15.3 40,34.4 52.1,56.6 12.2,22.2 18.6,47.4 18.6,74.2 0,29.8 -6.7,56.5 -19.6,79.2 -9.7,17.1 -22.8,31.7 -38.4,43.9 -23.5,18.2 -52.4,31 -85.4,39.4 -33,8.3 -70.1,12.4 -110.4,12.8 h -0.1 -0.1 c -32.2,0 -59.9,-1.3 -82.5,-3.2 -22.5,-1.9 -39.7,-4.4 -51.9,-7.2 l -15.4,-3.6 v -339 h 20 v 20 h 20 v 303.1 h -20 l 4.5,-19.5 c 9,2.2 25,4.6 46.2,6.4 21.3,1.8 47.9,3 79.1,3 h -0.2 c 33.6,-0.3 64.3,-3.4 91.1,-9.3 40.2,-8.8 71.2,-23.9 91.6,-44.2 10.2,-10.2 17.9,-21.8 23.2,-35.1 5.4,-13.4 8.3,-28.8 8.3,-46.7 0,-20.5 -4.7,-38.7 -13.6,-55 -13.4,-24.3 -36.6,-44.8 -69.7,-59.5 -33,-14.6 -75.7,-23.2 -126.2,-23.2 h -134.3 v -20 h 20 z m -131.4,378.3 3.3,-19.8 c 64.7,10.9 159.2,17 248.8,17 69.3,0 125.6,-5.2 171.6,-15.8 46.1,-10.6 81.8,-26.5 111,-48 l 0.1,-0.1 0.1,-0.1 c 23.1,-16.7 40.9,-37.6 53.1,-61.5 12.1,-23.9 18.6,-50.9 18.6,-79.9 0,-24.9 -4.8,-47.2 -13.3,-67.5 -12.9,-30.3 -34.5,-56.1 -62.7,-77.3 -28.2,-21.1 -62.9,-37.3 -101.1,-47.9 l -14.7,-4 v -34.1 l 14.6,-4.1 c 35.8,-10.2 63.3,-28.1 85.4,-53.6 22.1,-25.5 38.7,-59 50.2,-100.1 l 0.1,-0.2 v 0.1 c 16.6,-58 31,-107.1 44,-146.2 6.5,-19.5 12.7,-36.5 18.7,-51 6.1,-14.5 11.9,-26.5 18.3,-36.2 l 16.7,11 v 20 h -135.9 v -20 l 16.3,11.6 c -2.7,3.7 -6.9,11.6 -11.4,22.5 -7,16.4 -15.1,39.6 -24,68.2 -9,28.6 -18.8,62.7 -29.5,101.4 l -19.3,-5.3 19.3,5.1 c -7.8,29.7 -17.4,55.4 -29.6,77.6 -18.3,33.2 -43.4,58.2 -75.7,74.1 -32.3,15.9 -70.8,23.1 -117.2,24.5 h -0.3 -144.1 v -359.7 h -91.4 v 799.3 h -20 l 3.3,-19.8 -3.3,19.8 h -20 v -839.3 h 171.4 v 359.7 h 103.8 v 20 l -0.7,-19.9 c 28.7,-0.9 52.9,-4.2 73.1,-10 30.4,-8.7 51.9,-22.4 69.6,-43.7 17.7,-21.4 31.6,-51.5 42.4,-92.8 l 0.1,-0.2 v -0.1 c 14.4,-51.9 27.3,-95.9 38.8,-130.2 5.8,-17.2 11.2,-32 16.4,-44.3 5.3,-12.3 10.1,-22.1 15.7,-30.1 l 6,-8.4 h 183.4 l -20.5,31 c -4.2,6.3 -9.3,16.4 -14.7,29.5 -16.6,39.6 -36.4,106.2 -61.3,192.9 v -0.1 c -12.6,45.2 -31.5,84.3 -58.4,115.5 -26.9,31.2 -62.1,53.9 -104.8,65.9 l -5.5,-19.2 h 20 v 3.7 h -20 l 5.3,-19.3 c 56.4,15.5 107.4,42.5 145.1,81.3 18.9,19.3 34.3,41.7 44.9,66.9 10.6,25.1 16.5,53 16.5,83 0,35 -7.9,68.3 -23,98 -15,29.7 -37.2,55.6 -65.4,75.9 l -11.6,-16.2 11.8,16 c -34.2,25.3 -75.5,43.3 -125.7,54.9 -50.2,11.5 -109.4,16.8 -180.6,16.8 -91.5,0 -187.2,-6.1 -255.4,-17.5 l -16.7,-2.8 v -16.9 h 20"
         style="fill:#8ea4db;fill-opacity:1;fill-rule:nonzero;stroke:none"
         id="path104" />
      <path
         d="m 18313.4,16333.8 v -491.6 c 0,-186 101.2,-264.9 237,-264.9 151,0 247.6,81.3 247.6,264.9 v 491.6 h 132.9 v -484.2 c 0,-255 -164.6,-359.7 -385,-359.7 -208.3,0 -365.4,97.3 -365.4,354.8 v 489.1 h 132.9"
         style="fill:#8ea4db;fill-opacity:1;fill-rule:nonzero;stroke:none"
         id="path106" />
      <path
         d="m 18313.4,16333.8 h -20 v -491.6 c 0,-48.3 6.6,-90.3 19,-126.4 18.6,-54.1 51.1,-94.6 92.7,-120.7 41.6,-26.1 91.5,-37.8 145.3,-37.8 39.6,0 76.1,5.3 109,16.7 49.2,16.9 89.9,48.1 117.2,93.4 27.4,45.2 41.4,103.4 41.4,174.8 v 471.6 h 92.9 v -464.2 c 0,-61.6 -9.9,-113.3 -27.6,-156.2 -26.7,-64.2 -70.4,-109.2 -127.9,-139.2 -57.5,-30 -129.2,-44.4 -209.5,-44.3 -50.5,-0.1 -97.5,5.9 -139.2,18.3 -62.7,18.9 -113.4,51.9 -149.1,102.6 -35.7,50.7 -57,120.3 -57.1,213.9 v 469.1 h 112.9 v 20 h -20 20 v 20 h -152.9 v -509.1 c 0,-66.4 10.2,-123.3 29.2,-171.5 28.6,-72.2 77.8,-124.1 139.7,-156.7 62,-32.6 136.1,-46.6 216.5,-46.6 56.7,0 110.2,6.7 158.9,21.1 72.9,21.6 135.2,61.1 178.6,120.9 43.5,59.8 67.6,138.9 67.5,237.7 v 504.2 H 18778 v -511.6 c 0.1,-44.1 -5.8,-81.5 -16.3,-112.4 -16,-46.4 -41.9,-78.4 -77,-100 -35.1,-21.6 -80.3,-32.5 -134.3,-32.5 -32,0 -61.5,4.7 -87.5,14.1 -39.1,14.1 -70.6,38.4 -93.2,75.6 -22.6,37.2 -36.3,88.1 -36.3,155.2 v 511.6 h -20 v -20"
         style="fill:#8ea4db;fill-opacity:1;fill-rule:nonzero;stroke:none"
         id="path108" />
      <path
         d="m 19158.9,16333.8 h 131.3 v -740.5 h 434.8 v -89.9 h -566.1 v 830.4"
         style="fill:#8ea4db;fill-opacity:1;fill-rule:nonzero;stroke:none"
         id="path110" />
      <path
         d="m 19158.9,16333.8 v -20 h 111.3 v -740.5 h 434.8 v -49.9 h -526.1 v 810.4 h -20 v -20 20 h -20 v -850.4 h 606.1 v 129.9 h -434.8 v 740.5 h -171.3 v -20 h 20"
         style="fill:#8ea4db;fill-opacity:1;fill-rule:nonzero;stroke:none"
         id="path112" />
      <path
         d="m 20398.4,15892.7 h -395.6 v -299.4 h 440.9 v -89.9 h -572.3 v 830.4 h 549.6 v -90 h -418.2 v -262.4 h 395.6 v -88.7"
         style="fill:#8ea4db;fill-opacity:1;fill-rule:nonzero;stroke:none"
         id="path114" />
      <path
         d="m 20398.4,15892.7 v 20 h -415.6 v -339.4 h 440.9 v -49.9 h -532.3 v 790.4 h 509.6 v -50 h -418.2 v -302.4 h 395.6 v -68.7 h 20 v 20 -20 h 20 v 108.7 h -395.6 v 222.4 h 418.2 v 130 h -589.6 v -870.4 h 612.3 v 129.9 h -440.9 v 259.4 h 395.6 v 20 h -20"
         style="fill:#8ea4db;fill-opacity:1;fill-rule:nonzero;stroke:none"
         id="path116" />
      <path
         d="m 20596.1,15634 c 58.9,-29.6 145,-54.2 235.6,-54.2 134.3,0 212.8,57.9 212.8,141.7 0,77.6 -54.3,121.9 -191.7,165 -166.1,48.1 -268.7,118.3 -268.7,235.4 0,129.3 131.3,225.4 329.1,225.4 104.2,0 179.7,-19.7 224.9,-40.7 l -36.2,-87.4 c -33.2,14.8 -101.1,39.4 -193.2,39.4 -138.9,0 -191.8,-67.8 -191.8,-124.4 0,-77.6 61.9,-115.8 202.3,-160.2 172.1,-54.2 259.7,-121.9 259.7,-243.9 0,-128.1 -116.2,-239 -356.3,-239 -98.1,0 -205.3,23.4 -259.7,53 l 33.2,89.9"
         style="fill:#8ea4db;fill-opacity:1;fill-rule:nonzero;stroke:none"
         id="path118" />
      <path
         d="m 20596.1,15634 -8.9,-17.9 c 61.8,-30.9 150.2,-56.2 244.5,-56.3 70,0 127.1,14.9 168.1,42.9 20.5,14 36.8,31.4 47.9,51.7 11.1,20.1 16.9,43 16.8,67.1 0.1,21.7 -3.8,42.1 -12.4,60.8 -6.5,14 -15.5,26.9 -26.8,38.6 -17.1,17.5 -39.2,32.4 -66.7,46.2 -27.6,13.7 -60.5,26.2 -99.8,38.5 l -0.3,0.1 -0.2,0.1 c -81.6,23.5 -146.5,52.5 -189.5,88 -21.5,17.7 -37.6,36.8 -48.3,57.8 -10.8,21 -16.4,43.9 -16.4,70.3 0,28.9 7.2,55.6 21,79.9 20.6,36.4 56.3,67.7 105.3,90.1 49,22.3 111,35.4 182.8,35.4 101.6,0 174.5,-19.3 216.5,-38.8 l 8.4,18.1 -18.4,7.7 -36.3,-87.5 18.5,-7.6 8.1,18.2 c -34.9,15.6 -105.7,41.2 -201.3,41.2 -72.7,0 -125.3,-17.7 -160.4,-45.2 -35,-27.5 -51.5,-64.7 -51.4,-99.2 0,-22.1 4.5,-42.6 14.2,-60.9 7.2,-13.7 17.1,-26 29.3,-37 18.4,-16.6 41.7,-30.4 70.3,-43.5 28.6,-13 62.6,-25.2 102.5,-37.9 84.8,-26.6 147.3,-56.5 187,-92.3 20,-17.9 34.4,-37.2 44.1,-58.7 9.6,-21.6 14.6,-45.7 14.6,-73.8 0,-29 -6.5,-56.7 -19.7,-82.2 -19.7,-38.3 -54.6,-72.1 -106.9,-96.9 -52.3,-24.7 -122,-39.9 -209.7,-39.9 -47.5,0 -97.6,5.7 -142.2,15 -44.5,9.2 -83.6,22.2 -107.9,35.5 l -9.6,-17.5 18.8,-7 33.2,90 -18.8,6.9 -8.9,-17.9 8.9,17.9 -18.7,6.9 -39.3,-106.1 15.3,-8.3 c 30,-16.3 71.6,-29.7 118.9,-39.6 47.1,-9.8 99.6,-15.8 150.3,-15.8 123,0 216.4,28.3 280.1,75.4 31.7,23.5 55.9,51.7 72.1,83 16.1,31.3 24.1,65.5 24.1,100.6 0,32.8 -5.9,63 -18.1,90.1 -18.2,40.8 -50.1,74.1 -92.9,101.8 -42.9,27.7 -97.1,50.4 -162.7,71.1 -69.4,21.8 -118.4,42.3 -147.8,64.5 -14.7,11.1 -24.6,22.3 -30.9,34.4 -6.4,12.1 -9.6,25.4 -9.6,42.2 0.1,22.1 10.1,47.1 36.2,67.7 26,20.5 69.3,36.7 135.6,36.7 88.5,0 153.6,-23.7 185.1,-37.7 l 18.7,-8.3 51.5,124.1 -17.5,8.1 c -48.5,22.4 -126.6,42.5 -233.3,42.5 -102.1,0 -188.3,-24.7 -250.2,-67.8 -30.9,-21.6 -55.7,-47.9 -72.7,-78 -17.1,-30.1 -26.3,-63.9 -26.2,-99.6 -0.1,-32.2 7.1,-62 20.8,-88.6 20.5,-39.9 55.1,-72.4 99.5,-99.2 44.6,-26.8 99.5,-48.4 162.8,-66.8 l 5.6,19.2 -6,-19 c 67.6,-21.2 113.4,-42.6 140.4,-65.8 13.6,-11.6 22.6,-23.3 28.5,-36.1 5.9,-12.8 8.8,-27 8.8,-44.1 0,-17.9 -4.1,-33.7 -11.9,-47.9 -11.6,-21.2 -32.2,-39.5 -62.5,-52.7 -30.3,-13.3 -70.2,-21.1 -118.4,-21.1 -87,-0.1 -170.7,23.9 -226.6,52.1 l -20,10 -7.7,-21 18.7,-6.9"
         style="fill:#8ea4db;fill-opacity:1;fill-rule:nonzero;stroke:none"
         id="path120" />
      <path
         d="m 21530.6,15357.5 h -4512.5 v 65 h 4512.5 v -65"
         style="fill:#b7ceee;fill-opacity:1;fill-rule:nonzero;stroke:none"
         id="path122" />
      <path
         d="m 17865.2,4865.4 h -1065 v 94.7 h 1065 v -94.7"
         style="fill:#b7ceee;fill-opacity:1;fill-rule:nonzero;stroke:none"
         id="path124" />
      <path
         d="m 19202.3,4865.4 h -1065 v 94.7 h 1065 v -94.7"
         style="fill:#b7ceee;fill-opacity:1;fill-rule:nonzero;stroke:none"
         id="path126" />
      <path
         d="m 18885.8,4625.8 h -2085.6 v 94.6 h 2085.6 v -94.6"
         style="fill:#b7ceee;fill-opacity:1;fill-rule:nonzero;stroke:none"
         id="path128" />
      <path
         d="m 20712.9,5791.3 c -441.5,0 -800.7,-359.2 -800.7,-800.7 0,-441.5 359.2,-800.6 800.7,-800.6 441.5,0 800.7,359.1 800.7,800.6 0,441.5 -359.2,800.7 -800.7,800.7 z m 0,-1719.7 c -506.7,0 -919,412.3 -919,919 0,506.8 412.3,919 919,919 506.8,0 919,-412.2 919,-919 0,-506.7 -412.2,-919 -919,-919"
         style="fill:#b7ceee;fill-opacity:1;fill-rule:nonzero;stroke:none"
         id="path130" />
      <path
         d="m 20092.3,5040.9 c 25.7,320 294.1,572.6 620.6,572.6 326.5,0 595,-252.6 620.7,-572.6 h 92.3 c -26,370.8 -335.7,664.6 -713,664.6 -377.2,0 -687,-293.8 -712.9,-664.6 h 92.3"
         style="fill:#b7ceee;fill-opacity:1;fill-rule:nonzero;stroke:none"
         id="path132" />
      <path
         d="m 21333.6,4940.3 c -25.7,-319.9 -294.2,-572.5 -620.7,-572.5 -326.5,0 -594.9,252.6 -620.6,572.5 h -92.3 c 25.9,-370.7 335.7,-664.6 712.9,-664.6 377.3,0 687,293.9 713,664.6 h -92.3"
         style="fill:#b7ceee;fill-opacity:1;fill-rule:nonzero;stroke:none"
         id="path134" />
      <path
         d="m 20923.9,5088.7 h -422 v 60.2 h 422 v -60.2"
         style="fill:#b7ceee;fill-opacity:1;fill-rule:nonzero;stroke:none"
         id="path136" />
      <path
         d="m 20923.9,4900.4 h -422 v 60.2 h 422 v -60.2"
         style="fill:#b7ceee;fill-opacity:1;fill-rule:nonzero;stroke:none"
         id="path138" />
      <path
         d="m 20999.4,4994.6 h -572.9 v 60.1 h 572.9 v -60.1"
         style="fill:#b7ceee;fill-opacity:1;fill-rule:nonzero;stroke:none"
         id="path140" />
      <path
         d="m 20692.9,17311 h -2618.6 c -217.4,0 -393.7,176.3 -393.7,393.8 v 518.3 h 3406 v -518.3 c 0,-217.5 -176.3,-393.8 -393.7,-393.8"
         style="fill:#527dc0;fill-opacity:1;fill-rule:nonzero;stroke:none"
         id="path142" />
      <path
         d="m 30218.3,10598.1 c -186.3,397.5 -571.4,397.5 -1167.6,496.9 -596.3,99.4 -981.3,-87 -1068.3,-434.8 -86.9,-347.8 -798.1,-1083.7 -928.5,-1195.5 -130.4,-111.8 -121.1,-46.6 -130.4,298.1 -9.3,344.7 549.6,1099.3 549.6,1164.5 0,65.2 -344.7,-18.6 -1127.2,-232.9 -782.6,-214.3 -1006.2,-437.9 -950.3,-661.5 55.9,-223.5 -9.3,-1571.3 -245.3,-1583.7 -236,-12.4 -161.5,906.8 -161.5,1117.9 0,137.5 10.5,353.7 -119.1,354.5 V 6466.8 c 58.8,59.7 94.3,81.9 94.3,81.9 99.4,-161.5 993.7,-409.9 1875.6,-484.4 882,-74.5 1378.8,273.3 1416.1,322.9 37.2,49.7 111.8,285.7 -633.5,447.2 -745.3,161.5 -596.2,633.5 -335.4,385.1 260.9,-248.4 1329.1,-211.2 1639.6,-136.6 310.6,74.5 844.7,1080.6 844.7,1167.6 0,86.9 111.8,186.3 -459.6,99.3 -571.4,-86.9 -919.2,223.6 -919.2,334.3 0,110.6 981.3,336.5 1490.6,435.9 509.3,99.3 521.7,1080.6 335.4,1478.1"
         style="fill:#c8dff4;fill-opacity:1;fill-rule:nonzero;stroke:none"
         id="path144" />
      <path
         d="m 29249.4,16653 c -153.9,328.2 -471.8,328.2 -964,410.2 -492.3,82.1 -810.2,-71.8 -882,-358.9 -71.8,-287.1 -658.9,-894.8 -766.6,-987.1 -107.7,-92.3 -100,-38.4 -107.7,246.2 -7.7,284.5 453.8,907.5 453.8,961.4 0,53.8 -284.6,-15.4 -930.6,-192.3 -646.1,-176.9 -830.7,-361.5 -784.6,-546.1 46.2,-184.6 -7.7,-1297.3 -202.5,-1307.5 -194.8,-10.3 -133.3,748.6 -133.3,922.9 0,98.7 6.5,246.7 -62.2,284 v -2809.1 c 26.5,23.6 41.7,33.1 41.7,33.1 82,-133.3 820.4,-338.4 1548.5,-400 728.1,-61.5 1138.4,225.7 1169.1,266.7 30.8,41 92.3,235.9 -523,369.2 -615.3,133.3 -492.3,523 -276.9,317.9 215.4,-205.1 1097.3,-174.4 1353.7,-112.8 256.4,61.5 697.4,892.2 697.4,964 0,71.8 92.3,153.8 -379.5,82 -471.7,-71.8 -758.9,184.6 -758.9,276 0,91.3 810.2,277.8 1230.7,359.9 420.4,82 430.7,892.2 276.9,1220.3"
         style="fill:#c8dff4;fill-opacity:1;fill-rule:nonzero;stroke:none"
         id="path146" />
      <path
         d="m 13897.5,5925.3 c -131.4,117.8 -210.1,188.5 -210.1,188.5 0,0 62.9,265.4 210.1,714.1 v 1558.3 c -202.5,371.5 -514.3,670.4 -783.3,741.1 -520,136.7 -1072.4,272.4 -912.5,134.5 159.9,-137.9 549.4,-1316.8 533.5,-1541.2 -15.9,-224.3 -305.5,-90.4 -325.5,142.6 -20.1,233 -322.7,1116.1 -550.8,1469.3 -228.1,353.2 -1088.2,255.6 -1906.73,173.4 -818.52,-82.2 -815.75,-376.2 -725.58,-354 90.17,22.2 483.09,-95.7 940.71,-419.2 457.5,-323.5 436.9,-713.5 182.1,-763.4 -254.8,-49.9 -1261.87,847.4 -1650.67,1043.2 -388.81,195.9 -1500.32,-168.8 -1738.19,-562.2 -237.87,-393.3 -162.39,-955.5 235.69,-1563.1 398.07,-607.6 1167.16,-292.3 1773.02,-157 605.86,135.2 920.38,141.5 613.16,-211.8 -307.23,-353.2 -1167.48,-658.4 -1244.49,-686.7 -77.01,-28.3 -106.06,-246.6 586.98,-764.9 693.04,-518.3 1384.3,-258.9 2082.9,456.7 698.5,715.6 1302.8,795.6 1388.3,652.2 85.4,-143.4 -310.8,-343.7 -724.7,-495.8 -413.9,-152 -359.9,-328.9 -438.6,-620 -78.8,-291.2 -663.9,-334.2 -663.9,-334.2 0,0 -127.3,-590.2 1339.3,-166 1466.6,424.2 1679.2,1320.7 1679.2,1320.7 0,0 112.5,-122.8 310.1,-285.4 v 330.3"
         style="fill:#c8dff4;fill-opacity:1;fill-rule:nonzero;stroke:none"
         id="path148" />
      <path
         d="m 13390.1,13223.8 c 127.4,132.5 331.9,216.8 507.4,265.7 v 1809.1 c -68.9,69.6 -144.5,134.8 -225.4,191.6 -379.4,266.7 -943.4,184.6 -1136.1,133.3 -192.7,-51.2 -166.3,-164 0,-256.3 166.3,-92.3 110.6,-502.5 0,-533.3 -110.6,-30.8 -740.6,615.3 -853.4,646.1 -112.8,30.7 -738.4,-287.2 -1025.5,-523 -287.2,-235.9 -102.6,-841 112.8,-1099.3 215.4,-258.4 461.5,-172.4 697.4,-121.1 235.8,51.3 953.7,266.6 728.1,-41 -225.6,-307.7 -594.8,-338.5 -779.4,-379.5 -184.6,-41 266.6,-697.4 1025.5,-615.3 758.9,82 692.2,256.4 948.6,523"
         style="fill:#b8c1e7;fill-opacity:1;fill-rule:nonzero;stroke:none"
         id="path150" />
      <path
         d="m 13897.5,13302.2 c -82.2,-45.3 -181.9,-96.9 -302.3,-155.3 -507.6,-246.1 -476.8,-574.3 -482,-687.1 -4.7,-105.2 119.7,-161.2 784.3,30.9 v 811.5"
         style="fill:#b8c1e7;fill-opacity:1;fill-rule:nonzero;stroke:none"
         id="path152" />
      <path
         d="m 10627.1,12229.6 c 0,0 -140.1,142.5 -64.4,300.3 75.8,157.8 330,232.3 447.4,377.6 98.3,121.4 438.3,267.9 663.3,152.4 225,-115.5 448.4,-541.1 422.5,-913.8 -25.9,-372.8 122.3,-292.4 129.1,-428.1 6.8,-135.7 -228.9,-181.8 -309.3,-141.5 -80.5,40.3 -372.2,44.1 -524.9,15.9 -152.6,-28.3 -227.7,145.9 -327.1,133.4 -99.3,-12.4 -219.4,-157.6 -284.5,-30 -65.1,127.7 10.7,214.7 -86.9,229.2 -97.5,14.5 -158.3,68.7 -152.4,164.7 5.9,95.9 121.6,14.5 87.2,139.9"
         style="fill:#243460;fill-opacity:1;fill-rule:nonzero;stroke:none"
         id="path154" />
      <path
         d="m 11839.9,12534.3 c 0,0 61.8,-513.9 -184.4,-658.4 -246.1,-144.6 -503.9,162.6 -530,253.2 0,0 -49.1,0.9 -83.5,61.6 -34.4,60.7 -37.3,129 9.9,133.3 47.2,4.4 60.1,-32.2 60.1,-32.2 0,0 1.1,40.3 4.4,50.9 3.3,10.6 167.5,-61.2 330.4,105.2 162.8,166.4 141.8,297.4 214,310.1 72.1,12.7 158.2,-95.6 179.1,-223.7"
         style="fill:#f8a66c;fill-opacity:1;fill-rule:nonzero;stroke:none"
         id="path156" />
      <path
         d="m 11186.2,12029.2 v 0 c 81.9,-100.8 233.3,-220.5 390.6,-184.7 l 0.2,-0.2 c 0,0 -22.9,-171.7 20.8,-267.3 43.8,-95.5 -31.1,-217.8 -31.1,-217.8 l -410,101.3 -83.4,157.9 c 0,0 141.7,138.5 112.9,410.8"
         style="fill:#f8a66c;fill-opacity:1;fill-rule:nonzero;stroke:none"
         id="path158" />
      <path
         d="m 11468.9,11734.1 c -188.6,63.2 -280.2,264.7 -280.2,264.7 v 0 c -0.6,9.9 -1.4,20 -2.5,30.4 v 0 c 81.9,-100.8 233.3,-220.5 390.6,-184.7 l 0.2,-0.2 c 0,0 -8.4,-62.8 -5.3,-133.6 -28.6,2.8 -62.6,9.9 -102.8,23.4"
         style="fill:#f39265;fill-opacity:1;fill-rule:nonzero;stroke:none"
         id="path160" />
      <path
         d="m 11585.2,11612.9 c 0,0 -17.9,-90.7 -231.9,-75.3 -214,15.4 -223.9,78.3 -280,80.8 -56.1,2.5 -283.7,-4.2 -412.5,-51.6 -128.8,-47.4 -341.6,-194.8 -448.9,-463 -107.4,-268.2 -290.43,-741 -348.04,-914.9 -57.62,-173.8 -45.41,-399 737.44,-682.8 0,0 232.8,-83.4 267.5,-67 34.7,16.3 99,81.7 89,118.9 0,0 868.1,-156.1 984.5,-4.6 116.5,151.6 136.7,455.6 136.7,455.6 0,0 235.6,-311.1 591,-196.1 355.3,115 702.7,471.5 712.8,496.3 10.1,24.7 -32.7,129 -89.9,130.3 -57.3,1.3 -553.2,-117.3 -595.9,-84.8 -42.6,32.5 -279.8,466.2 -378.6,699.2 -98.8,232.9 -256.5,410.9 -423.3,488.7 -166.8,77.8 -291.6,99.6 -309.9,70.3"
         style="fill:#f03656;fill-opacity:1;fill-rule:nonzero;stroke:none"
         id="path162" />
      <path
         d="m 12135.4,10509.9 c 0,0 146.9,-181.9 213.4,-373.4 66.5,-191.5 92.8,-189.3 225.3,-252.2 132.5,-62.9 372.6,61.6 372.6,61.6 -87.5,-54.3 -181.8,-102.3 -276.7,-133 -355.4,-115 -591,196.1 -591,196.1 0,0 -1.2,-18.8 -4.9,-49.3 -0.3,86.3 13.6,86.9 67,235 53.4,148.1 -5.7,315.2 -5.7,315.2"
         style="fill:#db2c44;fill-opacity:1;fill-rule:nonzero;stroke:none"
         id="path164" />
      <path
         d="m 10097.3,5890.7 c 143.2,352.9 303.2,1327.5 295.6,1754.8 -7.7,427.3 -48.6,1148.3 93.7,1417.1 55.1,103.9 149.4,254.9 244.4,401.2 59.8,-17.7 121.3,-32.6 137.8,-24.7 34.7,16.3 99,81.7 89,118.9 0,0 868.1,-156.1 984.5,-4.6 0,0 226.8,-663.9 216.6,-1135.9 -10.3,-472 -61.7,-1645.5 -151.1,-2523 -89.4,-877.4 -215.8,-2035.9 -291.4,-2114.3 -75.7,-78.5 -409.5,-28.4 -446.4,79.6 -37,107.9 -68.8,906.2 -116.6,1227.6 -47.8,321.5 -72,888.7 -72,888.7 0,0 -402.1,-1216 -641.3,-1556.6 -239.1,-340.6 -228.3,-361.5 -309.3,-334.9 -81.1,26.6 -242.44,37.7 -251.32,142.7 -8.88,104.9 74.64,1310.5 217.82,1663.4"
         style="fill:#2d4590;fill-opacity:1;fill-rule:nonzero;stroke:none"
         id="path166" />
      <path
         d="m 11647.4,10051.6 -756.9,665.7 c -13.8,12.1 -34.9,10.6 -46.8,-3.4 L 9940.13,9649.2 c -11.95,-14.1 -9.98,-35.3 4.36,-46.9 l 758.71,-615.5 c 13.7,-11 33.6,-9.4 45.3,3.7 l 901.7,1014.5 c 12.2,13.7 10.9,34.6 -2.8,46.6"
         style="fill:#1f345f;fill-opacity:1;fill-rule:nonzero;stroke:none"
         id="path168" />
      <path
         d="m 9863.86,10188.9 c 57.62,173.9 240.64,646.7 348.04,914.9 79.6,199 217.3,331.4 335.7,405.9 568,-433 231.4,-872 -0.7,-1114.7 -232.2,-242.6 -177.1,-283.4 -51.4,-393.3 125.8,-109.9 371.5,-334.4 421.4,-381.3 49.9,-47 40.9,-62.4 40.9,-62.4 10,-37.2 -54.3,-102.6 -89,-118.9 -34.7,-16.4 -267.5,67 -267.5,67 -782.85,283.8 -795.06,509 -737.44,682.8"
         style="fill:#f03656;fill-opacity:1;fill-rule:nonzero;stroke:none"
         id="path170" />
      <path
         d="m 11842.8,8659.4 c 82.7,281.8 -15,841.6 -15,841.6 54.2,10.3 95,27 114.5,52.4 0,0 226.8,-663.9 216.6,-1135.9 -10.3,-472 -61.7,-1645.5 -151.1,-2523 -89.4,-877.4 -215.8,-2035.9 -291.4,-2114.3 -75.7,-78.5 -409.5,-28.4 -446.4,79.6 -37,107.9 -68.8,906.2 -116.6,1227.6 -47.8,321.5 -72,888.7 -72,888.7 235.4,550.7 193.1,956.4 311.2,1407 118.1,450.5 367.6,994.6 450.2,1276.3"
         style="fill:#274184;fill-opacity:1;fill-rule:nonzero;stroke:none"
         id="path172" />
      <path
         d="m 11081.4,5976.1 c 0,0 -16.2,-49 -43.9,-129.9 13.3,48.7 27.9,92.4 43.9,129.9"
         style="fill:#274184;fill-opacity:1;fill-rule:nonzero;stroke:none"
         id="path174" />
      <path
         d="m 11676,3756.3 13.8,-23.7 c 0,0 23,-146.4 225.1,-189.1 104.2,-22 330.8,-23 334,-140.3 2.6,-97 -579.4,-67.2 -624.2,-55.9 -44.4,11.2 -74.8,28.3 -74.8,28.3 0,0 -4.8,-37.7 -36.9,-46.9 -32.2,-9.2 -179.9,10.7 -191.1,34.2 -11.1,23.5 -16.9,225.7 -20.1,285.9 -2,35.6 8.4,105.5 17.1,156.5 88.4,-57.2 266.6,-81 357.1,-49"
         style="fill:#1f345f;fill-opacity:1;fill-rule:nonzero;stroke:none"
         id="path176" />
      <path
         d="m 9839.93,4153.3 c 14.38,17.2 30.33,35.3 44.45,51 28.9,-83.8 171.72,-95.2 246.42,-119.7 8,-2.6 15.1,-4.7 21.7,-6.2 -0.2,-38.9 0.3,-121.7 4.7,-227.8 6.1,-148.8 30.5,-335.8 160.8,-375.5 130.4,-39.7 175.3,-100.2 153,-128.6 -22.3,-28.5 -375.8,-48.8 -440.1,20.1 -64.25,68.9 -91.94,212.7 -137.89,300.6 -45.95,87.9 -79.12,114.2 -76.1,141.1 0,0 -37.88,-36.9 -66.19,-21 -28.32,15.8 -72.73,116 -71.52,145.9 1.22,29.8 124.14,176.2 160.73,220.1"
         style="fill:#1f345f;fill-opacity:1;fill-rule:nonzero;stroke:none"
         id="path178" />
      <path
         d="m 10958.8,9550.6 c 10.8,-4.9 21.5,-8.6 28.1,-8.3 0,0 88,7.3 130.4,7.2 42.4,-0.1 33.3,-35.3 -9,-41.5 -42.3,-6.1 -45.9,-5.5 -46.5,-8.5 -0.5,-3 45.5,-52.7 97.6,-54.5 52.1,-1.8 80.2,6.9 89.5,3.1 7,-2.9 16.9,-33 -44.2,-43 0,0 56.2,-6.7 27.8,-26.2 -23.1,-15.8 -77.8,-7.6 -77.8,-7.6 0,0 44,-6.4 51.4,-8 17,-3.5 6.2,-24 -12.3,-28.2 -18.5,-4.2 -77.9,4.6 -123.8,17.9 0,0 34.3,-21.1 54.9,-22.9 23.7,-2 14.4,-33.3 -47.9,-15.3 -73.5,21.1 -87.9,47.9 -119.3,87.2 -25.5,31.9 -51.7,44.7 -68.5,49.8 31.9,23.7 70.3,68 69.6,98.8"
         style="fill:#f8a66c;fill-opacity:1;fill-rule:nonzero;stroke:none"
         id="path180" />
      <path
         d="m 13317,10432.6 c 25.4,8.9 61.5,24.7 103,52.4 80.7,54 152.5,61.5 178.9,59.7 14.9,-1 32.7,-17.1 -17.2,-34.3 -50,-17.3 -70.6,-46.6 -52.9,-55.4 9.6,-4.8 152.2,-18.9 264.9,9.4 50.5,12.7 56.8,-15 5.9,-31.7 0,0 17.4,0.2 21.2,-2.9 3.6,-2.9 5.3,-14.1 -11.7,-22.1 -16.9,-8 -32.3,-10.1 -32.3,-10.1 0,0 21.2,-7 -5.4,-20 -24.9,-12.1 -90.8,-18.4 -99.7,-19.2 7.4,0.6 55,4.3 45,-8.8 -10.9,-14.2 -36.7,-19.8 -102.1,-23.8 -65.3,-4.1 -168.8,-10.7 -219,3.3 -4,1.2 -8.2,1.4 -12.5,1.3 -5.6,32.1 -31.4,83.9 -66.1,102.2"
         style="fill:#f8a46c;fill-opacity:1;fill-rule:nonzero;stroke:none"
         id="path182" />
      <path
         d="m 14525.4,19760.4 c 0,0 100.4,169.9 119.1,204.9 0,0 32.7,-259.2 81.8,-280.3 0,0 -126.1,61.4 -200.9,75.4 z m 672.6,-513.8 520.8,-2.9 444.1,1041.2 c -36.5,171.9 -77.9,354.3 -124.2,504.8 -74.7,242.8 -155.9,333.3 -329.3,399.9 -173.4,66.6 -253.6,47.2 -253.6,47.2 -313.1,-77.1 -367,58.7 -414.1,63.7 -47,5 -61.5,14 -281.6,-44.9 -219.9,-58.9 -304.7,-209.6 -304.7,-209.6 -238.2,-355.6 -388.9,-902.1 -416.9,-1042.2 -28,-140.1 -182.2,-637.5 147.1,-735.6 95.9,-28.6 266,-42.6 458.9,-48.1 178.5,-5.1 376.6,-2.9 553.5,1.8 v 24.7"
         style="fill:#9397d4;fill-opacity:1;fill-rule:nonzero;stroke:none"
         id="path184" />
      <path
         d="m 14340.3,20848.1 c 35.6,69.6 74,136.6 115.1,197.9 0,0 84.8,150.7 304.7,209.6 220.1,58.9 234.6,49.9 281.6,44.9 47.1,-5 101,-140.8 414.1,-63.7 0,0 80.2,19.4 253.6,-47.2 173.4,-66.6 254.6,-157.1 329.3,-399.9 25.4,-82.4 49.2,-174.5 71.6,-269 208.3,149 174,508.2 -29.5,621.6 -245.2,136.6 -63.1,616.5 -80.6,868.8 -17.5,252.2 -301.3,630.5 -714.6,497.4 -413.4,-133.1 -499.5,-356.7 -546.5,-774.2 -31.5,-280.2 -213.7,-395.8 -213.7,-395.8 -27.6,-17.5 -234.7,-168.2 -213.7,-427.4 1.8,-21.1 11.7,-42.2 28.6,-63"
         style="fill:#23335e;fill-opacity:1;fill-rule:nonzero;stroke:none"
         id="path186" />
      <path
         d="m 15619.5,19238.2 c -0.4,1.9 -0.7,3.6 -1.1,5.5 -65.4,273.2 -399.4,401.6 -632.9,481.1 -233.5,79.4 -206.1,471.7 -206.1,471.7 -12.3,-47.3 -134.9,-231.2 -134.9,-231.2 0,0 22.9,-181.4 59.1,-253 l 22.7,-27.3 c 0,0 506.7,-123.7 581.5,-203.1 64.9,-69.1 36.4,-218 27.8,-255.8 115.8,4 215.3,8.6 283.9,12.1"
         style="fill:#6c75c2;fill-opacity:1;fill-rule:nonzero;stroke:none"
         id="path188" />
      <path
         d="m 15719.1,19419.7 c -59.8,59.7 -163.8,59.6 -233.9,44.8 -18.6,-4 -35,-8.9 -47.3,-14.1 -30.4,-12.7 -70.3,-16.5 -101.9,-17.3 21.8,-62.4 11.8,-143.7 3.8,-186.5 74,4.7 118.7,28.2 152.4,63.7 22.1,23.3 52.8,36.7 81.6,43.6 29.3,7 56.7,7.2 70.8,4 60.5,-13.5 54.9,-66.4 79.7,-67 35.5,-0.8 59.9,63.7 -5.2,128.8"
         style="fill:#f8a46b;fill-opacity:1;fill-rule:nonzero;stroke:none"
         id="path190" />
      <path
         d="m 15519.1,21977.2 c -183.3,-120.3 -340,-83.6 -340,-83.6 -1.5,-31.4 -7.4,-56.5 -7.4,-56.5 0,0 -13.1,47.4 -53.1,44.3 -48.2,-3.7 -45.8,-82.3 -23.9,-148 21.9,-65.6 68.3,-51.6 68.3,-51.6 82.3,-189.2 255.7,-250.5 364.3,-266.3 108.6,-15.7 217.2,78.9 248.7,275 31.5,196.2 0,374.9 0,374.9 -19.8,34.4 -73.6,32.1 -256.9,-88.2"
         style="fill:#f8a46b;fill-opacity:1;fill-rule:nonzero;stroke:none"
         id="path192" />
      <path
         d="m 15041.7,21300.5 c 47.1,-5 101,-140.8 414.1,-63.7 6.5,47.9 22.2,135.5 54.2,181.6 v 0 c -106.9,19.2 -262.6,81.8 -342.3,253.5 h -0.3 c 0,0 -56.8,-285.2 -125.7,-371.4"
         style="fill:#f8a46b;fill-opacity:1;fill-rule:nonzero;stroke:none"
         id="path194" />
      <path
         d="m 15167.7,21671.9 h -0.3 c 0,0 -0.5,-2.4 -1.4,-6.9 0,0 23.2,-242.5 214.2,-319.5 33.9,-13.7 63,-26.4 88.1,-38.2 9,40.3 22.4,83.2 41.7,111.1 v 0 c -106.9,19.2 -262.6,81.8 -342.3,253.5"
         style="fill:#ef8546;fill-opacity:1;fill-rule:nonzero;stroke:none"
         id="path196" />
      <path
         d="m 16177.9,20320.1 -459.1,-1076.4 -520.8,2.9 v -64.8 h 1958.6 c 44,0 83.6,26.6 100.2,67.4 l 425.4,1046.2 c 14.8,36.4 -12,76.2 -51.3,76.2 h -1375 c -34,0 -64.7,-20.2 -78,-51.5"
         style="fill:#f03656;fill-opacity:1;fill-rule:nonzero;stroke:none"
         id="path198" />
      <path
         d="m 15198,19246.6 v -64.8 h 495.7 l 25.1,61.9 -520.8,2.9"
         style="fill:#da314d;fill-opacity:1;fill-rule:nonzero;stroke:none"
         id="path200" />
      <path
         d="m 16720.2,19830.7 c -21.4,-37.1 -16.5,-79.9 10.9,-95.8 27.4,-15.8 67,1.4 88.4,38.5 21.4,37 16.5,79.9 -10.9,95.8 -27.4,15.8 -67,-1.4 -88.4,-38.5"
         style="fill:#e9f0f5;fill-opacity:1;fill-rule:nonzero;stroke:none"
         id="path202" />
      <path
         d="m 17505.3,18958.8 c -98.9,119.4 -180.8,193.8 -268.4,241.5 l -12.8,5.5 c -18.8,-15.1 -42.4,-24 -67.5,-24 H 15693.7 15198 v 40.1 c -168,-4.5 -354.9,-6.6 -526.2,-2.4 -36.2,-78.7 -370.5,-851.8 320.7,-1157.5 728.6,-322.3 1742.2,350.3 1742.2,350.3 0,0 -170.5,-576.9 -212.6,-920.1 -42,-343.3 -129.6,-858.3 -77,-879.3 52.5,-21 238.2,-105.1 262.7,-63.1 24.5,42.1 385.3,795.2 465.9,998.4 80.6,203.2 98.1,287.2 98.1,287.2 0,0 318.8,-381.8 676.1,-665.5 357.3,-283.8 406.3,-343.3 462.4,-346.8 56,-3.5 245.2,10.5 245.2,63 0,52.6 -879.3,1745.7 -1150.2,2072.7"
         style="fill:#2d4590;fill-opacity:1;fill-rule:nonzero;stroke:none"
         id="path204" />
      <path
         d="m 16860.8,18456.7 c -56.1,7 -126.1,-44.4 -126.1,-44.4 0,0 -170.5,-576.9 -212.6,-920.1 -42,-343.3 -129.6,-858.3 -77,-879.3 52.5,-21 238.2,-105.1 262.7,-63.1 24.5,42.1 385.3,795.2 465.9,998.4 80.6,203.2 98.1,287.2 98.1,287.2 -364.9,389.4 -355,614.2 -411,621.3"
         style="fill:#274184;fill-opacity:1;fill-rule:nonzero;stroke:none"
         id="path206" />
      <path
         d="m 17271.8,17835.4 c 0,0 6.2,-7.4 17.6,-20.6 -5.6,7.1 -11.4,14 -17.6,20.6"
         style="fill:#1b181a;fill-opacity:1;fill-rule:nonzero;stroke:none"
         id="path208" />
      <path
         d="m 16198.7,16303.5 c 0,0 -142.5,-9.4 -128.4,-115.6 14,-106.3 74.7,-147.2 91,-149.5 16.4,-2.3 51.4,-16.3 88.8,-68.9 37.3,-52.5 224.8,-302.4 375.4,-370.7 150.6,-68.3 94,71.9 75.3,117.3 -16.7,40.6 -93.4,158.1 -93.4,158.1 0,0 8,-58.3 -21.6,-40.8 -29.5,17.6 -329.5,365 -346.1,470.1 0,0 -23.6,2.2 -41,0"
         style="fill:#2a3764;fill-opacity:1;fill-rule:nonzero;stroke:none"
         id="path210" />
      <path
         d="m 16592.2,16124.2 c 15.1,107.1 65.7,324.7 86.9,414.1 -52.1,-1.1 -155.9,42.1 -211.2,65.2 0,0 -46.2,-239.3 -130.2,-274.4 -40.5,-16.8 -74,-23.3 -98.1,-25.6 h 0.1 c 14,-88.8 230,-350.2 314.7,-440 11.3,-11.4 21.9,-21.7 31.4,-30.1 29.6,-17.5 21.6,40.8 21.6,40.8 -12.6,63.8 -27.2,164.8 -15.2,250"
         style="fill:#f8a46b;fill-opacity:1;fill-rule:nonzero;stroke:none"
         id="path212" />
      <path
         d="m 18483,16504.5 c 0,0 -50,-120.2 20.2,-155.4 86.9,-43.7 170.2,1.4 180.3,12.5 10.2,11 16.9,8.6 75.3,9.5 58.5,0.8 341.6,12.3 470.1,89.7 128.5,77.4 -5.4,107.2 -48.9,116.6 -38.9,8.5 -166.1,11.6 -166.1,11.6 0,0 47.6,-24.1 19.3,-37.1 -28.3,-13 -442.1,-58.5 -529.1,-16.8 0,0 -13.9,-16.5 -21.1,-30.6"
         style="fill:#2a3764;fill-opacity:1;fill-rule:nonzero;stroke:none"
         id="path214" />
      <path
         d="m 19013.8,16589 c -89.5,15.1 -176.5,74.4 -234,127.2 -40.1,36.9 -87.9,96.4 -132,152.6 -31.8,-33.9 -154.5,-46 -216.5,-46.2 44.5,-51.7 115.8,-144.9 103.9,-201.1 -8.2,-38.9 -20.6,-67.3 -31.2,-86.5 l 0.1,0.1 c 73.4,-35.2 379.8,-8.3 490.5,8.8 14.3,2.5 27.5,5.2 38.6,8 28.3,13 -19.4,37.1 -19.4,37.1"
         style="fill:#f8a46b;fill-opacity:1;fill-rule:nonzero;stroke:none"
         id="path216" />
      <path
         d="m 27675.3,13132.5 c 0,0 -138.3,-335 -109.2,-670 29.1,-335 316.8,-327.7 662.7,-218.5 0,0 -137.9,59.7 -185.7,187.6 -36.4,97.4 -43.7,111.9 -40,118.3 3.6,6.4 40.9,80.4 25.5,136 -15.5,55.5 -70.7,51 -92,1.5 -27.3,-63.7 -91.9,-23.4 -142.3,55.5 -51.1,80.1 -51.6,315 -119,389.6"
         style="fill:#f8a46c;fill-opacity:1;fill-rule:nonzero;stroke:none"
         id="path218" />
      <path
         d="m 27712.5,13523.8 c 92.9,-32.2 163.1,-30.8 382.5,-61.1 240.5,-33.2 691.4,-153.5 605.4,-643.3 -60.1,-342.3 -367.5,-577.5 -390.5,-590.8 -23.1,-13.4 -81.1,15.4 -81.1,15.4 0,0 -137.9,59.7 -185.7,187.6 -36.4,97.4 -43.7,111.9 -40,118.3 3.6,6.4 40.9,80.4 25.5,136 -15.5,55.5 -70.7,51 -92,1.5 -27.3,-63.7 -91.9,-23.4 -142.3,55.5 -51.1,80.1 -51.6,315 -119,389.6 0,0 -53.6,48 -83.7,158.4 -43.7,160.3 43.6,259.6 120.9,232.9"
         style="fill:#1f345f;fill-opacity:1;fill-rule:nonzero;stroke:none"
         id="path220" />
      <path
         d="m 28332.1,12075.3 c 0,0 -126.3,-68 -326.6,-132.3 -200.3,-64.3 -259.8,-75.3 -281.6,-97.7 -21.8,-22.5 -42.5,-126.9 -71.6,-142.6 -29.1,-15.8 -118.1,-259.8 -155.4,-367.2 -35.4,-101.8 -132.3,-142.6 -350.8,-276.2 -218.5,-133.5 -403,-225.7 -504.9,-237.9 -102,-12.1 -383.6,43.7 -587.5,131.1 -203.9,87.4 -290.1,100.8 -293.7,95.3 -3.7,-5.4 -60.1,-136.5 -85.6,-152.9 -25.5,-16.4 584.4,-559 781.1,-595.4 196.6,-36.4 407.8,-109.2 899.4,142 0,0 26.4,-245.1 -76.5,-398.4 -54.9,-81.8 -165.7,-229.7 -316.8,-304.4 -89.1,-44 -460.1,-273.8 -683.4,-435.7 -77,-56 -226.7,-174.6 -228.2,-212.5 -1.8,-46.1 45.6,-109.5 81.1,-139.1 51.3,-42.9 382.6,48.1 528.3,99.1 145.6,51 485.6,140.6 670,233 0,0 -54.6,-615.4 -18.2,-710 36.4,-94.7 422.4,-524.4 1835.3,0 0,0 -43.7,1677.4 -199.1,2454.3 -155.3,776.8 -495.8,724.4 -518.3,866.7 -18.2,115.3 -37.4,190.5 -97,180.8"
         style="fill:#9397d4;fill-opacity:1;fill-rule:nonzero;stroke:none"
         id="path222" />
      <path
         d="m 28316.7,12067.4 c -39.3,-19.7 -151.6,-73.1 -311.2,-124.4 -106.7,-34.3 -173.2,-53.3 -215.6,-67.1 9,56.6 25.1,182.9 12.9,300.9 -0.2,1.9 -0.2,3.6 -0.2,5.4 115.7,-18 264.6,10.8 426.2,61.8 0,0 25.6,-12.7 49.6,-17.3 v 0 c 0,0 15.1,-95.3 38.3,-159.3"
         style="fill:#f8a46c;fill-opacity:1;fill-rule:nonzero;stroke:none"
         id="path224" />
      <path
         d="m 27655.9,11696.6 c -1.7,0.9 -2.7,3.3 -3.4,6.2 29,16.2 49.6,120.1 71.4,142.5 21.8,22.5 81.3,33.4 281.6,97.7 200.3,64.3 326.6,132.3 326.6,132.3 56.8,9.3 76.9,-58.7 94.4,-164.8 -3.1,-18.8 -43.1,-64.8 -326.3,-116.8 -370.2,-68 -426.1,-106.8 -444.3,-97.1"
         style="fill:#6b74c2;fill-opacity:1;fill-rule:nonzero;stroke:none"
         id="path226" />
      <path
         d="m 26455.5,10299.5 c -196.7,36.4 -806.6,579 -781.1,595.4 25.5,16.4 81.9,147.5 85.6,152.9 3.6,5.5 89.8,-7.9 293.7,-95.3 203.9,-87.4 485.5,-143.2 587.5,-131.1 101.9,12.2 286.4,104.4 504.9,237.9 210.6,128.7 308.1,171.4 346.5,265.5 l 2.8,-0.8 c 0,0 -136.9,-445.5 -140.5,-882.5 -491.6,-251.2 -702.8,-178.4 -899.4,-142"
         style="fill:#6b74c2;fill-opacity:1;fill-rule:nonzero;stroke:none"
         id="path228" />
      <path
         d="m 27301.8,8862.3 v 0 c 7.8,198.2 27.6,421.2 27.6,421.2 32.8,54.7 605.5,324.8 790.2,611.8 203.9,316.8 463.7,710.1 473.4,962.6 0,0 -39,-743 -276.8,-1155.6 -257.3,-446.7 -781,-898.2 -1014.4,-840"
         style="fill:#6b74c2;fill-opacity:1;fill-rule:nonzero;stroke:none"
         id="path230" />
      <path
         d="m 27805.8,12030.8 c 2.2,46.4 2.1,96.9 -3,146 -0.2,1.9 -0.2,3.6 -0.2,5.4 115,-17.8 262.7,10.4 423.1,60.9 -1.7,-3.7 -1,-3.9 3.1,0.9 0,0 -156.5,-205.6 -423,-213.2 v 0"
         style="fill:#ef9b63;fill-opacity:1;fill-rule:nonzero;stroke:none"
         id="path232" />
      <path
         d="m 28570.2,3244.2 c 129.3,31 291.3,122 336.9,163.9 28,25.8 44.3,31.6 52.7,46.3 74.6,-20.6 258.3,-9.7 327.4,9.8 7.8,-60.1 20.3,-165.2 18.6,-209.1 -2.4,-63.1 9.7,-99.5 -25.5,-110.4 -35.2,-11 -178.4,-2.5 -182.1,0 -3.6,2.4 -17,30.3 -17,30.3 0,0 -13.9,-42.4 -318,-35.8 -304,6.7 -365.9,-17 -386,17.6 -20,34.6 63.8,56.5 193,87.4"
         style="fill:#201e26;fill-opacity:1;fill-rule:nonzero;stroke:none"
         id="path234" />
      <path
         d="m 27454.7,3228.4 c 129.3,31 291.4,122 336.9,163.9 21.1,19.5 36.1,47.1 45.9,65.8 78.5,-20.2 259.2,-22.5 334.4,-11.9 7.9,-60.4 20.1,-163.5 18.4,-206.8 -2.4,-63.2 9.7,-99.6 -25.5,-110.5 -35.2,-10.9 -178.4,-2.4 -182.1,0 -3.6,2.4 -16.9,30.3 -16.9,30.3 0,0 -14,-42.4 -318.1,-35.7 -304,6.6 -365.9,-17.1 -386,17.5 -20,34.6 63.8,56.5 193,87.4"
         style="fill:#201e26;fill-opacity:1;fill-rule:nonzero;stroke:none"
         id="path236" />
      <path
         d="m 25284.9,11288 c 36.4,-5.5 81.3,-38.6 81.3,-38.6 -8.2,10 -24.1,36 -7.7,46 16.4,10 34.7,2 71,-26.4 88.1,-68.9 162.5,-82.4 162.5,-82.4 0,0 -18.1,26.4 -27.8,95.6 -9.7,69.2 47.8,85.2 53.9,37.5 6.1,-47.7 72.2,-93.1 86.8,-162.2 11,-52.6 39.9,-95.7 53.1,-113.4 -10.3,-21.5 -58.2,-129.6 -82.2,-148 -13.5,4.6 -29.2,7.8 -47.4,8.3 -91,2.4 -183.5,64 -242.2,81 -97.1,28.2 -81.3,63.4 -69.1,60.1 25.5,-7 115.6,0.9 115.6,0.9 0,0 -151.1,95.1 -156.6,128.4 -5.8,34.9 40,25.5 40,25.5 0,0 -24.2,14.5 -50.6,39.1 -26.4,24.6 -17,54 19.4,48.6"
         style="fill:#f8a46c;fill-opacity:1;fill-rule:nonzero;stroke:none"
         id="path238" />
      <path
         d="m 24869.7,9963.1 v 2227 l 44.9,148.1 c -14.6,17.1 -29.6,33.9 -44.9,50.4 v 0.1 c 276.3,-298.2 452.1,-690.9 473.3,-1124.2 -16.2,9.5 -38.4,20.5 -58.1,23.5 -3,0.4 -5.8,0.6 -8.4,0.6 -29.3,0 -35.3,-26.6 -11,-49.2 26.4,-24.6 50.6,-39.1 50.6,-39.1 0,0 -5.6,1.1 -12.6,1.1 -13.1,0 -31.2,-4 -27.4,-26.6 2.4,-14.9 33.7,-41.9 67.7,-67.4 -0.8,-21.6 -2,-43.1 -3.6,-64.6 -9.6,0.4 -17.8,1.2 -23.1,2.7 -0.6,0.1 -1.1,0.2 -1.7,0.2 -8.9,0 -17.1,-19.6 21.6,-41 -38.1,-400.5 -208.7,-762.5 -467.3,-1041.6"
         style="fill:#dde2f4;fill-opacity:1;fill-rule:nonzero;stroke:none"
         id="path240" />
      <path
         d="m 24458.2,9633.2 v 1200.3 l 411.5,1356.6 v -2227 c -119.7,-129.2 -258.4,-240.6 -411.5,-329.9 m 0,1882 v 638.7 l 143.1,471.7 c -46.1,33.2 -93.8,64.2 -143.1,92.9 v 0.1 c 153.1,-89.3 291.8,-200.7 411.5,-329.9 v -0.1 c -35.9,38.8 -73.6,75.9 -112.8,111.4 l -298.7,-984.8"
         style="fill:#8a9fd9;fill-opacity:1;fill-rule:nonzero;stroke:none"
         id="path242" />
      <path
         d="m 23562.5,9391.3 c 19.5,0 38.9,0.4 58.2,1.1 l 837.5,2761.5 v -638.7 l -638.4,-2105.1 c 75.2,10.9 149,26.6 220.9,46.6 l 417.5,1376.8 V 9633.2 c -263.2,-153.5 -569.1,-241.6 -895.7,-241.9 m -17.6,0 c -73,0.7 -145,5.7 -215.7,14.8 v 0.1 c 70.7,-9.2 142.7,-14.2 215.7,-14.9 m -215.7,175.5 v 409 l 128.8,202.5 c 23.1,36.3 12.3,84.3 -24,107.3 -12.9,8.3 -27.4,12.2 -41.7,12.2 -25.7,0 -50.9,-12.8 -65.8,-36.1 l -1.7,-2.6 792.5,2612.7 c -169.7,55.7 -350.5,86.7 -538.3,88.6 320.4,-3.3 620.5,-90.9 879.2,-241.8 v -0.1 c -48.4,28.2 -98.3,54.2 -149.5,77.9 l -979.5,-3229.6 m -817.6,448.9 h -307.2 c -267.2,312 -428.5,717.2 -428.5,1160.2 0,166.9 22.9,328.4 65.8,481.7 v -684.8 h 960.2 l -290.3,-957.1 m 658.4,2441.7 h -851.5 c 320.2,310.3 756.2,501.7 1237,503.1 -51.5,-0.2 -102.5,-2.6 -152.9,-7 l -75.7,-249.5 c -0.1,-0.2 -0.3,-0.4 -0.4,-0.6 l -156.5,-246"
         style="fill:#f0f5fc;fill-opacity:1;fill-rule:nonzero;stroke:none"
         id="path244" />
      <path
         d="m 22801.9,10972.8 h -960.2 v 684.8 c 21.2,75.8 47.3,149.6 77.9,221 v -828 h 905.8 l -23.5,-77.8 m 318.7,1406.9 H 22243 c 24.4,26.6 49.6,52.6 75.5,77.7 h 851.5 l -49.4,-77.7"
         style="fill:#b1c5ea;fill-opacity:1;fill-rule:nonzero;stroke:none"
         id="path246" />
      <path
         d="m 22825.4,11050.6 h -905.8 v 828 c 79.4,185.3 189.3,354.4 323.4,501.1 h 877.6 l -523.3,-822.5 -382.8,450.9 c -15.3,18.1 -37.3,27.5 -59.4,27.5 -17.8,0 -35.7,-6.1 -50.3,-18.4 -32.9,-27.8 -36.9,-76.9 -9.1,-109.6 l 519.6,-612.1 543.5,854.2 -333.4,-1099.1"
         style="fill:#f4f5fb;fill-opacity:1;fill-rule:nonzero;stroke:none"
         id="path248" />
      <path
         d="m 22615.3,11295.5 -519.6,612.1 c -27.8,32.7 -23.8,81.8 9.1,109.6 14.6,12.3 32.5,18.4 50.3,18.4 22.1,0 44.1,-9.4 59.4,-27.5 l 382.8,-450.9 523.3,822.5 49.4,77.7 156.5,246 c 0.1,0.2 0.3,0.4 0.4,0.6 l -168.1,-554.3 -543.5,-854.2"
         style="fill:#ed8644;fill-opacity:1;fill-rule:nonzero;stroke:none"
         id="path250" />
      <path
         d="m 23329.2,9406.1 c -26.2,3.4 -52.2,7.4 -78,11.9 v 435.3 l 78,122.5 v -409 l -46.7,-153.9 c 15.5,-2.5 31,-4.7 46.7,-6.7 v -0.1 M 22488,9938 h -213 c -24.3,25.2 -47.8,51.1 -70.6,77.7 h 307.2 L 22488,9938"
         style="fill:#b1c5ea;fill-opacity:1;fill-rule:nonzero;stroke:none"
         id="path252" />
      <path
         d="m 23251.2,9418 c -81.8,14.3 -161.6,34.1 -239.3,59.2 l 0.1,0.1 c 22.9,-7.5 46.1,-14.4 69.4,-20.9 l 75.3,248.4 94.5,148.5 V 9418 m -388.4,114.8 c -222.7,94.7 -422.4,233.5 -587.8,405.2 h 213 l -46.2,-152.4 c 127.2,-102.5 268.7,-187.9 421,-252.7 v -0.1"
         style="fill:#f4f5fb;fill-opacity:1;fill-rule:nonzero;stroke:none"
         id="path254" />
      <path
         d="m 23011.9,9477.2 c -50.7,16.3 -100.5,34.9 -149.1,55.6 v 0.1 c 48.7,-20.7 98.4,-39.3 149.2,-55.6 l -0.1,-0.1 m 144.8,227.6 168.1,554.3 1.7,2.6 c 14.9,23.3 40.1,36.1 65.8,36.1 14.3,0 28.8,-3.9 41.7,-12.2 36.3,-23 47.1,-71 24,-107.3 l -128.8,-202.5 -78,-122.5 -94.5,-148.5"
         style="fill:#ed8644;fill-opacity:1;fill-rule:nonzero;stroke:none"
         id="path256" />
      <path
         d="m 25337,11004.7 c -38.7,21.4 -30.5,41 -21.6,41 0.6,0 1.1,-0.1 1.7,-0.2 5.3,-1.5 13.5,-2.3 23.1,-2.7 -0.9,-12.7 -2,-25.4 -3.2,-38.1 m 6.8,102.7 c -34,25.5 -65.3,52.5 -67.7,67.4 -3.8,22.6 14.3,26.6 27.4,26.6 7,0 12.6,-1.1 12.6,-1.1 0,0 -24.2,14.5 -50.6,39.1 -24.3,22.6 -18.3,49.2 11,49.2 2.6,0 5.4,-0.2 8.4,-0.6 19.7,-3 41.9,-14 58.1,-23.5 1.4,-29.4 2.1,-58.9 2.1,-88.6 0,-22.9 -0.4,-45.8 -1.3,-68.5"
         style="fill:#eba07b;fill-opacity:1;fill-rule:nonzero;stroke:none"
         id="path258" />
      <path
         d="m 23557.9,9391.3 c -0.3,0 -0.6,0 -0.9,0 0.3,0 0.6,0 0.9,0 m -2.5,0 c -0.4,0 -0.8,0 -1.1,0 0.3,0 0.7,0 1.1,0 m -2.7,0 c -0.5,0 -0.9,0 -1.4,0 0.5,0 0.9,0 1.4,0 m -3.3,0 c -0.6,0 -1.1,0 -1.7,0 0.6,0 1.1,0 1.7,0 m -2.4,0 c -0.7,0 -1.3,0 -1.9,0 0.6,0 1.3,0 1.9,0 m 31.6,3569.1 c -0.6,0 -1.2,0 -1.8,0 0.6,0 1.3,0 1.8,0 m -2.6,0 c -0.6,0 -1.1,0 -1.6,0 0.5,0 1,0 1.6,0 m -3,0 c -0.3,0 -0.7,0 -1.1,0 0.4,0 0.8,0 1.1,0 m -3.5,0.1 c -0.4,0 -0.7,0 -1.1,0 0.4,0 0.7,0 1.1,0 m -2.7,0 c -0.4,0 -0.7,0 -1,0 0.3,0 0.6,0 1,0 m -11,0 c 0.7,0 1.4,0 2.1,0 -0.7,0 -1.4,0 -2.1,0 m 8.2,0 c -0.3,0 -0.6,0 -0.9,0 0.4,0 0.6,0 0.9,0"
         style="fill:#f0f5fc;fill-opacity:1;fill-rule:nonzero;stroke:none"
         id="path260" />
      <path
         d="m 21775.9,11175.9 c 0,985.6 799,1784.6 1784.6,1784.6 985.6,0 1784.6,-799 1784.6,-1784.6 0,-985.6 -799,-1784.6 -1784.6,-1784.6 -985.6,0 -1784.6,799 -1784.6,1784.6 m -213.3,0 c 0,-1103.5 894.5,-1998 1997.9,-1998 1103.4,0 1998,894.5 1998,1998 0,1103.4 -894.6,1997.9 -1998,1997.9 -1103.4,0 -1997.9,-894.5 -1997.9,-1997.9"
         style="fill:#2d4590;fill-opacity:1;fill-rule:nonzero;stroke:none"
         id="path262" />
      <path
         d="m 29081.1,8549.6 v 0 c 0,0 -22,-1119.6 -36.6,-1571.1 -14.5,-451.5 7.6,-910.4 36.6,-1019.6 29,-109.2 181.9,-881.2 218.3,-1442 36.4,-560.8 65.6,-1023.2 0,-1048.7 -65.5,-25.5 -331.3,-40.1 -367.8,0 -36.4,40 -134.7,728.2 -231.8,961.3 -86.2,207 -294.1,978.8 -332.8,1213.5 21.9,-235.5 90.8,-1098.1 -21.6,-1601.9 -114.4,-512.7 -104.4,-565.7 -143.3,-587.5 -38.8,-21.9 -373.8,-19.4 -400.5,21.8 -26.7,41.3 -89.8,1565.9 -148.1,1981 -58.3,415.1 -131.1,735.6 -189.4,1238.1 -56.4,486.7 -111.8,1410.7 -59.5,1772.7 179.2,-135.4 643.5,-287.8 1676.5,82.4"
         style="fill:#2d4590;fill-opacity:1;fill-rule:nonzero;stroke:none"
         id="path264" />
      <path
         d="m 29044.5,6978.5 c -14.5,-451.5 7.6,-910.4 36.6,-1019.6 16.2,-61.1 71.2,-329.5 122.9,-652.4 -80.4,-228.5 -176.5,-596 -227.4,-1134.3 -24.1,-254.2 -57.5,-416.1 -94.1,-515.9 -47.5,231.5 -115.4,611.6 -182.7,773.2 -77.5,186 -253.1,827.7 -316.1,1126.4 l -16.7,87.1 c 0,0 2.6,153.2 109.5,774.7 106.8,621.5 308.8,1922.4 457.8,2081.5 47.6,15.6 96.5,32.4 146.8,50.4 0,0 -22,-1119.6 -36.6,-1571.1"
         style="fill:#274184;fill-opacity:1;fill-rule:nonzero;stroke:none"
         id="path266" />
      <path
         d="M 25067.2,9863.8 28287.9,6957.4 28088.1,6736 24854.7,9653.9 c 75.9,64.6 147,134.8 212.5,209.9"
         style="fill:#2d4590;fill-opacity:1;fill-rule:nonzero;stroke:none"
         id="path268" />
      <path
         d="M 26898.8,8211 28287.9,6957.4 28088.1,6736 26699,7989.6 26898.8,8211"
         style="fill:#6b74c2;fill-opacity:1;fill-rule:nonzero;stroke:none"
         id="path270" />
      <path
         d="m 25523.3,9071.4 c 15.5,-10 45.5,-15.5 45.5,-15.5 -4.6,3.7 -21,34.6 10.9,23.7 31.9,-10.9 183.9,-39.1 232.4,-2.4 38.9,29.4 -25.3,100.8 -46.7,125.6 -6.6,7.7 -4.6,22.4 12.8,18.8 87.1,-17.8 154.7,-102.6 194.8,-135.2 40,-32.5 78.3,-12 78.3,-12 7.1,-41.4 43.9,-90.8 74.5,-118.4 -81.3,-26.5 -119.6,-34 -159.2,-37.5 -41.3,-3.7 -89.5,-11.8 -218.2,-5.8 -128.6,6.1 -165.1,33.4 -159.6,42.5 5.5,9.1 44.3,0 44.3,0 -61,17 -107.1,46.2 -113.6,62.7 -3.8,9.6 3.8,15.6 3.8,15.6 -30.5,22.7 -17,48.9 0,37.9"
         style="fill:#f8a46c;fill-opacity:1;fill-rule:nonzero;stroke:none"
         id="path272" />
      <path
         d="m 23170,10015.7 h -658.4 l 290.3,957.1 h 527.3 v 1444.6 l 128.8,202.6 c 23.1,36.2 12.3,84.3 -24,107.3 -12.9,8.2 -27.4,12.1 -41.7,12.1 -25.5,0 -50.5,-12.5 -65.4,-35.4 l 75.7,249.5 c 50.4,4.4 101.4,6.8 152.9,7 0.1,0 0.2,0 0.3,0 0.7,0 1.4,0 2.1,0 0.8,0 1.8,0 2.6,0 v 0 0 c 0.9,0 1.8,0 2.6,0 0.3,0 0.6,0 0.9,0 0.6,0 1.2,0 1.8,0 0.3,0 0.6,0 1,0 0.5,0 1.1,0 1.6,0 0.4,0 0.7,0 1.1,0 0.7,0 1.6,0 2.4,-0.1 0.4,0 0.8,0 1.1,0 0.5,0 0.9,0 1.4,0 0.5,0 1,0 1.6,0 0.3,0 0.5,0 0.8,0 0.6,0 1.2,0 1.8,0 0.2,0 0.3,0 0.4,0 187.8,-1.9 368.6,-32.9 538.3,-88.6 l -792.5,-2612.7 -154.8,-243.4"
         style="fill:#e3e8f7;fill-opacity:1;fill-rule:nonzero;stroke:none"
         id="path274" />
      <path
         d="m 23329.2,10972.8 h -527.3 l 23.5,77.8 h 425.8 V 12295 l 78,122.4 v -1444.6"
         style="fill:#abbde6;fill-opacity:1;fill-rule:nonzero;stroke:none"
         id="path276" />
      <path
         d="m 23251.2,11050.6 h -425.8 l 333.4,1099.1 92.4,145.3 v -1244.4"
         style="fill:#e6e7f6;fill-opacity:1;fill-rule:nonzero;stroke:none"
         id="path278" />
      <path
         d="m 23158.8,12149.7 168.1,554.3 c 14.9,22.9 39.9,35.4 65.4,35.4 14.3,0 28.8,-3.9 41.7,-12.1 36.3,-23 47.1,-71.1 24,-107.3 l -128.8,-202.6 -78,-122.4 -92.4,-145.3"
         style="fill:#de8452;fill-opacity:1;fill-rule:nonzero;stroke:none"
         id="path280" />
      <path
         d="M 23120.6,9938 H 22488 l 23.6,77.7 h 658.4 l -49.4,-77.7"
         style="fill:#abbde6;fill-opacity:1;fill-rule:nonzero;stroke:none"
         id="path282" />
      <path
         d="m 23081.4,9456.4 c -23.3,6.5 -46.5,13.4 -69.4,20.9 l 144.7,227.5 -75.3,-248.4 m -218.6,76.5 c -152.3,64.8 -293.8,150.2 -421,252.7 l 46.2,152.4 h 632.6 l -257.8,-405.1"
         style="fill:#e6e7f6;fill-opacity:1;fill-rule:nonzero;stroke:none"
         id="path284" />
      <path
         d="m 23012,9477.3 c -50.8,16.3 -100.5,34.9 -149.2,55.6 l 257.8,405.1 49.4,77.7 154.8,243.4 -168.1,-554.3 -144.7,-227.5"
         style="fill:#de8452;fill-opacity:1;fill-rule:nonzero;stroke:none"
         id="path286" />
      <path
         d="m 23579,12960.4 c -0.1,0 -0.2,0 -0.4,0 0.1,0 0.3,0 0.4,0 m -2.2,0 c -0.3,0 -0.5,0 -0.8,0 0.3,0 0.5,0 0.8,0 m -2.4,0 c -0.5,0 -0.9,0 -1.4,0 0.5,0 0.9,0 1.4,0 m -2.5,0 c -0.8,0.1 -1.7,0.1 -2.4,0.1 0.8,0 1.6,0 2.4,-0.1 m -3.5,0.1 c -0.5,0 -1.1,0 -1.6,0 0.5,0 1.1,0 1.6,0 m -2.6,0 c -0.6,0 -1.2,0 -1.8,0 0.6,0 1.2,0 1.8,0 m -10.3,0 c 0.1,0 0.2,0 0.3,0 -0.1,0 -0.2,0 -0.3,0 m 2.4,0 c 0.9,0 1.7,0 2.6,0 -0.8,0 -1.8,0 -2.6,0 m 5.2,0 c -0.8,0 -1.7,0 -2.6,0 0.9,0 1.7,0 2.6,0"
         style="fill:#324999;fill-opacity:1;fill-rule:nonzero;stroke:none"
         id="path288" />
      <path
         d="m 24458.2,12153.9 v 564.6 c 49.3,-28.7 97,-59.7 143.1,-92.9 l -143.1,-471.7"
         style="fill:#889bd6;fill-opacity:1;fill-rule:nonzero;stroke:none"
         id="path290" />
      <path
         d="m 23560.5,9391.3 c -0.8,0 -1.7,0 -2.6,0 -0.3,0 -0.6,0 -0.9,0 -0.6,0 -1,0 -1.6,0 -0.4,0 -0.8,0 -1.1,0 -0.5,0 -1.1,0 -1.6,0 -0.5,0 -0.9,0 -1.4,0 -0.6,0 -1.3,0 -1.9,0 -0.6,0 -1.1,0 -1.7,0 -0.3,0 -0.5,0 -0.7,0 -0.6,0 -1.3,0 -1.9,0 h -0.2 c -73,0.7 -145,5.7 -215.7,14.9 v 160.6 l 979.5,3229.6 c 51.2,-23.7 101.1,-49.7 149.5,-77.9 v -564.6 l -837.5,-2761.5 c -19.3,-0.7 -38.7,-1.1 -58.2,-1.1 -0.6,0 -1.3,0 -2,0"
         style="fill:#e3e8f7;fill-opacity:1;fill-rule:nonzero;stroke:none"
         id="path292" />
      <path
         d="m 23329.2,9406.2 c -15.7,2 -31.2,4.2 -46.7,6.7 l 46.7,153.9 v -160.6"
         style="fill:#abbde6;fill-opacity:1;fill-rule:nonzero;stroke:none"
         id="path294" />
      <path
         d="m 23560.5,9391.3 c -0.8,0 -1.7,0 -2.6,0 0.9,0 1.8,0 2.6,0 0.7,0 1.4,0 2,0 -0.7,0 -1.3,0 -2,0 m -3.5,0 c -0.5,0 -1.1,0 -1.6,0 0.6,0 1,0 1.6,0 m -2.7,0 c -0.6,0 -1.1,0 -1.6,0 0.5,0 1.1,0 1.6,0 m -3,0 c -0.6,0 -1.2,0 -1.9,0 0.6,0 1.3,0 1.9,0 m -3.6,0 c -0.3,0 -0.5,0 -0.7,0 0.2,0 0.4,0 0.7,0 m -2.6,0 c -0.1,0 -0.1,0 -0.2,0 h 0.2"
         style="fill:#324999;fill-opacity:1;fill-rule:nonzero;stroke:none"
         id="path296" />
      <path
         d="m 24869.7,12190.1 v 198.5 c 15.3,-16.5 30.3,-33.3 44.9,-50.4 l -44.9,-148.1"
         style="fill:#d2d7f0;fill-opacity:1;fill-rule:nonzero;stroke:none"
         id="path298" />
      <path
         d="m 24458.2,10833.5 v 681.7 l 298.7,984.8 c 39.2,-35.5 76.9,-72.6 112.8,-111.4 v -198.5 l -411.5,-1356.6"
         style="fill:#889bd6;fill-opacity:1;fill-rule:nonzero;stroke:none"
         id="path300" />
      <path
         d="m 23819.8,9410.1 638.4,2105.1 v -681.7 l -417.5,-1376.8 c -71.9,-20 -145.7,-35.7 -220.9,-46.6"
         style="fill:#e3e8f7;fill-opacity:1;fill-rule:nonzero;stroke:none"
         id="path302" />
      <path
         d="m 22269.7,3334.7 c 0,212.6 160.4,388.9 370.2,421.1 h -7347 c -188.8,0 -341.9,-146.7 -341.9,-327.7 v -186.9 c 0,-180.9 153.1,-327.6 341.9,-327.6 h 7347 c -209.8,32.2 -370.2,208.4 -370.2,421.1"
         style="fill:#2e4390;fill-opacity:1;fill-rule:nonzero;stroke:none"
         id="path304" />
      <path
         d="m 22639.9,3755.8 c -209.8,-32.2 -370.2,-208.5 -370.2,-421.1 0,-212.7 160.4,-388.9 370.2,-421.1 l 813.6,421.1 -813.6,421.1"
         style="fill:#9698d4;fill-opacity:1;fill-rule:nonzero;stroke:none"
         id="path306" />
      <path
         d="m 22639.9,3755.8 c -209.8,-32.2 -370.2,-208.5 -370.2,-421.1 0,-212.7 160.4,-388.9 370.2,-421.1 l 813.6,421.1 -813.6,421.1"
         style="fill:#a9adde;fill-opacity:1;fill-rule:nonzero;stroke:none"
         id="path308" />
      <path
         d="m 22269.7,3334.7 c 0,-126.4 56.7,-240 146.7,-318 l 1037.1,318 -1176.7,76.5 c -4.7,-24.8 -7.1,-50.4 -7.1,-76.5"
         style="fill:#6b74c2;fill-opacity:1;fill-rule:nonzero;stroke:none"
         id="path310" />
      <path
         d="m 22276.8,3411.2 1176.7,-76.5 -1068.9,287.3 c -54.5,-57.9 -92.8,-130.4 -107.8,-210.8"
         style="fill:#9397d4;fill-opacity:1;fill-rule:nonzero;stroke:none"
         id="path312" />
      <path
         d="m 22639.9,3755.8 c -12.2,-1.9 -24.3,-4.3 -36.2,-7.1 l 849.8,-414 -813.6,421.1"
         style="fill:#6973c1;fill-opacity:1;fill-rule:nonzero;stroke:none"
         id="path314" />
      <path
         d="m 23229.4,3450.7 c -21,-34.1 -33.2,-73.6 -33.2,-116 0,-42.4 12.2,-82 33.2,-116 l 224.1,116 -224.1,116"
         style="fill:#100f0d;fill-opacity:1;fill-rule:nonzero;stroke:none"
         id="path316" />
      <path
         d="m 15826.7,3861.1 h -234.9 v -105.3 h 234.9 v 105.3"
         style="fill:#253561;fill-opacity:1;fill-rule:nonzero;stroke:none"
         id="path318" />
      <path
         d="m 17607.3,3966.4 h -2165.8 c -24.9,0 -45,-20.2 -45,-45 v -15.3 c 0,-24.9 20.1,-45 45,-45 h 2165.8 c 24.9,0 45,20.1 45,45 v 15.3 c 0,24.8 -20.1,45 -45,45"
         style="fill:#2e4390;fill-opacity:1;fill-rule:nonzero;stroke:none"
         id="path320" />
      <path
         d="m 22363,3072 h -7362.9 l 0.1,-0.1 c 3.4,-5.5 7.1,-10.9 11,-16.2 0.8,-1.2 1.7,-2.3 2.5,-3.5 3,-4.1 6.2,-8.1 9.4,-12.1 1.1,-1.3 2.1,-2.6 3.2,-3.8 3.7,-4.5 7.5,-8.8 11.4,-13 l 1.3,-1.5 c 4.5,-4.7 9.1,-9.3 13.9,-13.8 1,-1 2,-1.8 2.9,-2.7 3.8,-3.6 7.7,-7 11.7,-10.3 1.3,-1.2 2.7,-2.3 4.1,-3.4 4.1,-3.4 8.4,-6.7 12.7,-9.9 0.9,-0.7 1.8,-1.4 2.7,-2 5.3,-3.9 10.7,-7.6 16.2,-11.1 1.1,-0.7 2.2,-1.3 3.2,-1.9 4.5,-2.8 9,-5.5 13.6,-8.1 1.7,-1 3.4,-1.9 5,-2.8 4.5,-2.4 9,-4.7 13.6,-7 1.4,-0.6 2.8,-1.3 4.2,-2 5.9,-2.8 12,-5.4 18.1,-7.9 1,-0.4 2,-0.8 3.1,-1.2 5.1,-2 10.3,-3.8 15.5,-5.6 1.9,-0.7 3.9,-1.3 5.8,-1.9 4.7,-1.5 9.5,-2.9 14.3,-4.2 1.8,-0.5 3.5,-1 5.3,-1.4 6.5,-1.7 13,-3.2 19.6,-4.5 l 2.3,-0.4 c 5.9,-1.1 11.8,-2 17.8,-2.8 2.1,-0.3 4.2,-0.5 6.3,-0.8 5,-0.6 9.9,-1.1 15,-1.4 2,-0.2 4.1,-0.4 6.1,-0.5 6.9,-0.4 13.9,-0.6 20.9,-0.6 h 7347 c -112,17.1 -209.9,75.4 -276.9,158.4"
         style="fill:#253561;fill-opacity:1;fill-rule:nonzero;stroke:none"
         id="path322" />
      <path
         d="m 22269.7,3334.7 c 0,212.6 160.4,388.9 370.2,421.1 h -6541.2 c -135.1,0 -244.5,-104.9 -244.5,-234.4 v -373.5 c 0,-129.4 109.4,-234.3 244.5,-234.3 h 6541.2 c -209.8,32.2 -370.2,208.4 -370.2,421.1"
         style="fill:#f68835;fill-opacity:1;fill-rule:nonzero;stroke:none"
         id="path324" />
      <path
         d="m 22613.2,2918.6 c -4.5,1 -9,1.9 -13.4,3 -2.5,0.7 -5,1.4 -7.6,2.1 -4,1 -8,2.1 -11.9,3.3 -2.7,0.7 -5.3,1.6 -7.9,2.4 -3.8,1.2 -7.6,2.4 -11.3,3.8 -2.7,0.9 -5.3,1.8 -7.8,2.8 -3.7,1.4 -7.4,2.7 -11,4.2 -2.6,1 -5.2,2.1 -7.7,3.1 -3.6,1.6 -7.2,3.1 -10.8,4.7 -2.5,1.1 -4.9,2.3 -7.3,3.5 -3.6,1.7 -7.2,3.4 -10.7,5.2 -2.4,1.2 -4.7,2.4 -7,3.6 -3.6,1.9 -7.1,3.8 -10.6,5.8 -2.2,1.3 -4.4,2.5 -6.6,3.8 -3.6,2.1 -7.1,4.3 -10.6,6.5 -2,1.2 -4.1,2.5 -6.1,3.8 -3.6,2.4 -7.1,4.8 -10.6,7.2 -1.9,1.3 -3.7,2.6 -5.6,3.9 -3.6,2.6 -7.2,5.3 -10.8,8 -1.6,1.2 -3.2,2.4 -4.8,3.6 -3.8,3.1 -7.6,6.2 -11.4,9.3 -1.2,1.1 -2.4,2 -3.6,3.1 -4.3,3.6 -8.5,7.4 -12.6,11.2 l -1.9,1.8 c -14.5,13.6 -28.1,28.2 -40.6,43.6 v 0.1 h -6495.6 c 32.9,-92.2 124,-158.4 231.3,-158.4 h 6541.2 c -6.8,1 -13.5,2.2 -20.2,3.5 -2.2,0.5 -4.4,1 -6.5,1.5"
         style="fill:#ec752d;fill-opacity:1;fill-rule:nonzero;stroke:none"
         id="path326" />
    </g>
  </g>
</svg>
