<?xml version="1.0" encoding="utf-8"?>
<!-- Generator: Adobe Illustrator 19.0.0, SVG Export Plug-In . SVG Version: 6.00 Build 0)  -->
<svg version="1.1" id="Layer_1" xmlns="http://www.w3.org/2000/svg" xmlns:xlink="http://www.w3.org/1999/xlink" x="0px" y="0px"
	 viewBox="0 0 1400 980" style="enable-background:new 0 0 1400 980;" xml:space="preserve">
<style type="text/css">
	.st0{fill:url(#XMLID_2_);}
	.st1{fill:url(#XMLID_3_);}
	.st2{fill:url(#XMLID_4_);}
	.st3{fill:#FFFFFF;}
	.st4{fill:#F2F2F2;}
	.st5{fill:url(#XMLID_5_);}
	.st6{fill:url(#XMLID_6_);}
	.st7{fill:#F7BC75;}
	.st8{fill:#E8A969;}
	.st9{fill:#EFD9A5;}
	.st10{fill:#EFB473;}
	.st11{fill:#FCCE9A;}
	.st12{fill:#D89860;}
	.st13{fill:#EDB272;}
	.st14{fill:#F3BF8B;}
	.st15{fill:#EAB381;}
	.st16{fill:#E8D1A3;}
	.st17{fill:#F3E7CE;}
	.st18{fill:#ECC093;}
	.st19{opacity:0.51;}
	.st20{fill:url(#XMLID_7_);}
	.st21{fill:url(#XMLID_8_);}
</style>
<g id="XMLID_235_">
	<linearGradient id="XMLID_2_" gradientUnits="userSpaceOnUse" x1="700" y1="774.8476" x2="700" y2="-53.2841">
		<stop  offset="0" style="stop-color:#558029"/>
		<stop  offset="0.1436" style="stop-color:#7FA14C"/>
		<stop  offset="0.3052" style="stop-color:#ACC474"/>
		<stop  offset="0.4331" style="stop-color:#CBDB8F"/>
		<stop  offset="0.5103" style="stop-color:#D9E79A"/>
		<stop  offset="0.6064" style="stop-color:#DFD98B"/>
		<stop  offset="0.8018" style="stop-color:#EBBB67"/>
		<stop  offset="1" style="stop-color:#F8963D"/>
	</linearGradient>
	<rect id="XMLID_408_" class="st0" width="1400" height="785.9"/>
	<linearGradient id="XMLID_3_" gradientUnits="userSpaceOnUse" x1="700" y1="774.8476" x2="700" y2="-53.2841">
		<stop  offset="0" style="stop-color:#FFF9B8"/>
		<stop  offset="7.303400e-002" style="stop-color:#F8C957"/>
		<stop  offset="9.715258e-002" style="stop-color:#F8CD5F"/>
		<stop  offset="0.1353" style="stop-color:#FBD674"/>
		<stop  offset="0.1824" style="stop-color:#FFE593"/>
		<stop  offset="0.2247" style="stop-color:#FFF9B8"/>
		<stop  offset="0.3202" style="stop-color:#FAD684"/>
		<stop  offset="0.4045" style="stop-color:#D3B565"/>
		<stop  offset="0.4552" style="stop-color:#D9B863"/>
		<stop  offset="0.5332" style="stop-color:#ECC25C"/>
		<stop  offset="0.573" style="stop-color:#F8C957"/>
		<stop  offset="0.8813" style="stop-color:#E2B950"/>
		<stop  offset="0.9157" style="stop-color:#E0B74F"/>
		<stop  offset="1" style="stop-color:#F8C957"/>
	</linearGradient>
	<rect id="XMLID_409_" class="st1" width="1400" height="785.9"/>
	<linearGradient id="XMLID_4_" gradientUnits="userSpaceOnUse" x1="700" y1="774.8476" x2="700" y2="-53.2841">
		<stop  offset="5.618000e-003" style="stop-color:#536F5F"/>
		<stop  offset="8.427000e-002" style="stop-color:#2E7E6B"/>
		<stop  offset="0.382" style="stop-color:#928556"/>
		<stop  offset="0.5618" style="stop-color:#A2B47C"/>
		<stop  offset="0.6529" style="stop-color:#D1B088"/>
		<stop  offset="0.6629" style="stop-color:#D7B189"/>
		<stop  offset="0.8013" style="stop-color:#9A937E"/>
		<stop  offset="0.9551" style="stop-color:#497775"/>
	</linearGradient>
	<rect id="XMLID_207_" class="st2" width="1400" height="785.9"/>
	<g id="XMLID_412_">
		<path id="XMLID_413_" class="st3" d="M1148.4,627v1.2h-0.1l-0.3,0.2l0.3,0.2h0.7h0.7l0.3-0.2l-0.3-0.2h-0.1V627
			c1.4-0.3,2.4-1.5,2.4-3c0-1.6-1.2-2.8-2.7-3v-1.6c0.6-0.1,1-0.7,1-1.3c0-0.6-0.4-1.2-1-1.3v-1.3l0.1-0.1l-0.4-3.1l-0.4,3.1
			l0.1,0.1v1.3c-0.6,0.1-1,0.7-1,1.3c0,0.6,0.4,1.2,1,1.3v1.6c-1.5,0.2-2.7,1.4-2.7,3C1145.9,625.5,1147,626.7,1148.4,627z"/>
		<polygon id="XMLID_427_" class="st3" points="1039.2,657.5 1039.2,657.5 1039.2,657.5 		"/>
		<polygon id="XMLID_428_" class="st3" points="1096.1,657.5 1096.1,657.5 1096.1,657.5 		"/>
		<path id="XMLID_433_" class="st3" d="M1015.1,628.7l-2.8,0.5v6l32.1-5.6h46.6l32.1,5.6v-6l-2.8-0.5v-3
			c15.4-20.4-19.6-50.1-48.9-50.1c6.5-0.2,13.2,0.5,19.7,3.4c0.1-0.2,0.1-0.3,0.2-0.5c0.6-0.5,0.9-1.1,0.9-1.7c0-1.1-1.2-2.1-3.2-3
			l0,0c-8.4-3.9-13.7-10-18.6-17.8h-0.8c0.1,0,0.3-0.1,0.3-0.3v-1.4c0-0.1-0.1-0.3-0.3-0.3h-0.6v-3.5h-0.6v-0.6h0.1l0.4-0.2
			l-0.4-0.2h-0.1V548c1.7-0.3,3-1.8,3-3.6c0-1.9-1.5-3.5-3.3-3.7v-2c0.7-0.2,1.3-0.8,1.3-1.6c0-0.8-0.5-1.4-1.3-1.6v-1.6l0.2-0.1
			l-0.5-3.9l-0.5,3.9l0.2,0.1v1.6c-0.7,0.2-1.3,0.8-1.3,1.6c0,0.8,0.5,1.4,1.3,1.6v2c-1.9,0.2-3.3,1.8-3.3,3.7c0,1.8,1.3,3.3,3,3.6
			v1.5h-0.1l-0.4,0.2l0.4,0.2h0.1v0.6h-0.6v3.5h-0.6c-0.1,0-0.3,0.1-0.3,0.3v1.4c0,0.1,0.1,0.3,0.3,0.3h-0.8
			c-4.9,7.8-10.2,13.9-18.6,17.8l0,0c-2,0.9-3.2,1.9-3.2,3c0,0.6,0.3,1.1,0.9,1.7c0.1,0.2,0,0.3,0.2,0.5c6.5-2.9,13.2-3.6,19.7-3.4
			c-29.3-0.1-64.3,29.6-48.9,50.1V628.7z M1067.6,570.8L1067.6,570.8C1067.7,570.8,1067.7,570.8,1067.6,570.8
			C1067.6,570.8,1067.6,570.8,1067.6,570.8L1067.6,570.8z"/>
		<path id="XMLID_434_" class="st3" d="M985.7,627v1.2h-0.1l-0.3,0.2l0.3,0.2h0.7h0.7l0.3-0.2l-0.3-0.2h-0.1V627
			c1.4-0.3,2.4-1.5,2.4-3c0-1.6-1.2-2.8-2.7-3v-1.6c0.6-0.1,1-0.7,1-1.3c0-0.6-0.4-1.2-1-1.3v-1.3l0.1-0.1l-0.4-3.1l-0.4,3.1
			l0.1,0.1v1.3c-0.6,0.1-1,0.7-1,1.3c0,0.6,0.4,1.2,1,1.3v1.6c-1.5,0.2-2.7,1.4-2.7,3C983.3,625.5,984.3,626.7,985.7,627z"/>
		<path id="XMLID_443_" class="st3" d="M1379.9,628.6v-25.9h-31.7v56.5h-12v-25.6h-21.3v5.1h-18.4v34.1l-9.1,9.1v26.4h-7.2v6.9H1269
			v-28.5h-20.3v10.4h-4.8v-24.1c2.9-1.7,4.8-4.9,4.8-8.4v-1.4h-4.8v-0.3h5.1v-1.9h-5.1v-19.9c2.9-1.7,4.8-4.9,4.8-8.4v-1.4h-4.8V631
			h5.1v-1.9h-5.1v-18.6c2.9-1.7,4.8-4.9,4.8-8.4v-1.4h-4.8v-0.3h5.1v-1.9h-5.1v-33.7h2.2l-7.1-53.8c0.5-0.1,0.9-0.5,0.9-1
			c0-0.6-0.5-1.1-1.1-1.1c-0.6,0-1.1,0.5-1.1,1.1c0,0.5,0.4,1,0.9,1l-7.1,53.8h2.2v33.7h-5.3v1.9h5.3v0.3h-5v1.4c0,3.6,2,6.8,5,8.6
			v18.5h-5.3v1.9h5.3v0.3h-5v1.4c0,3.6,2,6.8,5,8.6v19.8h-5.3v1.9h5.3v0.3h-5v1.4c0,3.6,2,6.8,5,8.6v38.4h-5.8v-15.2h-7.7h-4.8V696
			h5.1v-1.9h-5.1v-19.9c2.9-1.7,4.8-4.9,4.8-8.4v-1.4h-4.8v-0.3h5.1v-1.9h-5.1v-18.6c2.9-1.7,4.8-4.9,4.8-8.4v-1.4h-4.8v-0.3h5.1
			v-1.9h-5.1v-33.7h2.2l-7.1-53.8c0.5-0.1,0.9-0.5,0.9-1c0-0.6-0.5-1.1-1.1-1.1c-0.6,0-1.1,0.5-1.1,1.1c0,0.5,0.4,1,0.9,1l-7.1,53.8
			h2.2v33.7h-5.3v1.9h5.3v0.3h-5v1.4c0,3.6,2,6.8,5,8.6v18.5h-5.3v1.9h5.3v0.3h-5v1.4c0,3.6,2,6.8,5,8.6v19.8h-5.3v1.9h5.3v0.3h-5
			h-5.4v6.4l-2.2-0.7l0-6.7v-1.2v-1.2l-2.3-0.4h0v-2.4c12.8-16.9-16.1-41.6-40.1-40.7c5.4-0.2,11.4,0.2,16.6,2.6
			c0.1-0.2,0.1-0.2,0-0.3c0.4-0.4,0.7-0.8,0.7-1.3c0-0.9-1-1.7-2.6-2.5l0,0c-6.9-3.2-11.1-8.2-15.1-14.5h0.1c0.1,0,0.3-0.1,0.3-0.3
			v-1.1c0-0.1-0.1-0.3-0.3-0.3h-0.4v-2.8h-0.5v-0.5h-1.2v0.5h-0.5v2.8h-0.4c-0.1,0-0.3,0.1-0.3,0.3v1.1c0,0.1,0.1,0.3,0.3,0.3h0.2
			c-3.3,5.3-6.8,9.6-11.9,12.7l-12.7-4.2h0v-3.9v-1.1l-32.1-5.6v0h-23.3h-23.3v0l-32.1,5.6v1.1v3.9h0l-12.7,4.2
			c-5-3.1-8.6-7.5-11.9-12.7h0.2c0.1,0,0.3-0.1,0.3-0.3v-1.1c0-0.1-0.1-0.3-0.3-0.3h-0.4v-2.8h-0.5v-0.5h-1.2v0.5h-0.5v2.8h-0.4
			c-0.1,0-0.3,0.1-0.3,0.3v1.1c0,0.1,0.1,0.3,0.3,0.3h0.1c-4,6.4-8.3,11.3-15.1,14.5l0,0c-1.6,0.7-2.6,1.6-2.6,2.5
			c0,0.5,0.3,0.9,0.7,1.3c0,0.1-0.1,0.1,0,0.3c5.2-2.4,11.2-2.8,16.6-2.6c-17-0.6-36.4,11.6-41.8,24.7h-2.7v22.4h-2.1v6.8l-5.4,1.8
			c-1.5-0.4-3-0.6-4.7-0.6c-2.2,0-4.3,0.4-6.2,1V704c1.4-1.7,2.2-3.9,2.2-6.3v-1.4h-5V696h5.3v-1.9h-5.3v-19.8c3-1.7,5-4.9,5-8.6
			v-1.4h-5v-0.3h5.3v-1.9h-5.3v-18.5c3-1.7,5-4.9,5-8.6v-1.4h-5v-0.3h5.3v-1.9h-5.3v-33.7h2.2l-7.1-53.8c0.5-0.1,0.9-0.5,0.9-1
			c0-0.6-0.5-1.1-1.1-1.1c-0.6,0-1.1,0.5-1.1,1.1c0,0.5,0.4,1,0.9,1l-7.1,53.8h2.2v33.7h-5.1v1.9h5.1v0.3h-4.8v1.4
			c0,3.6,1.9,6.7,4.8,8.4v18.6h-5.1v1.9h5.1v0.3h-4.8v1.4c0,3.6,1.9,6.7,4.8,8.4v19.9h-1.7v-8.5h-0.4l-1.5-11.5
			c0.1,0,0.2-0.1,0.2-0.2c0-0.1-0.1-0.3-0.3-0.3c-0.1,0-0.3,0.1-0.3,0.3c0,0.1,0.1,0.2,0.2,0.2l-1.5,11.5h-3.8v8.9h-5.4v10.2
			c-0.8,0-1.7,0.1-2.5,0.2v-32.6c2.2-1.8,3.7-4.6,3.7-7.6v-1.4H892v-0.3h3.9v-1.9H892v-20.7c2.2-1.8,3.7-4.6,3.7-7.6v-1.4H892V631
			h3.9v-1.9H892v-0.6h-1.3v-18c3-1.7,5-4.9,5-8.6v-1.4h-5v-0.3h5.3v-1.9h-5.3v-33.7h2.2l-7.1-53.8c0.5-0.1,0.9-0.5,0.9-1
			c0-0.6-0.5-1.1-1.1-1.1c-0.6,0-1.1,0.5-1.1,1.1c0,0.5,0.4,1,0.9,1l-7.1,53.8h2.2v33.7h-5.1v1.9h5.1v0.3h-4.8v1.4
			c0,3.6,1.9,6.7,4.8,8.4v18.1h-8.8v-25.9h-31.7v56.5h-12v-25.6h-21.3v5.1h-18.4v34.1l-8.6,8.6v-8.8h0.8l-2.6-20
			c0.2,0,0.3-0.2,0.3-0.4c0-0.2-0.2-0.4-0.4-0.4c-0.2,0-0.4,0.2-0.4,0.4c0,0.2,0.2,0.4,0.3,0.4l-2.6,20h0.8v12.5h-2v0.7h2v0.1h-1.9
			v0.5c0,1.4,0.8,2.5,1.9,3.2v6.9h-2v0.7h2v0.1h-1.9v0.5c0,1.4,0.8,2.5,1.9,3.2v2.7h-6.7v-8h-8.5v-6.2c1.1-0.6,1.8-1.8,1.8-3.1V686
			h-1.8v-0.1h1.9v-0.7h-1.9v-12.5h0.8l-2.6-20c0.2,0,0.3-0.2,0.3-0.4c0-0.2-0.2-0.4-0.4-0.4c-0.2,0-0.4,0.2-0.4,0.4
			c0,0.2,0.2,0.4,0.3,0.4l-2.5,19.2h-10.3v-13.1h-10.1l-4.9,4.9v19.5l-4.7,4.7v12.4l-1.9,1.9v5.1h-0.8l-3.6-1.9v-15.3
			c2.6-1.8,4.3-4.7,4.3-8.1v-1.4h-4.3v-0.3h4.6v-1.9h-4.6v-2.8l-0.5-0.5v-16.6c2.9-1.7,4.8-4.9,4.8-8.4v-1.4h-4.8v-0.3h5.1v-1.9
			h-5.1v-18.6c2.9-1.7,4.8-4.9,4.8-8.4V618h-4.8v-0.3h5.1v-1.9h-5.1v-33.7h2.2l-7.1-53.8c0.5-0.1,0.9-0.5,0.9-1
			c0-0.6-0.5-1.1-1.1-1.1s-1.1,0.5-1.1,1.1c0,0.5,0.4,1,0.9,1l-7.1,53.8h2.2v33.7h-5.3v1.9h5.3v0.3h-5v1.4c0,3.6,2,6.8,5,8.6v18.5
			h-5.3v1.9h5.3v0.3h-5v1.4c0,0.8,0.1,1.6,0.3,2.3h-5.1v14.1h-2.4v10.1h-10.1v1.3h-5.3v10.7H682c-0.7-3.7-3.1-6.9-6.6-9v-19.2h-8.3
			v-5.6h-8.3v8h-9.1v24.2c-0.2,0.7-0.4,1.5-0.5,2.2H649c-0.6-3.9-3.1-7.3-6.7-9.6v-10.4h-4V655h-12v-12.3l-7.6-7.6H612v21.2h-1.4
			l-4.5-4.5v-18.3h-22.7V619c2.9-1.7,4.8-4.9,4.8-8.4v-1.4h-4.8v-0.3h5.1V607h-5.1v-18.6c2.9-1.7,4.8-4.9,4.8-8.4v-1.4h-4.8v-0.3
			h5.1v-1.9h-5.1v-33.7h2.2l-7.1-53.8c0.5-0.1,0.9-0.5,0.9-1c0-0.6-0.5-1.1-1.1-1.1c-0.6,0-1.1,0.5-1.1,1.1c0,0.5,0.4,1,0.9,1
			l-7.1,53.8h2.2v33.7h-5.3v1.9h5.3v0.3h-5v1.4c0,3.6,2,6.8,5,8.6V607h-5.3v1.9h5.3v0.3h-5v1.4c0,3.6,2,6.8,5,8.6v14.4h-10.3v-18.7
			H552c-1.9-26.7-27.9-48-59.9-48.6l-1.3-17.2c0.1,0,0.2-0.2,0.2-0.4c0-0.2-0.1-0.4-0.2-0.4c-0.1,0-0.2,0.2-0.2,0.4
			c0,0.2,0.1,0.3,0.2,0.4l-1.3,17.2c-32,0.6-58,21.8-59.9,48.6h-12.3v10.7l-10.9,10.9V619c2.9-1.7,4.8-4.9,4.8-8.4v-1.4h-4.8v-0.3
			h5.1V607h-5.1v-18.6c2.9-1.7,4.8-4.9,4.8-8.4v-1.4h-4.8v-0.3h5.1v-1.9h-5.1v-33.7h2.2l-7.1-53.8c0.5-0.1,0.9-0.5,0.9-1
			c0-0.6-0.5-1.1-1.1-1.1c-0.6,0-1.1,0.5-1.1,1.1c0,0.5,0.4,1,0.9,1l-7.1,53.8h2.2v33.7h-5.3v1.9h5.3v0.3h-5v1.4c0,3.6,2,6.8,5,8.6
			V607h-5.3v1.9h5.3v0.3h-5v1.4c0,3.6,2,6.8,5,8.6v8.2c-1.1-0.3-2.2-0.4-3.4-0.4c-6.2,0-11.3,4.3-11.3,9.5h-0.9
			c0-5.3-5-9.5-11.3-9.5s-11.3,4.3-11.3,9.5c0,1.6,0.5,3.2,1.4,4.5v34.4l-5.2,5.2h-3.2v3.2l-7,7h-2.7c0-2-0.5-3.9-1.3-5.6l-3.7-35.3
			h1v-2.8h-1.3v-1.4h-10.1c0-0.2-0.1-0.4-0.1-0.6h7.4l2.8-16.7h1.3v-2.8h-1.3v-1.4h-37.4v1.4h-1.3v2.8h1.3l2.8,16.7h7.4
			c0,0.2-0.1,0.4-0.1,0.6h-10.1v1.4h-1.3v2.8h1l-3,28c-2.3-1-4.9-1.6-7.7-1.6c-9.4,0-17.1,6.4-17.1,14.4h-5.6v9.9h-3.7v-4.9h-13.3
			v-5.4c2.9-1.7,4.8-4.9,4.8-8.4v-1.4h-4.8v-0.3h5.1v-1.9h-5.1v-19.9c2.9-1.7,4.8-4.9,4.8-8.4v-1.4h-4.8v-0.3h5.1v-1.9h-5.1v-18.6
			c2.9-1.7,4.8-4.9,4.8-8.4V618h-4.8v-0.3h5.1v-1.9h-5.1v-33.7h2.2l-7.1-53.8c0.5-0.1,0.9-0.5,0.9-1c0-0.6-0.5-1.1-1.1-1.1
			c-0.6,0-1.1,0.5-1.1,1.1c0,0.5,0.4,1,0.9,1l-7.1,53.8h2.2v33.7h-5.3v1.9h5.3v0.3h-5v1.4c0,3.6,2,6.8,5,8.6v18.5h-5.3v1.9h5.3v0.3
			h-5v1.4c0,3.6,2,6.8,5,8.6v0.1h-10.1l-4.9,4.9v31.9l-6.6,6.6v33.7h-3.9v-8h-3.7v-79.2h-6.7l-1.9,1.9v16h-10.9v25.6h-4.8v-14.1
			h-10.7v28l-6.7,6.7v-52.3h-8.3v-5.6h-8.3v8h-9.1v57.6h-3.5v4.3h-4v-55.5h-21.9v-12.8H96.3v11.2h-6.1v10.9h-3.7v3.5H67.7
			l-10.2,10.2v43.9H37.1v-20.3H24.3v-17.1H0v87.2h508H892h508V628.6H1379.9z M1024.6,661.4v27.4l-5.4,1v-27.4v-0.7l0.2,0v-0.5
			c0,0,0.6-0.1,0.6-1.4c0-1.2-0.6-1-0.6-1s-0.2-1.8,0.4-2.8c0.6-0.8,2.1-2.9,2.1-3.6v0c0,0.7,1.5,2.2,2.1,2.8
			c0.6,0.7,0.4,2.6,0.4,2.6s-0.6,0-0.6,1.2s0.6,1.2,0.6,1.2v0.5l0.2,0V661.4z M1039.4,658.1v27.4l-5.4,1v-27.4v-0.7l0.2,0v-0.5
			c0,0,0.6-0.1,0.6-1.4c0-1.2-0.6-1-0.6-1s-0.2-1.8,0.4-2.8c0.6-0.8,2.1-2.9,2.1-3.6v0c0,0.7,1.5,2.2,2.1,2.8
			c0.6,0.7,0.4,2.6,0.4,2.6s-0.6,0-0.6,1.2c0,1.2,0.6,1.1,0.6,1.1v0.5l0.2,0V658.1z M1062,658v27.4h-2.4h0h-8.4V658v-0.7h0.4v-0.5
			c0,0,1.1,0,1.1-1.3s-1.1-1.1-1.1-1.1s-0.4-1.8,0.9-2.7c1.1-0.7,4.1-2.5,4.1-3.2c0,0.7,3,2.5,4.1,3.2c1.3,0.9,0.9,2.7,0.9,2.7
			s-1.1-0.1-1.1,1.1s1.1,1.3,1.1,1.3v0.5h0.4V658z M1084.1,658v27.4h-8.4h0h-2.4V658v-0.7h0.4v-0.5c0,0,1.1,0,1.1-1.3
			s-1.1-1.1-1.1-1.1s-0.4-1.8,0.9-2.7c1.1-0.7,4.1-2.5,4.1-3.2c0,0.7,3,2.5,4.1,3.2c1.3,0.9,0.9,2.7,0.9,2.7s-1.1-0.1-1.1,1.1
			s1.1,1.3,1.1,1.3v0.5h0.4V658z M1101.3,659.2v27.4l-5.4-1v-27.4v-0.7l0.2,0v-0.5c0,0,0.6,0.1,0.6-1.1c0-1.2-0.6-1.2-0.6-1.2
			s-0.2-1.9,0.4-2.6c0.6-0.6,2.1-2.1,2.1-2.8v0c0,0.7,1.5,2.8,2.1,3.6c0.6,1,0.4,2.8,0.4,2.8s-0.6-0.2-0.6,1c0,1.2,0.6,1.4,0.6,1.4
			v0.5h0l0.2,0V659.2z M1116.1,662.4v27.4l-5.4-1v-27.4v-0.7l0.2,0v-0.5c0,0,0.6,0.1,0.6-1.2s-0.6-1.2-0.6-1.2s-0.2-1.9,0.4-2.6
			c0.6-0.6,2.1-2.1,2.1-2.8v0c0,0.7,1.5,2.8,2.1,3.6c0.6,1,0.4,2.8,0.4,2.8s-0.6-0.2-0.6,1c0,1.2,0.6,1.4,0.6,1.4v0.5l0.2,0V662.4z"
			/>
		<polygon id="XMLID_449_" class="st3" points="301.6,623.2 333.5,623.2 336.3,572.7 337.5,572.7 337.5,564.2 336.3,564.2 
			336.3,560 298.9,560 298.9,564.2 297.6,564.2 297.6,572.7 298.9,572.7 		"/>
		<polygon id="XMLID_450_" class="st3" points="301.6,558.9 333.5,558.9 336.3,525.5 337.5,525.5 337.5,519.9 336.3,519.9 
			336.3,517.1 298.9,517.1 298.9,519.9 297.6,519.9 297.6,525.5 298.9,525.5 		"/>
		<polygon id="XMLID_451_" class="st3" points="301.6,516.2 333.5,516.2 336.3,482.6 337.5,482.6 337.5,477.1 336.3,477.1 
			336.3,474.3 298.9,474.3 298.9,477.1 297.6,477.1 297.6,482.6 298.9,482.6 		"/>
		<polygon id="XMLID_452_" class="st3" points="325.6,464.8 309.5,464.8 308.1,473.7 327,473.7 		"/>
		<polygon id="XMLID_453_" class="st3" points="324.4,464.8 325.6,453 309.5,453 310.7,464.8 		"/>
	</g>
	<circle id="XMLID_261_" class="st4" cx="220.1" cy="231.7" r="1.5"/>
	<circle id="XMLID_260_" class="st4" cx="256.8" cy="379" r="1.5"/>
	<circle id="XMLID_259_" class="st4" cx="149.7" cy="312.7" r="1.5"/>
	<circle id="XMLID_258_" class="st4" cx="83.9" cy="368.7" r="1.5"/>
	<circle id="XMLID_257_" class="st4" cx="409.7" cy="93.3" r="1.5"/>
	<circle id="XMLID_256_" class="st4" cx="690.3" cy="94.8" r="1.5"/>
	<circle id="XMLID_255_" class="st4" cx="730.1" cy="275.4" r="1.5"/>
	<circle id="XMLID_254_" class="st4" cx="781.5" cy="233.2" r="1.5"/>
	<circle id="XMLID_253_" class="st4" cx="848.4" cy="131.1" r="1.5"/>
	<circle id="XMLID_252_" class="st4" cx="780" cy="461.2" r="1.5"/>
	<circle id="XMLID_251_" class="st4" cx="472.8" cy="417" r="1.5"/>
	<circle id="XMLID_250_" class="st4" cx="230.5" cy="489.8" r="1.5"/>
	<circle id="XMLID_249_" class="st4" cx="557.6" cy="93.3" r="1.5"/>
	<circle id="XMLID_248_" class="st4" cx="221.6" cy="66.8" r="1.5"/>
	<circle id="XMLID_247_" class="st4" cx="804.9" cy="508.9" r="1.5"/>
	<circle id="XMLID_246_" class="st4" cx="878" cy="426" r="1.5"/>
	<circle id="XMLID_245_" class="st4" cx="526.8" cy="534.5" r="1.5"/>
	<circle id="XMLID_244_" class="st4" cx="232" cy="590.5" r="1.5"/>
	<circle id="XMLID_243_" class="st4" cx="110.6" cy="488.3" r="1.5"/>
	<circle id="XMLID_242_" class="st4" cx="688.9" cy="160.1" r="1.5"/>
	<circle id="XMLID_234_" class="st4" cx="1159.3" cy="413.1" r="1.5"/>
	<circle id="XMLID_233_" class="st4" cx="1122.6" cy="265.8" r="1.5"/>
	<circle id="XMLID_232_" class="st4" cx="1229.7" cy="332.2" r="1.5"/>
	<circle id="XMLID_231_" class="st4" cx="1295.4" cy="276.2" r="1.5"/>
	<circle id="XMLID_230_" class="st4" cx="969.7" cy="551.6" r="1.5"/>
	<circle id="XMLID_229_" class="st4" cx="689" cy="550.1" r="1.5"/>
	<circle id="XMLID_228_" class="st4" cx="649.3" cy="369.4" r="1.5"/>
	<circle id="XMLID_227_" class="st4" cx="597.9" cy="411.7" r="1.5"/>
	<circle id="XMLID_226_" class="st4" cx="531" cy="513.8" r="1.5"/>
	<circle id="XMLID_225_" class="st4" cx="599.4" cy="183.6" r="1.5"/>
	<circle id="XMLID_224_" class="st4" cx="906.6" cy="227.8" r="1.5"/>
	<circle id="XMLID_223_" class="st4" cx="1148.9" cy="155.1" r="1.5"/>
	<circle id="XMLID_222_" class="st4" cx="821.8" cy="551.6" r="1.5"/>
	<circle id="XMLID_221_" class="st4" cx="1157.8" cy="578.1" r="1.5"/>
	<circle id="XMLID_220_" class="st4" cx="574.5" cy="135.9" r="1.5"/>
	<circle id="XMLID_219_" class="st4" cx="501.4" cy="218.9" r="1.5"/>
	<circle id="XMLID_218_" class="st4" cx="852.6" cy="110.4" r="1.5"/>
	<circle id="XMLID_217_" class="st4" cx="1147.4" cy="54.4" r="1.5"/>
	<circle id="XMLID_216_" class="st4" cx="1268.7" cy="156.6" r="1.5"/>
	<circle id="XMLID_215_" class="st4" cx="690.5" cy="484.8" r="1.5"/>
	
		<radialGradient id="XMLID_5_" cx="639.5968" cy="785.9388" r="150.6001" gradientTransform="matrix(1.102 0 0 0.1489 -139.3138 668.9349)" gradientUnits="userSpaceOnUse">
		<stop  offset="0" style="stop-color:#000000"/>
		<stop  offset="8.962709e-002" style="stop-color:#000000;stop-opacity:0.9104"/>
		<stop  offset="1" style="stop-color:#000000;stop-opacity:0"/>
	</radialGradient>
	<ellipse id="XMLID_214_" class="st5" cx="565.5" cy="785.9" rx="181.5" ry="26"/>
	
		<radialGradient id="XMLID_6_" cx="885.7851" cy="785.9388" r="150.6001" gradientTransform="matrix(1.102 0 0 0.1489 -139.3138 668.9349)" gradientUnits="userSpaceOnUse">
		<stop  offset="0" style="stop-color:#000000"/>
		<stop  offset="8.962709e-002" style="stop-color:#000000;stop-opacity:0.9104"/>
		<stop  offset="1" style="stop-color:#000000;stop-opacity:0"/>
	</radialGradient>
	<ellipse id="XMLID_236_" class="st6" cx="836.8" cy="785.9" rx="181.5" ry="26"/>
	<g id="XMLID_262_">
		<rect id="XMLID_361_" x="497.1" y="593.2" class="st7" width="145.5" height="163.2"/>
		<rect id="XMLID_360_" x="757.4" y="593.2" class="st7" width="145.5" height="163.2"/>
		<path id="XMLID_359_" class="st7" d="M500.2,430.3v96h134.7v-3.6c0-36,29.2-65.2,65.2-65.2h0c36,0,65.2,29.2,65.2,65.2v3.6h134.7
			v-96H500.2z"/>
		<rect id="XMLID_358_" x="548.3" y="244.3" class="st8" width="303.3" height="25.8"/>
		<rect id="XMLID_357_" x="615.2" y="231.8" class="st7" width="169.5" height="12.5"/>
		<rect id="XMLID_356_" x="540.4" y="270.2" class="st7" width="319.3" height="44.5"/>
		<rect id="XMLID_355_" x="632.7" y="278" class="st9" width="134.6" height="28.9"/>
		<rect id="XMLID_354_" x="511.5" y="314.6" class="st8" width="377" height="25.8"/>
		<rect id="XMLID_353_" x="501.6" y="340.5" class="st7" width="396.8" height="44.5"/>
		<rect id="XMLID_352_" x="500.2" y="399.4" class="st7" width="399.7" height="26"/>
		<path id="XMLID_351_" class="st10" d="M500.2,446c133.2-14.8,266.5-14.8,399.7,0v-15.6H500.2V446z"/>
		<path id="XMLID_350_" class="st11" d="M483.2,394.5h433.5c1.3,0,2.3-1,2.3-2.3l0,0c0-1.3-1-2.3-2.3-2.3H483.2
			c-1.3,0-2.3,1-2.3,2.3l0,0C481,393.4,482,394.5,483.2,394.5z"/>
		<rect id="XMLID_349_" x="484.4" y="385" class="st8" width="431.1" height="4.9"/>
		<rect id="XMLID_348_" x="484.4" y="394.5" class="st8" width="431.1" height="4.9"/>
		<path id="XMLID_347_" class="st8" d="M495.9,427.9L495.9,427.9c0,1.4,1.1,2.5,2.5,2.5h403.3c1.4,0,2.5-1.1,2.5-2.5l0,0
			c0-1.4-1.1-2.5-2.5-2.5H498.4C497,425.4,495.9,426.5,495.9,427.9z"/>
		<path id="XMLID_346_" class="st8" d="M496,528.8L496,528.8c0,1.4,1.1,2.5,2.5,2.5h144.7c1.4,0,2.5-1.1,2.5-2.5l0,0
			c0-1.4-1.1-2.5-2.5-2.5H498.5C497.1,526.4,496,527.5,496,528.8z"/>
		<path id="XMLID_345_" class="st8" d="M516.1,491.6L516.1,491.6c0,1.4,0.8,2.5,1.8,2.5h105.9c1,0,1.8-1.1,1.8-2.5v0
			c0-1.4-0.8-2.5-1.8-2.5H517.9C516.9,489.1,516.1,490.2,516.1,491.6z"/>
		<path id="XMLID_344_" class="st12" d="M516.1,695L516.1,695c0,1.4,0.8,2.5,1.8,2.5h105.9c1,0,1.8-1.1,1.8-2.5l0,0
			c0-1.4-0.8-2.5-1.8-2.5H517.9C516.9,692.6,516.1,693.7,516.1,695z"/>
		<path id="XMLID_343_" class="st8" d="M490.8,590.7L490.8,590.7c0,1.4,1.1,2.5,2.5,2.5h149.9c1.4,0,2.5-1.1,2.5-2.5l0,0
			c0-1.4-1.1-2.5-2.5-2.5H493.3C491.9,588.2,490.8,589.3,490.8,590.7z"/>
		<rect id="XMLID_342_" x="500.2" y="531.3" class="st7" width="142.4" height="56.9"/>
		<path id="XMLID_341_" class="st8" d="M765,231.8v-2.7c-45.1-6.3-88.4-6.3-130,0v2.7H765z"/>
		<g id="XMLID_339_">
			<path id="XMLID_340_" class="st7" d="M763.2,228.9c-7.9-15.7-33.2-27.1-63.2-27.1c-30,0-55.2,11.5-63.2,27.1
				C677.3,222.9,719.4,222.9,763.2,228.9z"/>
		</g>
		<path id="XMLID_338_" class="st8" d="M700,201.7c15,0,28.8,2.9,39.9,7.7v-6.6c-27.7-5.1-54.3-5.4-79.8,0v6.6
			C671.2,204.6,685,201.7,700,201.7z"/>
		<g id="XMLID_336_">
			<path id="XMLID_337_" class="st7" d="M732.7,201.6v-2.2c-22.7-6.3-44.5-6.3-65.4,0v2C688.4,197.9,710.2,198.1,732.7,201.6z"/>
		</g>
		<rect id="XMLID_335_" x="505.6" y="399.4" class="st13" width="14.5" height="7.5"/>
		<rect id="XMLID_334_" x="534.4" y="399.4" class="st13" width="14.5" height="7.5"/>
		<rect id="XMLID_333_" x="563.2" y="399.4" class="st13" width="14.5" height="7.5"/>
		<rect id="XMLID_332_" x="592" y="399.4" class="st13" width="14.5" height="7.5"/>
		<rect id="XMLID_331_" x="620.7" y="399.4" class="st13" width="14.5" height="7.5"/>
		<rect id="XMLID_330_" x="649.5" y="399.4" class="st13" width="14.5" height="7.5"/>
		<rect id="XMLID_329_" x="678.3" y="399.4" class="st13" width="14.5" height="7.5"/>
		<rect id="XMLID_328_" x="707.1" y="399.4" class="st13" width="14.5" height="7.5"/>
		<rect id="XMLID_327_" x="735.9" y="399.4" class="st13" width="14.5" height="7.5"/>
		<rect id="XMLID_326_" x="764.7" y="399.4" class="st13" width="14.5" height="7.5"/>
		<rect id="XMLID_325_" x="793.5" y="399.4" class="st13" width="14.5" height="7.5"/>
		<rect id="XMLID_324_" x="822.3" y="399.4" class="st13" width="14.5" height="7.5"/>
		<rect id="XMLID_323_" x="851.1" y="399.4" class="st13" width="14.5" height="7.5"/>
		<rect id="XMLID_322_" x="879.9" y="399.4" class="st13" width="14.5" height="7.5"/>
		<rect id="XMLID_321_" x="493.9" y="756.3" class="st12" width="148.7" height="7.2"/>
		<rect id="XMLID_320_" x="488.5" y="763.5" class="st8" width="154.1" height="22.4"/>
		<rect id="XMLID_319_" x="518.7" y="494" class="st11" width="104.3" height="32.3"/>
		<rect id="XMLID_318_" x="518.7" y="531.3" class="st11" width="104.3" height="56.9"/>
		<rect id="XMLID_317_" x="518.7" y="607.3" class="st9" width="104.3" height="85.2"/>
		<polygon id="XMLID_316_" class="st11" points="626.4,732.4 515.2,732.4 518.7,697.5 623,697.5 		"/>
		<rect id="XMLID_315_" x="513.8" y="593.2" class="st11" width="114.1" height="14.2"/>
		<rect id="XMLID_314_" x="544.1" y="540.9" class="st14" width="53.5" height="37.7"/>
		<rect id="XMLID_313_" x="548.7" y="545.5" class="st15" width="44.3" height="28.6"/>
		<rect id="XMLID_312_" x="515.2" y="732.4" class="st9" width="111.2" height="23.9"/>
		<circle id="XMLID_311_" class="st9" cx="570.8" cy="461.4" r="22.8"/>
		<circle id="XMLID_310_" class="st16" cx="570.8" cy="461.4" r="17.2"/>
		<path id="XMLID_309_" class="st15" d="M570.8,484.2c-5.5,0-10.6-2-14.6-5.3v10.1h29.1V479C581.4,482.3,576.4,484.2,570.8,484.2z"
			/>
		<path id="XMLID_308_" class="st8" d="M904,528.8L904,528.8c0,1.4-1.1,2.5-2.5,2.5H756.8c-1.4,0-2.5-1.1-2.5-2.5l0,0
			c0-1.4,1.1-2.5,2.5-2.5h144.7C902.9,526.4,904,527.5,904,528.8z"/>
		<path id="XMLID_307_" class="st8" d="M883.9,491.6L883.9,491.6c0,1.4-0.8,2.5-1.8,2.5H776.2c-1,0-1.8-1.1-1.8-2.5v0
			c0-1.4,0.8-2.5,1.8-2.5h105.9C883.1,489.1,883.9,490.2,883.9,491.6z"/>
		<path id="XMLID_306_" class="st12" d="M883.9,695L883.9,695c0,1.4-0.8,2.5-1.8,2.5H776.2c-1,0-1.8-1.1-1.8-2.5l0,0
			c0-1.4,0.8-2.5,1.8-2.5h105.9C883.1,692.6,883.9,693.7,883.9,695z"/>
		<path id="XMLID_305_" class="st8" d="M909.2,590.7L909.2,590.7c0,1.4-1.1,2.5-2.5,2.5H756.8c-1.4,0-2.5-1.1-2.5-2.5l0,0
			c0-1.4,1.1-2.5,2.5-2.5h149.9C908.1,588.2,909.2,589.3,909.2,590.7z"/>
		<rect id="XMLID_304_" x="757.4" y="531.3" class="st7" width="142.4" height="56.9"/>
		<rect id="XMLID_303_" x="757.4" y="756.3" class="st12" width="148.7" height="7.2"/>
		<rect id="XMLID_302_" x="757.4" y="763.5" class="st8" width="154.1" height="22.4"/>
		<rect id="XMLID_301_" x="777" y="494" class="st11" width="104.3" height="32.3"/>
		<rect id="XMLID_300_" x="777" y="531.3" class="st11" width="104.3" height="56.9"/>
		<rect id="XMLID_299_" x="777" y="607.3" class="st9" width="104.3" height="85.2"/>
		<polygon id="XMLID_298_" class="st11" points="773.6,732.4 884.8,732.4 881.3,697.5 777,697.5 		"/>
		<rect id="XMLID_297_" x="772.1" y="593.2" class="st11" width="114.1" height="14.2"/>
		<rect id="XMLID_296_" x="802.4" y="540.9" class="st14" width="53.5" height="37.7"/>
		<rect id="XMLID_295_" x="773.6" y="732.4" class="st9" width="111.2" height="23.9"/>
		<circle id="XMLID_294_" class="st9" cx="829.2" cy="461.4" r="22.8"/>
		<circle id="XMLID_293_" class="st16" cx="829.2" cy="461.4" r="17.2"/>
		<path id="XMLID_292_" class="st17" d="M829.2,447.9c-8.9,0-16.2,6.7-17.1,15.4c0.9,8.6,8.2,15.4,17.1,15.4
			c8.9,0,16.2-6.7,17.1-15.4C845.4,454.6,838.1,447.9,829.2,447.9z"/>
		<path id="XMLID_291_" class="st17" d="M570.4,447.9c-8.9,0-16.2,6.7-17.1,15.4c0.9,8.6,8.2,15.4,17.1,15.4
			c8.9,0,16.2-6.7,17.1-15.4C586.6,454.6,579.3,447.9,570.4,447.9z"/>
		<path id="XMLID_290_" class="st15" d="M829.2,484.2c5.5,0,10.6-2,14.6-5.3v10.1h-29.1V479C818.6,482.3,823.6,484.2,829.2,484.2z"
			/>
		<path id="XMLID_289_" class="st9" d="M700,457.6L700,457.6c-36,0-65.2,29.2-65.2,65.2v3.6h4.3v-4.7c0-33.3,27-60.3,60.3-60.3h0
			c34,0,61.5,27.5,61.5,61.5v3.5h4.3v-3.6C765.2,486.7,736,457.6,700,457.6z"/>
		<circle id="XMLID_288_" class="st9" cx="621.9" cy="292.4" r="10.8"/>
		<circle id="XMLID_287_" class="st9" cx="778.1" cy="292.4" r="10.8"/>
		<circle id="XMLID_286_" class="st17" cx="778.1" cy="292.4" r="6.4"/>
		<circle id="XMLID_285_" class="st17" cx="621.9" cy="292.4" r="6.4"/>
		<g id="XMLID_272_">
			<path id="XMLID_283_" class="st8" d="M671.5,286v12.5h1.9v0.8h-5.7v-0.8h1.9V286h-1.9v-0.8h5.7v0.8H671.5z"/>
			<path id="XMLID_281_" class="st8" d="M688.5,299.4h-0.8l-8.3-12.9l0,0v12h1.7v0.8h-4.5v-0.8h1.9V286h-1.9v-0.8h4.3l6.7,10.4l0,0
				V286h-1.9v-0.8h4.7v0.8h-1.9V299.4z"/>
			<path id="XMLID_278_" class="st8" d="M693.5,299.2v-0.8h1.9V286h-1.9v-0.8h5.8c1.3,0,2.4,0.2,3.3,0.5c0.9,0.3,1.6,0.8,2.1,1.4
				c0.5,0.6,0.9,1.3,1.1,2.2c0.2,0.8,0.3,1.8,0.3,2.8c0,0.6,0,1.2-0.1,1.8c-0.1,0.6-0.2,1.1-0.4,1.7c-0.2,0.5-0.5,1-0.8,1.5
				c-0.3,0.5-0.8,0.8-1.3,1.2s-1.1,0.6-1.9,0.8c-0.7,0.2-1.6,0.3-2.5,0.3H693.5z M697.3,298.4h1.7c1,0,1.8-0.1,2.5-0.3
				c0.7-0.2,1.2-0.5,1.5-1c0.4-0.5,0.6-1.1,0.8-2c0.2-0.8,0.2-1.9,0.2-3.1c0-0.7,0-1.3-0.1-1.9c0-0.6-0.1-1.1-0.3-1.5
				c-0.1-0.5-0.3-0.8-0.5-1.2c-0.2-0.3-0.5-0.6-0.9-0.8c-0.4-0.2-0.8-0.4-1.3-0.5c-0.5-0.1-1.1-0.2-1.8-0.2h-1.9V298.4z"/>
			<path id="XMLID_276_" class="st8" d="M713.9,286v12.5h1.9v0.8h-5.7v-0.8h1.9V286h-1.9v-0.8h5.7v0.8H713.9z"/>
			<path id="XMLID_273_" class="st8" d="M722.8,298.4v0.8h-4.7v-0.8h1.8l5-13.4h0.8l4.7,13.4h1.9v0.8h-5.9v-0.8h2l-1.4-4.1h-4.6
				l-1.5,4.1H722.8z M724.7,288.1l-2,5.4h4L724.7,288.1L724.7,288.1z"/>
		</g>
		<polygon id="XMLID_271_" class="st16" points="881.3,607.3 777,607.3 777,618.7 		"/>
		<polygon id="XMLID_270_" class="st18" points="881.3,531.3 777,531.3 777,538.5 		"/>
		<polygon id="XMLID_269_" class="st16" points="623,607.3 518.7,607.3 518.7,618.7 		"/>
		<polygon id="XMLID_268_" class="st18" points="623,531.3 518.7,531.3 518.7,538.5 		"/>
		<polygon id="XMLID_267_" class="st18" points="881.3,494 777,494 777,501.3 		"/>
		<polygon id="XMLID_266_" class="st18" points="623,494 518.7,494 518.7,501.3 		"/>
		<polygon id="XMLID_265_" class="st18" points="881.3,697.5 777,697.5 776.5,703.2 		"/>
		<polygon id="XMLID_264_" class="st18" points="623,697.5 518.7,697.5 518.1,703.2 		"/>
		<rect id="XMLID_263_" x="807" y="545.5" class="st15" width="44.3" height="28.6"/>
	</g>
	<g id="XMLID_381_" class="st19">
		<linearGradient id="XMLID_7_" gradientUnits="userSpaceOnUse" x1="833.0986" y1="682.0809" x2="833.0986" y2="1009.5595">
			<stop  offset="0" style="stop-color:#000000"/>
			<stop  offset="8.962709e-002" style="stop-color:#000000;stop-opacity:0.9104"/>
			<stop  offset="1" style="stop-color:#000000;stop-opacity:0"/>
		</linearGradient>
		<path id="XMLID_382_" class="st20" d="M908.8,980c-0.4-0.8-1.2-1.3-2.2-1.3h-3.8V815.5h3.2v-7.2h5.4v-22.4H757.4v22.4v7.2v163.2
			h-0.6c-0.9,0-1.7,0.5-2.2,1.3H908.8z"/>
		<linearGradient id="XMLID_8_" gradientUnits="userSpaceOnUse" x1="566.9014" y1="682.0809" x2="566.9014" y2="1009.5595">
			<stop  offset="0" style="stop-color:#000000"/>
			<stop  offset="8.962709e-002" style="stop-color:#000000;stop-opacity:0.9104"/>
			<stop  offset="1" style="stop-color:#000000;stop-opacity:0"/>
		</linearGradient>
		<path id="XMLID_383_" class="st21" d="M493.9,815.5h3.2v163.2h-3.8c-0.9,0-1.7,0.5-2.2,1.3h154.2c-0.4-0.8-1.2-1.3-2.2-1.3h-0.6
			V815.5v-7.2v-22.4H488.5v22.4h5.4V815.5z"/>
	</g>
</g>
</svg>
