<?xml version="1.0" encoding="UTF-8" standalone="no"?>
<svg
   xmlns:dc="http://purl.org/dc/elements/1.1/"
   xmlns:cc="http://creativecommons.org/ns#"
   xmlns:rdf="http://www.w3.org/1999/02/22-rdf-syntax-ns#"
   xmlns:svg="http://www.w3.org/2000/svg"
   xmlns="http://www.w3.org/2000/svg"
   viewBox="0 0 581.84003 543.53333"
   height="543.53333"
   width="581.84003"
   xml:space="preserve"
   id="svg2"
   version="1.1"><metadata
     id="metadata8"><rdf:RDF><cc:Work
         rdf:about=""><dc:format>image/svg+xml</dc:format><dc:type
           rdf:resource="http://purl.org/dc/dcmitype/StillImage" /></cc:Work></rdf:RDF></metadata><defs
     id="defs6" /><g
     transform="matrix(1.3333333,0,0,-1.3333333,0,543.53333)"
     id="g10"><g
       transform="scale(0.1)"
       id="g12"><path
         id="path14"
         style="fill:#e7e8e5;fill-opacity:1;fill-rule:nonzero;stroke:none"
         d="M 47.9922,272.871 V 22.1797 h 57.8988 c 0,0 -5.547,49.9101 0,79.4923 5.543,29.578 68.398,105.777 66.55,171.199 H 47.9922" /><path
         id="path16"
         style="fill:#dadbd8;fill-opacity:1;fill-rule:nonzero;stroke:none"
         d="M 511.164,272.871 V 22.1797 h 57.902 c 0,0 -5.546,49.9101 0,79.4923 5.547,29.578 68.399,105.777 66.547,171.199 H 511.164" /><path
         id="path18"
         style="fill:#e7e8e5;fill-opacity:1;fill-rule:nonzero;stroke:none"
         d="M 964.48,272.871 V 22.1797 h -57.894 c 0,0 5.543,49.9101 0,79.4923 -5.547,29.578 -68.398,105.777 -66.555,171.199 H 964.48" /><path
         id="path20"
         style="fill:#dadbd8;fill-opacity:1;fill-rule:nonzero;stroke:none"
         d="M 1365.41,272.871 V 22.1797 h -57.9 c 0,0 5.55,49.9101 0,79.4923 -5.54,29.578 -68.39,105.777 -66.55,171.199 h 124.45" /><path
         id="path22"
         style="fill:#f3f2f1;fill-opacity:1;fill-rule:nonzero;stroke:none"
         d="M 1395.77,264.77 H 8.61328 V 1510.48 H 1395.77 V 264.77" /><path
         id="path24"
         style="fill:#dadbd8;fill-opacity:1;fill-rule:nonzero;stroke:none"
         d="m 1022.06,1510.48 10.33,-1245.71 h 363.38 v 1245.76 l -373.71,-0.05" /><path
         id="path26"
         style="fill:#e7e8e5;fill-opacity:1;fill-rule:nonzero;stroke:none"
         d="M 961.629,1101.87 H 71.0352 v 316.97 H 961.629 v -316.97" /><path
         id="path28"
         style="fill:#e7e8e5;fill-opacity:1;fill-rule:nonzero;stroke:none"
         d="M 961.629,721.699 H 71.0352 V 1038.68 H 961.629 V 721.699" /><path
         id="path30"
         style="fill:#e7e8e5;fill-opacity:1;fill-rule:nonzero;stroke:none"
         d="M 961.629,341.539 H 71.0352 V 658.512 H 961.629 V 341.539" /><path
         id="path32"
         style="fill:#dadbd8;fill-opacity:1;fill-rule:nonzero;stroke:none"
         d="m 412.43,1868.44 -38.414,-356.48 h 492.183 l 40.821,356.48 H 412.43" /><path
         id="path34"
         style="fill:#ffffff;fill-opacity:1;fill-rule:nonzero;stroke:none"
         d="M 432.664,1842.84 395.297,1530.89 H 839.48 l 35.942,311.95 H 432.664" /><path
         id="path36"
         style="fill:#e7e8e5;fill-opacity:1;fill-rule:nonzero;stroke:none"
         d="m 507.414,1790.36 -22.996,-207 H 764.73 l 14.383,207 H 507.414" /><path
         id="path38"
         style="fill:#e7e8e5;fill-opacity:1;fill-rule:nonzero;stroke:none"
         d="m 889.438,1714.92 101.664,-204.39 -124.903,1.43 23.239,202.96" /><path
         id="path40"
         style="fill:#dadbd8;fill-opacity:1;fill-rule:nonzero;stroke:none"
         d="m 548.91,1243.79 c 0,-18 -14.586,-32.58 -32.578,-32.58 -17.992,0 -32.578,14.58 -32.578,32.58 0,17.99 14.586,32.57 32.578,32.57 17.992,0 32.578,-14.58 32.578,-32.57" /><path
         id="path42"
         style="fill:#dadbd8;fill-opacity:1;fill-rule:nonzero;stroke:none"
         d="m 548.91,859.859 c 0,-18 -14.586,-32.578 -32.578,-32.578 -17.992,0 -32.578,14.578 -32.578,32.578 0,17.993 14.586,32.582 32.578,32.582 17.992,0 32.578,-14.589 32.578,-32.582" /><path
         id="path44"
         style="fill:#dadbd8;fill-opacity:1;fill-rule:nonzero;stroke:none"
         d="m 548.91,475.918 c 0,-17.988 -14.586,-32.578 -32.578,-32.578 -17.992,0 -32.578,14.59 -32.578,32.578 0,17.992 14.586,32.582 32.578,32.582 17.992,0 32.578,-14.59 32.578,-32.582" /><path
         id="path46"
         style="fill:#dadbd8;fill-opacity:1;fill-rule:nonzero;stroke:none"
         d="m 960.242,3535.51 -786.547,7.65 21.961,-1025.04 786.446,-2.89 -21.86,1020.28" /><path
         id="path48"
         style="fill:#fafaf9;fill-opacity:1;fill-rule:nonzero;stroke:none"
         d="m 909.5,3489.79 -688.52,17.89 19.918,-929.66 688.321,-8.47 -19.719,920.24" /><path
         id="path50"
         style="fill:#e7e8e5;fill-opacity:1;fill-rule:nonzero;stroke:none"
         d="m 791.973,3350.91 -456.821,7.6 13.922,-649.79 456.446,9.78 -13.547,632.41" /><path
         id="path52"
         style="fill:#f3f2f1;fill-opacity:1;fill-rule:nonzero;stroke:none"
         d="m 349.074,2708.72 449.293,343.61 -463.215,306.18 z" /><path
         id="path54"
         style="fill:#dadbd8;fill-opacity:1;fill-rule:nonzero;stroke:none"
         d="m 4344.67,4069.78 -690.01,6.71 19.26,-899.22 689.93,-2.54 -19.18,895.05" /><path
         id="path56"
         style="fill:#fafaf9;fill-opacity:1;fill-rule:nonzero;stroke:none"
         d="m 4300.15,4029.67 -604.01,15.69 17.47,-815.55 603.84,-7.43 -17.3,807.29" /><path
         id="path58"
         style="fill:#e7e8e5;fill-opacity:1;fill-rule:nonzero;stroke:none"
         d="m 4197.05,3907.84 -400.75,6.66 12.21,-570.03 400.42,8.58 -11.88,554.79" /><path
         id="path60"
         style="fill:#f3f2f1;fill-opacity:1;fill-rule:nonzero;stroke:none"
         d="m 3808.51,3344.47 394.15,301.43 -406.36,268.6 z" /><path
         id="path62"
         style="fill:#e7e8e5;fill-opacity:1;fill-rule:nonzero;stroke:none"
         d="m 3571.72,688.82 c -2.94,-8.832 100.01,-400.019 100.01,-400.019 l 70.58,14.711 -97.06,385.308 h -73.53" /><path
         id="path64"
         style="fill:#f3f2f1;fill-opacity:1;fill-rule:nonzero;stroke:none"
         d="M 4118.8,744.699 3977.62,288.801 h 82.36 l 135.29,423.551 -76.47,32.347" /><path
         id="path66"
         style="fill:#e7e8e5;fill-opacity:1;fill-rule:nonzero;stroke:none"
         d="m 4248.22,815.301 -161.78,-526.5 h 82.37 l 155.89,494.14 -76.48,32.36" /><path
         id="path68"
         style="fill:#dadbd8;fill-opacity:1;fill-rule:nonzero;stroke:none"
         d="M 3621.72,321.16 3704.08,35.8516 H 4118.8 L 4195.27,321.16 H 3621.72" /><path
         id="path70"
         style="fill:#dadbd8;fill-opacity:1;fill-rule:nonzero;stroke:none"
         d="m 3835.65,321.16 c -0.09,-0.019 -0.39,0.969 -0.92,2.93 -0.55,2.23 -1.27,5.101 -2.18,8.73 -1.9,8.008 -4.57,19.301 -7.97,33.692 -6.79,29.679 -16.5,72.117 -28.5,124.597 -23.71,105.852 -56.49,252.161 -93.07,415.481 l 2.53,-2.039 c -11.62,0 -24.07,0 -36.61,-0.012 -12.34,0.012 -24.59,0.012 -36.01,0.012 l 2.54,3.179 c 36.81,-163.48 69.78,-309.902 93.65,-415.851 11.6,-52.629 20.99,-95.188 27.55,-124.938 3.08,-14.492 5.5,-25.832 7.22,-33.91 0.73,-3.66 1.3,-6.57 1.75,-8.832 0.36,-1.988 0.51,-3.019 0.42,-3.039 -0.08,-0.019 -0.39,0.969 -0.92,2.93 -0.57,2.23 -1.31,5.101 -2.24,8.719 -1.93,8.019 -4.66,19.3 -8.15,33.691 -6.93,29.68 -16.85,72.109 -29.13,124.59 -24.25,105.851 -57.79,252.16 -95.22,415.488 l -0.73,3.172 h 3.26 c 11.42,0 23.67,0.012 36.01,0.012 12.54,0 24.99,-0.012 36.61,-0.012 h 2.09 l 0.44,-2.031 c 35.98,-163.469 68.2,-309.891 91.51,-415.84 11.34,-52.629 20.51,-95.188 26.91,-124.938 3.01,-14.492 5.36,-25.832 7.04,-33.91 0.72,-3.66 1.27,-6.57 1.71,-8.832 0.35,-1.988 0.5,-3.019 0.41,-3.039" /><path
         id="path72"
         style="fill:#17282f;fill-opacity:1;fill-rule:nonzero;stroke:none"
         d="m 4240.9,23.9297 c 0,-1.4414 -949.44,-2.6094 -2120.35,-2.6094 -1171.32,0 -2120.55390625,1.168 -2120.55390625,2.6094 0,1.4297 949.23390625,2.6016 2120.55390625,2.6016 1170.91,0 2120.35,-1.1719 2120.35,-2.6016" /><path
         id="path74"
         style="fill:#17282f;fill-opacity:1;fill-rule:nonzero;stroke:none"
         d="m 3967.91,2753.35 c 0,0 -2.3,1.08 -7.09,2.17 -4.76,1.11 -12.27,1.77 -21.68,-0.32 -9.41,-2.05 -20.48,-7.24 -31.53,-16.18 -11.17,-8.89 -21.59,-21.88 -32.01,-37.29 -20.46,-31.36 -36.61,-74.78 -55.41,-125.39 -18.48,-50.72 -39.22,-109.32 -56.39,-176.29 l -0.06,-0.24 -0.08,-0.13 c -3.03,-5.43 -6.81,-10.32 -11.66,-14.44 -4.83,-3.87 -11.4,-7.1 -18.18,-5.8 -6.74,1.07 -12.13,5.46 -16.75,9.66 -4.67,4.33 -9.05,8.94 -13.46,13.58 -8.78,9.28 -17.64,18.76 -27.71,27.04 -9.97,7.92 -22.01,15.63 -35.05,14.32 -12.69,-1.61 -24.84,-10.22 -32.13,-21.4 -7.31,-11.51 -10.43,-25.57 -11.07,-39.73 -1.7,-28.62 6.57,-57.46 11.59,-87.41 5.56,-29.9 11.28,-60.54 17.11,-91.87 2.92,-15.67 5.86,-31.51 8.85,-47.53 1.49,-8.01 2.99,-16.05 4.5,-24.15 1.8,-7.72 2.77,-17.72 -2.87,-25.6 -2.75,-4.19 -8.81,-5.82 -13.35,-4.54 -4.59,1.08 -8.42,3.69 -11.82,6.15 -6.73,5.04 -13.5,10.11 -20.29,15.2 -13.57,10.1 -27.55,19.89 -42.38,28.52 -14.79,8.55 -30.54,16.27 -47.39,19.74 -8.38,1.69 -17.1,1.99 -25.23,-0.17 -8.14,-2.08 -15.42,-6.95 -20.54,-13.79 -10.38,-13.74 -13.2,-32.23 -13.48,-49.98 -0.29,-17.96 1.97,-36.13 5.25,-54.2 6.71,-36.16 17.6,-72.1 30.47,-107.78 2.96,-8.95 7.45,-17.51 8.74,-27.8 0.63,-4.99 -0.02,-11.01 -3.7,-15.43 -0.87,-1.09 -1.84,-2.08 -2.89,-2.91 -1.28,-0.88 -1.56,-1.61 -3.89,-2.3 -3.99,-0.86 -6.41,0.82 -8.7,1.92 -8.9,5.19 -15.8,11.95 -23.14,18.41 -7.12,6.6 -14.26,13.22 -21.43,19.86 -14.32,13.18 -28.95,26.27 -45.47,36.62 -8.25,5.12 -17,9.59 -26.23,11.94 -9.18,2.56 -19.06,1.79 -26.74,-3.32 -7.74,-5.17 -12.79,-13.79 -15.13,-23.16 -2.46,-9.4 -3.53,-19.31 -3.56,-29.26 -0.14,-19.92 2.74,-40.04 7.53,-59.72 9.08,-39.59 24.9,-77.88 43.41,-114.95 18.54,-37.12 40.66,-72.92 64.73,-107.53 11.36,-17.78 25.7,-33.61 38.97,-50.28 13.48,-16.52 27.02,-33.1 40.6,-49.74 l 0.46,-0.58 -2.38,0.93 c 21.26,3.09 42.45,6.18 63.56,9.24 21.06,3.35 42.36,5.24 62.72,10.82 41.11,9.42 81.58,21.05 120.27,36.07 38.65,14.99 76.12,32.68 109.48,55.88 16.8,11.35 32.45,24.32 45.76,39.15 6.67,7.38 12.54,15.44 17.05,24.05 4.57,8.53 6.64,18.28 4.42,27.33 -2.26,8.94 -9.04,16.17 -17.55,20.45 -8.42,4.48 -17.91,7.06 -27.45,8.81 -19.19,3.45 -38.83,3.61 -58.3,3.48 -9.78,-0.1 -19.51,-0.2 -29.23,-0.3 -9.78,0.16 -19.43,-0.2 -29.5,1.93 -2.43,0.74 -5.36,1.12 -7.74,4.45 -1.26,2.08 -0.96,2.81 -1.33,4.32 -0.21,1.32 -0.27,2.71 -0.17,4.1 0.25,5.74 3.83,10.64 7.64,13.9 7.9,6.75 16.97,10.06 25.18,14.71 33.53,17.75 65.75,37.05 95.05,59.29 14.57,11.18 28.46,23.12 40.32,36.62 11.71,13.33 22.07,28.92 23.59,46.07 0.81,8.5 -1.34,17.01 -5.97,24.01 -4.57,7.06 -11.23,12.7 -18.59,17.07 -14.81,8.76 -31.67,13.62 -48.36,17.24 -16.78,3.57 -33.72,5.72 -50.55,7.37 -8.46,0.8 -16.87,1.6 -25.25,2.4 -4.17,0.47 -8.75,1.11 -12.89,3.43 -4.21,2.14 -7.53,7.45 -6.73,12.39 1.19,9.6 8.64,16.34 15.16,20.83 6.55,4.97 13.08,9.93 19.56,14.85 12.98,9.85 25.82,19.59 38.51,29.23 25.39,19.27 50.21,38.1 74.43,56.49 23.87,18.79 49.36,34.59 67.34,56.92 9.04,10.91 16.17,23.42 18.48,36.85 2.11,13.17 -1.11,27.72 -9.43,37.43 -4.17,4.93 -10.24,7.83 -16.37,9.76 -6.16,2.06 -12.74,2.68 -19.21,3.17 -13.03,0.64 -25.94,-0.42 -38.68,-1.39 -6.38,-0.47 -12.72,-0.93 -19.09,-1 -6.24,-0.01 -13.18,0.37 -18.88,4.12 -5.89,3.6 -8.57,10.41 -9.54,16.52 -0.83,6.31 -0.34,12.46 1.08,18.51 l 0.02,0.16 0.12,0.21 c 32.25,61.02 56.29,118.23 76.67,168.12 20.08,50.01 37.28,92.92 43.46,129.77 2.77,18.35 4.13,34.93 1.98,49.01 -1.9,14.07 -6.28,25.45 -11.64,33.43 -5.33,8.03 -11.27,12.66 -15.49,15.1 -4.23,2.49 -6.65,3.24 -6.65,3.24 0,0 2.52,-0.48 6.88,-2.86 4.33,-2.33 10.45,-6.92 15.98,-14.99 5.56,-8.02 10.14,-19.53 12.19,-33.74 2.31,-14.24 1.08,-30.97 -1.58,-49.47 -5.98,-37.17 -23,-80.32 -42.85,-130.41 -20.2,-50.06 -43.98,-107.31 -76.2,-168.73 l 0.14,0.36 c -1.27,-5.52 -1.73,-11.53 -0.93,-17.24 0.92,-5.6 3.26,-11.33 8.17,-14.27 4.77,-3.12 10.87,-3.55 17.05,-3.52 6.2,0.09 12.49,0.56 18.85,1.05 12.72,1 25.76,2.12 39.14,1.5 6.66,-0.48 13.46,-1.1 20.07,-3.26 6.53,-2.04 13.22,-5.19 17.96,-10.73 9.41,-11.04 12.55,-26.11 10.43,-40.45 -2.44,-14.37 -9.93,-27.42 -19.18,-38.65 -18.47,-23.01 -44.24,-38.99 -67.93,-57.75 -24.16,-18.42 -48.93,-37.29 -74.26,-56.59 -12.67,-9.65 -25.47,-19.41 -38.42,-29.28 -6.47,-4.92 -12.98,-9.88 -19.52,-14.87 -3.36,-2.55 -6.56,-4.79 -8.89,-7.82 -2.34,-2.99 -4.3,-6.52 -4.6,-10 -0.44,-3.51 1.41,-6.4 4.55,-8.19 3.22,-1.81 7.13,-2.44 11.25,-2.88 8.35,-0.78 16.74,-1.57 25.17,-2.35 16.91,-1.63 34.01,-3.77 51.05,-7.37 16.99,-3.67 34.18,-8.55 49.79,-17.73 7.73,-4.58 14.98,-10.62 20.11,-18.48 5.18,-7.79 7.61,-17.52 6.73,-26.86 -1.72,-18.99 -12.73,-35.11 -24.68,-48.83 -12.17,-13.88 -26.25,-25.98 -40.97,-37.31 -29.59,-22.53 -61.98,-41.94 -95.67,-59.82 -8.31,-4.67 -17.48,-8.2 -24.2,-14.06 -3.35,-2.92 -5.82,-6.51 -5.99,-10.55 -0.07,-1.01 -0.03,-2.03 0.15,-3.09 l 0.7,-2.52 c 0.31,-0.71 2.56,-1.7 4.66,-2.14 8.84,-1.9 18.74,-1.65 28.31,-1.77 9.71,0.11 19.43,0.21 29.2,0.32 19.54,0.14 39.44,0.03 59.25,-3.51 9.85,-1.82 19.76,-4.46 28.94,-9.32 9.19,-4.57 17.42,-13.02 20.06,-23.67 2.65,-10.51 0.08,-21.7 -4.78,-30.81 -4.81,-9.2 -10.92,-17.55 -17.79,-25.17 -13.7,-15.29 -29.63,-28.46 -46.66,-39.99 -33.83,-23.55 -71.61,-41.37 -110.54,-56.48 -39,-15.15 -79.57,-26.82 -121.03,-36.34 -20.61,-5.63 -41.86,-7.49 -62.96,-10.86 -21.14,-3.08 -42.37,-6.16 -63.67,-9.27 l -1.46,-0.2 -0.93,1.14 -0.47,0.57 c -13.6,16.67 -27.15,33.28 -40.65,49.83 -13.3,16.71 -27.61,32.49 -39.11,50.47 -24.27,34.92 -46.43,70.81 -65.12,108.24 -18.63,37.34 -34.59,75.94 -43.78,116.09 -4.85,19.98 -7.79,40.43 -7.64,60.96 0.05,10.24 1.13,20.54 3.78,30.58 2.53,10 8.16,20.01 17.2,25.98 9.12,6.12 20.88,6.81 30.76,4.01 10.06,-2.58 19.16,-7.3 27.67,-12.57 17.03,-10.69 31.84,-23.99 46.2,-37.23 7.16,-6.64 14.29,-13.26 21.39,-19.86 7.17,-6.35 14.33,-13.19 22.15,-17.73 1.83,-1.08 4.17,-1.86 4.89,-1.55 l 2.22,1.39 2.18,2.19 c 2.59,3.1 3.18,7.41 2.66,11.81 -1.02,8.85 -5.43,17.64 -8.45,26.67 -12.91,35.89 -23.82,72.03 -30.58,108.6 -3.29,18.27 -5.58,36.7 -5.26,55.14 0.37,18.2 3.06,37.52 14.52,52.75 5.62,7.51 13.94,13.1 23.02,15.39 9.08,2.39 18.49,1.99 27.31,0.2 17.72,-3.68 33.74,-11.64 48.77,-20.33 15.04,-8.79 29.14,-18.7 42.75,-28.87 6.77,-5.09 13.51,-10.14 20.21,-15.18 3.35,-2.45 6.66,-4.61 10.26,-5.47 3.54,-0.81 6.86,0.06 8.91,2.94 2.14,2.74 3.05,6.69 3.36,10.47 0.31,3.81 -0.53,7.6 -1.3,11.75 -1.5,8.1 -2.98,16.14 -4.46,24.14 -2.94,16.01 -5.86,31.84 -8.76,47.5 -5.77,31.32 -11.4,61.95 -16.91,91.83 -4.91,29.82 -13.25,58.98 -11.47,88.43 0.7,14.54 3.92,29.24 11.76,41.53 8.06,12.05 20.52,21.1 34.9,22.98 7.24,0.92 14.32,-1.25 20.52,-4.12 6.35,-2.83 11.81,-6.96 17.06,-11.08 10.33,-8.53 19.23,-18.13 27.98,-27.43 4.38,-4.64 8.72,-9.23 13.25,-13.45 4.56,-4.19 9.36,-7.97 14.99,-8.88 5.62,-1.13 11.19,1.54 15.65,5.06 4.42,3.7 8.12,8.46 10.9,13.4 l -0.14,-0.37 c 17.49,67.25 38.43,125.72 57.17,176.44 19.02,50.51 35.47,94 56.3,125.46 10.6,15.45 21.23,28.46 32.61,37.36 11.27,8.94 22.58,14.09 32.15,16.03 9.59,1.99 17.2,1.17 21.97,-0.1 4.81,-1.25 6.99,-2.6 6.99,-2.6" /><path
         id="path76"
         style="fill:#17282f;fill-opacity:1;fill-rule:nonzero;stroke:none"
         d="m 3915.46,2617.31 c 0.07,-0.04 -0.27,-1.14 -1.02,-3.27 -0.87,-2.38 -2,-5.48 -3.45,-9.4 -3.25,-8.53 -7.85,-20.58 -13.72,-35.96 -12.13,-31.48 -29.48,-76.52 -50.88,-132.05 -42.6,-111.95 -101.28,-266.1 -166.08,-436.37 -64.64,-170.56 -123.75,-324.73 -167.56,-435.93 -21.87,-55.61 -39.78,-100.53 -52.42,-131.46 -6.26,-15.22 -11.16,-27.15 -14.63,-35.59 -1.64,-3.85 -2.94,-6.89 -3.93,-9.21 -0.91,-2.06 -1.42,-3.11 -1.5,-3.08 -0.09,0.04 0.26,1.15 1.01,3.27 0.87,2.38 2.01,5.48 3.44,9.4 3.26,8.53 7.86,20.59 13.73,35.96 12.12,31.48 29.48,76.52 50.87,132.05 42.61,111.94 101.29,266.11 166.12,436.44 64.62,170.5 123.72,324.66 167.53,435.85 21.87,55.61 39.78,100.53 52.42,131.47 6.26,15.22 11.16,27.16 14.64,35.6 1.63,3.84 2.93,6.88 3.92,9.21 0.91,2.06 1.42,3.1 1.51,3.07" /><path
         id="path78"
         style="fill:#17282f;fill-opacity:1;fill-rule:nonzero;stroke:none"
         d="m 3920.84,2272.23 c 0.33,-0.68 -9.34,-6.16 -25.02,-14.86 -17.14,-9.54 -38.09,-21.19 -61.25,-34.08 -23.94,-13.31 -45.74,-25.17 -61.83,-33.22 -16.07,-8.08 -26.42,-12.27 -26.72,-11.65 -0.31,0.68 9.41,6.02 24.98,14.89 17.08,9.67 37.95,21.48 61.04,34.54 23.95,13.31 45.92,24.89 62.07,32.78 16.16,7.89 26.43,12.21 26.73,11.6" /><path
         id="path80"
         style="fill:#17282f;fill-opacity:1;fill-rule:nonzero;stroke:none"
         d="m 3737.92,2184.46 c -1.29,-0.64 -25.08,44.75 -53.12,101.35 -28.04,56.63 -49.73,103.04 -48.44,103.68 1.28,0.63 25.06,-44.74 53.11,-101.37 28.04,-56.6 49.73,-103.02 48.45,-103.66" /><path
         id="path82"
         style="fill:#17282f;fill-opacity:1;fill-rule:nonzero;stroke:none"
         d="m 3650.48,1918.11 c -0.49,-0.48 -9,7.06 -22,20.03 -12.95,13 -30.39,31.46 -48.46,52.89 -18.14,21.39 -33.5,41.61 -44.14,56.57 -10.65,14.96 -16.67,24.6 -16.11,25 0.61,0.44 7.69,-8.43 19.06,-22.79 11.35,-14.35 27.11,-34.13 45.16,-55.42 18,-21.32 34.92,-40.1 47.17,-53.71 12.28,-13.59 19.85,-22.03 19.32,-22.57" /><path
         id="path84"
         style="fill:#17282f;fill-opacity:1;fill-rule:nonzero;stroke:none"
         d="m 3833.41,1961.08 c 0.15,-0.7 -9.94,-3.61 -26.37,-7.73 -16.44,-4.12 -39.21,-9.46 -64.44,-15.05 -25.24,-5.58 -48.15,-10.36 -64.78,-13.56 -16.64,-3.19 -27.01,-4.82 -27.16,-4.12 -0.15,0.7 9.92,3.59 26.36,7.71 16.44,4.12 39.22,9.48 64.45,15.06 25.23,5.59 48.14,10.35 64.77,13.56 16.64,3.2 27.01,4.83 27.17,4.13" /><path
         id="path86"
         style="fill:#17282f;fill-opacity:1;fill-rule:nonzero;stroke:none"
         d="m 3786.08,1716.14 c 0.15,-0.71 -12.85,-4.13 -33.99,-9.08 -21.13,-4.95 -50.41,-11.43 -82.81,-18.29 -32.42,-6.84 -61.82,-12.76 -83.16,-16.79 -21.33,-4.03 -34.6,-6.18 -34.74,-5.46 -0.15,0.7 12.85,4.11 33.99,9.06 21.13,4.95 50.41,11.44 82.83,18.29 32.4,6.86 61.8,12.76 83.13,16.8 21.33,4.03 34.61,6.17 34.75,5.47" /><path
         id="path88"
         style="fill:#17282f;fill-opacity:1;fill-rule:nonzero;stroke:none"
         d="m 3556.66,1669.28 c -0.28,-0.24 -2.93,2.2 -7.52,6.83 -4.6,4.61 -11.06,11.46 -18.93,20.04 -15.68,17.19 -36.83,41.44 -59,69.21 -22.23,27.72 -41.3,53.65 -54.61,72.74 -6.67,9.53 -11.91,17.36 -15.42,22.85 -3.51,5.49 -5.3,8.61 -5.01,8.83 0.29,0.2 2.65,-2.54 6.66,-7.66 4.67,-6.09 10.24,-13.37 16.74,-21.85 14.05,-18.51 33.53,-44.01 55.7,-71.66 22.12,-27.69 42.77,-52.25 57.72,-70.03 14.98,-17.77 24.22,-28.79 23.67,-29.3" /><path
         id="path90"
         style="fill:#f03d5f;fill-opacity:1;fill-rule:nonzero;stroke:none"
         d="m 3456.62,999.418 c -173.64,139.932 -198.79,379.282 -176.99,591.392 3.63,35.41 2.3,73.09 21.31,103.08 19.04,29.97 59.88,48.54 90.63,31.42 25.5,-14.22 34.88,-45.67 47.89,-72.02 17.3,-35.08 44.61,-65.01 77.77,-85.21 21.8,-13.28 49.27,-22.37 72.43,-11.59 31.76,14.78 38.27,56.82 40.48,92.15 4.1,65.81 8.2,131.63 12.3,197.43 2.21,35.31 4.57,71.36 17.84,104.1 13.28,32.74 39.67,62.2 73.89,69.31 34.24,7.1 74.42,-15.11 79.14,-50.15 1.97,-14.57 -1.98,-29.3 -2.01,-44.01 -0.02,-14.73 5.69,-31.41 19.32,-36.44 13.81,-5.11 28.62,3.94 39.88,13.54 38.87,33.14 66.74,77.35 92.98,121.42 26.24,44.07 51.87,89.28 87.59,125.88 35.73,36.61 83.57,64.27 134.31,63.67 50.75,-0.61 102.46,-35.51 111.83,-86 9.4,-50.64 -23.1,-99.14 -57.45,-137.25 -50.96,-56.55 -110.04,-105.6 -174.77,-145.12 -11.67,-7.14 -24.31,-14.84 -29.46,-27.61 -9.28,-23.01 11.41,-47.91 34.11,-57.24 25.71,-10.58 54.44,-9.8 81.74,-14.92 27.3,-5.13 56.28,-19.32 64.91,-46.05 11.99,-37.06 -20.78,-72.81 -52.17,-95.53 -62.85,-45.53 -133.42,-80.05 -207.66,-101.62 -26.62,-7.71 -54.51,-14.18 -76.7,-30.97 -22.19,-16.82 -37.01,-47.67 -26.06,-73.4 10.96,-25.76 42.87,-35.94 70.42,-32.75 27.53,3.17 52.89,16.26 79.48,24.26 49.77,14.98 112.17,7.35 140.37,-36.71 18.53,-28.95 17.7,-67.45 5.11,-99.59 -12.57,-32.13 -35.46,-58.99 -59.49,-83.56 -84.01,-85.88 -188.57,-152.48 -303.77,-183.779 -115.19,-31.289 -220.18,-34.699 -329.2,13.867" /><path
         id="path92"
         style="fill:#f03654;fill-opacity:1;fill-rule:nonzero;stroke:none"
         d="m 3629.69,962.41 c -44.5,0 -88.4,6.551 -132.68,21.289 v 598.471 c 6.45,-5.11 13.21,-9.82 20.22,-14.09 15.07,-9.18 32.84,-16.36 50.03,-16.36 7.68,0 15.24,1.44 22.4,4.77 31.76,14.78 38.27,56.82 40.48,92.15 4.1,65.81 8.2,131.63 12.3,197.43 2.21,35.31 4.57,71.36 17.84,104.1 13.28,32.74 39.67,62.2 73.89,69.31 4.3,0.89 8.69,1.32 13.09,1.32 30.68,0 61.92,-20.83 66.05,-51.47 0.39,-2.9 0.55,-5.81 0.55,-8.73 0,-11.71 -2.54,-23.5 -2.56,-35.28 v 0 0 c -0.02,-14.73 5.69,-31.41 19.32,-36.44 2.76,-1.02 5.56,-1.47 8.35,-1.47 11.23,0 22.51,7.32 31.53,15.01 38.87,33.14 66.74,77.35 92.98,121.42 26.24,44.07 51.87,89.28 87.59,125.88 35.34,36.22 82.55,63.68 132.69,63.68 0.54,0 1.08,-0.01 1.62,-0.01 50.75,-0.61 102.46,-35.51 111.83,-86 1.12,-6.04 1.65,-12.04 1.65,-18 -0.02,-44.05 -28.84,-85.68 -59.1,-119.25 -50.96,-56.55 -110.04,-105.6 -174.77,-145.12 -11.67,-7.14 -24.31,-14.84 -29.46,-27.61 -1.56,-3.87 -2.28,-7.79 -2.28,-11.68 0.01,-19.26 17.5,-37.8 36.39,-45.56 25.71,-10.58 54.44,-9.8 81.74,-14.92 27.3,-5.13 56.28,-19.32 64.91,-46.05 1.73,-5.35 2.53,-10.68 2.53,-15.95 0.01,-31.17 -27.85,-60.14 -54.7,-79.58 -62.85,-45.53 -133.42,-80.05 -207.66,-101.62 -26.62,-7.71 -54.51,-14.18 -76.7,-30.97 -17.03,-12.91 -29.72,-34.09 -29.75,-54.87 -0.01,-6.29 1.14,-12.55 3.69,-18.53 9.66,-22.72 35.63,-33.32 60.52,-33.32 3.34,0 6.65,0.19 9.9,0.57 27.53,3.17 52.89,16.26 79.48,24.26 15.09,4.54 31.34,7.01 47.44,7.01 37.02,0 73.28,-13.02 92.93,-43.72 9.92,-15.49 14.29,-33.72 14.28,-52.24 -0.01,-16.09 -3.32,-32.41 -9.17,-47.35 -12.57,-32.13 -35.46,-58.99 -59.49,-83.56 -84.01,-85.88 -188.57,-152.48 -303.77,-183.779 -53.78,-14.61 -105.35,-23.141 -156.13,-23.141" /><path
         id="path94"
         style="fill:#17282f;fill-opacity:1;fill-rule:nonzero;stroke:none"
         d="m 3443.03,841.988 c 13.47,83.692 38.77,181.892 77.62,286.942 38.65,105.15 90.58,216.89 148.9,331.9 14.69,28.69 29.21,57.05 43.5,84.99 14.34,27.87 28.57,55.5 44.15,81.67 30.93,52.48 64.67,100.58 98.13,145.24 33.46,44.69 66.83,85.87 98.31,124.15 31.58,38.23 61.68,73.31 90.49,104.11 57.43,61.84 109.56,106.14 146.59,135.09 18.49,14.54 33.19,25.34 43.27,32.54 4.85,3.4 8.64,6.09 11.51,8.1 2.6,1.79 3.98,2.67 4.04,2.58 0.08,-0.1 -1.17,-1.15 -3.65,-3.12 -2.77,-2.15 -6.45,-5 -11.13,-8.63 -9.8,-7.53 -24.25,-18.66 -42.49,-33.48 -36.49,-29.54 -87.96,-74.21 -144.79,-136.26 -28.52,-30.92 -58.34,-66.09 -89.69,-104.42 -31.29,-38.41 -64.45,-79.65 -97.69,-124.31 -33.24,-44.65 -66.74,-92.65 -97.44,-144.89 -15.45,-26.04 -29.52,-53.44 -43.87,-81.38 -14.29,-27.94 -28.78,-56.28 -43.45,-84.96 -58.28,-114.93 -110.23,-226.32 -149.09,-331.04 -39.04,-104.61 -64.69,-202.29 -78.69,-285.591" /><path
         id="path96"
         style="fill:#17282f;fill-opacity:1;fill-rule:nonzero;stroke:none"
         d="m 3759.07,1627.61 c -0.45,-0.04 -1.28,5.41 -2.41,15.29 -1.19,9.89 -2.43,24.23 -3.7,41.99 -2.59,35.48 -4.48,84.61 -6.35,138.78 -1.89,54.2 -4.46,103.16 -7.58,138.5 -1.5,17.68 -2.87,31.98 -3.93,41.85 -1.02,9.88 -1.37,15.38 -0.93,15.46 0.45,0.06 1.64,-5.31 3.43,-15.1 1.84,-9.79 3.9,-24.04 5.99,-41.72 4.31,-35.35 7.64,-84.48 9.5,-138.73 1.72,-53.46 3.28,-101.83 4.46,-138.78 0.64,-16.69 1.19,-30.75 1.63,-42.04 0.35,-9.93 0.34,-15.46 -0.11,-15.5" /><path
         id="path98"
         style="fill:#17282f;fill-opacity:1;fill-rule:nonzero;stroke:none"
         d="m 4218.69,1681.29 c -0.02,-0.45 -6.52,-0.75 -18.25,-0.93 -11.71,-0.23 -28.67,-0.48 -49.6,-1.47 -41.87,-1.63 -99.63,-5.92 -163.16,-13.43 -63.52,-7.63 -120.71,-16.98 -161.88,-24.94 -20.64,-3.84 -37.23,-7.39 -48.72,-9.77 -11.49,-2.44 -17.89,-3.57 -18.01,-3.14 -0.11,0.45 6.09,2.42 17.42,5.64 11.34,3.14 27.83,7.4 48.4,11.83 41.06,9.15 98.34,19.27 162.05,26.93 63.71,7.52 121.75,11.1 163.78,11.54 21.02,0.39 38.03,-0.06 49.77,-0.63 11.73,-0.61 18.21,-1.16 18.2,-1.63" /><path
         id="path100"
         style="fill:#17282f;fill-opacity:1;fill-rule:nonzero;stroke:none"
         d="m 3526.8,1136.9 c -0.21,-0.08 -1.15,1.89 -2.73,5.74 -1.8,4.59 -3.98,10.19 -6.64,16.95 -5.69,14.75 -13.38,36.3 -22.52,63.05 -18.33,53.49 -41.32,128.17 -65.58,210.92 -24.27,82.79 -46.54,157.59 -63.72,211.38 -8.43,26.15 -15.38,47.66 -20.54,63.66 -2.2,6.93 -4.01,12.65 -5.49,17.35 -1.18,3.99 -1.71,6.12 -1.5,6.21 0.21,0.07 1.15,-1.91 2.74,-5.76 1.79,-4.58 3.97,-10.17 6.63,-16.93 5.69,-14.75 13.38,-36.3 22.53,-63.05 18.32,-53.49 41.32,-128.17 65.57,-210.96 24.27,-82.76 46.54,-157.55 63.73,-211.35 8.44,-26.14 15.38,-47.67 20.53,-63.65 2.2,-6.93 4.01,-12.66 5.49,-17.36 1.19,-3.99 1.72,-6.12 1.5,-6.2" /><path
         id="path102"
         style="fill:#17282f;fill-opacity:1;fill-rule:nonzero;stroke:none"
         d="m 4143.16,1289.89 c 0.04,-0.23 -2.08,-0.93 -6.15,-2.06 -4.82,-1.26 -10.74,-2.8 -17.92,-4.67 -16.53,-4.14 -38.86,-9.72 -66.01,-16.5 -55.74,-13.94 -132.5,-34.08 -217.28,-56.45 -84.82,-22.38 -161.84,-41.84 -217.87,-54.62 -28.02,-6.41 -50.74,-11.37 -66.52,-14.46 -7.28,-1.39 -13.29,-2.53 -18.17,-3.47 -4.18,-0.72 -6.4,-0.99 -6.44,-0.76 -0.04,0.22 2.08,0.92 6.16,2.07 4.8,1.24 10.73,2.78 17.91,4.65 16.54,4.14 38.84,9.7 66,16.5 55.74,13.94 132.5,34.08 217.32,56.46 84.78,22.38 161.79,41.82 217.84,54.61 28.02,6.41 50.73,11.36 66.51,14.46 7.3,1.38 13.29,2.55 18.19,3.46 4.17,0.73 6.37,0.99 6.43,0.78" /><path
         id="path104"
         style="fill:#33535f;fill-opacity:1;fill-rule:nonzero;stroke:none"
         d="m 1071.94,436.879 h 2425.07 v 3323.04 H 1071.94 Z" /><path
         id="path106"
         style="fill:#dadbd8;fill-opacity:1;fill-rule:nonzero;stroke:none"
         d="M 3401.15,634.52 H 1273.87 V 3625.61 H 3401.15 V 1006.63 634.52" /><path
         id="path108"
         style="fill:#e7e8e5;fill-opacity:1;fill-rule:nonzero;stroke:none"
         d="M 3367.55,690.012 H 1259.43 V 3665.16 H 3367.55 V 1060.14 690.012" /><path
         id="path110"
         style="fill:#fafaf9;fill-opacity:1;fill-rule:nonzero;stroke:none"
         d="M 3141.02,921.551 2898.21,723.828 H 1220.07 V 3657.62 H 3347.36 V 1088.81 L 3141.02,921.551" /><path
         id="path112"
         style="fill:#17282f;fill-opacity:1;fill-rule:nonzero;stroke:none"
         d="m 3141.02,921.551 c 0,0 4.3,3.66 12.96,10.777 8.72,7.133 21.7,17.742 38.9,31.801 34.56,28.133 86.04,70.041 153.95,125.331 l -0.3,-0.65 c -0.25,421.96 -0.81,1359.57 -1.52,2568.81 l 2.35,-2.36 c -633.47,-0.07 -1351.21,-0.16 -2108.72,-0.25 -6.25,0 -12.5,0 -18.57,0 l 2.6,2.61 c -0.19,-1102.96 -0.37,-2120.46 -0.51,-2933.792 l -2.09,2.09 c 766.03,-0.547 1354.49,-0.957 1678.14,-1.199 l -0.57,-0.199 c 80.99,65.699 141.77,115 182.35,147.921 20.28,16.379 35.5,28.68 45.69,36.911 10.18,8.187 15.34,12.199 15.34,12.199 0,0 -4.97,-4.25 -15.05,-12.551 -10.12,-8.32 -25.25,-20.73 -45.41,-37.27 -40.45,-33.062 -101.05,-82.601 -181.79,-148.589 l -0.25,-0.2 h -0.31 c -323.65,-0.23 -912.11,-0.652 -1678.14,-1.203 h -2.08 v 2.09 c -0.15,813.332 -0.33,1830.832 -0.52,2933.792 v 2.6 h 2.6 c 6.07,0 12.32,0 18.57,0 757.51,-0.09 1475.25,-0.17 2108.72,-0.25 h 2.35 v -2.35 c -0.72,-1209.24 -1.27,-2146.85 -1.52,-2568.81 v -0.4 l -0.31,-0.24 c -68.14,-55.01 -119.8,-96.709 -154.46,-124.701 -17.32,-13.918 -30.39,-24.41 -39.16,-31.469 -8.76,-7.012 -13.24,-10.449 -13.24,-10.449" /><path
         id="path114"
         style="fill:#f03d5f;fill-opacity:1;fill-rule:nonzero;stroke:none"
         d="m 2719.79,3564.18 h -870.64 v 150.89 c 0,81.5 66.08,147.58 147.58,147.58 h 581.52 c 78.17,0 141.54,-63.37 141.54,-141.54 v -156.93" /><path
         id="path116"
         style="fill:#f03d5f;fill-opacity:1;fill-rule:nonzero;stroke:none"
         d="m 2062.4,3862.65 -31.83,160.99 h 501.29 l -27.85,-160.99 H 2062.4" /><path
         id="path118"
         style="fill:#f03d5f;fill-opacity:1;fill-rule:nonzero;stroke:none"
         d="m 1452.57,2841.82 h 338.39 v 338.39 h -338.39 z m 348.39,-10 h -358.39 v 358.39 h 358.39 v -358.39" /><path
         id="path120"
         style="fill:#17282f;fill-opacity:1;fill-rule:nonzero;stroke:none"
         d="m 3067.39,3103.66 c 0,-1.43 -249.47,-2.6 -557.13,-2.6 -307.76,0 -557.18,1.17 -557.18,2.6 0,1.45 249.42,2.61 557.18,2.61 307.66,0 557.13,-1.16 557.13,-2.61" /><path
         id="path122"
         style="fill:#17282f;fill-opacity:1;fill-rule:nonzero;stroke:none"
         d="m 3067.39,3029.19 c 0,-1.43 -249.47,-2.6 -557.13,-2.6 -307.76,0 -557.18,1.17 -557.18,2.6 0,1.44 249.42,2.61 557.18,2.61 307.66,0 557.13,-1.17 557.13,-2.61" /><path
         id="path124"
         style="fill:#17282f;fill-opacity:1;fill-rule:nonzero;stroke:none"
         d="m 3067.39,2954.72 c 0,-1.44 -249.47,-2.6 -557.13,-2.6 -307.76,0 -557.18,1.16 -557.18,2.6 0,1.44 249.42,2.61 557.18,2.61 307.66,0 557.13,-1.17 557.13,-2.61" /><path
         id="path126"
         style="fill:#17282f;fill-opacity:1;fill-rule:nonzero;stroke:none"
         d="m 3067.39,2880.25 c 0,-1.44 -249.47,-2.6 -557.13,-2.6 -307.76,0 -557.18,1.16 -557.18,2.6 0,1.44 249.42,2.61 557.18,2.61 307.66,0 557.13,-1.17 557.13,-2.61" /><path
         id="path128"
         style="fill:#f03d5f;fill-opacity:1;fill-rule:nonzero;stroke:none"
         d="m 1452.57,2289.5 h 338.39 v 338.38 H 1452.57 V 2289.5 m 348.39,-10 h -358.39 v 358.38 h 358.39 V 2279.5" /><path
         id="path130"
         style="fill:#f03d5f;fill-opacity:1;fill-rule:nonzero;stroke:none"
         d="m 1513.84,2451.31 47.58,51.1 79.29,-63.43 181.5,176.21 43.48,-51.25 -228.5,-225.41 -123.35,112.78" /><path
         id="path132"
         style="fill:#17282f;fill-opacity:1;fill-rule:nonzero;stroke:none"
         d="m 3067.39,2551.33 c 0,-1.43 -249.47,-2.6 -557.13,-2.6 -307.76,0 -557.18,1.17 -557.18,2.6 0,1.44 249.42,2.61 557.18,2.61 307.66,0 557.13,-1.17 557.13,-2.61" /><path
         id="path134"
         style="fill:#17282f;fill-opacity:1;fill-rule:nonzero;stroke:none"
         d="m 3067.39,2476.86 c 0,-1.44 -249.47,-2.6 -557.13,-2.6 -307.76,0 -557.18,1.16 -557.18,2.6 0,1.44 249.42,2.61 557.18,2.61 307.66,0 557.13,-1.17 557.13,-2.61" /><path
         id="path136"
         style="fill:#17282f;fill-opacity:1;fill-rule:nonzero;stroke:none"
         d="m 3067.39,2402.39 c 0,-1.44 -249.47,-2.61 -557.13,-2.61 -307.76,0 -557.18,1.17 -557.18,2.61 0,1.44 249.42,2.6 557.18,2.6 307.66,0 557.13,-1.16 557.13,-2.6" /><path
         id="path138"
         style="fill:#17282f;fill-opacity:1;fill-rule:nonzero;stroke:none"
         d="m 3067.39,2327.91 c 0,-1.43 -249.47,-2.6 -557.13,-2.6 -307.76,0 -557.18,1.17 -557.18,2.6 0,1.44 249.42,2.61 557.18,2.61 307.66,0 557.13,-1.17 557.13,-2.61" /><path
         id="path140"
         style="fill:#f03d5f;fill-opacity:1;fill-rule:nonzero;stroke:none"
         d="m 1452.57,1755.01 h 338.39 v 338.39 h -338.39 z m 348.39,-10 h -358.39 v 358.39 h 358.39 v -358.39" /><path
         id="path142"
         style="fill:#f03d5f;fill-opacity:1;fill-rule:nonzero;stroke:none"
         d="m 1513.84,1916.83 47.58,51.1 79.29,-63.43 181.5,176.21 43.48,-51.25 -228.5,-225.4 -123.35,112.77" /><path
         id="path144"
         style="fill:#17282f;fill-opacity:1;fill-rule:nonzero;stroke:none"
         d="m 3067.39,2016.85 c 0,-1.44 -249.47,-2.6 -557.13,-2.6 -307.76,0 -557.18,1.16 -557.18,2.6 0,1.44 249.42,2.61 557.18,2.61 307.66,0 557.13,-1.17 557.13,-2.61" /><path
         id="path146"
         style="fill:#17282f;fill-opacity:1;fill-rule:nonzero;stroke:none"
         d="m 3067.39,1942.38 c 0,-1.44 -249.47,-2.6 -557.13,-2.6 -307.76,0 -557.18,1.16 -557.18,2.6 0,1.44 249.42,2.6 557.18,2.6 307.66,0 557.13,-1.16 557.13,-2.6" /><path
         id="path148"
         style="fill:#17282f;fill-opacity:1;fill-rule:nonzero;stroke:none"
         d="m 3067.39,1867.9 c 0,-1.43 -249.47,-2.59 -557.13,-2.59 -307.76,0 -557.18,1.16 -557.18,2.59 0,1.45 249.42,2.61 557.18,2.61 307.66,0 557.13,-1.16 557.13,-2.61" /><path
         id="path150"
         style="fill:#17282f;fill-opacity:1;fill-rule:nonzero;stroke:none"
         d="m 3067.39,1793.43 c 0,-1.43 -249.47,-2.6 -557.13,-2.6 -307.76,0 -557.18,1.17 -557.18,2.6 0,1.45 249.42,2.61 557.18,2.61 307.66,0 557.13,-1.16 557.13,-2.61" /><path
         id="path152"
         style="fill:#f03d5f;fill-opacity:1;fill-rule:nonzero;stroke:none"
         d="m 1452.57,1238.96 h 338.39 v 338.39 h -338.39 z m 348.39,-10 h -358.39 v 358.39 h 358.39 v -358.39" /><path
         id="path154"
         style="fill:#f03d5f;fill-opacity:1;fill-rule:nonzero;stroke:none"
         d="m 1513.84,1400.77 47.58,51.11 79.29,-63.44 181.5,176.21 43.48,-51.25 -228.5,-225.4 -123.35,112.77" /><path
         id="path156"
         style="fill:#17282f;fill-opacity:1;fill-rule:nonzero;stroke:none"
         d="m 3067.39,1500.79 c 0,-1.43 -249.47,-2.59 -557.13,-2.59 -307.76,0 -557.18,1.16 -557.18,2.59 0,1.45 249.42,2.61 557.18,2.61 307.66,0 557.13,-1.16 557.13,-2.61" /><path
         id="path158"
         style="fill:#17282f;fill-opacity:1;fill-rule:nonzero;stroke:none"
         d="m 3067.39,1426.32 c 0,-1.43 -249.47,-2.6 -557.13,-2.6 -307.76,0 -557.18,1.17 -557.18,2.6 0,1.45 249.42,2.61 557.18,2.61 307.66,0 557.13,-1.16 557.13,-2.61" /><path
         id="path160"
         style="fill:#17282f;fill-opacity:1;fill-rule:nonzero;stroke:none"
         d="m 3067.39,1351.85 c 0,-1.44 -249.47,-2.6 -557.13,-2.6 -307.76,0 -557.18,1.16 -557.18,2.6 0,1.44 249.42,2.61 557.18,2.61 307.66,0 557.13,-1.17 557.13,-2.61" /><path
         id="path162"
         style="fill:#17282f;fill-opacity:1;fill-rule:nonzero;stroke:none"
         d="m 3067.39,1277.38 c 0,-1.44 -249.47,-2.6 -557.13,-2.6 -307.76,0 -557.18,1.16 -557.18,2.6 0,1.44 249.42,2.6 557.18,2.6 307.66,0 557.13,-1.16 557.13,-2.6" /><path
         id="path164"
         style="fill:#dadbd8;fill-opacity:1;fill-rule:nonzero;stroke:none"
         d="M 2964.92,1209.56 2731.7,726.559 h 166.51 z" /><path
         id="path166"
         style="fill:#fafaf9;fill-opacity:1;fill-rule:nonzero;stroke:none"
         d="m 2898.21,723.828 66.71,483.012 382.44,-118.03 z" /><path
         id="path168"
         style="fill:#17282f;fill-opacity:1;fill-rule:nonzero;stroke:none"
         d="m 2898.21,723.828 c 9.39,7.731 50.67,41.711 128.6,105.863 79.93,65.418 191.45,156.731 318.94,261.089 l 0.86,-4.4 c -47.44,14.62 -96.91,29.87 -147.66,45.51 -82.77,25.6 -162.18,50.16 -234.75,72.61 l 3.14,2.01 c -19.98,-140.31 -37.11,-260.49 -49.28,-345.92 -12.06,-83.059 -18.28,-125.93 -19.85,-136.762 -0.04,-0.058 0.04,0.672 0.22,2.141 0.21,1.73 0.49,3.929 0.84,6.691 0.82,6.262 1.97,15.039 3.43,26.301 3.1,23.469 7.55,57.199 13.15,99.57 11.51,86.098 27.72,207.239 46.64,348.639 l 0.38,2.86 2.77,-0.85 c 72.6,-22.35 152.04,-46.81 234.85,-72.31 50.73,-15.68 100.19,-30.97 147.61,-45.63 l 4.58,-1.4 -3.72,-3 c -129.03,-104.078 -241.91,-195.141 -322.8,-260.379 -39.94,-32.102 -71.96,-57.832 -94.26,-75.75 -10.78,-8.641 -19.19,-15.383 -25.14,-20.16 -2.68,-2.133 -4.81,-3.821 -6.44,-5.121 -1.44,-1.121 -2.15,-1.668 -2.11,-1.602" /><path
         id="path170"
         style="fill:#ba2c42;fill-opacity:1;fill-rule:nonzero;stroke:none"
         d="m 2504.01,3862.65 h -34.42 l 27.64,160.99 h -9.21 43.84 l -27.85,-160.99" /><path
         id="path172"
         style="fill:#f8a58d;fill-opacity:1;fill-rule:nonzero;stroke:none"
         d="m 1028.89,2325.59 c 50.88,-3.91 94.8,35.26 96.77,86.25 1.88,48.97 3.52,98.48 3.52,98.48 0,0 74.2,6.95 79.59,80.38 5.38,73.44 2.92,242.97 2.92,242.97 -82.84,41.74 -181.79,35.38 -258.612,-16.63 l 4.574,-258.45 v -139.05 c 0.493,-46.63 24.735,-90.38 71.238,-93.95" /><path
         id="path174"
         style="fill:#17282f;fill-opacity:1;fill-rule:nonzero;stroke:none"
         d="m 1135.57,2680.36 c -12.66,15.69 -33.26,21.94 -50.18,10.95 -16.92,-10.99 -23.42,-35.42 -14.22,-53.37 6.49,-12.67 21.28,-24.15 36.03,-27.24 13.86,-2.9 23.7,-16.29 22.08,-30.37 -2.11,-18.43 -11.94,-35.88 -25.78,-51.14 -21.52,-23.73 -53.19,-36.51 -85.01,-40.27 -31.271,-3.7 -67.099,2.82 -85.299,28.53 -13.238,18.71 -14.195,43.15 -14.668,66.06 -1.121,54.15 -2.242,108.3 -3.363,162.44 -0.402,19.52 -0.781,39.28 3.699,58.28 4.485,19 14.434,37.47 30.743,48.2 17.863,11.75 40.488,12.76 60.838,19.34 25.43,8.22 47.03,25.09 70.83,37.27 23.8,12.17 52.97,19.44 76.86,7.45 17.14,-8.6 28.64,-25.72 45.32,-35.2 23.74,-13.5 56.06,-10.44 67.59,-45.35 3.98,-12.06 3.68,-25.31 -0.4,-37.34 -16.1,-47.51 -74.94,-66.66 -117.32,-46.13 -0.83,-8.05 7.09,-25.95 -1.38,-51.37 -2.71,-8.13 -3.67,-20.52 -16.37,-20.74" /><path
         id="path176"
         style="fill:#17282f;fill-opacity:1;fill-rule:nonzero;stroke:none"
         d="m 932.922,2831.53 c 10.422,23.74 20.973,47.97 23.594,73.76 2.629,25.8 -3.926,53.89 -23.145,71.3 -13.004,11.77 -30.871,17.63 -48.406,17.12 -33.567,-0.98 -64.641,-26.16 -73.793,-58.47 -9.156,-32.31 3.48,-69.32 29.676,-90.33 26.195,-21.01 64.218,-25.5 95.14,-12.41" /><path
         id="path178"
         style="fill:#f03d5f;fill-opacity:1;fill-rule:nonzero;stroke:none"
         d="m 947.348,2858.3 c 1.39,0.04 0.203,-13.07 -10.825,-23.72 -10.918,-10.78 -24.043,-11.66 -23.976,-10.26 -0.352,1.48 10.758,4.42 20.336,13.98 9.785,9.35 12.988,20.39 14.465,20" /><path
         id="path180"
         style="fill:#17282f;fill-opacity:1;fill-rule:nonzero;stroke:none"
         d="m 923.195,2840.36 c 0.285,-0.42 -6.488,-7 -19.945,-14.59 -6.746,-3.58 -15.668,-7.29 -26.277,-7.44 -10.254,-0.22 -23.063,3.25 -30.653,13.75 -7.496,10.4 -7.777,23.18 -5.433,33.21 2.453,10.32 7.718,18.22 12.351,24.31 9.676,11.98 16.981,17.88 17.379,17.52 0.68,-0.58 -5.785,-7.53 -14.402,-19.68 -4.098,-6.13 -8.715,-13.88 -10.641,-23.19 -1.914,-9.18 -1.324,-20.48 4.946,-29.09 6.21,-8.68 17.105,-11.96 26.441,-12.03 9.527,-0.12 17.941,2.89 24.652,5.95 13.375,6.46 21.086,12.06 21.582,11.28" /><path
         id="path182"
         style="fill:#17282f;fill-opacity:1;fill-rule:nonzero;stroke:none"
         d="m 798.367,2757.41 c 0.356,0.11 1.543,-2.84 3.578,-8.13 2.11,-5.22 4.899,-13.08 10.817,-20.93 5.726,-7.55 16.316,-15.64 28.761,-13.22 12.325,2.34 23.227,13.7 27.668,27.86 4.774,14.28 5.114,29.22 7.516,42.66 2.211,13.45 6.715,25.71 14.023,33.65 7.133,7.96 15.567,11.47 21.383,12.19 5.903,0.81 9.067,-0.58 8.989,-0.77 -0.043,-0.5 -3.247,0.14 -8.61,-1.22 -5.293,-1.27 -12.75,-4.98 -18.969,-12.6 -6.285,-7.49 -10.191,-18.95 -12.082,-32.02 -2.105,-13.06 -2.222,-28.19 -7.316,-43.57 -4.824,-15.33 -17.086,-28.42 -31.758,-30.91 -7.277,-1.3 -14.476,0.6 -19.914,3.86 -5.496,3.26 -9.609,7.59 -12.656,11.91 -5.984,8.78 -8.219,17 -9.777,22.48 -1.461,5.54 -1.981,8.66 -1.653,8.76" /><path
         id="path184"
         style="fill:#f8a58d;fill-opacity:1;fill-rule:nonzero;stroke:none"
         d="m 762.289,2140.49 c 0,0 -37.434,-274.21 0,-308.96 37.426,-34.76 73.457,-23.23 73.457,-23.23 l 71.274,59.6 14.027,272.59 H 762.289" /><path
         id="path186"
         style="fill:#f03d5f;fill-opacity:1;fill-rule:nonzero;stroke:none"
         d="m 1536.84,2910.23 47.58,51.1 79.29,-63.44 181.5,176.22 43.48,-51.25 -228.5,-225.41 -123.35,112.78" /><path
         id="path188"
         style="fill:#f8a58d;fill-opacity:1;fill-rule:nonzero;stroke:none"
         d="m 1760.41,2896.32 -69,-44.29 c -3.12,27.28 -23.94,54.31 -22.87,40.61 1.07,-13.7 0.13,-84.77 0.13,-84.77 l -123.05,-258.93 c -16.73,-41.02 -50.6,-66.8 -75.92,-72.89 l -114.86,-34.15 44.9,-151.85 159.64,52.93 c 41.42,13.73 73.88,46.29 87.49,87.75 l 110.05,335.24 c 0,0 13.07,38.11 17.78,66.05 4.71,27.94 -14.29,64.3 -14.29,64.3" /><path
         id="path190"
         style="fill:#f03d5f;fill-opacity:1;fill-rule:nonzero;stroke:none"
         d="m 1195.07,64.5703 -1.72,76.7817 -143.84,-2.293 1.33,-112.3598 8.93,-0.4297 c 39.72,-1.5703 202.09,-5.1679 228.5,3.2891 29.45,9.4531 -93.2,35.0117 -93.2,35.0117" /><path
         id="path192"
         style="fill:#f68aa6;fill-opacity:1;fill-rule:nonzero;stroke:none"
         d="m 1050.96,28.7617 -0.62,40.1992 c 1.47,0.1407 2.93,0.211 4.39,0.211 10.59,0 20.83,-3.6914 29.4,-10.1328 9.3,-7 15.98,-17.3985 18.51,-28.7578 l -51.62,-0.3516 -0.06,-1.168" /><path
         id="path194"
         style="fill:#ffffff;fill-opacity:1;fill-rule:nonzero;stroke:none"
         d="m 1058.85,26.1797 c -2.77,0.1601 -5.45,0.3398 -8.01,0.5195 v 0 l 8.93,-0.4297 c 0.76,-0.0312 1.57,-0.0586 2.42,-0.0898 -1.1,0 -2.24,0 -3.34,0" /><path
         id="path196"
         style="fill:#6c7a7f;fill-opacity:1;fill-rule:nonzero;stroke:none"
         d="m 1154.32,23.9297 c -34.85,0 -69.62,0.7109 -95.47,2.25 1.1,0 2.24,0 3.34,0 21.65,-0.8008 71.41,-2.0313 119.09,-2.0313 2.59,0 5.17,0.0118 7.75,0.0118 -11.36,-0.1485 -23.04,-0.2305 -34.71,-0.2305" /><path
         id="path198"
         style="fill:#ffffff;fill-opacity:1;fill-rule:nonzero;stroke:none"
         d="m 1287,29.1914 c 0.45,0.1172 0.88,0.25 1.27,0.3672 4.1,1.3203 5.25,2.9531 4.2,4.7695 0.88,-1.1172 1.08,-2.1875 0.36,-3.1797 -0.51,-0.6992 -2.53,-1.3476 -5.83,-1.957 m -21.72,17.6992 c -3.29,1.0391 -6.73,2.0586 -10.25,3.0703 v 0 c 0,0 4.42,-1.1992 10.25,-3.0703" /><path
         id="path200"
         style="fill:#f57797;fill-opacity:1;fill-rule:nonzero;stroke:none"
         d="m 1181.28,24.1484 c -47.68,0 -97.44,1.2305 -119.09,2.0313 -0.85,0.0312 -1.66,0.0586 -2.42,0.0898 l -8.93,0.4297 0.12,2.0625 v 0 l 52.01,-0.0937 c -0.1,0.5429 -0.21,1.0703 -0.33,1.6133 l 139.96,0.9492 c 0,0 4.06,18.2304 12.43,18.7304 3.52,-1.0117 6.96,-2.0312 10.25,-3.0703 9.84,-3.1406 23.73,-8.1797 27.19,-12.5625 1.05,-1.8164 -0.1,-3.4492 -4.2,-4.7695 -0.39,-0.1172 -0.82,-0.25 -1.27,-0.3672 -14.51,-2.6601 -53.76,-4.4219 -97.97,-5.0312 -2.58,0 -5.16,-0.0118 -7.75,-0.0118" /><path
         id="path202"
         style="fill:#f9b4c6;fill-opacity:1;fill-rule:nonzero;stroke:none"
         d="m 1102.97,28.668 -52.01,0.0937 0.06,1.168 51.62,0.3516 c 0.12,-0.543 0.23,-1.0704 0.33,-1.6133" /><path
         id="path204"
         style="fill:#17282f;fill-opacity:1;fill-rule:nonzero;stroke:none"
         d="m 1048.76,29.9688 c 0,-0.0508 0.85,-0.129 2.48,-0.2188 2.13,-0.1016 4.47,-0.2109 7.11,-0.3203 7.11,-0.1992 15.84,-0.4414 26.16,-0.7305 22.08,-0.4492 52.62,-0.6797 86.33,-0.1875 33.73,0.5 64.24,1.6172 86.31,2.7071 10.3,0.5898 19.03,1.0898 26.12,1.5 2.64,0.1914 4.97,0.3593 7.1,0.5312 1.63,0.1289 2.47,0.2305 2.47,0.3008 0,0.0586 -0.86,0.0703 -2.49,0.0508 -2.13,-0.0703 -4.47,-0.1328 -7.11,-0.211 -7.1,-0.25 -15.83,-0.5625 -26.14,-0.9414 -22.08,-0.7773 -52.58,-1.6875 -86.28,-2.1875 -33.7,-0.4922 -64.21,-0.4609 -86.3,-0.3203 -10.31,0.0586 -19.05,0.1172 -26.16,0.1602 -2.64,0 -4.98,0 -7.12,-0.0118 -1.62,-0.0195 -2.48,-0.0585 -2.48,-0.121" /><path
         id="path206"
         style="fill:#17282f;fill-opacity:1;fill-rule:nonzero;stroke:none"
         d="m 1242.6,29 c 0.53,-0.0586 0.84,6.1914 4.69,12.5586 3.73,6.4219 9.06,9.6914 8.76,10.1406 -0.11,0.4297 -6.24,-2.3789 -10.26,-9.2578 -4.11,-6.832 -3.62,-13.5508 -3.19,-13.4414" /><path
         id="path208"
         style="fill:#17282f;fill-opacity:1;fill-rule:nonzero;stroke:none"
         d="m 1199.83,49.8789 c 0.41,-0.2578 2.4,2.25 4.45,5.582 2.04,3.3399 3.37,6.25 2.96,6.5079 -0.41,0.25 -2.4,-2.2579 -4.45,-5.5899 -2.05,-3.3398 -3.37,-6.25 -2.96,-6.5" /><path
         id="path210"
         style="fill:#17282f;fill-opacity:1;fill-rule:nonzero;stroke:none"
         d="m 1188.08,55.8516 c 0.33,-0.3516 2.58,1.1992 5.02,3.4687 2.44,2.2695 4.16,4.3789 3.84,4.7383 -0.34,0.3516 -2.58,-1.1992 -5.02,-3.457 -2.44,-2.2735 -4.16,-4.3907 -3.84,-4.75" /><path
         id="path212"
         style="fill:#17282f;fill-opacity:1;fill-rule:nonzero;stroke:none"
         d="m 1180.51,69.3203 c 0.01,-0.4922 3.37,-0.8594 7.52,-0.8398 4.15,0.0195 7.51,0.4179 7.51,0.8984 0,0.4922 -3.36,0.8594 -7.51,0.8399 -4.15,-0.0079 -7.52,-0.418 -7.52,-0.8985" /><path
         id="path214"
         style="fill:#17282f;fill-opacity:1;fill-rule:nonzero;stroke:none"
         d="m 1177.84,78.8516 c -0.16,-0.4336 3.53,-2.0235 8.41,-2.3008 4.88,-0.3125 8.73,0.8398 8.63,1.289 -0.09,0.4883 -3.89,0.1485 -8.52,0.4415 -4.64,0.2695 -8.37,1.0585 -8.52,0.5703" /><path
         id="path216"
         style="fill:#17282f;fill-opacity:1;fill-rule:nonzero;stroke:none"
         d="m 1204.51,62.5 c -0.01,-0.1914 3.55,-0.5703 9.24,0.1992 2.84,0.3906 6.2,1.1094 9.81,2.3203 1.79,0.6719 3.67,1.1797 5.6,2.4102 0.9,0.6211 1.9,1.5 2.24,2.9101 0.36,1.379 -0.41,2.9297 -1.46,3.6719 -8.9,4.4375 -17.67,-0.6719 -20.88,-5.2929 -1.77,-2.3477 -2.56,-4.629 -2.92,-6.2071 -0.35,-1.582 -0.31,-2.4922 -0.2,-2.5 0.32,-0.1133 0.57,3.6563 4.09,7.9492 1.73,2.1094 4.38,4.168 7.81,5.2579 3.25,1.0117 7.89,1.3398 11.03,-0.5899 1.48,-1.0586 0.94,-2.7891 -0.68,-3.7891 -1.5,-1 -3.47,-1.6406 -5.16,-2.3007 -3.48,-1.2578 -6.72,-2.0899 -9.48,-2.6172 -5.52,-1.0703 -9.05,-1.1328 -9.04,-1.4219" /><path
         id="path218"
         style="fill:#17282f;fill-opacity:1;fill-rule:nonzero;stroke:none"
         d="m 1206.91,62.0781 c 0.13,-0.0976 1.46,2.2813 0.97,6.4336 -0.25,2.0391 -1.04,4.4492 -2.63,6.7188 -1.66,2.0195 -3.8,4.8086 -7.77,4.5898 -2.14,-0.3008 -3.14,-2.7695 -2.78,-4.3086 0.2,-1.6211 0.94,-3 1.64,-4.1133 1.41,-2.289 2.99,-4.1289 4.45,-5.5273 2.94,-2.7813 5.24,-3.832 5.35,-3.6523 0.15,0.2226 -1.87,1.6328 -4.47,4.5117 -1.29,1.4492 -2.69,3.2812 -3.95,5.4883 -1.3,1.9296 -2.22,5.4296 0.09,5.8906 2.31,0.25 4.71,-2.0078 6.15,-3.8281 1.48,-1.9805 2.32,-4.1211 2.7,-5.9805 0.77,-3.75 -0.06,-6.1602 0.25,-6.2227" /><path
         id="path220"
         style="fill:#17282f;fill-opacity:1;fill-rule:nonzero;stroke:none"
         d="m 1051.09,69.3789 c 0.04,-0.3281 4.11,0.4492 10.63,-0.2187 6.45,-0.6094 15.45,-3.1211 23.33,-9.1993 7.88,-6.0898 12.58,-14.1718 14.8,-20.25 2.29,-6.1211 2.57,-10.2617 2.89,-10.2226 0.11,0.0117 0.14,1.043 -0.04,2.9023 -0.18,1.8594 -0.66,4.5391 -1.69,7.7305 -1.98,6.3594 -6.68,14.8672 -14.89,21.2187 -8.23,6.3399 -17.66,8.7383 -24.3,9.0508 -3.35,0.1875 -6.06,-0.0312 -7.91,-0.3203 -1.85,-0.289 -2.84,-0.5898 -2.82,-0.6914" /><path
         id="path222"
         style="fill:#17282f;fill-opacity:1;fill-rule:nonzero;stroke:none"
         d="m 1065.08,129.461 c -0.48,0 -0.84,-13.242 -0.79,-29.5626 0.04,-16.3281 0.47,-29.5586 0.95,-29.5586 0.48,0 0.83,13.2383 0.79,29.5704 -0.05,16.3088 -0.47,29.5508 -0.95,29.5508" /><path
         id="path224"
         style="fill:#17282f;fill-opacity:1;fill-rule:nonzero;stroke:none"
         d="m 1120.86,42.9688 c -0.06,-0.4571 9.34,-1.8399 21.03,-1.7696 11.69,0.0625 21.07,1.5703 21.01,2.0196 -0.06,0.5 -9.44,-0.2188 -21.02,-0.2696 -11.58,-0.0898 -20.97,0.5196 -21.02,0.0196" /><path
         id="path226"
         style="fill:#17282f;fill-opacity:1;fill-rule:nonzero;stroke:none"
         d="m 1092.67,42.5781 c -0.35,-0.3593 0.79,-1.9765 1.79,-4.1172 1.02,-2.1328 1.54,-4.0429 2.04,-4 0.47,0.0079 0.71,2.2774 -0.46,4.7383 -1.16,2.4727 -3.07,3.7305 -3.37,3.3789" /><path
         id="path228"
         style="fill:#17282f;fill-opacity:1;fill-rule:nonzero;stroke:none"
         d="m 1081.84,55.6406 c -0.34,-0.3515 0.61,-1.832 2.12,-3.3125 1.52,-1.5 3.02,-2.4101 3.35,-2.0664 0.34,0.3399 -0.61,1.8164 -2.12,3.3086 -1.52,1.4805 -3.01,2.4102 -3.35,2.0703" /><path
         id="path230"
         style="fill:#17282f;fill-opacity:1;fill-rule:nonzero;stroke:none"
         d="m 1066.55,61.4414 c 0.1,-0.4922 2.01,-0.4414 4.14,-1.1523 2.14,-0.6602 3.66,-1.8086 4.03,-1.4805 0.39,0.2695 -0.85,2.3008 -3.5,3.1406 -2.63,0.8594 -4.83,-0.0586 -4.67,-0.5078" /><path
         id="path232"
         style="fill:#17282f;fill-opacity:1;fill-rule:nonzero;stroke:none"
         d="m 1055.68,64.1211 c -0.17,-0.4414 0.67,-1.1719 1.87,-1.6211 1.2,-0.4492 2.31,-0.4414 2.48,0.0117 0.16,0.4571 -0.67,1.1797 -1.87,1.6172 -1.2,0.4492 -2.31,0.4414 -2.48,-0.0078" /><path
         id="path234"
         style="fill:#f03d5f;fill-opacity:1;fill-rule:nonzero;stroke:none"
         d="m 687.5,89.1289 48.766,59.3321 -110.536,92.059 -72.265,-86.032 6.484,-6.148 C 589.043,121.238 709.773,12.6094 735.309,1.80859 763.797,-10.2305 687.5,89.1289 687.5,89.1289" /><path
         id="path236"
         style="fill:#ededeb;fill-opacity:1;fill-rule:nonzero;stroke:none"
         d="m 579.766,185.801 0.875,1.051 c 0.004,0 0.004,0 0.004,0 l -0.879,-1.051" /><path
         id="path238"
         style="fill:#f68aa6;fill-opacity:1;fill-rule:nonzero;stroke:none"
         d="m 595.066,123.41 -39.367,33.399 -0.808,-0.84 v 0 l 24.875,29.832 0.879,1.051 c 9.96,-7.032 16.539,-17.653 19.144,-29.563 2.488,-11.371 0.762,-23.609 -4.723,-33.879" /><path
         id="path240"
         style="fill:#ffffff;fill-opacity:1;fill-rule:nonzero;stroke:none"
         d="m 739.527,0 c -0.953,0 -2.812,0.828125 -5.441,2.37109 0.43,-0.21093 0.84,-0.40234 1.223,-0.5625 1.629,-0.6875 2.914,-1.007809 3.89,-1.007809 1.406,0 2.176,0.667969 2.406,1.890629 C 741.547,1.26172 741,0.308594 739.801,0.03125 739.723,0.0117188 739.629,0 739.527,0 m -10.839,30.75 c -1.61,2.5781 -3.313,5.2305 -5.075,7.9102 0.617,-0.9219 2.617,-3.9414 5.075,-7.9102 m -71.883,31.4805 c -25.895,21.6601 -53.567,45.7385 -76.285,66.5785 0.082,0.16 0.164,0.32 0.246,0.472 20.105,-18.211 48.648,-43.6326 76.039,-67.0505" /><path
         id="path242"
         style="fill:#e8e9e6;fill-opacity:1;fill-rule:nonzero;stroke:none"
         d="m 580.52,128.809 c -10.227,9.39 -19.454,18.121 -27.055,25.679 v 0 l 6.484,-6.148 c 4.758,-4.43 11.973,-11.051 20.817,-19.059 -0.082,-0.152 -0.164,-0.312 -0.246,-0.472" /><path
         id="path244"
         style="fill:#f57797;fill-opacity:1;fill-rule:nonzero;stroke:none"
         d="m 739.199,0.800781 c -0.976,0 -2.261,0.320309 -3.89,1.007809 -0.383,0.16016 -0.793,0.35157 -1.223,0.5625 -12.719,7.4375 -43.481,31.58981 -77.281,59.85941 -27.391,23.4179 -55.934,48.8395 -76.039,67.0505 -8.844,8.008 -16.059,14.629 -20.817,19.059 l -6.484,6.148 1.426,1.481 39.375,-33.989 c 0.277,0.469 0.543,0.95 0.8,1.43 L 701.785,32.8711 c 0,0 9.934,7.4102 17.215,7.4102 1.66,0 3.18,-0.3907 4.418,-1.3321 0,0 0.066,-0.0976 0.195,-0.289 1.762,-2.6797 3.465,-5.3321 5.075,-7.9102 5.457,-8.8008 13.152,-22.30859 12.917,-28.05859 -0.23,-1.22266 -1,-1.890629 -2.406,-1.890629" /><path
         id="path246"
         style="fill:#f9b4c6;fill-opacity:1;fill-rule:nonzero;stroke:none"
         d="m 594.266,121.98 -39.375,33.989 0.808,0.84 39.367,-33.399 c -0.257,-0.48 -0.523,-0.961 -0.8,-1.43" /><path
         id="path248"
         style="fill:#17282f;fill-opacity:1;fill-rule:nonzero;stroke:none"
         d="m 554.023,158.32 c -0.039,-0.05 0.555,-0.66 1.727,-1.781 1.555,-1.469 3.258,-3.07 5.18,-4.891 5.261,-4.777 11.722,-10.66 19.355,-17.597 16.449,-14.762 39.453,-34.8401 65.328,-56.4494 25.891,-21.6211 49.75,-40.6719 67.2,-54.2422 C 721,17.0898 727.941,11.7813 733.586,7.44922 735.711,5.87891 737.59,4.5 739.309,3.23047 c 1.32,-0.94922 2.031,-1.42969 2.066,-1.37891 0.039,0.04688 -0.602,0.60938 -1.852,1.66016 -1.66,1.34766 -3.468,2.81641 -5.519,4.47656 -5.555,4.45312 -12.375,9.90232 -20.426,16.33982 -17.246,13.8125 -40.973,33 -66.848,54.6133 -25.863,21.5976 -48.972,41.5196 -65.628,56.0276 -7.774,6.781 -14.36,12.519 -19.715,17.191 -2.008,1.719 -3.782,3.238 -5.403,4.629 -1.25,1.063 -1.921,1.582 -1.961,1.531" /><path
         id="path250"
         style="fill:#17282f;fill-opacity:1;fill-rule:nonzero;stroke:none"
         d="m 700.324,31.168 c 0.364,-0.3985 4.68,4.1406 11.742,6.4609 7.028,2.4297 13.2,1.4492 13.258,1.9727 0.196,0.3984 -6.273,2.2695 -13.816,-0.3203 -7.567,-2.5118 -11.582,-7.9102 -11.184,-8.1133" /><path
         id="path252"
         style="fill:#17282f;fill-opacity:1;fill-rule:nonzero;stroke:none"
         d="m 681.516,74.8906 c 0.148,-0.4609 3.293,0.1407 7.023,1.3282 3.727,1.1992 6.629,2.5429 6.484,3 -0.148,0.4609 -3.293,-0.1407 -7.015,-1.3399 -3.735,-1.1875 -6.637,-2.5273 -6.492,-2.9883" /><path
         id="path254"
         style="fill:#17282f;fill-opacity:1;fill-rule:nonzero;stroke:none"
         d="m 676.516,87.0781 c 0.019,-0.4765 2.734,-0.7695 6.058,-0.6484 3.332,0.1289 6.02,0.6094 5.996,1.0898 -0.011,0.4922 -2.726,0.7696 -6.058,0.6602 -3.328,-0.1289 -6.016,-0.6211 -5.996,-1.1016" /><path
         id="path256"
         style="fill:#17282f;fill-opacity:1;fill-rule:nonzero;stroke:none"
         d="m 679.559,102.219 c -0.317,-0.36 1.992,-2.8401 5.152,-5.5393 3.152,-2.6914 5.965,-4.5781 6.281,-4.2188 0.309,0.3789 -1.996,2.8594 -5.152,5.5508 -3.156,2.6993 -5.969,4.5783 -6.281,4.2073" /><path
         id="path258"
         style="fill:#17282f;fill-opacity:1;fill-rule:nonzero;stroke:none"
         d="m 683.75,111.191 c -0.402,-0.222 1.352,-3.832 4.871,-7.23 3.5,-3.41 7.164,-5.0626 7.379,-4.6524 0.258,0.4297 -2.844,2.6604 -6.168,5.9024 -3.344,3.219 -5.66,6.258 -6.082,5.98" /><path
         id="path260"
         style="fill:#17282f;fill-opacity:1;fill-rule:nonzero;stroke:none"
         d="m 693.305,81.3984 c -0.137,-0.1367 2.312,-2.7382 7.133,-5.8671 2.406,-1.5625 5.425,-3.2032 8.949,-4.6407 1.793,-0.6601 3.547,-1.5 5.812,-1.8203 1.094,-0.1211 2.422,-0.1094 3.598,0.7383 1.176,0.8203 1.605,2.4922 1.289,3.7305 -3.856,9.1797 -13.832,11.0195 -19.277,9.6211 -2.879,-0.6407 -4.965,-1.8516 -6.266,-2.8008 -1.297,-0.9805 -1.852,-1.6914 -1.781,-1.7696 0.172,-0.3085 2.812,2.3907 8.281,3.3594 2.695,0.4688 6.047,0.3008 9.352,-1.1211 3.125,-1.3398 6.863,-4.1172 7.984,-7.6289 0.43,-1.7695 -1.113,-2.7383 -2.996,-2.4297 -1.797,0.211 -3.688,1.0196 -5.41,1.6211 -3.457,1.3086 -6.457,2.8008 -8.895,4.1992 -4.883,2.7813 -7.594,5.0313 -7.773,4.8086" /><path
         id="path262"
         style="fill:#17282f;fill-opacity:1;fill-rule:nonzero;stroke:none"
         d="m 694.848,79.5195 c 0.039,-0.1601 2.597,0.7813 4.929,4.2422 1.133,1.7071 2.11,4.0586 2.383,6.8086 0.067,2.6211 0.262,6.1289 -2.89,8.5391 -1.821,1.1716 -4.184,-0.0313 -4.922,-1.4492 -0.907,-1.3516 -1.239,-2.8789 -1.434,-4.1797 -0.426,-2.6524 -0.43,-5.0821 -0.234,-7.0899 0.414,-4.0312 1.476,-6.332 1.668,-6.2617 0.269,0.0703 -0.352,2.4492 -0.434,6.3399 -0.039,1.9296 0.094,4.2421 0.574,6.7421 0.282,2.3008 1.864,5.5508 3.91,4.3907 1.922,-1.3125 2.258,-4.5899 2.161,-6.9024 -0.161,-2.4687 -0.922,-4.6406 -1.84,-6.3008 -1.864,-3.3398 -4.063,-4.6289 -3.871,-4.8789" /><path
         id="path264"
         style="fill:#17282f;fill-opacity:1;fill-rule:nonzero;stroke:none"
         d="m 581.484,186.672 c -0.183,-0.274 3.414,-2.332 7.918,-7.094 4.489,-4.668 9.672,-12.437 11.684,-22.18 2.004,-9.757 0.301,-18.949 -1.981,-25.007 -2.265,-6.153 -4.757,-9.469 -4.476,-9.641 0.082,-0.059 0.785,0.699 1.859,2.219 1.078,1.531 2.453,3.883 3.766,6.972 2.637,6.11 4.629,15.629 2.543,25.809 -2.098,10.16 -7.684,18.121 -12.516,22.699 -2.422,2.321 -4.613,3.942 -6.207,4.91 -1.59,0.981 -2.539,1.403 -2.59,1.313" /><path
         id="path266"
         style="fill:#17282f;fill-opacity:1;fill-rule:nonzero;stroke:none"
         d="m 631.273,223.102 c -0.367,0.308 -9.269,-9.493 -19.878,-21.903 -10.618,-12.398 -18.926,-22.711 -18.559,-23.019 0.363,-0.321 9.266,9.492 19.883,21.89 10.609,12.399 18.922,22.719 18.554,23.032" /><path
         id="path268"
         style="fill:#17282f;fill-opacity:1;fill-rule:nonzero;stroke:none"
         d="m 617.148,121.16 c -0.332,-0.32 5.875,-7.492 14.793,-15.051 8.899,-7.5895 16.989,-12.5582 17.239,-12.1793 0.285,0.4101 -7.297,5.9883 -16.11,13.5113 -8.836,7.477 -15.558,14.071 -15.922,13.719" /><path
         id="path270"
         style="fill:#17282f;fill-opacity:1;fill-rule:nonzero;stroke:none"
         d="m 595.523,139.238 c -0.496,-0.047 -0.687,-2.019 -1.328,-4.289 -0.613,-2.277 -1.461,-4.07 -1.062,-4.359 0.355,-0.301 2.027,1.269 2.746,3.898 0.73,2.621 0.105,4.821 -0.356,4.75" /><path
         id="path272"
         style="fill:#17282f;fill-opacity:1;fill-rule:nonzero;stroke:none"
         d="m 595.832,156.199 c -0.48,-0.031 -0.727,-1.781 -0.551,-3.89 0.176,-2.11 0.711,-3.789 1.192,-3.75 0.476,0.043 0.722,1.781 0.547,3.89 -0.176,2.11 -0.707,3.789 -1.188,3.75" /><path
         id="path274"
         style="fill:#17282f;fill-opacity:1;fill-rule:nonzero;stroke:none"
         d="m 588.023,170.578 c -0.23,-0.437 1.247,-1.648 2.391,-3.566 1.191,-1.903 1.598,-3.774 2.094,-3.762 0.469,-0.039 0.851,2.301 -0.606,4.66 -1.441,2.379 -3.707,3.11 -3.879,2.668" /><path
         id="path276"
         style="fill:#17282f;fill-opacity:1;fill-rule:nonzero;stroke:none"
         d="m 581.535,179.699 c -0.418,-0.23 -0.258,-1.328 0.363,-2.449 0.622,-1.121 1.465,-1.84 1.887,-1.602 0.422,0.231 0.262,1.332 -0.359,2.454 -0.621,1.109 -1.465,1.839 -1.891,1.597" /><path
         id="path278"
         style="fill:#17282f;fill-opacity:1;fill-rule:nonzero;stroke:none"
         d="m 986.836,1695.95 c 0,0 -47.887,-202.63 -34.348,-242.71 13.539,-40.09 101.292,-63.27 101.292,-63.27 L 1050.81,835.109 565.57,235.32 744.758,88.6992 c 0,0 525.302,600.9298 571.612,709.7418 46.3,108.821 -29.52,906.489 -29.52,906.489 l -300.014,-8.98" /><path
         id="path280"
         style="fill:#17282f;fill-opacity:1;fill-rule:nonzero;stroke:none"
         d="M 1234.68,1778.57 1258.42,93.3008 1011.56,92.0508 887.684,1464.61 c -26.188,24.99 -63.024,67.81 -57.95,163.27 l 6.012,110.91 398.934,39.78" /><path
         id="path282"
         style="fill:#33535f;fill-opacity:1;fill-rule:nonzero;stroke:none"
         d="m 974.387,741.289 c -0.086,0.07 0.394,0.922 1.426,2.5 1.277,1.879 2.82,4.152 4.687,6.922 4.535,6.41 10.676,15.09 18.352,25.949 16.408,22.719 39.348,54.481 66.968,92.719 l -0.41,-1.277 c -5.38,58.5 -11.9,129.429 -18.92,205.908 -8.96,100.24 -16.22,191.05 -20.49,256.86 -2.18,32.9 -3.61,59.55 -4.41,77.98 -0.3,8.81 -0.54,15.86 -0.72,21.22 -0.11,4.86 -0.08,7.41 0.1,7.42 0.18,0.01 0.5,-2.53 0.95,-7.36 0.43,-5.34 0.99,-12.37 1.7,-21.16 1.47,-18.96 3.53,-45.39 6.05,-77.82 5.21,-65.72 13.05,-156.46 22,-256.67 6.73,-76.761 13.59,-147.57 18.02,-206.359 l 0.05,-0.66 -0.47,-0.621 c -28.23,-37.789 -51.67,-69.18 -68.44,-91.629 -8.072,-10.57 -14.521,-19.02 -19.287,-25.27 -2.082,-2.613 -3.785,-4.761 -5.195,-6.543 -1.207,-1.449 -1.871,-2.179 -1.961,-2.109" /><path
         id="path284"
         style="fill:#33535f;fill-opacity:1;fill-rule:nonzero;stroke:none"
         d="m 1050.16,1437.49 c -0.22,-1.38 -29.63,2.2 -65.351,9.73 -35.746,7.48 -64.118,16.03 -63.762,17.39 0.367,1.43 29.215,-4.84 64.832,-12.29 35.591,-7.5 64.521,-13.37 64.281,-14.83" /><path
         id="path286"
         style="fill:#33535f;fill-opacity:1;fill-rule:nonzero;stroke:none"
         d="m 1219.24,862.109 c -0.66,-1.589 -28.35,14.602 -66.66,17.379 -38.28,3.301 -68.18,-8.328 -68.58,-6.648 -0.22,0.539 6.85,4.191 19.24,7.519 12.34,3.36 30.15,5.832 49.75,4.309 19.59,-1.578 36.78,-6.816 48.44,-12.09 11.71,-5.226 18.11,-9.957 17.81,-10.469" /><path
         id="path288"
         style="fill:#33535f;fill-opacity:1;fill-rule:nonzero;stroke:none"
         d="m 1306.31,784.02 c 1.14,-0.872 -68.29,-94.079 -155.08,-208.149 C 1064.42,461.762 993.145,369.988 992,370.859 c -1.148,0.871 68.28,94.059 155.09,208.172 86.78,114.071 158.07,205.86 159.22,204.989" /><path
         id="path290"
         style="fill:#33535f;fill-opacity:1;fill-rule:nonzero;stroke:none"
         d="m 1272.87,1653.38 c 0.45,-0.15 -2.94,-8.78 -13.89,-18.34 -10.61,-9.44 -30.1,-19.03 -52.63,-16.76 -22.52,2.48 -39.59,15.92 -47.99,27.38 -8.72,11.64 -10.23,20.77 -9.76,20.83 0.88,0.37 3.63,-8.09 12.62,-18.51 8.7,-10.32 24.96,-22.25 45.67,-24.51 20.72,-2.11 39.11,6.17 49.77,14.44 10.97,8.31 15.43,16.02 16.21,15.47" /><path
         id="path292"
         style="fill:#17282f;fill-opacity:1;fill-rule:nonzero;stroke:none"
         d="m 935.586,2520.48 c -40.195,38.17 -64.731,92.36 -66.883,147.74 -2.152,55.39 18.094,111.32 55.195,152.5" /><path
         id="path294"
         style="fill:#f03d5f;fill-opacity:1;fill-rule:nonzero;stroke:none"
         d="m 796.945,2363.28 c 0,0 -53.632,-60.58 -64.742,-292.3 0,0 152.731,-28.98 155.52,-20.65 2.793,8.34 -90.778,312.95 -90.778,312.95" /><path
         id="path296"
         style="fill:#ba2c42;fill-opacity:1;fill-rule:nonzero;stroke:none"
         d="m 854.641,2050.9 c -45.676,5.51 -122.438,20.08 -122.438,20.08 11.11,231.72 64.742,292.3 64.742,292.3 0,0 0,0 0.004,-0.01 -3.972,-6.14 -7.48,-12.91 -10.457,-20.4 -4.379,-11.02 -6.34,-23.61 -6.328,-37.35 0.031,-34.8 12.707,-77.04 30.801,-120.21 l 43.676,-134.41" /><path
         id="path298"
         style="fill:#f03d5f;fill-opacity:1;fill-rule:nonzero;stroke:none"
         d="m 821.68,1688.44 h 468.88 l -7.57,73.23 c 0,0 -53.58,278.67 -53.19,282.34 l 8.45,17.75 c 22.13,46.51 22.88,100.35 2.05,147.45 l 229.59,78.51 -56.21,189.45 c -104.18,-17.6 -261.66,-37.21 -261.66,-37.21 l -23.44,-1.97 c 0,0 -162.564,-8.48 -166.037,-8.9 -68.008,-8.22 -147.125,-13.44 -176.051,-86.22 -15.465,-38.92 -0.769,-97.33 24.473,-157.56 l 60.109,-184.97 c 24,-101.67 -14.304,-96.84 -35.328,-199.16 -3.18,-15.48 -14.383,-98.55 -14.066,-112.74" /><path
         id="path300"
         style="fill:#ba2c42;fill-opacity:1;fill-rule:nonzero;stroke:none"
         d="M 1290.56,1688.44 H 821.68 c -0.004,0.19 -0.008,0.4 -0.008,0.62 0,15.83 10.937,96.85 14.074,112.12 16.301,79.34 42.992,94.25 42.973,144.35 -0.008,14.51 -2.254,31.97 -7.645,54.81 l -60.109,184.97 c -18.094,43.17 -30.77,85.41 -30.801,120.21 -0.012,13.74 1.949,26.33 6.328,37.35 28.926,72.78 108.043,78 176.051,86.22 3.473,0.42 166.037,8.9 166.037,8.9 l 23.44,1.97 c 0,0 157.48,19.61 261.66,37.21 l 56.21,-189.45 -24.05,-8.22 -205.54,-70.29 v 0 c 10.09,-22.82 15.11,-47.21 15.1,-71.59 -0.02,-25.95 -5.74,-51.88 -17.15,-75.86 l -8.45,-17.75 c 0,-0.01 0,-0.03 0,-0.05 0.02,-5.79 53.19,-282.29 53.19,-282.29 l 7.57,-73.23" /><path
         id="path302"
         style="fill:#17282f;fill-opacity:1;fill-rule:nonzero;stroke:none"
         d="m 1467.74,2284.65 c 0.11,-0.34 -3.52,-1.85 -10.18,-4.28 -6.67,-2.43 -16.36,-5.79 -28.37,-9.83 -24.01,-8.11 -57.34,-18.86 -94.14,-30.63 -36.8,-11.77 -69.71,-23.47 -93.07,-33.12 -11.72,-4.73 -21.04,-8.94 -27.55,-11.72 -6.46,-2.9 -10.11,-4.37 -10.27,-4.05 -0.17,0.32 3.17,2.39 9.37,5.86 6.26,3.35 15.39,8.1 27,13.29 23.12,10.58 56.05,22.9 92.93,34.7 36.85,11.78 70.32,21.96 94.62,29.18 12.15,3.59 22.02,6.41 28.87,8.25 6.85,1.84 10.68,2.69 10.79,2.35" /><path
         id="path304"
         style="fill:#fafaf9;fill-opacity:1;fill-rule:nonzero;stroke:none"
         d="m 1440.49,2385.52 c 0,-1.44 -138.63,-2.61 -309.6,-2.61 -171.023,0 -309.62,1.17 -309.62,2.61 0,1.43 138.597,2.6 309.62,2.6 170.97,0 309.6,-1.17 309.6,-2.6" /><path
         id="path306"
         style="fill:#fafaf9;fill-opacity:1;fill-rule:nonzero;stroke:none"
         d="m 1454.78,2293.43 c 0,-1.44 -154.27,-2.61 -344.53,-2.61 -190.32,0 -344.555,1.17 -344.555,2.61 0,1.43 154.235,2.6 344.555,2.6 190.26,0 344.53,-1.17 344.53,-2.6" /><path
         id="path308"
         style="fill:#fafaf9;fill-opacity:1;fill-rule:nonzero;stroke:none"
         d="m 804.066,2188.63 c 0,-1.43 -12.855,-2.6 -28.711,-2.6 -15.859,0 -28.714,1.17 -28.714,2.6 0,1.44 12.855,2.6 28.714,2.6 15.856,0 28.711,-1.16 28.711,-2.6" /><path
         id="path310"
         style="fill:#fafaf9;fill-opacity:1;fill-rule:nonzero;stroke:none"
         d="m 1254.72,2185.46 c 0,-1.44 -100.89,-2.6 -225.31,-2.6 -124.476,0 -225.344,1.16 -225.344,2.6 0,1.43 100.868,2.6 225.344,2.6 124.42,0 225.31,-1.17 225.31,-2.6" /><path
         id="path312"
         style="fill:#fafaf9;fill-opacity:1;fill-rule:nonzero;stroke:none"
         d="m 1244.79,2077.49 c 0,-1.44 -90.55,-2.6 -202.23,-2.6 -111.712,0 -202.24,1.16 -202.24,2.6 0,1.44 90.528,2.6 202.24,2.6 111.68,0 202.23,-1.16 202.23,-2.6" /><path
         id="path314"
         style="fill:#fafaf9;fill-opacity:1;fill-rule:nonzero;stroke:none"
         d="m 1241.86,1977.46 c 0,-1.44 -82.08,-2.6 -183.3,-2.6 -101.251,0 -183.314,1.16 -183.314,2.6 0,1.44 82.063,2.6 183.314,2.6 101.22,0 183.3,-1.16 183.3,-2.6" /><path
         id="path316"
         style="fill:#fafaf9;fill-opacity:1;fill-rule:nonzero;stroke:none"
         d="m 1257.9,1896.49 c 0,-1.45 -87.8,-2.61 -196.08,-2.61 -108.316,0 -196.097,1.16 -196.097,2.61 0,1.43 87.781,2.6 196.097,2.6 108.28,0 196.08,-1.17 196.08,-2.6" /><path
         id="path318"
         style="fill:#fafaf9;fill-opacity:1;fill-rule:nonzero;stroke:none"
         d="m 1283.3,1793.28 c 0,-1.44 -99.88,-2.6 -223.07,-2.6 -123.226,0 -223.089,1.16 -223.089,2.6 0,1.44 99.863,2.6 223.089,2.6 123.19,0 223.07,-1.16 223.07,-2.6" /><path
         id="path320"
         style="fill:#17282f;fill-opacity:1;fill-rule:nonzero;stroke:none"
         d="m 868.266,2008.99 c -0.348,-0.11 -1.801,3.18 -4.149,9.22 -2.746,7.14 -6.031,15.66 -9.855,25.58 -8.254,21.63 -19.867,51.44 -31.949,84.69 -12.137,33.23 -22.098,63.72 -28.399,86.06 -3.137,11.17 -5.492,20.26 -6.836,26.62 -1.383,6.34 -1.98,9.89 -1.637,9.98 0.77,0.19 4.805,-13.55 11.993,-35.53 7.179,-21.98 17.652,-52.17 29.777,-85.36 12.059,-33.19 23.141,-63.22 30.516,-85.21 3.707,-10.98 6.531,-19.94 8.312,-26.18 1.758,-6.25 2.563,-9.76 2.227,-9.87" /></g></g></svg>