<?xml version="1.0" encoding="UTF-8" standalone="no"?>
<svg
   xmlns:dc="http://purl.org/dc/elements/1.1/"
   xmlns:cc="http://creativecommons.org/ns#"
   xmlns:rdf="http://www.w3.org/1999/02/22-rdf-syntax-ns#"
   xmlns:svg="http://www.w3.org/2000/svg"
   xmlns="http://www.w3.org/2000/svg"
   viewBox="0 0 1000 666.66669"
   height="666.66669"
   width="1000"
   xml:space="preserve"
   id="svg2"
   version="1.1"><metadata
     id="metadata8"><rdf:RDF><cc:Work
         rdf:about=""><dc:format>image/svg+xml</dc:format><dc:type
           rdf:resource="http://purl.org/dc/dcmitype/StillImage" /></cc:Work></rdf:RDF></metadata><defs
     id="defs6" /><g
     transform="matrix(1.3333333,0,0,-1.3333333,0,666.66667)"
     id="g10"><g
       transform="scale(0.1)"
       id="g12"><path
         id="path14"
         style="fill:#ffffff;fill-opacity:1;fill-rule:nonzero;stroke:none"
         d="M 7500,0 H 0 V 5000 H 7500 V 0" /><path
         id="path16"
         style="fill:#fde6d5;fill-opacity:1;fill-rule:nonzero;stroke:none"
         d="m 736.734,2992.51 c 308.106,383.84 697.356,570.82 1531.806,610.34 834.45,39.52 1034.79,-595 2387.8,-464.52 1353.01,130.48 2063.01,91.95 2318.72,-274.5 255.72,-366.45 371.43,-1572.01 -1634.28,-1406.37 -2005.72,165.64 -2645.8,474.2 -3560.05,307.06 -914.242,-167.14 -1287.097,-111.63 -1377.097,156.33 -90,267.96 187.5,890.26 333.101,1071.66" /><path
         id="path18"
         style="fill:#fde6d5;fill-opacity:1;fill-rule:nonzero;stroke:none"
         d="m 638.578,878.762 c 0,0 1362.592,14.468 3097.702,0 C 5471.41,864.289 6703.54,863.68 6906.89,748.27 7110.25,632.859 7022.48,427.141 5947.88,478.57 4873.28,530 4266.18,694.301 3624.7,599.289 c -641.48,-95 -1189.18,15.231 -1704.85,11.543 -515.68,-3.691 -1257.346,-65.5 -1496.592,48.977 -239.25,114.48 11.898,217.191 215.32,218.953" /><path
         id="path20"
         style="fill:#f5811f;fill-opacity:1;fill-rule:nonzero;stroke:none"
         d="M 3491.56,4107.79 H 2996.4 c -47.1,0 -85.28,-38.18 -85.28,-85.27 v -342.84 c 0,-47.1 38.18,-85.28 85.28,-85.28 h 59.64 c -15.73,-44.75 -33.82,-105.69 -18.45,-112.55 17.4,-7.76 97.22,67.65 142.57,112.55 h 311.4 c 47.1,0 85.28,38.18 85.28,85.28 v 342.84 c 0,47.09 -38.18,85.27 -85.28,85.27" /><path
         id="path22"
         style="fill:#ffffff;fill-opacity:1;fill-rule:nonzero;stroke:none"
         d="m 3265.81,3702.56 c -1.2,-30.06 -26.51,-53.43 -57.06,-52.22 -30.06,1.2 -53.44,26.52 -52.24,56.58 1.22,30.55 26.53,53.92 56.6,52.72 30.55,-1.22 53.92,-26.53 52.7,-57.08 z m -135.28,252.19 c -22.02,11.74 -28.2,40.86 -12.24,60.05 18.88,22.7 52.08,45.8 108.15,43.56 71.6,-2.85 133.69,-52.17 131.01,-119.47 -1.86,-46.77 -37.85,-74.02 -84.45,-91.76 -16.51,-6.52 -17.52,-19.86 -18.15,-35.61 v 0 c -0.59,-14.76 -13.03,-26.26 -27.79,-25.67 l -25.3,1.01 c -14.76,0.59 -26.25,13.03 -25.66,27.79 l 1.01,25.3 c 0.83,21 2.47,38.15 24.5,51.13 29.86,17.46 57.12,17.8 58.47,51.69 0.91,22.91 -15.62,39.82 -37.1,40.68 -19.47,0.77 -33.63,-7.87 -43.36,-19.2 -12.22,-14.24 -32.54,-18.33 -49.09,-9.5 v 0" /><path
         id="path24"
         style="fill:#f68a81;fill-opacity:1;fill-rule:nonzero;stroke:none"
         d="m 2920.03,966.672 37.89,-149.524 50.52,-11.257 88.42,11.257 -32.43,149.524 h -144.4" /><path
         id="path26"
         style="fill:#185885;fill-opacity:1;fill-rule:nonzero;stroke:none"
         d="m 2948.7,824.07 c 0,0 7.29,-99.019 12.29,-114.449 5.01,-15.441 14.76,-13.859 14.76,-13.859 0,0 55.08,-16.403 92.15,-22.203 37.05,-5.778 82.12,-15.418 126.2,-13.5 44.06,1.933 61.1,7.722 61.1,22.203 0,14.457 -5.01,42.437 -59.1,75.238 -54.09,32.801 -85.14,54.031 -85.14,54.031 0,0 -10.01,17.371 -29.05,24.117 -19.02,6.75 -63.43,-20.257 -74.78,-23.148 -11.35,-2.898 -45.41,22.191 -58.43,11.57" /><path
         id="path28"
         style="fill:#f68a81;fill-opacity:1;fill-rule:nonzero;stroke:none"
         d="M 2399.74,948.02 V 831.762 l 78.4,-22.25 50.77,22.25 V 948.02 h -129.17" /><path
         id="path30"
         style="fill:#185885;fill-opacity:1;fill-rule:nonzero;stroke:none"
         d="m 2386.82,831.762 c 0,0 -35.88,-34.461 -93.29,-71.774 -57.42,-37.308 -58.85,-45.929 -55.98,-68.898 2.87,-22.949 142.09,-15.781 195.2,-7.168 53.1,8.609 74.63,12.918 74.63,12.918 l 35.88,11.48 -14.35,132.051 c 0,0 -33.01,-11.48 -47.54,-12.562 -14.53,-1.079 -47.37,24.761 -68.89,30.14 -21.54,5.383 -26.02,-19.008 -25.66,-26.187" /><path
         id="path32"
         style="fill:#f68a81;fill-opacity:1;fill-rule:nonzero;stroke:none"
         d="m 3450.73,3389.8 c -11.01,-1.9 -27.08,-22.77 -35.61,-34.93 l -5.14,0.79 c 12.58,19.34 41.95,51.29 22.03,46.52 -17.86,-4.27 -34.88,-32.24 -41.15,-43.61 l -6.42,0.99 c 12.26,20.77 45.78,58.24 24.27,52.86 -19.93,-4.98 -38.85,-39.48 -44.14,-49.84 l -3.66,0.56 c 11.64,20.38 27.97,45.24 11.76,39.56 -18.02,-6.32 -32.62,-39.61 -36.84,-50.1 -9.59,-9.92 -20.63,-22.03 -27.83,-30 -6.24,24.74 -22.28,55.15 -30.05,53.21 -8.61,-2.16 1.08,-31.22 2.69,-51.14 1.08,-13.26 7.16,-28.63 11.1,-37.45 -25.02,-50.04 -101.46,-170.04 -141.39,-258.32 l -109.76,114.39 -160.72,-94.73 c 0,0 178.4,-233.96 248.99,-223.19 157.06,23.97 235.94,358.4 252.74,439.02 v 0 l 49.67,84.55 v 0 c 0,0 35.06,43.55 19.46,40.86" /><path
         id="path34"
         style="fill:#f68a81;fill-opacity:1;fill-rule:nonzero;stroke:none"
         d="m 2664.07,3339.88 -59.58,-58.07 -104.08,38.68 c 2.01,16.98 1.9,34.16 0.8,49.43 -0.7,9.75 -1.71,18.79 -2.81,26.63 -2.52,17.78 -5.43,29.53 -5.43,29.53 l 156.23,7.44 c -1,-6.43 -1.3,-13.36 -1,-20.4 0.3,-7.83 1.2,-15.77 2.61,-23.4 4.52,-26.73 13.26,-49.84 13.26,-49.84" /><path
         id="path36"
         style="fill:#f46e66;fill-opacity:1;fill-rule:nonzero;stroke:none"
         d="m 2650.81,3389.72 c -17.58,-15.48 -48.93,-40.5 -70.13,-41.9 -21.2,-1.41 -58.27,12.96 -79.47,22.1 -0.7,9.75 -1.71,18.79 -2.81,26.63 6.33,-3.32 40.09,-19.6 80.07,-12.86 29.14,4.92 55.26,19.79 69.73,29.43 0.3,-7.83 1.2,-15.77 2.61,-23.4" /><path
         id="path38"
         style="fill:#f68a81;fill-opacity:1;fill-rule:nonzero;stroke:none"
         d="m 2359.16,3684.15 c 0,0 22.9,-153.69 39.62,-206.09 16.73,-52.4 109.88,-96.74 174.69,-97.63 55.09,-0.76 133.36,79.21 145.86,124.51 12.51,45.29 -4.78,247.44 -4.78,247.44 0,0 -240.83,196.32 -355.39,-68.23" /><path
         id="path40"
         style="fill:#185885;fill-opacity:1;fill-rule:nonzero;stroke:none"
         d="m 2497.19,3596.18 c 1.34,-10.34 -2.33,-19.34 -8.19,-20.1 -5.87,-0.76 -11.71,7 -13.05,17.34 -1.35,10.35 2.32,19.35 8.19,20.11 5.86,0.76 11.7,-7.01 13.05,-17.35" /><path
         id="path42"
         style="fill:#185885;fill-opacity:1;fill-rule:nonzero;stroke:none"
         d="m 2630.63,3614.22 c 0.97,-10.39 -3.02,-19.25 -8.91,-19.8 -5.89,-0.55 -11.45,7.43 -12.42,17.81 -0.97,10.38 3.02,19.24 8.91,19.8 5.89,0.54 11.45,-7.43 12.42,-17.81" /><path
         id="path44"
         style="fill:#f68a81;fill-opacity:1;fill-rule:nonzero;stroke:none"
         d="m 2388.56,3591.34 c 0,0 -37.49,35.78 -58.79,22.15 -21.3,-13.63 -10.22,-66.46 18.75,-93.72 28.97,-27.27 51.12,-13.64 51.12,-13.64 l -11.08,85.21" /><path
         id="path46"
         style="fill:#f68a81;fill-opacity:1;fill-rule:nonzero;stroke:none"
         d="m 2708.96,3633.95 c 0,0 28.4,43.35 52.24,34.91 23.84,-8.44 25.04,-62.41 3,-95.53 -22.03,-33.13 -46.7,-24.88 -46.7,-24.88 l -8.54,85.5" /><path
         id="path48"
         style="fill:#185885;fill-opacity:1;fill-rule:nonzero;stroke:none"
         d="m 2372.65,3601.06 14.48,-53.53 c 0,0 34.4,12.52 21.35,128.76 0,0 69.98,10.67 91.33,43.89 0,0 58.12,-14.13 92.52,-8.25 34.4,5.87 62.87,30.78 62.87,30.78 0,0 2.37,-84.87 39.14,-97.59 0,0 -0.28,-53.66 19.43,-59.29 0,0 4.02,74.53 34.4,83.09 0,0 22.07,70.24 14.96,92.77 -7.12,22.53 -29.65,28.47 -29.65,28.47 0,0 -9.42,121.54 -198.08,94.88 -181.87,-25.69 -207.18,-122.16 -212.71,-138.77 -7.89,-23.65 3.95,-47.08 6.32,-76.32 2.38,-29.24 13.04,-53.45 13.04,-53.45 l 30.6,-15.44" /><path
         id="path50"
         style="fill:#fbc068;fill-opacity:1;fill-rule:nonzero;stroke:none"
         d="m 3105.9,937.941 h -205.26 l -245.45,1261.599 -25.82,-1.5 -50.84,-1260.099 h -211.09 l -5.93,683.499 -1.6,185.16 -6.13,701.59 h 536.11 l 95.45,-693.65 25.71,-186.87 94.85,-689.729" /><path
         id="path52"
         style="fill:#f68a81;fill-opacity:1;fill-rule:nonzero;stroke:none"
         d="m 2428.08,2318.17 c 21.53,-5.38 27.99,4.85 23.15,10.78 -4.85,5.91 -46.9,26.49 -57.14,38.13 l -34.14,38.83 c 0.01,0 20.77,-1.61 41.71,0 20.95,1.61 36.11,14.53 5.43,17.76 -22.38,2.36 -54.93,6.98 -70.94,9.32 l -5.54,6.29 -100.86,218.16 99.61,295.68 -159.27,79.17 c 0,0 -111.96,-305.95 -123.43,-374.85 -11.49,-68.89 229.64,-315.76 229.64,-315.76 l 0.13,0.22 c 8.39,-17.78 21.16,-42.41 34.32,-58.71 22.6,-27.98 41.13,-31.03 41.13,-31.03 v 0.02 c 5.02,-2.8 9.92,-5.01 14.31,-6.11 21.52,-5.38 27.98,4.85 23.14,10.77 -2.54,3.1 -15.29,10.23 -28.33,17.98 l 2.17,5.41 c 12,-9.06 26.97,-19.02 38,-21.77 21.53,-5.38 27.99,4.84 23.15,10.76 -4.26,5.19 -37.18,21.69 -52.08,33.51 l 3.28,8.16 c 12.56,-9.87 30.28,-22.39 42.87,-25.55 21.53,-5.38 27.99,4.85 23.15,10.77 -4.8,5.86 -46.01,26.07 -56.77,37.77 l 3.12,7.75 c 12.32,-9.47 28.47,-20.53 40.19,-23.46" /><path
         id="path54"
         style="fill:#185885;fill-opacity:1;fill-rule:nonzero;stroke:none"
         d="m 2501.69,3360.87 -249.07,-115.67 77.99,-504.51 23.19,-232.52 h 536.09 l 10.76,249.75 v 561.66 l -242.43,38.11 c 0,0 -22.38,-48.84 -69.74,-55.19 -47.37,-6.35 -86.79,58.37 -86.79,58.37" /><path
         id="path56"
         style="fill:#185885;fill-opacity:1;fill-rule:nonzero;stroke:none"
         d="m 2252.62,3245.2 c 0,0 -96.88,-157.37 -122.72,-229.03 0,0 100.37,-60.18 199.46,-63.05 0,0 8.66,216.72 -76.74,292.08" /><path
         id="path58"
         style="fill:#185885;fill-opacity:1;fill-rule:nonzero;stroke:none"
         d="m 2900.35,3319.61 c 0,0 123.51,-113.31 176.84,-167.71 0,0 -78.58,-81.81 -176.54,-142.81 0,0 -46.56,206.45 -0.3,310.52" /><path
         id="path60"
         style="fill:none;stroke:#185885;stroke-width:10;stroke-linecap:round;stroke-linejoin:round;stroke-miterlimit:10;stroke-dasharray:none;stroke-opacity:1"
         d="m 2440.07,3645.94 c 0,0 40.23,0 57.23,17.55" /><path
         id="path62"
         style="fill:none;stroke:#185885;stroke-width:10;stroke-linecap:round;stroke-linejoin:round;stroke-miterlimit:10;stroke-dasharray:none;stroke-opacity:1"
         d="m 2652.22,3674.94 c 0,0 -29.76,7.63 -47.31,0" /><path
         id="path64"
         style="fill:none;stroke:#d45b59;stroke-width:10;stroke-linecap:round;stroke-linejoin:round;stroke-miterlimit:10;stroke-dasharray:none;stroke-opacity:1"
         d="m 2548.43,3616.59 c 0,0 7.63,-40.86 3.82,-46.97 0,0 -13.08,-3.05 -9.97,-18.31 3.1,-15.27 17.6,-16.03 17.6,-16.03" /><path
         id="path66"
         style="fill:#ffffff;fill-opacity:1;fill-rule:nonzero;stroke:none"
         d="m 2536.99,3493.31 c 0,0 45.02,14.5 67.92,0 22.89,-14.5 -53.43,-24.42 -67.92,-24.42 -14.5,0 -13.74,16.79 0,24.42" /><path
         id="path68"
         style="fill:none;stroke:#d45b59;stroke-width:10;stroke-linecap:round;stroke-linejoin:round;stroke-miterlimit:10;stroke-dasharray:none;stroke-opacity:1"
         d="m 2757.34,3633.92 c 0,0 -23.52,-21.24 -28.61,-53.8" /><path
         id="path70"
         style="fill:none;stroke:#d45b59;stroke-width:10;stroke-linecap:round;stroke-linejoin:round;stroke-miterlimit:10;stroke-dasharray:none;stroke-opacity:1"
         d="m 2752.76,3586.42 c 0,0 -3.32,19.27 -11.68,26.8" /><path
         id="path72"
         style="fill:none;stroke:#d45b59;stroke-width:10;stroke-linecap:round;stroke-linejoin:round;stroke-miterlimit:10;stroke-dasharray:none;stroke-opacity:1"
         d="m 2338.96,3587.56 c 0,0 29.85,-19.8 38.92,-52.28" /><path
         id="path74"
         style="fill:none;stroke:#d45b59;stroke-width:10;stroke-linecap:round;stroke-linejoin:round;stroke-miterlimit:10;stroke-dasharray:none;stroke-opacity:1"
         d="m 2351.55,3542.34 c 0,0 0.57,17.29 6.86,27.54" /><path
         id="path76"
         style="fill:none;stroke:#14425e;stroke-width:10;stroke-linecap:round;stroke-linejoin:round;stroke-miterlimit:10;stroke-dasharray:none;stroke-opacity:1"
         d="m 2288.23,3196.69 c 0,0 -3.58,-158.72 9.11,-240.77" /><path
         id="path78"
         style="fill:none;stroke:#14425e;stroke-width:10;stroke-linecap:round;stroke-linejoin:round;stroke-miterlimit:10;stroke-dasharray:none;stroke-opacity:1"
         d="m 2881.76,3238.74 c 0,0 26.62,-154.87 17.65,-223.83" /><path
         id="path80"
         style="fill:none;stroke:#14425e;stroke-width:10;stroke-linecap:round;stroke-linejoin:round;stroke-miterlimit:10;stroke-dasharray:none;stroke-opacity:1"
         d="m 2492.97,3307.63 c 0,0 37.21,-35.88 94.62,-31.58 57.41,4.31 76.48,31.58 76.48,31.58" /><path
         id="path82"
         style="fill:none;stroke:#d45b59;stroke-width:10;stroke-linecap:round;stroke-linejoin:round;stroke-miterlimit:10;stroke-dasharray:none;stroke-opacity:1"
         d="m 2220.15,2656.01 c 0,0 -30.14,1.43 -57.41,0" /><path
         id="path84"
         style="fill:none;stroke:#d45b59;stroke-width:10;stroke-linecap:round;stroke-linejoin:round;stroke-miterlimit:10;stroke-dasharray:none;stroke-opacity:1"
         d="m 3150.35,3028.9 c 0,0 -20.22,-51.52 -25.97,-72.98" /><path
         id="path86"
         style="fill:none;stroke:#d45b59;stroke-width:10;stroke-linecap:round;stroke-linejoin:round;stroke-miterlimit:10;stroke-dasharray:none;stroke-opacity:1"
         d="m 3308,3322.6 15.89,-25.02" /><path
         id="path88"
         style="fill:none;stroke:#d45b59;stroke-width:10;stroke-linecap:round;stroke-linejoin:round;stroke-miterlimit:10;stroke-dasharray:none;stroke-opacity:1"
         d="m 3346.86,3360.87 c 0,0 52.74,-1.76 70.33,-13.15" /><path
         id="path90"
         style="fill:none;stroke:#d45b59;stroke-width:10;stroke-linecap:round;stroke-linejoin:round;stroke-miterlimit:10;stroke-dasharray:none;stroke-opacity:1"
         d="m 2369.42,2475.88 h 493.03" /><path
         id="path92"
         style="fill:none;stroke:#d45b59;stroke-width:10;stroke-linecap:round;stroke-linejoin:round;stroke-miterlimit:10;stroke-dasharray:none;stroke-opacity:1"
         d="m 2608.4,2475.88 c 0,0 -36.6,-197.83 27.99,-231.32 v 183.96" /><path
         id="path94"
         style="fill:none;stroke:#d45b59;stroke-width:10;stroke-linecap:round;stroke-linejoin:round;stroke-miterlimit:10;stroke-dasharray:none;stroke-opacity:1"
         d="m 2505.06,2279.96 c 0,0 61.7,-38.6 93.01,-60.28" /><path
         id="path96"
         style="fill:none;stroke:#d45b59;stroke-width:10;stroke-linecap:round;stroke-linejoin:round;stroke-miterlimit:10;stroke-dasharray:none;stroke-opacity:1"
         d="m 2679.45,2219.68 c 0,0 75.35,75.35 90.42,99.03" /><path
         id="path98"
         style="fill:none;stroke:#d45b59;stroke-width:10;stroke-linecap:round;stroke-linejoin:round;stroke-miterlimit:10;stroke-dasharray:none;stroke-opacity:1"
         d="m 2389.99,990.352 c 0,0 79.53,-8.61 153.27,0" /><path
         id="path100"
         style="fill:none;stroke:#d45b59;stroke-width:10;stroke-linecap:round;stroke-linejoin:round;stroke-miterlimit:10;stroke-dasharray:none;stroke-opacity:1"
         d="m 3071.28,990.352 c 0,0 -94.73,-6.704 -159.32,-7.18" /><path
         id="path102"
         style="fill:none;stroke:#143d58;stroke-width:10;stroke-linecap:round;stroke-linejoin:round;stroke-miterlimit:10;stroke-dasharray:none;stroke-opacity:1"
         d="m 2246.7,711.551 c 0,0 31.22,-9.68 115.19,-5.391 83.96,4.309 167.02,26.922 167.02,26.922" /><path
         id="path104"
         style="fill:none;stroke:#143d58;stroke-width:10;stroke-linecap:round;stroke-linejoin:round;stroke-miterlimit:10;stroke-dasharray:none;stroke-opacity:1"
         d="m 2974.4,725.551 c 0,0 111.95,-32.301 174.38,-38.762 62.44,-6.457 99.04,7.543 99.04,7.543" /><path
         id="path106"
         style="fill:none;stroke:#143d58;stroke-width:10;stroke-linecap:round;stroke-linejoin:round;stroke-miterlimit:10;stroke-dasharray:none;stroke-opacity:1"
         d="m 2333.75,788.012 c 0,0 25.1,0 50.21,-20.821" /><path
         id="path108"
         style="fill:none;stroke:#143d58;stroke-width:10;stroke-linecap:round;stroke-linejoin:round;stroke-miterlimit:10;stroke-dasharray:none;stroke-opacity:1"
         d="m 2349.53,801.52 c 0,0 25.1,0 50.21,-20.821" /><path
         id="path110"
         style="fill:none;stroke:#143d58;stroke-width:10;stroke-linecap:round;stroke-linejoin:round;stroke-miterlimit:10;stroke-dasharray:none;stroke-opacity:1"
         d="m 2365.31,815.039 c 0,0 25.1,0 50.2,-20.82" /><path
         id="path112"
         style="fill:none;stroke:#143d58;stroke-width:10;stroke-linecap:round;stroke-linejoin:round;stroke-miterlimit:10;stroke-dasharray:none;stroke-opacity:1"
         d="m 3146.78,782.102 c 0,0 -25.11,0 -50.21,-20.821" /><path
         id="path114"
         style="fill:none;stroke:#143d58;stroke-width:10;stroke-linecap:round;stroke-linejoin:round;stroke-miterlimit:10;stroke-dasharray:none;stroke-opacity:1"
         d="m 3131,795.609 c 0,0 -25.1,0 -50.2,-20.808" /><path
         id="path116"
         style="fill:none;stroke:#143d58;stroke-width:10;stroke-linecap:round;stroke-linejoin:round;stroke-miterlimit:10;stroke-dasharray:none;stroke-opacity:1"
         d="m 3115.22,809.121 c 0,0 -25.1,0 -50.21,-20.82" /><path
         id="path118"
         style="fill:none;stroke:#14425e;stroke-width:10;stroke-linecap:round;stroke-linejoin:round;stroke-miterlimit:10;stroke-dasharray:none;stroke-opacity:1"
         d="m 2718.2,3782.71 -37.68,-19.38" /><path
         id="path120"
         style="fill:none;stroke:#14425e;stroke-width:10;stroke-linecap:round;stroke-linejoin:round;stroke-miterlimit:10;stroke-dasharray:none;stroke-opacity:1"
         d="m 2664.38,3754.72 c 0,0 -39.2,-71.24 -164.57,-34.54 0,0 -53.86,-49.92 -113.16,-43.55" /><path
         id="path122"
         style="fill:none;stroke:#14425e;stroke-width:10;stroke-linecap:round;stroke-linejoin:round;stroke-miterlimit:10;stroke-dasharray:none;stroke-opacity:1"
         d="m 2694.34,3645.12 c 0,0 -33.26,13.82 -39.14,97.59" /><path
         id="path124"
         style="fill:none;stroke:#14425e;stroke-width:10;stroke-linecap:round;stroke-linejoin:round;stroke-miterlimit:10;stroke-dasharray:none;stroke-opacity:1"
         d="m 2345.02,3754.72 c 0,0 -7.83,-19.22 -6.06,-36.52" /><path
         id="path126"
         style="fill:none;stroke:#14425e;stroke-width:10;stroke-linecap:round;stroke-linejoin:round;stroke-miterlimit:10;stroke-dasharray:none;stroke-opacity:1"
         d="m 2368.71,3715.4 c 0,0 -3.86,-11.96 -5.17,-21.48" /><path
         id="path128"
         style="fill:none;stroke:#14425e;stroke-width:10;stroke-linecap:round;stroke-linejoin:round;stroke-miterlimit:10;stroke-dasharray:none;stroke-opacity:1"
         d="m 2708.96,3731.76 8.43,-16.36" /><path
         id="path130"
         style="fill:none;stroke:#14425e;stroke-width:10;stroke-linecap:round;stroke-linejoin:round;stroke-miterlimit:10;stroke-dasharray:none;stroke-opacity:1"
         d="m 2687.34,3834.38 c 0,0 15.07,-11.48 16.51,-20.81" /><path
         id="path132"
         style="fill:none;stroke:#14425e;stroke-width:10;stroke-linecap:round;stroke-linejoin:round;stroke-miterlimit:10;stroke-dasharray:none;stroke-opacity:1"
         d="m 2660.79,3813.57 c 0,0 10.73,-7.18 13.98,-12.2" /><path
         id="path134"
         style="fill:none;stroke:#14425e;stroke-width:10;stroke-linecap:round;stroke-linejoin:round;stroke-miterlimit:10;stroke-dasharray:none;stroke-opacity:1"
         d="m 2508.65,3742.71 16.86,17.04" /><path
         id="path136"
         style="fill:#f9ae59;fill-opacity:1;fill-rule:nonzero;stroke:none"
         d="m 2487.1,1714.47 c 0,-57.07 -39.18,-103.39 -87.51,-103.39 -13.66,0 -26.62,3.72 -38.08,10.36 l -1.6,185.16 c 11.85,7.14 25.42,11.15 39.68,11.15 48.33,0 87.51,-46.21 87.51,-103.28" /><path
         id="path138"
         style="fill:#f9ae59;fill-opacity:1;fill-rule:nonzero;stroke:none"
         d="m 3011.05,1627.67 c -13.66,-10.55 -29.94,-16.59 -47.42,-16.59 -48.32,0 -87.51,46.32 -87.51,103.39 0,57.07 39.19,103.28 87.51,103.28 7.54,0 14.77,-1.1 21.71,-3.21 l 25.71,-186.87" /><path
         id="path140"
         style="fill:#f5811f;fill-opacity:1;fill-rule:nonzero;stroke:none"
         d="m 4580.36,4105.28 c -0.46,-27.37 -22.98,-49.15 -50.78,-48.68 -27.36,0.45 -49.15,22.97 -48.69,50.34 0.46,27.8 22.99,49.59 50.35,49.13 27.8,-0.46 49.59,-22.99 49.12,-50.79 z m -128.32,226.46 c -20.27,10.21 -26.49,36.56 -12.39,54.35 16.69,21.04 46.39,42.73 97.43,41.88 65.16,-1.08 122.66,-44.62 121.63,-105.87 -0.7,-42.57 -32.85,-68.1 -74.85,-85.21 -14.88,-6.28 -15.51,-18.43 -15.75,-32.77 v 0 c -0.23,-13.44 -11.3,-24.14 -24.73,-23.92 l -23.03,0.38 c -13.44,0.22 -24.14,11.3 -23.91,24.74 l 0.38,23.02 c 0.32,19.11 1.44,34.74 21.2,47.01 26.78,16.5 51.56,17.38 52.08,48.22 0.35,20.86 -15.05,35.89 -34.59,36.22 -17.73,0.29 -30.42,-7.86 -39.03,-18.37 -10.82,-13.21 -29.2,-17.35 -44.44,-9.68 v 0" /><path
         id="path142"
         style="fill:#f5811f;fill-opacity:1;fill-rule:nonzero;stroke:none"
         d="m 4874.36,3887.61 c -11.88,-24.65 -41.46,-34.98 -66.51,-22.91 -24.65,11.89 -34.98,41.47 -23.09,66.13 12.07,25.04 41.66,35.38 66.3,23.49 25.05,-12.08 35.39,-41.66 23.3,-66.71 z m -21.55,259.4 c -14.12,17.77 -8.73,44.3 11.54,54.53 23.97,12.11 60.02,19.35 106.01,-2.81 58.7,-28.3 92.65,-91.94 66.05,-147.12 -18.5,-38.35 -58.39,-48.06 -103.7,-45.98 -16.13,0.54 -21.8,-10.23 -28.03,-23.14 v 0 c -5.83,-12.11 -20.38,-17.19 -32.48,-11.35 l -20.75,10 c -12.09,5.83 -17.18,20.38 -11.34,32.48 l 10,20.74 c 8.3,17.22 15.88,30.93 38.96,33.79 31.23,3.75 54.1,-5.83 67.49,21.95 9.06,18.79 1.39,38.88 -16.22,47.38 -15.96,7.69 -30.91,5.61 -43.12,-0.32 -15.36,-7.45 -33.78,-3.51 -44.41,9.85 v 0" /><path
         id="path144"
         style="fill:#f5811f;fill-opacity:1;fill-rule:nonzero;stroke:none"
         d="m 4273.35,4038.1 c 16.31,-21.97 11.72,-52.97 -10.62,-69.54 -21.97,-16.31 -52.97,-11.72 -69.27,10.26 -16.58,22.33 -11.99,53.33 10,69.64 22.32,16.56 53.32,11.97 69.89,-10.36 z m -239.72,101.43 c -22.29,-4.26 -43.28,12.85 -42.93,35.54 0.41,26.86 10.75,62.15 51.74,92.57 52.34,38.83 124.46,39.33 160.97,-9.87 25.36,-34.18 15.43,-74.02 -7.45,-113.17 -7.98,-14.04 -1.09,-24.07 7.46,-35.58 v 0 c 8.01,-10.79 5.75,-26.03 -5.04,-34.04 l -18.5,-13.72 c -10.79,-8 -26.02,-5.75 -34.03,5.04 l -13.72,18.5 c -11.39,15.34 -20.01,28.43 -11.82,50.2 11.19,29.39 30.3,45.19 11.92,69.96 -12.43,16.75 -33.79,19.29 -49.5,7.64 -14.22,-10.55 -19.32,-24.76 -19.75,-38.33 -0.53,-17.06 -12.58,-31.55 -29.35,-34.74 v 0" /><path
         id="path146"
         style="fill:#f68a81;fill-opacity:1;fill-rule:nonzero;stroke:none"
         d="m 4089.32,994.73 -10.05,-147.789 -142.62,-118.132 27.37,-40.329 267.95,47.54 21.61,248.91 -164.26,9.8" /><path
         id="path148"
         style="fill:#185885;fill-opacity:1;fill-rule:nonzero;stroke:none"
         d="m 4023.81,806.609 c 0,0 44.66,-46.82 117.92,-48.757 23.28,-0.61 95.64,21.75 95.64,21.75 0,0 4.69,-52.59 -6.83,-87.52 -5.72,-17.32 -260.76,-54.023 -299.65,-52.59 -38.9,1.449 -48.99,5.758 -57.63,18.008 -8.64,12.25 -15.85,33.141 20.17,56.191 36.01,23.051 130.38,92.918 130.38,92.918" /><path
         id="path150"
         style="fill:#f68a81;fill-opacity:1;fill-rule:nonzero;stroke:none"
         d="m 4767.08,1004.46 10.05,-147.78 142.62,-118.129 -27.38,-40.34 -267.95,47.539 -21.61,248.922 164.27,9.788" /><path
         id="path152"
         style="fill:#185885;fill-opacity:1;fill-rule:nonzero;stroke:none"
         d="m 4832.59,816.352 c 0,0 -44.66,-46.832 -117.93,-48.762 -23.28,-0.621 -95.65,21.75 -95.65,21.75 0,0 -4.67,-52.59 6.85,-87.52 5.71,-17.32 260.75,-54.031 299.65,-52.578 38.89,1.43 48.98,5.758 57.62,18.008 8.65,12.23 15.85,33.121 -20.16,56.18 -36.02,23.039 -130.38,92.922 -130.38,92.922" /><path
         id="path154"
         style="fill:#185885;fill-opacity:1;fill-rule:nonzero;stroke:none"
         d="m 4134.01,2594.73 -87.88,-1609.8 h 234.83 l 142.05,1351.61 31.54,-6.12 123.17,-1345.49 224.3,9.941 -76.68,1599.859 h -591.33" /><path
         id="path156"
         style="fill:#fbc068;fill-opacity:1;fill-rule:nonzero;stroke:none"
         d="m 4725.34,2802.63 v 615.81 c 0,0 -139.64,40.76 -332.7,44.04 0,0 -180.11,9.46 -225.49,0 l -37.6,-659.85 -44.93,-268.59 c 0,0 257.56,-44.79 318.07,-40.48 l 43.22,62.68 36.73,-62.97 c 0,0 166.39,3.45 278.76,40.77 l -36.06,268.59" /><path
         id="path158"
         style="fill:#f68a81;fill-opacity:1;fill-rule:nonzero;stroke:none"
         d="m 4539.62,3426.84 c -0.51,-18.96 1.1,-33.48 1.1,-33.48 l -71.29,-40.64 -89.85,62.72 c 6.15,15.74 10.28,32.17 13.01,47 0.6,3.33 1.21,6.55 1.72,9.68 1,5.85 1.71,11.39 2.21,16.43 1.52,13.62 2.01,23.8 2.12,27.74 0.1,1.21 0.1,1.81 0.1,1.81 l 10.49,-2.22 140.47,-29.44 c -2.52,-5.85 -4.53,-12.41 -5.95,-19.16 -1.71,-7.57 -2.82,-15.33 -3.33,-22.99 -0.5,-6.06 -0.8,-11.9 -0.8,-17.45" /><path
         id="path160"
         style="fill:#fbc068;fill-opacity:1;fill-rule:nonzero;stroke:none"
         d="m 3946.73,3155.79 c 0,0 138.05,296.51 220.42,306.69 105.86,13.07 27.37,-254.37 27.37,-254.37 l -131.1,-232.37 -116.69,180.05" /><path
         id="path162"
         style="fill:#fbc068;fill-opacity:1;fill-rule:nonzero;stroke:none"
         d="m 4935.67,3125.49 c 0,0 -138.04,284.53 -220.41,294.71 -105.86,13.07 -27.37,-254.37 -27.37,-254.37 l 131.09,-213.21 116.69,172.87" /><path
         id="path164"
         style="fill:#f68a81;fill-opacity:1;fill-rule:nonzero;stroke:none"
         d="m 4067.74,3047.73 c -15.18,27.62 -228.7,194.32 -280.44,234.47 v 0 l -14.17,19.55 c 0,0 -22.32,30.97 -48.25,38.9 -12.65,3.86 -66.27,20.91 -82.12,21.62 -15.85,0.71 0,-20.03 12.25,-24.79 12.25,-4.76 35.29,-12.34 35.29,-12.34 l -94.36,-42.12 c 0,0 -53.84,-20.71 -58.7,-34.75 -4.86,-14.05 17.29,-5.4 37.27,2.7 14.83,6.01 30.79,13.19 38.08,16.51 l 1.62,-1.52 c -6.55,-2.58 -53.36,-21.38 -57.88,-34.44 -4.87,-14.04 17.28,-5.4 37.27,2.7 14.37,5.83 29.72,12.71 37.3,16.16 l 3.04,-2.84 c -10.33,-4.14 -52.15,-21.54 -56.41,-33.85 -4.86,-14.04 17.29,-5.4 37.28,2.71 13.53,5.48 27.9,11.89 35.87,15.5 l 2.5,-2.33 c -15.13,-6.36 -47.1,-20.86 -50.8,-31.54 -4.86,-14.05 17.29,-5.4 37.28,2.7 10.83,4.39 22.19,9.37 30.42,13.05 v 0 c 0,0 18.07,5.66 39.37,14.5 8.79,-13.42 196.2,-298.21 284.83,-298.21 90.75,0 90.75,86.22 73.46,117.66" /><path
         id="path166"
         style="fill:#f68a81;fill-opacity:1;fill-rule:nonzero;stroke:none"
         d="m 5292.1,3242.18 c -4.86,14.04 -58.71,34.75 -58.71,34.75 l -94.36,42.12 c 0,0 23.05,7.58 35.3,12.34 12.24,4.76 28.09,25.49 12.24,24.79 -15.85,-0.71 -69.47,-17.76 -82.12,-21.62 -25.92,-7.93 -48.26,-38.9 -48.26,-38.9 l -9.9,-13.66 c -38.81,-46.19 -217.27,-259.62 -226.43,-290.25 -10.27,-34.38 7.88,-118.66 96.6,-99.55 74.37,16.02 175.7,252.49 206.58,328.67 19.91,-8.09 36.22,-13.18 36.22,-13.18 v 0 c 8.23,-3.68 19.58,-8.66 30.42,-13.05 19.99,-8.11 42.14,-16.75 37.27,-2.71 -3.7,10.69 -35.66,25.19 -50.8,31.55 l 2.5,2.33 c 7.97,-3.61 22.34,-10.02 35.88,-15.51 19.98,-8.1 42.13,-16.75 37.28,-2.7 -4.26,12.3 -46.09,29.71 -56.41,33.85 l 3.04,2.83 c 7.57,-3.44 22.93,-10.32 37.29,-16.15 19.99,-8.1 42.14,-16.75 37.28,-2.7 -4.52,13.06 -51.33,31.86 -57.89,34.43 l 1.63,1.53 c 7.28,-3.32 23.25,-10.5 38.07,-16.51 19.98,-8.1 42.14,-16.75 37.28,-2.7" /><path
         id="path168"
         style="fill:none;stroke:#d45b59;stroke-width:10;stroke-linecap:round;stroke-linejoin:round;stroke-miterlimit:10;stroke-dasharray:none;stroke-opacity:1"
         d="m 4171.46,3411.96 c 0,0 34.45,-110.02 -3.31,-250.57" /><path
         id="path170"
         style="fill:none;stroke:#d45b59;stroke-width:10;stroke-linecap:round;stroke-linejoin:round;stroke-miterlimit:10;stroke-dasharray:none;stroke-opacity:1"
         d="m 4725.34,3368.75 c 0,0 -38.96,-140.14 -19.48,-232.14" /><path
         id="path172"
         style="fill:none;stroke:#d45b59;stroke-width:10;stroke-linecap:round;stroke-linejoin:round;stroke-miterlimit:10;stroke-dasharray:none;stroke-opacity:1"
         d="m 4158.51,2804.74 27.33,-15.13 -17.69,-28.09" /><path
         id="path174"
         style="fill:none;stroke:#d45b59;stroke-width:10;stroke-linecap:round;stroke-linejoin:round;stroke-miterlimit:10;stroke-dasharray:none;stroke-opacity:1"
         d="m 4712.87,2783.13 -28.48,-21.61" /><path
         id="path176"
         style="fill:none;stroke:#d45b59;stroke-width:10;stroke-linecap:round;stroke-linejoin:round;stroke-miterlimit:10;stroke-dasharray:none;stroke-opacity:1"
         d="m 4469.39,3352.72 -23.48,-796.48" /><path
         id="path178"
         style="fill:#f46e66;fill-opacity:1;fill-rule:nonzero;stroke:none"
         d="m 4549.7,3486.44 c -2.52,-5.85 -4.53,-12.41 -5.95,-19.16 -1.71,-7.57 -2.82,-15.33 -3.33,-22.99 -0.5,-6.06 -0.8,-11.9 -0.8,-17.45 -19.37,-4.13 -44.38,-3.63 -74.93,8.57 -37.61,15.02 -58.69,27.53 -70.38,36.71 1,5.85 1.71,11.39 2.21,16.43 1.52,13.62 2.01,23.8 2.12,27.74 l 10.59,-0.41 140.47,-29.44" /><path
         id="path180"
         style="fill:#f68a81;fill-opacity:1;fill-rule:nonzero;stroke:none"
         d="m 4334.96,3797.75 c 0,0 -16.27,-152.43 -13.29,-206.61 2.97,-54.18 80.91,-119.63 142.57,-136.56 52.41,-14.39 146.98,42.55 170.16,82.7 23.19,40.15 56.83,237.45 56.83,237.45 0,0 -181.25,247.2 -356.27,23.02" /><path
         id="path182"
         style="fill:#f68a81;fill-opacity:1;fill-rule:nonzero;stroke:none"
         d="m 4340.01,3701.84 c 0,0 -26.91,43.47 -50.64,35.74 -23.73,-7.74 -26.26,-60.92 -5.36,-94.15 20.9,-33.22 45.43,-25.7 45.43,-25.7 l 10.57,84.11" /><path
         id="path184"
         style="fill:#f68a81;fill-opacity:1;fill-rule:nonzero;stroke:none"
         d="m 4656.51,3663.03 c 0,0 37.86,34.35 58.54,20.38 20.66,-13.98 8.42,-65.8 -20.84,-91.97 -29.25,-26.17 -50.76,-12.16 -50.76,-12.16 l 13.06,83.75" /><path
         id="path186"
         style="fill:#185885;fill-opacity:1;fill-rule:nonzero;stroke:none"
         d="m 4444.82,3979.2 c -73.46,-15.13 -72.39,-58.35 -112.36,-68.07 -39.98,-9.72 -57.19,-34.57 -62.63,-60.51 -5.45,-25.93 3.2,-25.93 10.77,-25.93 7.55,0 11.88,0 11.88,0 0,0 0.95,-25.25 -1.08,-56.18 -2.03,-30.93 13.52,-35.65 13.52,-35.65 0,0 34,-22.69 35.09,-55.11 0,0 16.22,3.24 20.54,21.61 4.32,18.37 6.48,89.68 6.48,89.68 0,0 47.54,2.16 78.88,22.69 0,0 11.88,-10.81 39.97,-10.81 28.09,0 110.21,27.01 132.9,12.97 0,0 8.64,-27.01 33.5,-44.3 0,0 -10.08,-73.47 -8.83,-91.84 1.26,-18.37 10.81,-29.15 10.81,-29.15 0,0 17.46,35.27 46.64,38.15 0,0 25.93,40.7 30.24,75.28 0,0 21.61,1.08 19.46,23.77 -2.16,22.69 -10.81,30.25 -16.22,52.94 -5.4,22.69 -23.77,46.46 -36.72,47.54 0,0 11.88,18.37 -46.47,58.34 -58.34,39.98 -132.89,49.71 -206.37,34.58" /><path
         id="path188"
         style="fill:#fffcd0;fill-opacity:1;fill-rule:nonzero;stroke:none"
         d="m 4396.55,3488.6 c 0,0 -0.52,-35.98 16.22,-67.94 15.13,-28.87 56.62,-67.94 56.62,-67.94 0,0 -29.97,13.14 -55.18,12.42 -25.21,-0.72 -48.26,-12.42 -48.26,-12.42 l -17.29,110.38 47.89,25.5" /><path
         id="path190"
         style="fill:#fffcd0;fill-opacity:1;fill-rule:nonzero;stroke:none"
         d="m 4543.7,3467.26 c 0,0 -16.96,-83.74 -74.31,-114.54 0,0 36.3,5.59 57.91,0 21.61,-5.59 34.57,-19.28 34.57,-19.28 0,0 28.34,86.64 28.94,112.47 l -47.11,21.35" /><path
         id="path192"
         style="fill:none;stroke:#d45b59;stroke-width:10;stroke-linecap:round;stroke-linejoin:round;stroke-miterlimit:10;stroke-dasharray:none;stroke-opacity:1"
         d="m 4291.03,3711.61 c 0,0 22.13,-18.5 30.27,-56.19" /><path
         id="path194"
         style="fill:none;stroke:#d45b59;stroke-width:10;stroke-linecap:round;stroke-linejoin:round;stroke-miterlimit:10;stroke-dasharray:none;stroke-opacity:1"
         d="m 4299.69,3659.74 c 0,0 1.26,20.17 11.79,23.78" /><path
         id="path196"
         style="fill:none;stroke:#d45b59;stroke-width:10;stroke-linecap:round;stroke-linejoin:round;stroke-miterlimit:10;stroke-dasharray:none;stroke-opacity:1"
         d="m 4703.78,3659.74 c 0,0 -33.07,-18.01 -43.89,-50.42" /><path
         id="path198"
         style="fill:none;stroke:#d45b59;stroke-width:10;stroke-linecap:round;stroke-linejoin:round;stroke-miterlimit:10;stroke-dasharray:none;stroke-opacity:1"
         d="m 4681.84,3613.64 c 0,0 6.15,9.37 0,20.89" /><path
         id="path200"
         style="fill:#185885;fill-opacity:1;fill-rule:nonzero;stroke:none"
         d="m 4439.93,3688.31 c -1.3,-10.21 -7.05,-17.88 -12.84,-17.14 -5.78,0.74 -9.42,9.61 -8.12,19.82 1.31,10.2 7.06,17.88 12.85,17.13 5.79,-0.73 9.42,-9.6 8.11,-19.81" /><path
         id="path202"
         style="fill:none;stroke:#185885;stroke-width:10;stroke-linecap:round;stroke-linejoin:round;stroke-miterlimit:10;stroke-dasharray:none;stroke-opacity:1"
         d="m 4397.86,3750.07 c 0,0 38.4,-10.06 59.01,2.44" /><path
         id="path204"
         style="fill:#185885;fill-opacity:1;fill-rule:nonzero;stroke:none"
         d="m 4552.87,3680.27 c -0.18,-10.29 4.4,-18.71 10.24,-18.81 5.83,-0.11 10.71,8.14 10.88,18.43 0.19,10.29 -4.39,18.71 -10.22,18.82 -5.84,0.1 -10.71,-8.15 -10.9,-18.44" /><path
         id="path206"
         style="fill:none;stroke:#185885;stroke-width:10;stroke-linecap:round;stroke-linejoin:round;stroke-miterlimit:10;stroke-dasharray:none;stroke-opacity:1"
         d="m 4603.42,3735.31 c 0,0 -39.45,-4.41 -58.04,10.94" /><path
         id="path208"
         style="fill:none;stroke:#d45b59;stroke-width:10;stroke-linecap:round;stroke-linejoin:round;stroke-miterlimit:10;stroke-dasharray:none;stroke-opacity:1"
         d="m 4493.95,3694.97 c 0,0 -2.93,-40.9 -8.11,-45.78 0,0 -13.23,0.36 -14.09,-14.98 -0.85,-15.34 12.79,-19.69 12.79,-19.69" /><path
         id="path210"
         style="fill:none;stroke:#d45b59;stroke-width:10;stroke-linecap:round;stroke-linejoin:round;stroke-miterlimit:10;stroke-dasharray:none;stroke-opacity:1"
         d="m 4464.64,3564.66 c 0,0 24.2,15.85 41.63,12.97 17.43,-2.88 23.83,-12.97 23.83,-12.97" /><path
         id="path212"
         style="fill:none;stroke:#d45b59;stroke-width:10;stroke-linecap:round;stroke-linejoin:round;stroke-miterlimit:10;stroke-dasharray:none;stroke-opacity:1"
         d="m 3690.3,3325.14 32.78,-16.91" /><path
         id="path214"
         style="fill:none;stroke:#d45b59;stroke-width:10;stroke-linecap:round;stroke-linejoin:round;stroke-miterlimit:10;stroke-dasharray:none;stroke-opacity:1"
         d="M 3608.19,3272.22 3656.45,3229" /><path
         id="path216"
         style="fill:none;stroke:#d45b59;stroke-width:10;stroke-linecap:round;stroke-linejoin:round;stroke-miterlimit:10;stroke-dasharray:none;stroke-opacity:1"
         d="m 3709.45,3228.28 c 0,0 39.2,14.41 42.8,15.12" /><path
         id="path218"
         style="fill:none;stroke:#d45b59;stroke-width:10;stroke-linecap:round;stroke-linejoin:round;stroke-miterlimit:10;stroke-dasharray:none;stroke-opacity:1"
         d="m 5123.04,3220.87 -28.86,9.57" /><path
         id="path220"
         style="fill:none;stroke:#d45b59;stroke-width:10;stroke-linecap:round;stroke-linejoin:round;stroke-miterlimit:10;stroke-dasharray:none;stroke-opacity:1"
         d="m 5221.68,3267.71 -49.71,-46.84" /><path
         id="path222"
         style="fill:none;stroke:#d45b59;stroke-width:10;stroke-linecap:round;stroke-linejoin:round;stroke-miterlimit:10;stroke-dasharray:none;stroke-opacity:1"
         d="m 5139.03,3319.05 c 0,0 -16.54,-17.84 -30.43,-25.94" /><path
         id="path224"
         style="fill:none;stroke:#14425e;stroke-width:10;stroke-linecap:round;stroke-linejoin:round;stroke-miterlimit:10;stroke-dasharray:none;stroke-opacity:1"
         d="m 4052.28,1047.91 h 235.3" /><path
         id="path226"
         style="fill:none;stroke:#14425e;stroke-width:10;stroke-linecap:round;stroke-linejoin:round;stroke-miterlimit:10;stroke-dasharray:none;stroke-opacity:1"
         d="m 4570.99,1058.5 231.03,11.02" /><path
         id="path228"
         style="fill:none;stroke:#14425e;stroke-width:10;stroke-linecap:round;stroke-linejoin:round;stroke-miterlimit:10;stroke-dasharray:none;stroke-opacity:1"
         d="m 4226.21,2434.5 c 0,0 -43.43,-583.45 -56.29,-644.68 -12.86,-61.22 0,-84.27 0,-84.27 0,0 -7.22,-57.62 -5.71,-69.15 1.49,-11.53 -27.32,-515.74 -27.32,-515.74" /><path
         id="path230"
         style="fill:none;stroke:#14425e;stroke-width:10;stroke-linecap:round;stroke-linejoin:round;stroke-miterlimit:10;stroke-dasharray:none;stroke-opacity:1"
         d="m 4615.18,2434.5 c 0,0 48.98,-691.49 54.74,-726.07 5.76,-34.57 0,-59.41 0,-59.41 0,0 -0.64,-27.03 2.56,-47.19 3.2,-20.17 34.89,-481.17 34.89,-481.17" /><path
         id="path232"
         style="fill:none;stroke:#14425e;stroke-width:10;stroke-linecap:round;stroke-linejoin:round;stroke-miterlimit:10;stroke-dasharray:none;stroke-opacity:1"
         d="m 4423.01,2336.54 -65.71,61.95" /><path
         id="path234"
         style="fill:none;stroke:#14425e;stroke-width:10;stroke-linecap:round;stroke-linejoin:round;stroke-miterlimit:10;stroke-dasharray:none;stroke-opacity:1"
         d="m 4454.55,2330.42 52.58,30.61" /><path
         id="path236"
         style="fill:#f9ae59;fill-opacity:1;fill-rule:nonzero;stroke:none"
         d="m 4229.09,3199.47 135.42,-12.83 c 0,0 -1.44,-151.4 -80.67,-151.4 -79.24,0 -54.75,164.23 -54.75,164.23" /><path
         id="path238"
         style="fill:none;stroke:#14425e;stroke-width:10;stroke-linecap:round;stroke-linejoin:round;stroke-miterlimit:10;stroke-dasharray:none;stroke-opacity:1"
         d="m 4691.23,3877.64 -31.34,-17.99" /><path
         id="path240"
         style="fill:none;stroke:#14425e;stroke-width:10;stroke-linecap:round;stroke-linejoin:round;stroke-miterlimit:10;stroke-dasharray:none;stroke-opacity:1"
         d="m 4340.01,3791.56 c 0,0 73.49,-10.09 105.9,20.17 0,0 26.57,-21.25 75.59,-5.59 49.02,15.67 90.07,12.07 97.28,7.75 0,0 16.56,-43.94 48.26,-48.26 31.69,-4.32 36.74,6.48 36.74,6.48" /><path
         id="path242"
         style="fill:none;stroke:#14425e;stroke-width:10;stroke-linecap:round;stroke-linejoin:round;stroke-miterlimit:10;stroke-dasharray:none;stroke-opacity:1"
         d="m 4730.43,3779.32 -8.64,-10.09" /><path
         id="path244"
         style="fill:none;stroke:#14425e;stroke-width:10;stroke-linecap:round;stroke-linejoin:round;stroke-miterlimit:10;stroke-dasharray:none;stroke-opacity:1"
         d="m 4311.48,3813.17 c 0,0 4.77,19.45 14.86,27.37" /><path
         id="path246"
         style="fill:none;stroke:#14425e;stroke-width:10;stroke-linecap:round;stroke-linejoin:round;stroke-miterlimit:10;stroke-dasharray:none;stroke-opacity:1"
         d="m 4675.56,3899.6 c 0,0 -7.08,14.41 -22.21,20.18" /><path
         id="path248"
         style="fill:none;stroke:#14425e;stroke-width:10;stroke-linecap:round;stroke-linejoin:round;stroke-miterlimit:10;stroke-dasharray:none;stroke-opacity:1"
         d="m 4368.83,3909.69 c 0,0 34.58,29.53 36.74,34.57" /><path
         id="path250"
         style="fill:none;stroke:#14425e;stroke-width:10;stroke-linecap:round;stroke-linejoin:round;stroke-miterlimit:10;stroke-dasharray:none;stroke-opacity:1"
         d="m 4450.22,3833.33 c 0,0 11.53,15.85 25.94,20.9" /><path
         id="path252"
         style="fill:#f5811f;fill-opacity:1;fill-rule:nonzero;stroke:none"
         d="m 1042.78,3897.14 c 9.02,-26.23 -4.92,-54.78 -31.57,-63.94 -26.245,-9.02 -54.78,4.93 -63.8,31.16 -9.164,26.66 4.778,55.2 31.02,64.22 26.65,9.16 55.19,-4.78 64.35,-31.44 z m -200.507,171.5 c -22.843,2.72 -37.875,25.69 -30.578,47.5 8.637,25.82 29.45,56.75 78.379,73.57 62.469,21.48 132.306,-0.16 152.486,-58.88 14.03,-40.81 -7.79,-76.25 -41.9,-107.06 -12.012,-11.13 -8.418,-22.93 -3.695,-36.67 v 0 c 4.425,-12.88 -2.43,-26.91 -15.309,-31.34 l -22.07,-7.59 c -12.883,-4.42 -26.914,2.43 -31.344,15.31 l -7.582,22.08 c -6.301,18.32 -10.617,33.6 3.969,52.12 19.824,24.97 43.137,34.38 32.973,63.95 -6.875,19.99 -26.735,29 -45.473,22.55 -16.988,-5.84 -26.274,-17.99 -30.844,-30.98 -5.75,-16.31 -21.832,-26.62 -39.012,-24.56 v 0" /><path
         id="path254"
         style="fill:#f46e66;fill-opacity:1;fill-rule:nonzero;stroke:none"
         d="m 1339.46,935.941 c -6.09,37.079 -24.67,148.959 -47.19,272.849 -27.63,151.91 -101.28,344.1 -101.28,344.1 l -162.52,-127.74 195.69,-528.818 c -5.02,-15.73 -13.74,-38.871 -25.11,-52.363 -18.42,-21.867 -25.32,-30.758 -25.32,-30.758 0,0 42.58,-12.981 72.5,-12.981 29.92,0 108.18,69.051 111.64,81.711 1.92,7.047 -8.66,32.68 -18.41,54" /><path
         id="path256"
         style="fill:#14425e;fill-opacity:1;fill-rule:nonzero;stroke:none"
         d="m 1189.7,833.031 c 0,0 -11.37,-13.23 -45.9,-40.851 -34.52,-27.629 -47.18,-46.039 -47.18,-57.551 0,-11.5 134.65,-15.668 163.42,-7.828 28.77,7.828 112.79,93 121.99,111.41 9.21,18.41 -34.19,78.59 -34.19,78.59 0,0 -16.44,-34.86 -27.95,-52.121 -11.51,-17.27 -54.21,-36.301 -79.92,-44.891 -58.48,-19.559 -50.27,13.242 -50.27,13.242" /><path
         id="path258"
         style="fill:#14425e;fill-opacity:1;fill-rule:nonzero;stroke:none"
         d="m 928.355,2504.28 c 0,0 -13.57,-186.98 -10.55,-440.29 3.011,-253.31 81.8,-511.1 81.8,-511.1 l 201.665,61.78 -15.08,889.61 H 928.355" /><path
         id="path260"
         style="fill:#f46e66;fill-opacity:1;fill-rule:nonzero;stroke:none"
         d="m 1030.89,3179.78 c 0,0 -93.488,-176.42 -119.874,-244.27 -26.387,-67.85 47.168,-154.13 47.168,-154.13 l 54.606,51.6 c 0,0 30.16,287.99 18.1,346.8" /><path
         id="path262"
         style="fill:#fbc068;fill-opacity:1;fill-rule:nonzero;stroke:none"
         d="m 1030.89,3179.78 c 0,0 161.33,88.96 295.53,111.57 134.2,22.62 177.92,-55.78 177.92,-55.78 l -93.78,-520.2 47.04,-211.09 H 928.355 l 63.329,300.05 c 0,0 -7.539,257.84 39.206,375.45" /><path
         id="path264"
         style="fill:#f68a81;fill-opacity:1;fill-rule:nonzero;stroke:none"
         d="m 1006.42,3645.77 c 0,0 -0.05,-174.91 7.88,-224.19 7.94,-49.29 64,-90.94 120.15,-108.46 56.15,-17.53 153.82,50.32 171.16,89.28 17.34,38.96 29.72,231.39 29.72,231.39 0,0 -255,137.8 -328.91,11.98" /><path
         id="path266"
         style="fill:#f68a81;fill-opacity:1;fill-rule:nonzero;stroke:none"
         d="m 1151.82,3330.12 c 0,0 9.41,-60.67 -2.54,-113.71 l 156.51,54.27 3.7,143.17 -157.67,-83.73" /><path
         id="path268"
         style="fill:#f68a81;fill-opacity:1;fill-rule:nonzero;stroke:none"
         d="m 1300.46,3531.36 c 0,0 27.83,53.75 62.37,35.57 34.54,-18.18 17.65,-88.62 -4.82,-112.54 -22.47,-23.92 -55.92,-1.87 -55.92,-1.87 l -1.63,78.84" /><path
         id="path270"
         style="fill:#f46e66;fill-opacity:1;fill-rule:nonzero;stroke:none"
         d="m 1153.99,3310.3 c 0,0 70.05,11.67 112.53,48.35 0,0 -49.32,-88.72 -111.67,-99.57 l -0.86,51.22" /><path
         id="path272"
         style="fill:#185885;fill-opacity:1;fill-rule:nonzero;stroke:none"
         d="m 1114.95,3678.89 c 0,0 20.51,-44.2 76.22,-87.2 55.7,-43 98.51,-46.81 98.51,-46.81 0,0 -17.6,-52.86 11.97,-71 0,0 11.73,102.13 52.27,96.23 40.53,-5.9 23.74,-125.4 -37.79,-124.15 0,0 -16.78,-36.8 -8,-84.63 0,0 124.44,90.68 141.12,215.52 16.68,124.84 -69.95,162.01 -69.95,162.01 0,0 -30.73,60.98 -134.04,79.9 -103.3,18.92 -156.66,-40.12 -156.66,-40.12 0,0 -51.66,16.78 -96.745,-35.2 -45.078,-51.98 -21.394,-104.69 -21.394,-104.69 0,0 -33.481,-36.88 -20.797,-80.51 12.676,-43.63 58.966,-53.73 58.966,-53.73 0,0 8.49,122.54 28,155.92 19.5,33.39 78.32,18.46 78.32,18.46" /><path
         id="path274"
         style="fill:none;stroke:#d45b59;stroke-width:10;stroke-linecap:round;stroke-linejoin:round;stroke-miterlimit:10;stroke-dasharray:none;stroke-opacity:1"
         d="m 1093.77,3536.8 c 0,0 3.26,-35.41 -10.79,-57.28 -14.05,-21.87 15.99,-31.98 15.99,-31.98" /><path
         id="path276"
         style="fill:none;stroke:#185885;stroke-width:10;stroke-linecap:round;stroke-linejoin:round;stroke-miterlimit:10;stroke-dasharray:none;stroke-opacity:1"
         d="m 1021.21,3578.34 c 0,0 20.62,24.75 44.15,6.42" /><path
         id="path278"
         style="fill:none;stroke:#185885;stroke-width:10;stroke-linecap:round;stroke-linejoin:round;stroke-miterlimit:10;stroke-dasharray:none;stroke-opacity:1"
         d="m 1144.38,3577.82 c 0,0 21.69,-11.92 51.73,-14.7" /><path
         id="path280"
         style="fill:none;stroke:#d45b59;stroke-width:10;stroke-linecap:round;stroke-linejoin:round;stroke-miterlimit:10;stroke-dasharray:none;stroke-opacity:1"
         d="m 1354.86,3538.89 c 0,0 -29.46,-13.57 -34.24,-56.11" /><path
         id="path282"
         style="fill:#f68a81;fill-opacity:1;fill-rule:nonzero;stroke:none"
         d="m 1487.75,3229.54 c 0,0 46.75,-6.04 60.32,-99.52 13.57,-93.49 -77.03,-333.15 -108.56,-384.49 -52.78,-85.95 -521.705,-15.08 -521.705,-15.08 l 25.629,104.04 376.956,46.74 c 0,0 48.25,209.59 76.9,286.48 28.64,76.9 90.46,61.83 90.46,61.83" /><path
         id="path284"
         style="fill:none;stroke:#d45b59;stroke-width:10;stroke-linecap:round;stroke-linejoin:round;stroke-miterlimit:10;stroke-dasharray:none;stroke-opacity:1"
         d="m 1341.11,3490.54 c 0,0 3.03,10.64 -9.42,22.01" /><path
         id="path286"
         style="fill:#185885;fill-opacity:1;fill-rule:nonzero;stroke:none"
         d="m 1175.39,3518.41 c -0.49,-9.79 -5.39,-17.51 -10.95,-17.23 -5.55,0.28 -9.66,8.44 -9.17,18.24 0.49,9.79 5.39,17.51 10.95,17.23 5.55,-0.28 9.66,-8.44 9.17,-18.24" /><path
         id="path288"
         style="fill:#185885;fill-opacity:1;fill-rule:nonzero;stroke:none"
         d="m 1061.8,3524.1 c -0.49,-9.8 -5.39,-17.51 -10.95,-17.23 -5.55,0.27 -9.66,8.44 -9.17,18.23 0.49,9.8 5.4,17.51 10.95,17.23 5.55,-0.27 9.66,-8.44 9.17,-18.23" /><path
         id="path290"
         style="fill:none;stroke:#d45b59;stroke-width:10;stroke-linecap:round;stroke-linejoin:round;stroke-miterlimit:10;stroke-dasharray:none;stroke-opacity:1"
         d="m 1096.23,3403.14 c 0,0 18.74,8.01 44.13,-7.45" /><path
         id="path292"
         style="fill:#185885;fill-opacity:1;fill-rule:nonzero;stroke:none"
         d="m 1475.56,3741.62 c 0,-42.78 -34.69,-77.47 -77.47,-77.47 -42.79,0 -77.47,34.69 -77.47,77.47 0,42.78 34.68,77.47 77.47,77.47 42.78,0 77.47,-34.69 77.47,-77.47" /><path
         id="path294"
         style="fill:#f68a81;fill-opacity:1;fill-rule:nonzero;stroke:none"
         d="m 946.793,3273.26 c 0,0 37.5,47.5 52.504,52.02 15.003,4.52 66.333,-21.96 70.073,-29.83 3.74,-7.87 -5.31,-22.19 -5.31,-22.19 0,0 -2.26,-27.14 -11.31,-31.66 -9.04,-4.52 -9.04,-4.52 -9.04,-4.52 0,0 -14.33,-40.72 -39.21,-47.5 0,0 -5.277,-47.5 -35.434,-54.28 l -58.05,49 c 0,0 7.476,39.96 35.777,88.96" /><path
         id="path296"
         style="fill:#f68a81;fill-opacity:1;fill-rule:nonzero;stroke:none"
         d="m 987.914,3313.59 c 0,0 22.246,27.9 39.206,36.57 16.96,8.67 62.95,-2.26 67.85,-9.05 4.9,-6.78 -4.9,-11.31 -22.62,-9.8 -17.72,1.51 -23.75,2.17 -23.75,2.17 l -12.81,-23.2 -47.876,3.31" /><path
         id="path298"
         style="fill:#f68a81;fill-opacity:1;fill-rule:nonzero;stroke:none"
         d="m 911.016,3184.3 c 0,0 -109.821,-300.06 -107.809,-378.46 2.012,-78.41 52.273,-90.47 82.43,-88.46 30.156,2.01 71.136,46.31 88.457,100.52 17.324,54.22 0,331.72 0,331.72 l -63.078,34.68" /><path
         id="path300"
         style="fill:none;stroke:#d45b59;stroke-width:10;stroke-linecap:round;stroke-linejoin:round;stroke-miterlimit:10;stroke-dasharray:none;stroke-opacity:1"
         d="m 1325.92,2866.15 c 0,0 28.14,-28.14 42.21,-60.31" /><path
         id="path302"
         style="fill:none;stroke:#d45b59;stroke-width:10;stroke-linecap:round;stroke-linejoin:round;stroke-miterlimit:10;stroke-dasharray:none;stroke-opacity:1"
         d="m 942.93,3135.3 c 0,0 17.09,-10.43 31.894,1.91" /><path
         id="path304"
         style="fill:none;stroke:#d45b59;stroke-width:10;stroke-linecap:round;stroke-linejoin:round;stroke-miterlimit:10;stroke-dasharray:none;stroke-opacity:1"
         d="m 1004.5,3189.58 c 0,0 -8.797,3.76 -5.777,15.33 l 7.697,17.59" /><path
         id="path306"
         style="fill:none;stroke:#d45b59;stroke-width:10;stroke-linecap:round;stroke-linejoin:round;stroke-miterlimit:10;stroke-dasharray:none;stroke-opacity:1"
         d="m 1013.3,3254.16 c 0,0 26.13,-6.03 30.41,-17.08" /><path
         id="path308"
         style="fill:none;stroke:#d45b59;stroke-width:10;stroke-linecap:round;stroke-linejoin:round;stroke-miterlimit:10;stroke-dasharray:none;stroke-opacity:1"
         d="m 1026.36,3285.32 c 0,0 23.63,1.51 37.7,-12.06" /><path
         id="path310"
         style="fill:#f68a81;fill-opacity:1;fill-rule:nonzero;stroke:none"
         d="M 1181.38,1365.2 971.316,1354.37 898.789,863.73 c -22.473,-10.359 -47.101,-39.21 -99.351,-59.511 -41.083,-15.969 -30.965,-22.848 -39.629,-39.09 -8.661,-16.238 0,-34.649 0,-34.649 h 275.301 c 9.68,0.11 17.49,7.93 17.56,17.61 0.22,27.879 0.55,82.48 0.14,113.711 5.52,22.129 27.57,109.078 59.27,215.369 36.81,123.44 69.3,288.03 69.3,288.03" /><path
         id="path312"
         style="fill:#185885;fill-opacity:1;fill-rule:nonzero;stroke:none"
         d="m 853.754,831.98 c 0,0 19.16,-28.511 100.078,-23.488 80.928,5.028 100.058,23.488 100.058,23.488 0,0 10.24,-95.89 5.79,-105.429 -4.45,-9.539 -101.489,-4.051 -114.84,-3.781 -13.356,0.281 -192.297,-8.309 -214.551,0 -22.258,8.312 -28.492,24.402 -21.367,35.46 7.125,11.059 114.125,58.731 144.832,73.75" /><path
         id="path314"
         style="fill:#f68a81;fill-opacity:1;fill-rule:nonzero;stroke:none"
         d="m 1089.1,3209.16 c 0,0 -9.94,-28.38 81.77,-29.38 91.72,-1.01 220.38,93.48 220.38,93.48 l -78.4,6.06 -163.57,-42.24 -60.18,-27.92" /><path
         id="path316"
         style="fill:#185885;fill-opacity:1;fill-rule:nonzero;stroke:none"
         d="m 1399.3,3482.78 c 0,0 7.03,-107.99 64.33,-140.16 0,0 55.29,-3.02 70.36,-57.3 15.08,-54.28 -45.23,-91.47 -45.23,-91.47 0,0 -5.02,-65.34 -85.44,-73.38 -80.42,-8.04 -118.62,98.51 -118.62,156.81 0,58.31 70.37,185.84 114.6,205.5" /><path
         id="path318"
         style="fill:#185885;fill-opacity:1;fill-rule:nonzero;stroke:none"
         d="m 1457.49,2504.28 c 0,0 16.24,-155.92 -55.22,-399.55 -71.47,-243.63 -204.65,-750.36 -204.65,-750.36 H 947.496 l 133.184,1000.48 -16.25,149.43 h 393.06" /><path
         id="path320"
         style="fill:none;stroke:#14425e;stroke-width:10;stroke-linecap:round;stroke-linejoin:round;stroke-miterlimit:10;stroke-dasharray:none;stroke-opacity:1"
         d="m 1183.74,2431.27 -103.06,-76.42" /><path
         id="path322"
         style="fill:none;stroke:#14425e;stroke-width:10;stroke-linecap:round;stroke-linejoin:round;stroke-miterlimit:10;stroke-dasharray:none;stroke-opacity:1"
         d="m 1414.82,2489.29 c 0,0 -8.61,-210.17 -51.67,-378.09 -43.06,-167.93 -198.07,-712.63 -198.07,-712.63" /><path
         id="path324"
         style="fill:none;stroke:#14425e;stroke-width:10;stroke-linecap:round;stroke-linejoin:round;stroke-miterlimit:10;stroke-dasharray:none;stroke-opacity:1"
         d="m 953.379,1398.57 c 0,0 202.141,-5.38 255.901,0" /><path
         id="path326"
         style="fill:none;stroke:#d45b59;stroke-width:10;stroke-linecap:round;stroke-linejoin:round;stroke-miterlimit:10;stroke-dasharray:none;stroke-opacity:1"
         d="m 1079.23,3184.3 c 0,0 1.15,-21.03 70.05,-25.34 68.9,-4.31 135.42,20.81 135.42,20.81" /><path
         id="path328"
         style="fill:none;stroke:#14425e;stroke-width:10;stroke-linecap:round;stroke-linejoin:round;stroke-miterlimit:10;stroke-dasharray:none;stroke-opacity:1"
         d="m 1106.43,3711.07 c 0,0 35.43,-134.18 183.25,-166.19" /><path
         id="path330"
         style="fill:none;stroke:#14425e;stroke-width:10;stroke-linecap:round;stroke-linejoin:round;stroke-miterlimit:10;stroke-dasharray:none;stroke-opacity:1"
         d="m 1088.6,3778.64 22.11,-15.15" /><path
         id="path332"
         style="fill:none;stroke:#14425e;stroke-width:10;stroke-linecap:round;stroke-linejoin:round;stroke-miterlimit:10;stroke-dasharray:none;stroke-opacity:1"
         d="m 970.461,3638.75 c 0,0 15.367,-12.32 24.598,-15.89" /><path
         id="path334"
         style="fill:none;stroke:#14425e;stroke-width:10;stroke-linecap:round;stroke-linejoin:round;stroke-miterlimit:10;stroke-dasharray:none;stroke-opacity:1"
         d="m 1337.74,3778.64 c 0,0 66.55,-42.21 90.83,-92.21" /><path
         id="path336"
         style="fill:none;stroke:#14425e;stroke-width:10;stroke-linecap:round;stroke-linejoin:round;stroke-miterlimit:10;stroke-dasharray:none;stroke-opacity:1"
         d="m 1320.62,3678.57 c 0,0 12.18,-7.86 14.71,-22.14" /><path
         id="path338"
         style="fill:none;stroke:#14425e;stroke-width:10;stroke-linecap:round;stroke-linejoin:round;stroke-miterlimit:10;stroke-dasharray:none;stroke-opacity:1"
         d="m 1300.46,3750.71 16.68,-12.85" /><path
         id="path340"
         style="fill:none;stroke:#14425e;stroke-width:10;stroke-linecap:round;stroke-linejoin:round;stroke-miterlimit:10;stroke-dasharray:none;stroke-opacity:1"
         d="m 1391.25,3457.86 c 0,0 8.04,-65.2 26.61,-96.53" /><path
         id="path342"
         style="fill:none;stroke:#14425e;stroke-width:10;stroke-linecap:round;stroke-linejoin:round;stroke-miterlimit:10;stroke-dasharray:none;stroke-opacity:1"
         d="m 1308.13,3361.33 16.16,14.38" /><path
         id="path344"
         style="fill:none;stroke:#14425e;stroke-width:10;stroke-linecap:round;stroke-linejoin:round;stroke-miterlimit:10;stroke-dasharray:none;stroke-opacity:1"
         d="m 1374.29,3425 v -19.79" /><path
         id="path346"
         style="fill:none;stroke:#14425e;stroke-width:10;stroke-linecap:round;stroke-linejoin:round;stroke-miterlimit:10;stroke-dasharray:none;stroke-opacity:1"
         d="m 1460,3254.16 c 0,0 26.09,-22.89 28.76,-60.31" /><path
         id="path348"
         style="fill:none;stroke:#14425e;stroke-width:10;stroke-linecap:round;stroke-linejoin:round;stroke-miterlimit:10;stroke-dasharray:none;stroke-opacity:1"
         d="m 1426.43,3184.3 c 0,0 2.86,-11.44 0,-21.44" /><path
         id="path350"
         style="fill:none;stroke:#14425e;stroke-width:10;stroke-linecap:round;stroke-linejoin:round;stroke-miterlimit:10;stroke-dasharray:none;stroke-opacity:1"
         d="m 1331.69,3273.26 c 0,0 1.88,-28.82 12.6,-49.26" /><path
         id="path352"
         style="fill:none;stroke:#14425e;stroke-width:10;stroke-linecap:round;stroke-linejoin:round;stroke-miterlimit:10;stroke-dasharray:none;stroke-opacity:1"
         d="m 1400.71,3315.13 c 0,0 13.58,-12.08 17.15,-19.68" /><path
         id="path354"
         style="fill:none;stroke:#14425e;stroke-width:10;stroke-linecap:round;stroke-linejoin:round;stroke-miterlimit:10;stroke-dasharray:none;stroke-opacity:1"
         d="m 1170.87,3727.14 c 0,0 5.2,-25.71 18.06,-34.28" /><path
         id="path356"
         style="fill:none;stroke:#14425e;stroke-width:10;stroke-linecap:round;stroke-linejoin:round;stroke-miterlimit:10;stroke-dasharray:none;stroke-opacity:1"
         d="m 1255.36,3615.71 c 0,0 10.71,-11.82 20.35,-16.62" /><path
         id="path358"
         style="fill:none;stroke:#d45b59;stroke-width:10;stroke-linecap:round;stroke-linejoin:round;stroke-miterlimit:10;stroke-dasharray:none;stroke-opacity:1"
         d="m 947.496,2525.71 c 0,0 228.324,-1.42 286.124,0 57.81,1.43 189.24,-2.43 189.24,-2.43" /><path
         id="path360"
         style="fill:#f5811f;fill-opacity:1;fill-rule:nonzero;stroke:none"
         d="m 1634.37,3492.59 c -8.28,-35.29 -43.54,-57.16 -79.39,-48.75 -35.3,8.28 -57.16,43.55 -48.89,78.84 8.41,35.86 43.68,57.73 78.97,49.45 35.85,-8.41 57.72,-43.68 49.31,-79.54 z m -102.48,329.14 c -23.36,18.91 -24.02,54.76 -0.77,73.82 27.51,22.54 72.04,42.28 137.86,26.85 84.03,-19.71 146.22,-92.21 127.69,-171.19 -12.87,-54.9 -61.65,-78.92 -120.81,-89.27 -21.02,-3.94 -25.25,-19.49 -29.59,-37.98 v 0 c -4.07,-17.32 -21.41,-28.08 -38.73,-24.01 l -29.69,6.96 c -17.32,4.06 -28.07,21.4 -24.01,38.73 l 6.96,29.69 c 5.78,24.65 11.63,44.55 40.65,54.88 39.3,13.83 71.62,8.02 80.94,47.79 6.31,26.9 -9.39,50.67 -34.6,56.58 -22.84,5.36 -41.57,-1.63 -55.66,-12.81 -17.71,-14.05 -42.66,-14.26 -60.24,-0.04 v 0" /><path
         id="path362"
         style="fill:#185885;fill-opacity:1;fill-rule:nonzero;stroke:none"
         d="m 5714.88,3718.52 c 0,0 -36.3,-172.09 -15.12,-268.88 21.17,-96.79 90.74,-84.69 101.32,-81.67 10.59,3.03 19.63,31.36 19.63,31.36 0,0 13.48,-25.31 43.81,-23.8 30.32,1.52 62.08,21.01 62.08,21.01 0,0 95.37,-22.52 151.28,-10.42 55.91,12.1 63.87,36.3 63.87,36.3 0,0 33.08,-15.13 70.79,18.14 37.7,33.27 -15.27,167.44 -35.66,220.58 -20.41,53.15 -462,57.38 -462,57.38" /><path
         id="path364"
         style="fill:#f68a81;fill-opacity:1;fill-rule:nonzero;stroke:none"
         d="m 5899.38,903.469 12.1,-139.129 111.92,16.629 V 908 l -124.02,-4.531" /><path
         id="path366"
         style="fill:#f68a81;fill-opacity:1;fill-rule:nonzero;stroke:none"
         d="m 6354.59,908 31.76,-125.52 h 101.33 L 6475.58,908 h -120.99" /><path
         id="path368"
         style="fill:#185885;fill-opacity:1;fill-rule:nonzero;stroke:none"
         d="m 6023.4,797.609 c 0,0 89.22,-113.429 131.56,-139.129 42.34,-25.718 22.69,-49.921 6.06,-55.96 -16.64,-6.051 -64.65,-2.129 -155.78,0 -8.09,0.191 -69.64,6.191 -101.76,10.8 -10.6,1.512 -17.83,11.422 -16.13,21.981 l 22.98,142.281 96.82,17.148 16.25,2.879" /><path
         id="path370"
         style="fill:#185885;fill-opacity:1;fill-rule:nonzero;stroke:none"
         d="M 6378.79,812.359 6364.7,639.441 c -0.58,-7.062 4.61,-13.269 11.66,-13.949 38.84,-3.711 154.33,-14.66 169.17,-14.66 17.86,0 109.17,0 129.01,11.348 19.85,11.34 13.9,31.761 0,45.371 -13.89,13.597 -91.31,56.711 -91.31,56.711 l -98.85,92.367 -105.59,-4.27" /><path
         id="path372"
         style="fill:#fbc068;fill-opacity:1;fill-rule:nonzero;stroke:none"
         d="m 6216.12,3267.34 c 0,0 -74.37,81.08 -252.97,81.08 -136.09,0 -252.97,-96.33 -252.97,-96.33 l 97.55,-456.01 -47.04,-211.09 h 529.24 l -50.5,239.26 c 0,0 54.16,315.92 -23.31,443.09" /><path
         id="path374"
         style="fill:#f68a81;fill-opacity:1;fill-rule:nonzero;stroke:none"
         d="m 6144.13,3764.79 c 0,0 31.63,-172.03 32.73,-221.93 1.09,-49.91 -46.53,-100.99 -98.59,-128.38 -52.07,-27.38 -160.38,21.73 -184.47,56.92 -24.1,35.19 -71.02,222.22 -71.02,222.22 0,0 225.94,181.58 321.35,71.17" /><path
         id="path376"
         style="fill:#f68a81;fill-opacity:1;fill-rule:nonzero;stroke:none"
         d="m 6058.11,3428.07 c 0,0 1.7,-61.37 23.02,-111.38 l -163.73,25.12 -29.48,140.15 170.19,-53.89" /><path
         id="path378"
         style="fill:#f68a81;fill-opacity:1;fill-rule:nonzero;stroke:none"
         d="m 5875.57,3599.17 c 0,0 -37.06,47.84 -67.76,23.72 -30.69,-24.12 -1.36,-90.35 25.06,-109.82 26.43,-19.47 55.34,8.26 55.34,8.26 l -12.64,77.84" /><path
         id="path380"
         style="fill:#f46e66;fill-opacity:1;fill-rule:nonzero;stroke:none"
         d="m 6059.55,3408.19 c 0,0 -71.01,-1.17 -119.41,27.23 0,0 64.53,-78.36 127.82,-77.77 l -8.41,50.54" /><path
         id="path382"
         style="fill:#185885;fill-opacity:1;fill-rule:nonzero;stroke:none"
         d="m 6073.3,3784.61 c 0,0 8.66,-60.82 -76.71,-101.09 -63.64,-30.03 -79.81,-62.43 -79.81,-62.43 0,0 16.63,-61.06 -31.99,-78.68 0,0 -29.99,98.34 -68.78,85.22 -38.81,-13.12 -0.72,-127.63 59.58,-115.29 0,0 23.15,-33.17 23.14,-81.79 0,0 -138.77,66.71 -177.71,186.49 -38.95,119.78 39.55,171.98 39.55,171.98 0,0 19.22,65.53 117.4,102.79 98.19,37.26 209.12,14.66 262.84,-28.32 53.73,-42.99 39.95,-99.11 39.95,-99.11 0,0 39.59,-30.23 34.99,-75.43 -4.59,-45.2 -48.29,-63.5 -48.29,-63.5 0,0 -30.48,118.99 -55.69,148.31 -25.21,29.32 -38.47,10.85 -38.47,10.85" /><path
         id="path384"
         style="fill:none;stroke:#d45b59;stroke-width:10;stroke-linecap:round;stroke-linejoin:round;stroke-miterlimit:10;stroke-dasharray:none;stroke-opacity:1"
         d="m 6077.88,3641.84 c 0,0 3.19,-35.42 20.97,-54.39 17.76,-18.97 -9.96,-34.34 -9.96,-34.34" /><path
         id="path386"
         style="fill:none;stroke:#185885;stroke-width:10;stroke-linecap:round;stroke-linejoin:round;stroke-miterlimit:10;stroke-dasharray:none;stroke-opacity:1"
         d="m 6141.75,3695.8 c 0,0 -24.75,20.61 -44.57,-1.66" /><path
         id="path388"
         style="fill:none;stroke:#185885;stroke-width:10;stroke-linecap:round;stroke-linejoin:round;stroke-miterlimit:10;stroke-dasharray:none;stroke-opacity:1"
         d="m 6020.7,3673.05 c 0,0 -19.18,-15.64 -48.22,-23.81" /><path
         id="path390"
         style="fill:none;stroke:#d45b59;stroke-width:10;stroke-linecap:round;stroke-linejoin:round;stroke-miterlimit:10;stroke-dasharray:none;stroke-opacity:1"
         d="m 5820.71,3596.75 c 0,0 31.43,-8.03 43.81,-49" /><path
         id="path392"
         style="fill:none;stroke:#d45b59;stroke-width:10;stroke-linecap:round;stroke-linejoin:round;stroke-miterlimit:10;stroke-dasharray:none;stroke-opacity:1"
         d="m 5842.96,3551.68 c 0,0 -4.89,9.92 5.29,23.35" /><path
         id="path394"
         style="fill:#185885;fill-opacity:1;fill-rule:nonzero;stroke:none"
         d="m 6000.93,3609.01 c 2.25,-9.54 8.46,-16.25 13.87,-14.97 5.42,1.28 7.98,10.05 5.74,19.6 -2.26,9.54 -8.47,16.25 -13.88,14.97 -5.42,-1.28 -7.98,-10.05 -5.73,-19.6" /><path
         id="path396"
         style="fill:#185885;fill-opacity:1;fill-rule:nonzero;stroke:none"
         d="m 6111.62,3635.12 c 2.26,-9.55 8.47,-16.25 13.89,-14.98 5.41,1.28 7.98,10.06 5.72,19.6 -2.25,9.55 -8.47,16.25 -13.88,14.97 -5.41,-1.27 -7.97,-10.05 -5.73,-19.59" /><path
         id="path398"
         style="fill:none;stroke:#d45b59;stroke-width:10;stroke-linecap:round;stroke-linejoin:round;stroke-miterlimit:10;stroke-dasharray:none;stroke-opacity:1"
         d="m 6099.6,3509.93 c 0,0 -19.87,4.49 -42.05,-15.29" /><path
         id="path400"
         style="fill:#f68a81;fill-opacity:1;fill-rule:nonzero;stroke:none"
         d="m 6559.67,3324.33 c -23.36,74.87 -171.63,354.11 -171.63,354.11 0,0 -14.27,38.06 -50.63,81.43 0,0 -41.31,36.84 -58.48,41.63 -9.45,7.3 -23.16,16.91 -33.93,20.22 -18.2,5.61 -61.61,-13.11 -65.26,-20.64 -3.66,-7.53 6.77,-10.29 23.96,-5.74 17.2,4.55 23.02,6.24 23.02,6.24 l 13.2,-16.38 c -13.77,-9.58 -25.91,-20.46 -27.07,-24.67 -2.32,-8.39 9.06,-20.94 9.06,-20.94 0,0 6.93,-26.34 16.62,-29.23 9.69,-2.89 9.69,-2.89 9.69,-2.89 0,0 21.15,-37.62 46.83,-40 0,0 11.67,-39.84 38.28,-46.43 5.79,-49.39 28.38,-233.66 49.82,-298.98 l -93.22,-19.12 c 5.45,-37.25 49,-180 49,-180 42.98,6.18 253.66,95.88 220.74,201.39" /><path
         id="path402"
         style="fill:#185885;fill-opacity:1;fill-rule:nonzero;stroke:none"
         d="m 6446.68,1502.34 c 0,0 -27.82,767.91 -156.75,1082.65 h -529.24 c 0,0 -54.27,-148.05 -42.48,-456.55 9.49,-247.95 71.23,-522.12 95.13,-620.27 -2.59,-96.9 -2.03,-367.8 70.92,-611.119 h 154.26 l -9.08,573.539 44.39,716.7 134.95,-642.16 -0.62,0.1 c 0,0 20.91,-395.01 143.4,-648.179 h 136.12 l -41,605.289" /><path
         id="path404"
         style="fill:none;stroke:#d45b59;stroke-width:10;stroke-linecap:round;stroke-linejoin:round;stroke-miterlimit:10;stroke-dasharray:none;stroke-opacity:1"
         d="m 6365.08,3624.66 c 0,0 -15.03,-13.23 -31.75,-3.63" /><path
         id="path406"
         style="fill:none;stroke:#14425e;stroke-width:10;stroke-linecap:round;stroke-linejoin:round;stroke-miterlimit:10;stroke-dasharray:none;stroke-opacity:1"
         d="m 5813.34,2569.47 c 0,0 -63.67,-257.09 -42.5,-508.13 21.17,-251.05 74.1,-496.04 74.1,-496.04" /><path
         id="path408"
         style="fill:none;stroke:#d45b59;stroke-width:10;stroke-linecap:round;stroke-linejoin:round;stroke-miterlimit:10;stroke-dasharray:none;stroke-opacity:1"
         d="m 6295.05,3667.47 c 0,0 8.01,5.24 3.04,16.1 l -10.62,16" /><path
         id="path410"
         style="fill:none;stroke:#d45b59;stroke-width:10;stroke-linecap:round;stroke-linejoin:round;stroke-miterlimit:10;stroke-dasharray:none;stroke-opacity:1"
         d="m 6275.21,3729.56 c 0,0 -24.69,-10.46 -26.99,-22.09" /><path
         id="path412"
         style="fill:none;stroke:#d45b59;stroke-width:10;stroke-linecap:round;stroke-linejoin:round;stroke-miterlimit:10;stroke-dasharray:none;stroke-opacity:1"
         d="m 6256.95,3757.99 c 0,0 -23.52,-2.59 -35.04,-18.4" /><path
         id="path414"
         style="fill:#fbc068;fill-opacity:1;fill-rule:nonzero;stroke:none"
         d="m 6121.43,3322.86 181.08,-6.17 46.69,-193.75 c 0,0 -73.99,-43.26 -136.66,-41.75 -93.36,2.25 -91.11,241.67 -91.11,241.67" /><path
         id="path416"
         style="fill:#f68a81;fill-opacity:1;fill-rule:nonzero;stroke:none"
         d="m 5927.8,2517.35 c 0,0 13.13,-4.78 24.46,-7.76 11.33,-2.98 24.46,-3.57 19.09,8.95 -5.37,12.53 -35.79,28.06 -66.82,23.27 -30.99,-4.79 -41.16,-7.6 -41.17,-7.6 l -55.3,-6.03 -165.4,232.56 57.72,151.42 -148.4,106.04 c 0,0 -54.88,-121.45 -85.9,-245.53 -31.02,-124.09 270.43,-318.16 270.43,-318.16 0,0 20.68,-22.26 57.27,-30.22 27.37,-5.95 60.08,-3 74.82,-1.14 0.19,0.03 0.36,-0.03 0.56,-0.01 l 2.72,0.45 c 2.94,0.41 4.61,0.7 4.61,0.7 v 0.07 l 36.06,5.94 c 0,0 13.12,-4.77 24.45,-7.75 11.34,-2.99 24.46,-3.59 19.09,8.94 -4.66,10.89 -28.28,24.03 -54.75,24.13 l 18.77,3.09 c 0,0 13.12,-4.76 24.45,-7.75 11.34,-2.98 24.46,-3.58 19.09,8.95 -5.27,12.31 -34.74,27.4 -65.2,23.39 l 26.96,4.44 c 0,0 13.13,-4.76 24.46,-7.75 11.33,-2.98 24.46,-3.57 19.09,8.95 -5.37,12.53 -35.8,28.06 -66.81,23.27 -11.09,-1.72 -19.41,-3.16 -25.66,-4.33 v 1 l 51.31,8.47" /><path
         id="path418"
         style="fill:#fbc068;fill-opacity:1;fill-rule:nonzero;stroke:none"
         d="m 5710.18,3252.09 c 0,0 -121.96,-90.37 -169.59,-242.36 l 177.62,-113.42 c 0,0 77.52,110.78 102.5,193.2 24.98,82.42 -57.77,181.49 -110.53,162.58" /><path
         id="path420"
         style="fill:#f68a81;fill-opacity:1;fill-rule:nonzero;stroke:none"
         d="m 5810.77,3312.47 c 0,0 65.32,-41.28 173.76,-38.26 108.43,3.03 136.9,48.65 136.9,48.65 l -48.96,18.07 -158.09,15.27 -103.61,-43.73" /><path
         id="path422"
         style="fill:none;stroke:#d45b59;stroke-width:10;stroke-linecap:round;stroke-linejoin:round;stroke-miterlimit:10;stroke-dasharray:none;stroke-opacity:1"
         d="m 5770.49,2979.98 c 0,0 34.85,74.98 40.28,156.63" /><path
         id="path424"
         style="fill:none;stroke:#d45b59;stroke-width:10;stroke-linecap:round;stroke-linejoin:round;stroke-miterlimit:10;stroke-dasharray:none;stroke-opacity:1"
         d="m 6212.54,3244.3 c 0,0 53.09,-113.01 49.18,-156.86" /><path
         id="path426"
         style="fill:none;stroke:#d45b59;stroke-width:10;stroke-linecap:round;stroke-linejoin:round;stroke-miterlimit:10;stroke-dasharray:none;stroke-opacity:1"
         d="m 6197.3,2841.69 -119.42,-27.22" /><path
         id="path428"
         style="fill:none;stroke:#d45b59;stroke-width:10;stroke-linecap:round;stroke-linejoin:round;stroke-miterlimit:10;stroke-dasharray:none;stroke-opacity:1"
         d="m 5841.45,2796.32 23.07,-13.19 -23.07,-10.81" /><path
         id="path430"
         style="fill:none;stroke:#d45b59;stroke-width:10;stroke-linecap:round;stroke-linejoin:round;stroke-miterlimit:10;stroke-dasharray:none;stroke-opacity:1"
         d="m 5825.3,3274.05 c 0,0 124.16,-42.45 210.95,-19.62 86.79,22.84 105.5,51.65 105.5,51.65" /><path
         id="path432"
         style="fill:none;stroke:#d45b59;stroke-width:10;stroke-linecap:round;stroke-linejoin:round;stroke-miterlimit:10;stroke-dasharray:none;stroke-opacity:1"
         d="m 5642.66,2760.74 c 0,0 -35.15,-25.67 -78.26,-27.94" /><path
         id="path434"
         style="fill:none;stroke:#d45b59;stroke-width:10;stroke-linecap:round;stroke-linejoin:round;stroke-miterlimit:10;stroke-dasharray:none;stroke-opacity:1"
         d="m 6383.15,3322.06 c 0,0 27.4,-13.08 88.65,-28.95" /><path
         id="path436"
         style="fill:none;stroke:#14425e;stroke-width:10;stroke-linecap:round;stroke-linejoin:round;stroke-miterlimit:10;stroke-dasharray:none;stroke-opacity:1"
         d="m 5929.63,1503.3 c 0,0 39.33,-25.71 87.71,0" /><path
         id="path438"
         style="fill:none;stroke:#14425e;stroke-width:10;stroke-linecap:round;stroke-linejoin:round;stroke-miterlimit:10;stroke-dasharray:none;stroke-opacity:1"
         d="m 6427.18,1518.42 c 0,0 -57.46,-7.56 -86.2,18.15" /><path
         id="path440"
         style="fill:none;stroke:#14425e;stroke-width:10;stroke-linecap:round;stroke-linejoin:round;stroke-miterlimit:10;stroke-dasharray:none;stroke-opacity:1"
         d="m 6208.78,1545.13 50.54,-18.16" /><path
         id="path442"
         style="fill:none;stroke:#14425e;stroke-width:10;stroke-linecap:round;stroke-linejoin:round;stroke-miterlimit:10;stroke-dasharray:none;stroke-opacity:1"
         d="m 5813.34,1508.17 31.6,-29.07" /><path
         id="path444"
         style="fill:none;stroke:#14425e;stroke-width:10;stroke-linecap:round;stroke-linejoin:round;stroke-miterlimit:10;stroke-dasharray:none;stroke-opacity:1"
         d="m 6073.83,2187.29 c 0,0 11.57,116.02 44.84,158.36 33.27,42.35 78.63,54.45 78.63,54.45" /><path
         id="path446"
         style="fill:none;stroke:#14425e;stroke-width:10;stroke-linecap:round;stroke-linejoin:round;stroke-miterlimit:10;stroke-dasharray:none;stroke-opacity:1"
         d="m 5889.29,647.262 c 0,0 62.27,-8.25 148.47,-13.543 86.2,-5.289 130.06,0 130.06,0" /><path
         id="path448"
         style="fill:none;stroke:#14425e;stroke-width:10;stroke-linecap:round;stroke-linejoin:round;stroke-miterlimit:10;stroke-dasharray:none;stroke-opacity:1"
         d="m 6369.72,651.109 c 0,0 147.44,-13.007 203.4,-11.8 55.95,1.222 99.81,11.8 99.81,11.8" /><path
         id="path450"
         style="fill:none;stroke:#14425e;stroke-width:10;stroke-linecap:round;stroke-linejoin:round;stroke-miterlimit:10;stroke-dasharray:none;stroke-opacity:1"
         d="m 5929.63,897.051 c 0,0 -107.37,377.889 -84.69,535.169" /><path
         id="path452"
         style="fill:none;stroke:#14425e;stroke-width:10;stroke-linecap:round;stroke-linejoin:round;stroke-miterlimit:10;stroke-dasharray:none;stroke-opacity:1"
         d="m 6102.1,2293.69 c 0,0 129.36,-661.84 131.94,-728.39" /><path
         id="path454"
         style="fill:none;stroke:#14425e;stroke-width:10;stroke-linecap:round;stroke-linejoin:round;stroke-miterlimit:10;stroke-dasharray:none;stroke-opacity:1"
         d="m 6259.32,1491.88 c 0,0 15.11,-419.21 124.76,-594.829" /><path
         id="path456"
         style="fill:none;stroke:#14425e;stroke-width:10;stroke-linecap:round;stroke-linejoin:round;stroke-miterlimit:10;stroke-dasharray:none;stroke-opacity:1"
         d="m 5760.57,3789.02 c 0,0 43.54,3.64 75.3,0" /><path
         id="path458"
         style="fill:none;stroke:#14425e;stroke-width:10;stroke-linecap:round;stroke-linejoin:round;stroke-miterlimit:10;stroke-dasharray:none;stroke-opacity:1"
         d="m 6067.25,3807.3 c 0,0 19.66,-45.23 -16.63,-88.78 -36.3,-43.55 -113.43,-40.15 -133.84,-97.43 0,0 12.39,-73.61 -31.99,-78.68" /><path
         id="path460"
         style="fill:none;stroke:#14425e;stroke-width:10;stroke-linecap:round;stroke-linejoin:round;stroke-miterlimit:10;stroke-dasharray:none;stroke-opacity:1"
         d="m 5897.87,3637.43 c 0,0 0.76,35.28 10.59,52.66" /><path
         id="path462"
         style="fill:none;stroke:#14425e;stroke-width:10;stroke-linecap:round;stroke-linejoin:round;stroke-miterlimit:10;stroke-dasharray:none;stroke-opacity:1"
         d="m 6157.24,3774.79 23.52,-10.41" /><path
         id="path464"
         style="fill:none;stroke:#14425e;stroke-width:10;stroke-linecap:round;stroke-linejoin:round;stroke-miterlimit:10;stroke-dasharray:none;stroke-opacity:1"
         d="m 5732.99,3587.63 c 0,0 -3.83,-35.15 0,-60.87" /><path
         id="path466"
         style="fill:none;stroke:#14425e;stroke-width:10;stroke-linecap:round;stroke-linejoin:round;stroke-miterlimit:10;stroke-dasharray:none;stroke-opacity:1"
         d="m 5774.62,3472.85 c 0,0 -2.27,-27.44 0,-37.43" /><path
         id="path468"
         style="fill:none;stroke:#14425e;stroke-width:10;stroke-linecap:round;stroke-linejoin:round;stroke-miterlimit:10;stroke-dasharray:none;stroke-opacity:1"
         d="m 5848.25,3461.11 v -22.06" /><path
         id="path470"
         style="fill:none;stroke:#14425e;stroke-width:10;stroke-linecap:round;stroke-linejoin:round;stroke-miterlimit:10;stroke-dasharray:none;stroke-opacity:1"
         d="m 6077.88,3871.57 c 0,0 35.5,-11.34 51.38,-29.49" /><path
         id="path472"
         style="fill:none;stroke:#14425e;stroke-width:10;stroke-linecap:round;stroke-linejoin:round;stroke-miterlimit:10;stroke-dasharray:none;stroke-opacity:1"
         d="m 6176.88,3484.42 2.12,-23.31" /><path
         id="path474"
         style="fill:none;stroke:#14425e;stroke-width:10;stroke-linecap:round;stroke-linejoin:round;stroke-miterlimit:10;stroke-dasharray:none;stroke-opacity:1"
         d="m 5774.62,3729.56 c 0,0 -9.07,-25.1 -5.29,-46.27" /><path
         id="path476"
         style="fill:none;stroke:#14425e;stroke-width:10;stroke-linecap:round;stroke-linejoin:round;stroke-miterlimit:10;stroke-dasharray:none;stroke-opacity:1"
         d="m 5972.48,3814.1 c 0,0 -0.76,-18.14 -9.33,-31" /><path
         id="path478"
         style="fill:none;stroke:#14425e;stroke-width:10;stroke-linecap:round;stroke-linejoin:round;stroke-miterlimit:10;stroke-dasharray:none;stroke-opacity:1"
         d="m 5829.06,3838.3 c 0,0 26.05,24.95 59.15,33.27" /><path
         id="path480"
         style="fill:#f5811f;fill-opacity:1;fill-rule:nonzero;stroke:none"
         d="m 6664.53,4363.83 h -401.51 c -46.4,0 -84.02,-37.62 -84.02,-84.02 v -308.35 c 0,-46.4 37.62,-84.01 84.02,-84.01 h 132.29 l -13.55,-58.35 c -3.87,-16.65 14.53,-29.51 28.84,-20.15 l 120.01,78.5 h 133.92 c 46.4,0 84.01,37.61 84.01,84.01 v 308.35 c 0,46.4 -37.61,84.02 -84.01,84.02" /><path
         id="path482"
         style="fill:#ffffff;fill-opacity:1;fill-rule:nonzero;stroke:none"
         d="m 6505.86,3991.69 c -0.27,-27.73 -22.95,-49.98 -51.13,-49.7 -27.75,0.27 -49.98,22.94 -49.71,50.68 0.26,28.19 22.95,50.43 50.68,50.16 28.19,-0.27 50.43,-22.95 50.16,-51.14 z m -131.67,228.65 c -20.63,10.2 -27.12,36.87 -12.95,54.99 16.77,21.45 46.72,43.65 98.46,43.15 66.05,-0.64 124.65,-44.37 124.04,-106.46 -0.41,-43.15 -32.82,-69.26 -75.26,-86.9 -15.04,-6.47 -15.6,-18.79 -15.75,-33.32 v 0 c -0.12,-13.62 -11.27,-24.56 -24.9,-24.42 l -23.34,0.22 c -13.61,0.13 -24.55,11.28 -24.41,24.9 l 0.22,23.34 c 0.19,19.37 1.22,35.22 21.16,47.8 27.04,16.91 52.14,17.99 52.45,49.25 0.2,21.14 -15.5,36.27 -35.32,36.46 -17.96,0.17 -30.78,-8.18 -39.43,-18.9 -10.87,-13.45 -29.46,-17.79 -44.97,-10.11 v 0" /></g></g></svg>